<?xml version="1.0" encoding="UTF-8"?>
<svg id="Layer_1" data-name="Layer 1" xmlns="http://www.w3.org/2000/svg" xmlns:xlink="http://www.w3.org/1999/xlink" viewBox="0 0 475.77 614.09">
  <defs>
    <style>
      .cls-1 {
        fill: none;
      }

      .cls-2 {
        fill: #c90e0e;
      }

      .cls-3 {
        fill: url(#New_Pattern_Swatch_4);
      }
    </style>
    <pattern id="New_Pattern_Swatch_4" data-name="New Pattern Swatch 4" x="0" y="0" width="659" height="659" patternTransform="translate(3058.29 6265.17)" patternUnits="userSpaceOnUse" viewBox="0 0 659 659">
      <g>
        <rect class="cls-1" width="659" height="659"/>
        <rect class="cls-2" width="659" height="659"/>
      </g>
    </pattern>
  </defs>
  <path class="cls-3" d="m297.76,175.65c.99-1.88,2.98-2.32,4.63-3.34,3.09-1.9,3.87-4.25,3.37-8.45-.39-3.42-3.37-8.35,1.23-11.66.34-.23,1.07-.57,1.05-.63-3.87-8.87,4.68-18.57-1.91-27.41-1.07-1.43-1.52-3.73-3.24-4.56-9.36-4.49-6.96-14.89-11.27-21.94-1.57-2.58,1.34-3.94,2.98-2.84,4.76,3.18,11.4,3.1,14.86,8.53.58.89,1.47,2.06,2.33,2.17,9.73,1.2,13.86,9.44,18.44,15.96,3.66,5.19,9.86,6.73,13,12.18,3.4,5.87,7.79,11.16,11.74,16.72.63.86.97,2.14,1.78,2.61,7.67,4.36,5.68,11.79,6.15,18.49.39,5.4,2.17,10.82-1.44,15.96-.65.94.99,2.27,2.07,3,1.36.91,2.59,2.11,2.12,3.7-2.07,7.15-.55,14.92-3.87,21.81-.24.5-.86,1.04-1.39,1.12-.47.08-1.44-.47-1.47-.76-.23-4.96-3.53-10.07-1.26-14.69,3.5-7.12-.37-12.26-3.61-17.4-2.67-4.25-3.84-8.24-3.5-13.25.73-10.64,1.28-21.68-9.36-28.46-5.96-3.78-9.34-11.48-17.73-11.58-2.04-.03-1.49-2.19-2.12-3.47-1.65-3.39-4-4.9-7.58-1.98-2.51,2.06-1.99,3.55.53,4.88,5.1,2.69,8.47,10.43,6.93,15.91-.32,1.1-.76,1.9-1.8,2.5-7.4,4.25-7.45,6.94-5.07,15.7,1.75,6.52,3.32,12.75,6.77,18.68,1.31,2.24,2.85,6.13-.89,8.79-.63.44-.94,2.17-.6,3.03,2.46,6.44-2.07,9.13-6.43,11.4-6.77,3.55-8.87,8.74-5.52,15.94-4,1.23-6.88-1.85-10.28-2.61-1.91,1.41-.89,3.13-.58,4.69.5,2.35-.55,3.86-1.8,5.82-1.54,2.37-5.46-1.3-4.92,1.77.76,4.12-.34,8.76,2.25,12.34,2.2,3.03.68,7.75,5.13,9.83,1.07.5.57,3.23-1.2,4.98-3.58,3.47-7.48,6.55-9.91,11.27-4.05,7.82-12.55,4.64-19.09,6.36-1.41.36-1.96-.97-1.39-2.09,1.96-3.89-2.12-7.2-.99-11.09.21-.7-1.26-2.35-2.3-2.84-1.6-.76-1.99,1.04-2.75,1.98-2.09,2.53-2.12,5.58-2.41,8.58-.1,1.25,0,2.82-1.73,3.08-1.54.24-2.22-.96-2.85-2.19-.6-1.15-1.41-2.19-1.99-3.34-1.05-2.03-2.69-2.66-4.86-2.37-1.26.16-2.12.81-1.96,2.06.26,1.88.18,4.04,1.96,5.29,2.28,1.64,7.19,1.28,6.25,5.24-.89,3.7-4.71,7.09-8.16,7.82-6.07,1.28-7.32,6.44-10.2,10.12-2.75,3.52-.13,7.77,4.55,7.9,4,.11,7.77,2.22,12.08.39,2.82-1.2,4.47,2.14,6.22,3.89,5.96,5.92,6.3,13.85.89,20.16-1.2,1.38-1.83,2.66-2.04,4.49-.24,2.17,1.39,5.87-3.87,4.8-1.7-.34-.44,2.82-1.18,4.9,3.71-.89,6.72-2.66,10.54-.42,3.48,2.06,8.08-2.74,6.75-8.17-2.25-9.08,3.92-16.3,4.42-24.86.29-4.7,7.32-8.82,13-10.36,2.72-.73,3.98-2.35,4.26-4.1.6-3.6-.81-7.69,3.95-9.73.97-.42.23-1.96-.6-2.79-1.36-1.38-2.17-.08-3.24.6-7.06,4.41-15.07,4.54-23.67,5.71,2.14-5.4,6.7-8.45,10.02-8.5,7.27-.16,11.72-4.07,16.63-8.11,1.41-1.17,3.48-4.02,5.39-1.44,1.33,1.8-1.54,3.18-2.67,4.64-1.1,1.44-3.58,2.35-2.17,4.78,1.02,1.75,2.85,1.9,4.6,1.3,3.27-1.12,3.84,1.59,4.44,3.39,1.07,3.18,3.4,4.75,6.22,4.54,2.33-.16,2.49-3.02,3.19-5.01,1.62-4.46,4.81-5.71,9.26-4.15,5.25,1.88,9.6,5.76,15.3,6.65,3.11.47,3.79,2.11,1.39,4.28-3.82,3.44-5.07,8.16-7.3,12.52-2.41,4.72-9.52,4.36-12.76,8.66-3.61,4.8-7.4,2.66-11.35.96-1.28-.55-2.62-1.33-1.36-2.77,1.8-2.03.83-3.23-.55-4.93-1.39-1.72-1.07-4.33,1.04-4.88,4.19-1.1,3.45-4.12,2.83-6.57-.44-1.83-3.22-2.08-4.47-1.12-2.27,1.77-4.58,5.06-3.43,7.41,3.01,6.11-1.1,11.01-2.98,15.37-1.88,4.38-3.08,8.24-3.45,12.94-.47,5.95-3.53,11.27-6.36,16.51-.11.18-.37.29-.44.47-4.37,10.15-12.76,13.64-23.09,14.89-4,.5-7.53,5.74-11.77,3.63-3.82-1.9-7.69-2.74-11.25-1.85-8.58,2.14-15.19-.21-22.52-4.9-4.6-2.95-11.25-3.5-16.89-5.4-2.69-.91-4.21-1.75-3.95-4.8.44-4.93-.52-9.83.55-14.87.6-2.79-.16-6.1-1.07-9.26-1.54-5.32-1.62-11.01-1.2-16.61.1-1.41-1.12-3.23.94-3.86,1.94-.6,3.35.78,4.11,2.43,2.09,4.46,3.69,9.18,6.12,13.43,3.48,6.13,6.59,12.31,8.87,19.01,1.15,3.36,9.83,4.15,12.89,1.83,1.49-1.15,1.54-2.43.65-3.94-2.07-3.52-4.11-6.91-7.82-9.18-7.06-4.28-8.94-10.38-6.07-17.4.73-1.83,1.52-3.16,3.58-3.03,3.3.18,6.02-.36,7.27-3.96,1.44-4.15.47-7.64-2.62-10.54-1.18-1.09-3.74-1.51-2.07-3.7,1.23-1.62,3.03-.52,4.73.13,5.62,2.16,8.34.65,9.6-5.14.26-1.2,1.05-1.8,2.01-2.35,1.65-.94,3.22-2.29,1.52-4.02-1.41-1.44-4-1.67-5,.52-2.54,5.58-5.6,5.01-9.49,1.54-3.09-2.74-5.68.47-7.35,1.77-2.64,2.06-3.95,1.51-6.04-.26-4.89-4.15-12.97-4.82-13.52-13.43-2.96.99-2.41,3.1-1.91,4.33,1.23,3.11-.24,4.36-2.77,3.86-2.59-.5-2.98.86-3.61,2.53-.76,2.01.76,2.04,1.99,2.35,2.09.52,2.35,3.02,1.26,3.29-6.12,1.46-1.52,8.22-5.54,10.41-1.02.55-1.52-1.12-1.88-1.09-7.51.6-4.89-3.5-4.45-7.8.39-3.81,1.78-9.81-5.94-9.78-2.09,0-3.58-2.4-4.42-4.35-.55-1.28-.99-3.05.31-4.28,1.62-1.51,2.64,0,3.84.89,1.1.83,2.43.76,4.29-.13-3.82-3.1-6.04-6.73-5.28-11.79.42-2.76-2.2-3.05-4.13-2.58-9.78,2.37-15.77-4.85-22.91-8.97-2.14-1.25-3.5-2.84-6.54-2.84-6.64,0-13.29-6.7-13.86-13.41-.26-3.18-3.95-4.04-4.11-7.12-.21-4.3-4.03-8.09-1.15-12.99,1.67-2.84-2.77-4.43-3.16-7.36-.71-5.32,2.04-9.78,3.16-14.63.58-2.5,2.75-5.5-1.96-6.47-.31-.05-.84-.78-.76-.94,2.51-5.4-2.56-11.35.1-15.99,4.11-7.12,5.07-16.04,12.11-21.54.78-.6,1.6-1.85,1.54-2.74-.5-8.58,5.13-10.41,13.36-10.72-6.67-4.15-2.8-7.17.1-8.87,7.56-4.38,13.15-11.03,21.16-15.34,7.98-4.33,14.38-6.16,22.7-4.25,2.46.57,8.53-6.47,8.08-9-.26-1.41-1.54-2.87-2.59-2.43-5.62,2.4-10.72-2.43-16.37-.83-2.8.78-6.02.89-8.89-.68-6.83-3.76-13.42.6-20.11.73-1.78.03-2.96,1.93-3.43,3.6-.63,2.3,1.83,1.9,2.88,2.76,3.01,2.5,5.1,5.32-.44,6.6-2.93.68-2.72,7.46-6.54,3.7-2.56-2.53-6.09-6.26-3.09-11.03.18-.29.18-.81.05-1.15-.84-2.06-4.16-3.39-2.35-6.16,2.41-3.7,2.62,2.56,4.89,1.28,1.94-1.1,4.05-2.06,4.71-4.23.73-2.37-1.23-3.83-3.11-4.2-14.31-2.79-15.38-15.18-16.69-25.51-.81-6.42,1.54-14.74,7.09-19.69,2.69-2.4,7.58-4.46,12.06-2.22,1.86.94,3.82.7,5.62,1.2,2.22.6,4.73,2.17,4.58,4.7-.13,2.16-2.75,2.37-4.73,2.58-2.35.23-5.15-.23-6.98.89-2.51,1.54-6.02,3.57-5.13,7.25,1.12,4.75,7.32,8.53,11.12,6.7,5.99-2.9,12.71-3.13,18.78-6.39,3.37-1.83,9.81-.08,13.78,2.09,2.67,1.46,1.39,6.18-.44,9.47-1.62,2.95,2.3,4.25,2.09,7.8,3.79-4.75,6.54-7.43,11.17-1.57,2.62,3.31,21.73-.65,24.79-4.1.73-.83,2.54-1.51,1.2-3.08-.86-1.02-1.99-.42-2.96.08-5.13,2.69-9.62-1.96-14.67-1.28-1.41.18-3.53-1.62-2.51-3.65,1.02-2.01,3.27-2.95,5.49-1.93,4.99,2.27,10.07,2.14,15.19.86,3.45-.86,6.43-3.6,6.56-6.52.21-5.14,3.06-5.01,6.43-4.77,2.41.18,3.98-.37,5.31-2.69,1.33-2.35,2.43-6.99,4.89-6.21,5.31,1.67,11.56-.73,16.08,3.68,1.83,1.77,3.19,4.3,6.43,2.09.99-.68,2.2.37,2.22,1.57.03,1.38-1.02,2.76-2.17,2.92-5.44.7-10.72,4.1-16.4,1.54-2.17-.99-4.34-.89-4.81,1.3-.5,2.27.71,4.51,3.48,5.29,4.6,1.28,9.21,2.69,13.81,3.96,1.54.42,3.24.78,2.48,2.87-.5,1.36-1.46,2.84-3.43,2.01-3.79-1.62-5,1.43-5.31,3.7-.47,3.47,2.96,2.92,5.1,3.47,5.15,1.33,10.22-.68,15.43-.42,5.57.29,11.61,2.03,16.5-2.69.5-.5,1.96-.78,2.43-.42,6.07,4.43,10.67.81,14.49-3.16,2.98-3.08,9.31-3.21,8.79-9.57-.08-.96,1.75-1.62,2.7-1.23,5.52,2.32,11.61-.52,17.02,1.93,4.6,2.09,6.93-1.28,9.18-3.94,2.56-3.05.18-4.98-2.3-6.78-.89-.65-2.93-1.67-.55-3.44,3.09-2.3,5.78-5.35,10.17-3.44,5.86,2.53,6.88,12.99,4.4,19.8-2.56,7.02-9.55,11.79-8.97,20.71.26,3.86-3.16,9.86-9.78,9.83-1.99,0-3.43,1.25-4.18,2.58-1.02,1.77,1.18,2.4,2.2,3.34.92.83,2.43,1.38,1.7,3-.53,1.15-1.8.99-2.88,1.07h-.65c-7.14-1.28-10.2,2.63-11.33,8.95-.34,1.83-.99,3.55-3.14,3.5-2.17-.05-2.85-2.09-3.04-3.7-.44-3.81-2.14-6.21-6.09-6.21-.05-1.77.73-2.69,1.8-2.87,3.82-.65,2.69-3.39,2.3-5.56-.5-2.71-2.72-3.36-5.02-2.74-3.9,1.1-5.94.86-8.58-3.47-2.62-4.25-8.06-7.85-13-9.31-4.16-1.23-7.95,3.21-11.38,6.49,2.28,1.04,3.84.21,5.2-.89,4.6-3.73,7.01-.6,9.26,2.87,1.36,2.14,1.18,3.91-1.91,3.73-8.32-.52-16.32,1.77-25.13-.23-6.72-1.51-7.3-4.1-7.43-8.71-.08-3-1.39-3.42-3.9-3.76-4.52-.63-8.16,2.11-12.29,2.9-2.59.5-1.88,3.94-1.46,6.31.5,2.84,2.09,1.98,4.26,1.85,5.88-.34,11.09,1.28,15.72,5.74,3.19,3.08,8,4.62,12.32,6.26,1.62.63,3.64.63,4.29,2.32.97,2.56,4.13,4.62,3.06,7.41-1.33,3.52-4.94,1.77-7.53,1.67-3.09-.13-6.15,2.27-9.31.16-.29-.21-1.83.63-1.99,1.17-.47,1.88,1.1,2.71,2.48,3.23,4.29,1.64,8.45,3.52,11.32,7.25.94,1.23,3.09,2.24,1.78,4.36-.94,1.54-2.62,1.23-4.13,1.17-1.07,0-2.22-.1-3.24.21-2.59.78-6.59-1.9-7.66,2.56-1.02,4.23,3.82,3.99,5.57,6.21,1.1,1.41,3.48,1.72,4.89,2.97,1.8,1.59,3.53,4.17,2.35,6.26-1.54,2.71-3.11-1.1-4.84-.96-5.23.47-9.94-3.44-15.74-.55-4.92,2.45-6.2,5.48-4.32,9.65,4.29,9.52,3.43,20.68,10.02,29.45,1.65,2.19.52,5.01-.58,7.49-.63,1.41-1.2,3.05.63,3.94,1.7.83,2.98-.42,3.82-1.67,1.7-2.53,3.9-4.51,5.96-6.7,3.56-3.76,5.23-1.3,5.7,1.59.68,4.2,2.72,4.69,6.3,4.3,3.82-.42,6.07-1.72,5.83-5.97-.29-5.32,1.93-7.96,7.58-6.49.18,2.45-1.96,3.76-3.04,5.5-2.64,4.3-1.52,12.89-11.01,10.15-1.41-.42-3.61,1.12-5.18,2.17-3.45,2.3-2.54,6-1.2,8.56,1.28,2.45,4.45,1.72,6.01-.39,3.98-5.45,10.57-6.91,15.53-10.8,3.14-2.45,6.28-5.87,6.25-9.62,0-3.39-3.58-5.61-7.58-5.37l-.03-.03Zm-156.21,12.39l.18.08c-.13-3.18-5.54-2.11-4.84-6-1.99,1.8-4.52,2.76-6.07,5.32-3.66,6.05,1.46,14.87-6.33,19.51-.13.08,0,1.02.1,1.04,4.63.89,2.28,4.9,3.32,7.36,1.46,3.47,4.18,6.47,7.14,7.72,3.11,1.33,1.39-3.78,3.5-4.93,2.88-1.54,4.16-10.59,9.28-1.83.99,1.7,3.22,1.15,4.42-.44,1.1-1.43,2.43-1.49,4-1.59,6.41-.44,7.19-2.14,5.2-8.4-1.2-3.76-6.07-4.8-6.22-8.74-.18-3.96-2.82-4.25-5.49-4.67-.31-2.27,2.96-2.74,2.33-4.67-3.84-3.91-6.98,1.41-10.49.18l-.05.05Zm52.72-51.59c5.41-7.69,5.62-7.85,13.44-7.3,1.57.1,3.19.6,3.61-1.49.37-1.88-.24-3.42-2.38-3.94-2.38-.57-4.6-.6-6.98.44-1.88.83-3.92,1.57-6.09-.16-4-3.18-3.98-7.43.52-10.41,2.43-1.62,5.26-3.44,4.58-6.47-.78-3.47-4.45-1.2-6.69-1.98-1.2-.42-2.96-.13-3.71-.89-2.43-2.43-3.82-.52-4.18,1.25-1.78,8.48-6.67,14.53-13.76,19.15-.6.39-1.1,1.41-1.12,2.17-.24,5.56-.52,11.11-.47,16.67.03,4.77,3.87,8.01,8.32,7.49,2.64-.31,5.99-.52,6.04,3,.05,3.83,1.52,8.37-2.38,11.42-1.52,1.2-2.82-.18-4.03-1.1-2.38-1.85-4.76-3.89-7.85-4.1-1.99-.13-4.89-.96-5.88,1.15-.6,1.28.31,4.12,1.52,5.27,3.45,3.31,7.17,8.95,12.4,6.13,9.23-4.96,13.36-1.59,16.76,6.81.97,2.43,5.2,4.75,6.98.6,2.64-6.21,2.56-13.3,6.64-19.25,2.54-3.68,2.01-9.29,3.77-12.78,3.22-6.44-1.41-6.94-4.18-6.83-5.81.21-9.78-3.26-14.83-4.75l-.03-.1Zm17.44-47.97c2.51-2.87,5.52-3.86,9.08-3.76,3.4.1,5.26-2.76,3.79-5.14-2.01-3.23-3.58-7.33-7.82-8.84-1.8-.63-3.4-.94-4.6.86-1.23,1.8.26,2.4,1.36,3.55,2.56,2.66,3.61,5.53-.81,7.67-2.38,1.15-1.94,3.03-.97,5.66h-.03Zm-19.95-16.25c-4.5.29-7.51,3-9.68,6.96-.6,1.1-1.83,2.06-.65,3.34,1.02,1.1,2.43.91,3.56.26,2.72-1.62,5.81-2.56,8.26-4.75,1.12-1.02,4.52,1.1,4.11-2.27-.34-2.69-2.75-3.55-5.6-3.55Zm-7.95,119.33c-2.28-.39-4.55-.81-4.21-2.9.63-4.07-3.53-5.56-4.32-8.89-.31-1.38-2.07-3.21-4.05-2.3-2.14.99-1.23,3.21-.63,4.59,1.73,3.96,4.42,7.33,7.38,10.49,1.7,1.83,3.4,1.46,5.86-.99h-.03Zm-24.32,32.29c-2.54.31-3.37,2.09-3.14,4.1.37,3.1,1.02,6.83,4.71,7.25,3.32.37,4.73-3.26,4.63-5.71-.13-3.23-3.35-4.59-6.2-5.61v-.03Zm-8.42,9.47c-.18-2.37-1.73-3.36-3.82-3.57-2.12-.23-3.22,1.23-3.45,3.03-.37,2.66,2.04,3.16,3.74,3.52,1.94.42,2.88-1.33,3.53-2.97Zm135.39,26.37c-2.2-1.41-2.67-5.01-5.96-3.31-1.88.99-2.53,3.1-.91,4.83,2.77,2.97,4.29-.63,6.88-1.54v.03Z"/>
  <path class="cls-3" d="m110.14,366.8c2.9-2.97,3.77-6.26,4.58-9.63,1.05-4.23,1.2-8.84,6.98-10.48,2.33-.65,4.66-4.67.99-6.63-4.24-2.24-4.58-6.02-4.5-9.31.13-4.96-1.65-8.69-4.42-12.39-.99-1.36-1.49-3.1-2.12-4.69-.55-1.44.08-2.58,1.26-3.34,1.39-.89,3.22,0,3.37.86,1.12,5.63,6.62,5.4,11.22,8.21-5.15,1.31-10.41,2.35-3.98,7.88,1.05.91-.1,4.12.26,6.18.6,3.55,1.05,6.86,6.67,6.08,2.56-.36,3.58,3.84,3.16,6.78-.24,1.67-1.02,4.62,1.49,3.21,5.28-2.92,6.59,1.17,8.21,3.89,2.56,4.28,5.54,6.89,10.77,5.9,1.12-.21,2.25-.21,2.98.76,3.14,4.12,5.86,1.9,8.63-.68,1.86,9.5,9.13,11.76,17.08,12.99,5.02.76,8.97,3.84,13.23,6.03,5.05,2.58,3.48,8.32,3.82,12.78.13,1.77-2.62,2.29-4.29,1.67-4.11-1.56-9.18-2.27-9.86-7.98-.34-2.92-2.46-3.1-4.58-3.65-4.29-1.12-8.97-.91-12.82-3.78-.89-.68-2.88-1.17-3.35.47-2.28,8.09-5.99,16.01-2.72,24.8.81,2.17,1.67,2.14,3.24,1.43,5.23-2.32,9.6.68,9.18,6.44-.16,2.11-.47,4.28-1.18,6.23-.37,1.02-1.39,2.17-.03,2.58,5.34,1.7,4,8.74,8.92,10.69.76.31,1.52,1.15.58,2.03-3.3,3.08.13,4.41,1.65,6.1,1.52,1.7,2.14,3.05.16,4.96-1.44,1.35-5.52,1.83-3.98,4.04,1.54,2.19,2.62,5.76,5.7,6.34,5.57,1.04,9.15,3.81,10.44,9.39.42,1.77,1.73,3.34,3.3,3.81,4.55,1.38,5.81,4.85,6.25,8.89.21,1.85.76,3.21,2.38,4.3,1.41.94,2.98,2.27,1.62,4.28-.99,1.43-2.38,2.87-4.34,2.19-2.33-.81-4.76-1.23-5.1,1.7-.39,3.39,2.69,3.1,5.07,3.39,6.49.75,16.06,11.84,15.95,18.57-.03,1.62.05,3.08,1.2,4.2,4,3.91,3.98,9.78,7.09,14.27,2.41,3.47,0,9.49,6.51,11.42,1.83.55,1.94,5.09.94,7.82-.94,2.58-2.82.71-4.39.52-3.01-.36-4.42,1.56-4.84,4.12-.42,2.5-1.05,5.14,2.2,6.73,3.06,1.49,4-.21,5.52-2.43,1.99-2.92,4.45-3.78,5.81.78.05.21.13.57.24.57,8.24,1.59,4,9.13,6.54,13.36,2.51,4.2,5.28,8.58,9,11.61,2.98,2.45,1.8,4.46.6,5.97-2.59,3.21-1.75-3.08-4.81-.94-.47,1.51-.76,4.25.71,6.26,2.64,3.55,1.91,6.02-.24,9.68-1.7,2.92-3.32,2.43-5.62,3.39-6.9,2.87-14.38,1.02-20.77,3.42-8.03,3.02-15.77-.57-23.67,1.09-10.3,2.19-20.82-.36-31.23-.36-5.18,0-10.43-.68-15.64.05-1.7.23-3.53.57-4.89-.91-2.07-2.22-4.13-1.33-6.43-.31-4.52,1.98-8.06-.39-8.11-5.27-.05-7.04-.65-14.14.18-21.05.29-2.37,4.03-4.57,6.56-6.34,1.23-.86,3.35-1.17,4.84.39,1.91,2.03.78,3.91-.16,5.95-2.2,4.75,5.2,5.97,3.95,10.43,3.58.62,6.36-1.64,8.37-3.7,4.97-5.06,12.68-9.13,7.64-18.81-1.33-2.56,1.94-4.72,4.89-3.18,3.03,1.59,4.76,2.66,4.24-2.24-.39-3.57,2.14-5.24,5.31-5.11,3.3.13,4.76,2.61,5.1,5.71.37,3.37-.86,6.57-.94,9.99-.18,7.33,2.12,12.31,9.65,15.39-1.52-4.93-1.05-9.84-5.05-13.72-3.87-3.75.5-6.44,2.64-8.42,2.46-2.27,5.34-3.52,6.3-7.48.42-1.72,2.01-7.07,7.01-4.28.78.44,2.07-.73,2.17-1.93.13-1.33-.94-1.83-2.07-1.98-3.22-.42-6.49-1.41-9.6-1.02-4.81.57-.26,4.15-1.67,6.6-3.53-1.56-7.22-2.09-11.01-.08-1.1.57-3.14.16-4.42-.44-6.93-3.36-9.91-3.63-17.86-.55-2.14.83-4.24.71-6.41.68-1.44,0-3.32-1.36-3.09-1.85,1.75-3.47-.5-9.13,1.23-10.22,6.09-3.84,2.98-9.39,2.01-12.68-1.1-3.73-1.73-5.66,2.09-7.57-2.3-1.75-4.5-1.3-6.59-1.25-1.31.03-3.14.44-3.53-.89-2.25-7.85-13.13-12-9.49-22.62.68-2.01-.84-5.32-2.46-7.82-1.28-1.96-2.51-4.54.76-6.47,2.3-1.35,1.31-3.68-.5-3.73-10.49-.29-7.74-8.66-8.45-14.19-1.39-10.93-5.2-20.74-11.45-29.61-1.86-2.63-.16-3.13,1.05-4.54,5.07-5.84,5.05-5.89-1.6-9.94-.81-.5-1.44-1.17-1.12-2.08,1.75-5.01-1.75-7.51-4.94-9.97-1.86-1.44-2.09-2.77-.58-4.25,3.87-3.73,4.39-7.72,2.3-12.7-1.1-2.61-1.18-5.9,1.07-8.63,4.68-5.66-2.33-9.6-2.43-14.61-.03-1.44-2.41-3.29,1.02-3.63,1.6-.16,3.45-.24,3.06-2.35-.63-3.18-3.22-.52-5.7-1.59l.05.03Zm118.81,228.49c1.49,2.5.44,4.43-.65,6.49-.71,1.33-.39,3.91,1.54,2.95,3.74-1.93,7.17-.39,10.72-.42,1.33,0,2.35-.37,2.59-2.11.42-3.36-5.18-14.4-8.13-15.96-4.45,1.62,7.85,12.08-6.02,9.05h-.05Zm-10.8-11.97c3.79-.31,6.93.39,6.64-3.23-.18-2.5-2.2-4.28-4.86-4.25-2.62.03-4.68,1.33-4.73,4.25-.05,3.02,2.12,3.31,2.96,3.23Zm-80.16-214.41c-3.06-3.39-4.92-5.9-7.24-7.85-2.35-1.96-3.9.29-5.18,1.9-1.26,1.62-.24,2.97,1.33,3.42,3.11.91,6.36,1.46,11.09,2.5v.02Z"/>
  <path class="cls-3" d="m387.28,588.11c-5.26,1.62-7.9,1.23-8.13-5.08-.08-2.19-3.16-5.32-4.97-7.51-3.48-4.25-2.25-10.67-7.4-13.8-1.13-.68.08-1.9.44-2.87.99-2.77.94-5.56-.21-8.27-3.37-7.9-2.01-12.65,5.28-17.95.18-.13.44-.13.57-.29,1.36-1.67.89-6.1,3.9-4.72,2.38,1.1,3.79,4.8,5.07,7.59,2.04,4.46,1.86,4.56,5.94,7.8,1.65-.96.37-3.57,2.38-4.3,2.04-.76,4.45-1.93,6.01.16,1.47,1.93-1.12,2.69-2.09,3.97-3.27,4.3-10.57,3.44-12.32,9.83-.44,1.62-2.14.36-3.37,0-2.07-.6-4.37,1.56-3.71,2.22,3.56,3.52,2.09,9.39,5.96,12.39,6.28,4.88,7.12,4.62,17.05-2.4-3.71-1.8-7.3-3.55-12-5.84,4.13-1.3,5.83-3.55,7.14-6.73,2.25-5.48,8.37-5.82,13.1-7.15,2.7-.75,3.48,3.34,4.81,5.82,1.44,2.71,4.71,4.75,7.61,6.26,2.64,1.38,1.78-2.17,3.19-3.31,2.9,6.31,8.6.91,12.79,2.95.63.31,3.09-1.96,2.25-3.91-.78-1.85-2.62-3.57-4.63-1.85-3.92,3.34-5.94.96-8.5-1.88-3.79-4.17-6.96-9.52-13.96-9.05-1.39.08-2.93-1.17-3.06-2.92-.18-2.14,1.57-2.03,3.03-2.5,2.85-.91,5.05-1.88.32-3.94-2.85-1.23-3.79-3.44.23-5.29,3.37-1.54,4-6.76,9-6.89-5.28-1.72-4.81-8.5-10.12-10.22-1.54-.5.26-2.56,1.47-3.47,1.38-1.04,2.93-1.41,3.69.55.63,1.64,1.18,3.16,2.56,4.38,1.99,1.8,3.79,1.72,5.76.03.86-.73,1.86-1.46,1.41-2.66-1.33-3.63-3.66,1.33-5.96-1.3,5.41-4.23,2.22-11.95,6.93-17.06,1.52-1.67,2.01-4.46,4.66-.99,1.1,1.43,2.74.05,4.08-.68,1.31-.68,1.96.57,2.74,1.23.78.65.76,1.38-.37,1.93-5.07,2.42-1.33,5.19.55,5.95,8.37,3.29,8.24,12.83,13.94,18,1.02.91.05,1.98-.79,3.21-3.01,4.35-7.19,8.58-1.78,14.4,2.8,3,2.41,8.89,9.36,7.77,1.36-.21,5.62,4.48,4.81,8.76-.39,2.03-5.7,1.77-8.81-1.02-3.92-3.52-6.02.42-5.44,2.19,2.14,6.54-2.25,8.45-7.19,10.8,3.24,2.22,5.39,2.66,7.64-.36,1.57-2.11,3.95-2.11,5.67-.29,1.7,1.83,2.12,3.5-1.28,4.64-2.53.86-1.99,4.57-1.15,5.71,2.54,3.52,1.47,8.22,4.84,11.58,3.29,3.31-.86,7.3-1.28,10.93-.32,2.66-2.85-1.46-4.92-2.14-1.18,4.57,2.62,9.36-.86,13.88-.94,1.23,1.26,2.24,2.9,2.43,2.8.34,4.94-1.04,7.3-2.17,1.47-.71,3.79-3.03,4.97-.29,1.02,2.38,1.1,5.35.84,8.01-.13,1.43-11.48,1.17-12.16-.44-1.96-4.72-4.73-3.21-7.77-1.41-7.16,4.23-15.09,3.13-22.88,3.55-6.09.31-12.08-1.1-18.1-.44-2.98.32-4.86-1.04-5.99-2.95-3.45-5.9-8.5-10.09-13.6-14.4-4.84-4.09,1.18-5.27,2.64-8.16l-.03.02Zm35.49-1.8c1.23,2.32,3.43,3.03,5.75,3.57,2.98.68,5.13,3.02,6.15,5.27,3.61,8.01,3.35,8.14,11.4,4.85-6.77-6.52-10.46-16.82-23.28-13.7h-.03Zm13.26-41.71c5.44-1.49,11.19,1.98,13.36-3.42,1.23-3.05-3.64-5.22-5.96-5.45-4.84-.47-5.13,4.44-7.37,8.87h-.03Zm13.18,27.68c-3.35,2.9-6.12,4.33-8.71.5-.89-1.33-2.01-4.36-3.19-3-1.47,1.69.1,5.32-2.46,7.28,3.85,4.43,8-.47,12.08.39,3.22.68,2.09-2.24,2.3-5.16h-.03Zm-41.11-6.81c1.75-2.4,9.91-4.04.92-8.06-.99-.44-1.67-1.93-2.12-3.08-.65-1.67-.99-3.44-3.45-2.64-1.28.42-2.43.97-2.56,2.53-.18,2.17,1.7,2.14,2.98,2.74,3.58,1.75,5.81,4.04,4.24,8.5Z"/>
  <path class="cls-3" d="m390.93,402.83c-1.75-2.66-3.79-3.42-6.3-3.36-1.41.02-2.74-.55-2.95-1.98-.21-1.49,1.07-2.24,2.41-2.63,1.44-.42,3.4-.47,2.62-2.69-.58-1.62-2.07-.55-3.22-.65-4.08-.44-7.71-1.7-8.03-6.89-.29-4.57,1.23-8.45,3.79-12.05.47-.68,1.02-1.65,1.7-1.77,7.66-1.62,12.08-8.14,10.8-16.28-.13-.89-1.91-2.09-.13-2.53,7.95-1.98,9.86-9.75,14.62-14.79,4.11-4.35,8.5-8.27,13.73-11.24.89-.52,2.22-1.36,2.28-2.14.6-9.34,10.96-12.81,12.69-21.91,1.1-5.81.31-11.19.16-16.74-.03-1.23-1.05-2.64.47-3.44,1.99-1.04,4.21-1.07,6.33-.26,1.7.65,2.41,2.3,1.57,3.71-1.49,2.53-.37,4.93-.42,7.41-.29,10.15-4.58,18.47-11.48,26.08-5.23,5.76-11.19,11.27-12.84,19.98-.97,5.08-4.97,9.21-4.79,15.39.18,6.94.92,9.28,7.72,9.13,1.38-.02,2.98-1.04,4.16.65-.11,2.82-3.32,1.46-4.5,3.42,1.75,1.44,5.28,1.15,4.94,4.77-.32,3.16-2.72,2.9-4.71,3.42-2.09.57-3.37,1.98-3.92,3.96-2.72,10.36-8.42,19.88-8.84,30.86-.13,3.26-.99,5.87-3.92,7.64-.71.42-1.65,1.23-1.7,1.88-.68,10.2-10.22,14.09-15.09,21.31-.63.94-1.36,1.8-2.62,1.35-1.38-.47-2.48-1.8-1.75-3,3.53-5.95-.81-15.76,9.42-18.6,1.75-.5,2.8-3.75,3.92-5.89.13-.24-1.36-1.59-2.28-2.04-2.74-1.3-3.87.86-5.1,2.66-2.83,4.1-6.56,1.54-9.44.63-3.53-1.1-1.02-4.1-.94-6.52.31-8.48,7.61-4.23,11.82-6.83h-.16Zm3.92-10.96c-.12,6.7,1.01,11.8,3.4,15.31,1.12-5.35,4.92-11.19-3.4-15.31Z"/>
  <path class="cls-3" d="m419.84,236.74c-3.4,3.47-5.41,7.85-11.85,7.93,4.5,3.78,4.89,6.23,1.26,10.17-3.95,4.28-2.8,11.01-4.45,16.54-.89,2.98-1.75,5.92-3.79,8.09-6.17,6.55-10.1,14.74-16.27,21.39-2.62,2.82-5.75,5.51-8.47,7.15-9.08,5.53-14.15,14.87-22.26,21.15-1.57,1.23-2.33,3.6-3.29,5.51-.58,1.12-.5,2.97-2.01,3.08-7.14.52-11.54,6.34-17.58,8.92-2.01.86-2.27-.26-2.59-1.51-.52-2.03-.08-4.75,1.26-5.42,6.2-3.18,8.87-10.69,16.06-12.57,3.53-.91,4.87-3.89,5.81-7.23.55-1.96.6-5.35,3.06-5.22,8.39.42,12.21-6.1,15.95-11.16,4.16-5.63,10.28-9.42,13.26-16.46,2.28-5.37,8.42-9.1,12.6-13.75,3.04-3.37,5.36-6.83,3.69-12.13-.65-2.03-2.22-6.83,3.24-7.33,1.23-.1,2.28-1.75,1.96-2.24-2.49-3.96,1.62-7.67.29-11.4-.84-2.32-.86-4.04,1.28-5.71,1.94-1.51,3.58-1.43,5.13.26,2.07,2.3,5.1.08,7.77,2.01l-.05-.05Z"/>
  <path class="cls-3" d="m21.87,82.59c2.09.16,5.1,1.93,6.85-1.72,1.67-3.47.84-6.26-2.28-8.5-1.88-1.36-1.88-3.39-1.46-5.32,1.05-4.8,6.25-7.17,7.24-12.08.05-.26,1.8-.6,2.41-.26,4.37,2.5,8.5,3.39,13.83,2.22,2.28-.5,4,4.49,3.32,8.43-1.39,8.03-6.8,12.08-13.65,14.82-3.69,1.49-5.28,2.71-2.3,6.76,3.69,5.01-2.88,8.63-2.77,13.43.03,1.43-1.52,2.74-.68,4.75.94,2.24-.55,3.03-2.75,2.95-6.15-.21-12.13.08-17.73,3.23-2.07,1.17-3.66-1.07-4.76-2.48-1.33-1.72-.71-3.96.76-5.37,3.19-3.1,6.64-6.03,11.27-6.76,2.33-.37,5.05,0,5.54-3.23.5-3.26-3.01-1.54-4.05-3.1-1.26-1.88-4.24-2.82-3.4-5.76.52-1.85,1.99-2.76,4.6-1.98Z"/>
  <path class="cls-3" d="m73.75,240.25c3.03,3.42,7.79,3.44,10.64,6.73,1.12,1.3,4.11-.37,4.73-2.95.6-2.5,1.15-5.01,1.65-7.51.31-1.59-.08-4.12,2.62-3.18,1.91.65,2.14,3.39,1.1,4.46-3.5,3.6-2.38,6.03.84,9,1.39,1.28,2.12,3.83.47,5.97-.39.5-.97,1.17-.89,1.67.63,4.04,3.11,9.42-5.15,6.31-.78-.29-1.7.73-1.46,1.64.31,1.23.86,2.71,2.38,2.79,4.39.21,4.58,2.79,4.05,6.23-.39,2.61-.16,5.24,1.96,7.25,2.09,1.98.86,3.42-.73,4.8-1.73,1.49-2.75,1.43-4.73-.39-3.84-3.49-6.62-7.2-7.11-12.44-.05-.63-.26-1.57-.65-1.75-9.65-4.28-7.38-14.42-10.83-21.73-1.23-2.61,1.39-4.38,1.12-6.91Z"/>
  <path class="cls-3" d="m147.62,316.97c.71-1.02.65-1.98,0-3-3.06-4.77,1.78-5.32,3.45-4.49,3.77,1.88,9.31,2.4,10.38,7.49,1.86,8.87,10.04,11.21,15.87,15.73,5.1,3.96,9.39,9.36,16.19,11.09,1.33.34,2.09,2.4.5,3.76-2.14,1.83-5.94,2.84-7.06,1.02-2.96-4.77-7.85-3.63-11.66-5.42-7.64-3.63-15.12-7.96-19.9-15.44-1.28-2.01-2.64-3.83-4.94-4.98-2.2-1.1-3.87-2.87-2.8-5.77l-.03.03Z"/>
  <path class="cls-3" d="m225.24,18.9c-7.22,2.69-3.74,9.6-2.62,10.88,4.39,5.01-.99,5.43-2.64,6.13-2.56,1.07-5.6,3.63-9.65.18,7.72-1.36,6.2-5.37,4.84-10.38-1.07-3.96-3.19-2.22-5.23-2.58-1.88-.34-5,.44-4.66-3,.24-2.5,1.91-3.39,4.66-3.16,7.35.63,10.49-6.6,16.14-9.31,1.18-.57,2.22-2.27,4-2.14,4.11.29,8.19.86,9.89-4.46.39-1.2,2.2-1.38,3.43-.55,1.02.68,2.64,1.75,1.44,2.97-2.28,2.32-.47,6.73-5.23,8.09-2.98.86-2.04,4.77-.63,7.33,1.2,2.16,1.23,4.46-1.44,4.15-4.29-.52-9.91,2.22-12.29-4.15Z"/>
  <path class="cls-3" d="m58.17,266.46c8.84,4.46,9.62,11.58,10.33,19.67.34,3.94,5.52,7.59,8.81,11.09,2.51,2.66,4.55,5.61,6.64,8.58,3.5,4.9-3.71,9.96.31,14.84-.68.44-1.54,1.44-1.99,1.25-.89-.34-1.83-1.15-2.28-2.01-3.98-8.06-9.99-14.71-14.99-22.04-6.25-9.21-7.72-20.06-6.85-31.35v-.03Z"/>
  <path class="cls-3" d="m65.29,336.2c9.49,5.58,11.4,9.29,7.85,15.08.97,0,1.86-.16,2.67,0,4.13.91,8.21,3.13,7.17,7.54-1.07,4.57-6.2,2.45-8.87,1.72-9.07-2.48-15.93-6.96-20.09-16.85-2.8-6.65-1.57-12-1.23-18.02.08-1.25.76-2.27,1.91-2.17,1.67.16,2.01,1.9,1.65,2.97-2.2,6.65,2.41,11.82,3.61,17.68.47,2.27,1.8,3.52,4.08,3.18,2.54-.39,1.83-2.48,1.75-4.12-.13-2.24-.31-4.51-.5-7.07v.05Z"/>
  <path class="cls-3" d="m141.78,280.86c3.92,0,9,9.42,7.82,13.04-1.36,4.23-2.38,8.48-4.97,12.21-2.09,3.02-4.24,3.26-5.7-.18-2.25-5.29-4.29-10.72-5.88-16.25-1.05-3.6,4.5-8.84,8.71-8.82h.03Z"/>
  <path class="cls-3" d="m357.7,227.85c1.1,4.75-2.59,6.81-4.71,9.68-1.7,2.3-4.45,3.6-6.72,2.9-2.3-.7-2.51-4.12-2.17-6.18.5-3.1.32-3.89-3.22-4.2-4.29-.37-5.15-5.32-7.37-8.22-2.12-2.76,2.43-3.26,3.5-5.19.97-1.7,7.53.52,8.73,3.96,1.75,5.03,4.21,5.27,8.53,3.65,3.48-1.3,4.16.96,3.45,3.6h-.03Z"/>
  <path class="cls-3" d="m383.87,502.19c2.77.42,6.51-.86,4.26,4.43-1.6,3.76,2.41,5.53,4.81,6.16,5.41,1.38,5.52,4.62,5,9.05-.5,4.28-4.73,4.3-6.67,6.81.37-3.21-4.05-2.66-4.21-5.03-.24-3.47-2.96-5.03-5.07-6.23-6.62-3.7-2.72-8.61-1.99-13.07.31-1.85,2.09-2.63,3.84-2.14l.03.03Z"/>
  <path class="cls-3" d="m9.69,528.56c.18,2.79-4.29,1.28-3.66,4.57.78,4.07,1.2,8.3,4.89,10.88,3.9,2.74,7.56-.18,9.7-2.35,2.75-2.76,3.56-.65,4.97.57,1.62,1.41,3.56,3.03,2.12,5.45-1.12,1.88-2.85,3.42-5.41,2.24-3.98-1.85-8.13-1.88-12.32-1.2-8.37,1.41-12.61-2.63-8.24-9.34,2.75-4.2-.65-8.4,2.62-11.69.39-.39-.73-2.77,1.26-2.63,2.04.13,2.98,2.14,4.08,3.47v.02Z"/>
  <path class="cls-3" d="m341.01,174.34c-1.75,3.23-3.06,5.92-.79,8.92.71.91.05,2.11-1.12,2.58-1.26.5-2.15-.18-2.59-1.25-.65-1.59-1.07-3.29-1.62-4.93-1.49-4.33-1.91-9.08-6.59-11.89-2.33-1.41-1.96-11.76.16-13.72,1.65-1.51,3.01-.44,4.42.83,5.94,5.37,4.97,13.35,8.13,19.43v.03Z"/>
  <path class="cls-3" d="m473.19,571.89c.34,4.04,4.68,8.37,1.28,13.43-.68.99-.55,2.77-2.04,2.97-2.51.37-1.62-1.9-2.14-3.13-1.86-4.48-7.14-6.6-8.03-11.89-.32-1.83-2.28-3.78.13-5.03,2.49-1.3,4.55-4.33,8.19-2.63,2.56,1.2,3.77,2.82,2.62,6.26v.03Z"/>
  <path class="cls-3" d="m28.38,133.2c4.11-.6,9.15-1.04,9.44,3.31.31,5.16-5.54,4.77-9,4.72-4.58-.08-8.29,1.12-11.69,3.94-2.07,1.72-4.16,2.53-6.15.05-2.51-3.13,1.36-3.6,2.46-4.43,4.55-3.55,7.95-9.7,14.93-7.59Z"/>
  <path class="cls-3" d="m70.07,386.95c-5.54,1.2-9.15-.65-12.95-3.57-3.3-2.53-7.14-4.62-11.43-5.74-1.94-.5-4.08-2.11-2.72-4.93.99-2.01,3.45-3.29,4.84-2.14,6.96,5.79,17.37,6.94,22.26,16.35v.03Z"/>
  <path class="cls-3" d="m42.68,524.43c1.78,7.54,2.3,15.23,7.01,21.81,1.6,2.24-2.64,2.42-4.47,2.82-2.75.6-5.41-.5-4.29-3.57,1.33-3.65-.68-5.63-2.2-8.14-3.09-5.08-1.76-9.39,3.98-12.94l-.03.02Z"/>
  <path class="cls-3" d="m27.12,168.12c1.05-11.37,2.72-13.15,13.91-14.71,1.88-.26,4.13-5.35,5.75-.23,1.2,3.73-1.46,5.76-4.89,6.94-5.18,1.77-10.38,3.5-14.8,8.01h.03Z"/>
  <path class="cls-3" d="m428.83,480.91c.05-2.37,1.05-4.02,1.07-6.02,0-2.63,2.62-4.2,5.13-3.55,4.63,1.23,6.59,5.81,9.52,9.05,1.13,1.23-.89,3.7-2.67,4.54-1.78.81-4.24.99-5.23-1.04-1.65-3.34-4.5-2.79-7.82-2.97Z"/>
  <path class="cls-3" d="m399.94,214.66c-4-.47-3.56-4.46-5.44-6.5-5.05-5.48-4.05-6.39,2.83-9.57,4.6-2.14,5.28.21,6.07,3.16,1.04,3.96-2.49,7.54-1.52,11.63.05.26-1.28.86-1.91,1.28h-.03Z"/>
  <path class="cls-3" d="m58.93,164.14c2.72-.31,3.48,1.04,3.09,3.5-.68,4.02-3.22,5.84-7.11,6.18-2.62.23-5.75-.96-7.06,2.84-.37,1.1-1.83,1.28-2.72.34-.44-.5-.6-1.57-.44-2.3.68-2.9,11.09-10.51,14.25-10.56Z"/>
  <path class="cls-3" d="m188.14,407.79c4.26.57,7.45,2.92,10.02,6.15,1.33,1.7,2.62,3.42,3.84,5.19,1.02,1.49,4.21,2.22,2.98,4.38-1.49,2.56-3.79-.21-5.7-.42-3.24-.34-5.52-2.84-6.62-5.63-1.15-2.92-2.28-5.43-5.34-6.7-.58-.23-1.12-1.38-1.07-2.04.08-.94,1.07-1.17,1.91-.91l-.03-.02Z"/>
  <path class="cls-3" d="m342.3,284.84c-4.58,2.22-5.62-1.75-7.51-4.07-.44-.55-.73-1.62-.52-2.27.5-1.49,1.75-3.08,3.27-2.58,3.58,1.17,7.85.81,10.59,3.99,1.07,1.23.57,2.95-.16,4.28-1.57,2.79-3.9.26-5.68.65Z"/>
  <path class="cls-3" d="m395.36,238.18c-.55,3.44-4.32,4.54-6.41,6.94-.13.13-1.83-.57-2.01-1.15-.76-2.35-.71-5.14,1.2-6.6,3.4-2.58,4.47-6.16,5.15-9.86.5-2.84,2.38-3.29,4.5-3.78.86-.21,2.22.1,2.07.86-.34,1.62-.89,3.5-2.01,4.56-2.56,2.45-4.1,4.98-2.43,9l-.05.03Z"/>
  <path class="cls-3" d="m52.61,394.04h19.59c2.38,0,4.71.94,4.66,3.39-.08,3.29-2.8,1.36-4.45,1.46-6.83.47-13.86,2.29-19.77-4.85h-.03Z"/>
  <path class="cls-3" d="m57.54,423.2c6.83-3.7,13.39-2.01,20.35-2.29-6.02,6.34-10.75,6.83-20.35,2.29Z"/>
  <path class="cls-3" d="m421.82,227.64c-1.57,3.42-4.63,2.61-6.15,1.54-3.19-2.27-5.67-5.48-10.12-5.48-.39,0-1.34-1.67-1.13-1.96,1.52-2.22,4.19-2.61,6.51-3.36,1.39-.44,3.11-.18,3.32,1.96.42,4.49,4.03,5.89,7.56,7.3Z"/>
  <path class="cls-3" d="m52.06,501.45v2.11c-.08,1.56-1.41,2.9-2.41,2.29-4.18-2.43-7.79,4.93-11.79.5-1.07-1.17-1.36-2.66-.05-4.04,1.36-1.46,2.67-1.75,4.52-.65,2.41,1.41,5.86,4.57,4.94-2.22-.24-1.67,1.7-1.62,2.96-1.33,2.43.52,1.75,2.56,1.83,3.34Z"/>
  <path class="cls-3" d="m462,438.75c-5.65,3.36-9.39-1.54-13.96-1.69-2.12-.08-1.31-2.5.29-3.76,3.71-2.9,8.21-1.88,10.93,2.43.65,1.02,1.62,1.83,2.74,3.05v-.03Z"/>
  <path class="cls-3" d="m139.03,270.17c-3.82,3.94-7.95,5.66-13.18,3.02-.97-.5-2.12-.73-2.07-2.06.05-1.25,1.28-2.29,2.07-2.11,4.29.91,8.89-2.22,13.15,1.15h.03Z"/>
  <path class="cls-3" d="m323.05,216.41c2.07,1.51,5.96.5,6.02,4.62.05,2.56-1.39,4.46-3.71,4.2-2.7-.29-5.88-1.3-6.38-4.51-.39-2.37,1.83-3.57,4.08-4.33v.03Z"/>
  <path class="cls-3" d="m213.28,42.67c-3.98,2.27-6.59,4.49-9.96,3.6-1.44-.37-4.13-1.23-2.8-3.89,1.12-2.24,2.28-5.09,5.7-3.7,2.2.89,4.18,2.32,7.06,3.96v.03Z"/>
  <path class="cls-3" d="m297,153.81c2.01,1.1,4.84,2.06,4.55,4.7-.34,3.26-3.64,3.91-6.33,4.64-2.46.68-3.01-1.04-3.04-2.95-.05-3.26,2.01-5.03,4.79-6.39h.03Z"/>
  <path class="cls-3" d="m73.5,225.6c1.12.5,1.6.55,1.86.83,1.7,1.9,3.32,3.86,5.44,6.34-2.96.21-4.84,3.57-7.69,1.28-3.45-2.74.24-5.32.42-8.45h-.03Z"/>
  <path class="cls-3" d="m85.38,400.26c-1.73-.94-5.02-.34-4.66-2.71.5-3.18,4.37-2.71,6.77-3.73,1.41-.57,3.35.76,2.9,2.45-.6,2.32-2.38,3.99-5.02,3.99Z"/>
  <path class="cls-3" d="m97.65,314.15c1.52-1.54.18-5.53,3.3-5.09,1.02.16,1.7,4.64,1.96,7.23.1,1.04-.42,3.29-2.51,2.97-3.01-.42-2.41-3-2.72-5.14l-.03.03Z"/>
  <path class="cls-3" d="m152.35,567.73c-1.31,2.01-1.62,4.9-4.34,5.87-1.07.37-2.62-.6-2.01-1.51,1.33-2.09.05-6.1,4.26-6.1,1.07,0,2.14.21,2.09,1.75Z"/>
  <path class="cls-3" d="m398.46,189.49c-.39-1.3-1.83-3.18.34-3.1,2.59.08,2.35,3.52,3.87,5.19.71.78-1.52,2.97-2.67,2.79-3.22-.55-1.62-3.16-1.54-4.85v-.03Z"/>
  <path class="cls-3" d="m434.14,354.32c1.36-.18,2.7.52,2.33,1.54-.79,2.19-2.28,4.25-4.81,4.59-1.91.26-1.57-1.62-1.73-2.76-.47-3.5,2.75-2.43,4.21-3.37Z"/>
  <path class="cls-3" d="m189.65,167.56c1.75-5.95,4.39-10.38,4.68-15.52.1-2.03,1.86-3.91,4-4.56.58-.18,1.88,1.02,2.38,1.85,1.46,2.37-.81,3.47-2.07,4.75-3.58,3.63-2.2,10.2-9.02,13.46l.03.03Z"/>
  <path class="cls-3" d="m141.54,188.03c.58.63,1.18,1.23,1.7,1.88,1.33,1.7,2.82,3.36.42,5.37-.97.81-2.07,1.98-3.27.99-1.94-1.59-1.39-3.83-.65-5.82.34-.91,1.36-1.57,2.04-2.35-.03,0-.21-.1-.21-.1l-.03.03Z"/>
</svg>