<?xml version="1.0" encoding="UTF-8"?>
<svg id="Layer_1" data-name="Layer 1" xmlns="http://www.w3.org/2000/svg" xmlns:xlink="http://www.w3.org/1999/xlink" viewBox="0 0 573.96 375.42">
  <defs>
    <style>
      .cls-1 {
        fill: none;
      }

      .cls-2 {
        fill: #f4f1e7;
      }

      .cls-3 {
        fill: url(#New_Pattern_Swatch_2);
      }
    </style>
    <pattern id="New_Pattern_Swatch_2" data-name="New Pattern Swatch 2" x="0" y="0" width="659" height="659" patternTransform="translate(1081.81 6905.18)" patternUnits="userSpaceOnUse" viewBox="0 0 659 659">
      <g>
        <rect class="cls-1" width="659" height="659"/>
        <rect class="cls-2" width="659" height="659"/>
      </g>
    </pattern>
  </defs>
  <path class="cls-3" d="m234.74,114.95s-.02-.01-.02-.01l-.02.02s0,.01.01.02h0s.02.02.02.02c.02.02.04.05.06.07.02-.02.04-.03.05-.05,0,0-.02,0-.03-.01,0,0,0-.02,0-.03-.02,0-.05,0-.07-.02h0Z"/>
  <path class="cls-3" d="m350.07,186.1c1.36-2.66,2.13-5.55,4.46-7.65,1.47-1.32,1.06-2.33-.85-2.61-3.48-.54-6.14-2.92-9.35-4.07-2.72-.96-4.67-.19-5.66,2.54-.43,1.21-.53,2.97-1.95,3.06-1.73.13-3.15-.83-3.8-2.78-.37-1.1-.72-2.76-2.72-2.07-1.07.37-2.19.27-2.81-.8-.86-1.48.66-2.04,1.33-2.92.69-.89,2.45-1.74,1.63-2.84-1.17-1.58-2.43.16-3.29.88-3.01,2.47-5.72,4.86-10.17,4.96-2.03.03-4.81,1.9-6.12,5.2,5.26-.72,10.15-.8,14.47-3.49.66-.42,1.15-1.21,1.98-.37.51.51.96,1.45.37,1.71-2.91,1.24-2.05,3.75-2.41,5.95-.18,1.07-.94,2.06-2.61,2.5-3.47.94-7.77,3.46-7.95,6.33-.3,5.23-4.08,9.65-2.7,15.2.82,3.32-2,6.25-4.13,4.99-2.33-1.37-4.17-.29-6.44.26.45-1.28-.32-3.2.72-3,3.21.65,2.22-1.61,2.37-2.93.13-1.12.51-1.9,1.25-2.74,3.31-3.86,3.1-8.71-.54-12.33-1.07-1.07-2.08-3.11-3.81-2.38-2.64,1.12-4.94-.18-7.39-.24-2.86-.08-4.46-2.68-2.78-4.83,1.76-2.25,2.52-5.41,6.24-6.19,2.11-.45,4.44-2.52,4.99-4.78.58-2.42-2.43-2.2-3.82-3.2-1.09-.77-1.04-2.09-1.2-3.24-.1-.76.43-1.16,1.2-1.26,1.33-.18,2.33.21,2.97,1.45.35.7.85,1.34,1.21,2.04.38.75.8,1.48,1.74,1.34,1.05-.16.99-1.12,1.05-1.88.18-1.83.19-3.7,1.47-5.25.46-.57.7-1.68,1.68-1.21.64.3,1.53,1.31,1.41,1.74-.69,2.37,1.81,4.4.61,6.78-.35.69-.02,1.5.85,1.28,4-1.05,9.19.89,11.67-3.89,1.49-2.89,3.87-4.77,6.06-6.89,1.09-1.07,1.39-2.74.74-3.05-2.72-1.28-1.79-4.16-3.13-6.01-1.58-2.18-.91-5.02-1.37-7.54-.34-1.88,2.06.37,3-1.08.77-1.2,1.41-2.12,1.1-3.56-.19-.96-.82-2.01.35-2.87,2.08.46,3.84,2.34,6.28,1.59-2.05-4.4-.77-7.57,3.37-9.74,2.67-1.39,5.44-3.03,3.93-6.97-.21-.53-.02-1.58.37-1.85,2.29-1.63,1.34-4,.54-5.37-2.11-3.62-3.07-7.43-4.14-11.42-1.45-5.36-1.42-7,3.1-9.6.64-.37.91-.86,1.1-1.53.94-3.35-1.12-8.08-4.24-9.73-1.54-.81-1.86-1.72-.32-2.98,2.19-1.79,3.63-.86,4.64,1.21.38.78.05,2.1,1.29,2.12,5.13.06,7.19,4.77,10.84,7.08,6.51,4.15,6.17,10.89,5.72,17.4-.21,3.06.51,5.5,2.14,8.1,1.98,3.14,4.35,6.28,2.21,10.64-1.39,2.82.62,5.95.77,8.98.02.18.61.51.9.46.32-.05.7-.38.85-.69,2.03-4.21,1.1-8.96,2.37-13.33.29-.97-.46-1.71-1.3-2.26-.66-.45-1.66-1.26-1.26-1.83,2.21-3.14,1.12-6.46.88-9.76-.29-4.1.93-8.64-3.76-11.31-.5-.29-.7-1.07-1.09-1.59-2.41-3.4-5.1-6.63-7.18-10.22-1.92-3.33-5.71-4.27-7.95-7.45-2.8-3.99-5.32-9.03-11.27-9.76-.53-.06-1.07-.78-1.42-1.32-2.11-3.32-6.17-3.27-9.08-5.21-1.01-.67-2.78.16-1.82,1.74,2.64,4.31,1.17,10.67,6.89,13.41,1.05.51,1.33,1.91,1.98,2.79,4.03,5.41-1.2,11.34,1.17,16.76.02.03-.43.24-.64.38-2.81,2.03-.99,5.04-.75,7.13.3,2.57-.18,4-2.06,5.17-.97.6-2.13.88-2.76,1.93-3.4-.85-4.74.76-4.56,3.98.14,2.6-1.23,3.4-3.57,3.65-2.19.24-3.44-.06-3.85-2.63-.29-1.77-1.31-3.27-3.49-.97-1.26,1.34-2.61,2.55-3.64,4.1-.51.77-1.29,1.53-2.33,1.02-1.12-.54-.77-1.55-.38-2.41.67-1.51,1.36-3.24.35-4.58-4.03-5.36-3.5-12.18-6.12-18-1.15-2.55-.37-4.4,2.64-5.9,3.55-1.77,6.43.62,9.62.33,1.06-.08,2.01,2.25,2.96.59.72-1.28-.34-2.85-1.44-3.83-.86-.77-2.32-.96-2.99-1.82-1.07-1.36-4.03-1.21-3.41-3.8.66-2.73,3.1-1.08,4.68-1.56.62-.19,1.33-.13,1.98-.13.93.03,1.95.22,2.52-.72.8-1.29-.51-1.91-1.09-2.66-1.76-2.28-4.3-3.43-6.92-4.43-.85-.32-1.81-.83-1.52-1.98.1-.33,1.04-.84,1.21-.72,1.94,1.29,3.81-.17,5.69-.1,1.58.06,3.79,1.13,4.6-1.02.66-1.71-1.28-2.97-1.87-4.53-.4-1.04-1.63-1.04-2.62-1.42-2.64-1-5.58-1.94-7.53-3.83-2.83-2.73-6.01-3.72-9.61-3.51-1.33.08-2.3.61-2.61-1.13-.26-1.45-.69-3.56.9-3.86,2.53-.48,4.75-2.15,7.51-1.77,1.53.21,2.33.46,2.38,2.3.08,2.82.43,4.4,4.54,5.33,5.39,1.23,10.28-.18,15.37.14,1.89.11,2-.97,1.17-2.28-1.38-2.12-2.85-4.03-5.66-1.75-.83.67-1.79,1.18-3.18.54,2.1-2.01,4.41-4.72,6.96-3.97,3.02.89,6.35,3.09,7.95,5.69,1.62,2.65,2.86,2.79,5.24,2.12,1.41-.38,2.77.02,3.07,1.67.24,1.32.93,3-1.41,3.4-.66.11-1.14.67-1.1,1.75,2.41,0,3.45,1.47,3.72,3.8.11.99.53,2.23,1.86,2.26,1.31.03,1.71-1.02,1.92-2.14.69-3.86,2.56-6.25,6.92-5.47h.4c.66-.05,1.44.05,1.76-.65.45-.99-.48-1.32-1.04-1.83-.62-.57-1.97-.96-1.34-2.04.46-.81,1.34-1.58,2.56-1.58,4.05.02,6.14-3.65,5.98-6.01-.35-5.45,3.92-8.37,5.48-12.66,1.52-4.16.9-10.56-2.69-12.1-2.69-1.16-4.33.7-6.22,2.1-1.46,1.08-.21,1.71.34,2.1,1.52,1.1,2.97,2.28,1.41,4.15-1.38,1.63-2.8,3.68-5.61,2.41-3.31-1.5-7.03.24-10.41-1.18-.58-.24-1.69.16-1.65.75.32,3.89-3.55,3.97-5.37,5.85-2.33,2.42-5.15,4.64-8.86,1.93-.29-.22-1.18-.05-1.49.26-2.99,2.89-6.68,1.82-10.09,1.64-3.18-.16-6.28,1.07-9.43.26-1.31-.33-3.41,0-3.12-2.12.19-1.39.93-3.25,3.24-2.26,1.2.51,1.79-.4,2.1-1.23.46-1.28-.58-1.5-1.52-1.75-2.81-.78-5.63-1.64-8.44-2.42-1.7-.48-2.43-1.85-2.13-3.24.29-1.34,1.61-1.4,2.94-.8,3.47,1.56,6.7-.51,10.02-.94.7-.1,1.34-.94,1.33-1.79-.02-.73-.75-1.37-1.36-.96-1.98,1.36-2.81-.19-3.93-1.28-2.77-2.69-6.59-1.23-9.83-2.25-1.5-.48-2.17,2.36-2.99,3.8-.82,1.42-1.77,1.75-3.24,1.64-2.06-.14-3.81-.22-3.93,2.92-.08,1.79-1.9,3.46-4.01,3.99-3.13.78-6.24.86-9.29-.53-1.36-.62-2.73-.05-3.36,1.18-.62,1.24.67,2.34,1.53,2.23,3.09-.41,5.84,2.42,8.97.78.59-.3,1.28-.67,1.81-.05.82.96-.29,1.37-.74,1.88-1.87,2.1-13.56,4.53-15.16,2.5-2.83-3.59-4.51-1.95-6.83.96.13-2.17-2.27-2.97-1.28-4.77,1.12-2.01,1.9-4.9.27-5.79-2.43-1.32-6.36-2.39-8.43-1.28-3.71,1.99-7.82,2.14-11.48,3.91-2.32,1.12-6.11-1.2-6.79-4.1-.54-2.25,1.6-3.49,3.13-4.43,1.12-.69,2.83-.4,4.27-.54,1.21-.13,2.81-.26,2.89-1.58.1-1.55-1.44-2.5-2.8-2.87-1.1-.3-2.3-.16-3.44-.73-2.73-1.37-5.72-.11-7.37,1.36-3.39,3.03-4.83,8.12-4.33,12.04.8,6.32,1.45,13.89,10.2,15.6,1.15.22,2.35,1.12,1.9,2.57-.4,1.32-1.69,1.91-2.88,2.58-1.39.78-1.52-3.05-2.99-.78-1.1,1.69.93,2.5,1.44,3.76.08.21.08.53-.03.7-1.84,2.92.32,5.2,1.89,6.75,2.33,2.3,2.21-1.85,4-2.26,3.39-.78,2.11-2.5.27-4.03-.64-.53-2.14-.29-1.76-1.69.29-1.02,1.01-2.18,2.09-2.2,4.09-.08,8.12-2.74,12.3-.45,1.76.96,3.73.89,5.44.41,3.45-.97,6.57,1.98,10.01.51.64-.27,1.42.62,1.58,1.48.27,1.55-3.44,5.85-4.94,5.5-5.08-1.16-9-.05-13.88,2.6-4.89,2.63-8.31,6.7-12.93,9.38-1.77,1.04-4.14,2.89-.06,5.42-5.04.19-8.47,1.31-8.17,6.55.03.54-.46,1.31-.94,1.67-4.3,3.36-4.89,8.82-7.4,13.17-1.63,2.84,1.47,6.47-.06,9.78-.05.1.27.54.46.57,2.88.59,1.55,2.42,1.2,3.95-.69,2.97-2.37,5.69-1.93,8.95.24,1.79,2.96,2.76,1.93,4.5-1.76,3,.58,5.31.7,7.94.09,1.88,2.35,2.41,2.51,4.35.35,4.1,4.41,8.2,8.47,8.2,1.85,0,2.68.97,4,1.74,4.36,2.52,8.03,6.94,14.01,5.49,1.18-.29,2.78-.11,2.53,1.58-.46,3.09.89,5.31,3.23,7.21-1.14.54-1.95.59-2.62.08-.74-.54-1.36-1.47-2.35-.54-.8.75-.53,1.83-.19,2.61.51,1.2,1.42,2.66,2.7,2.66,4.72-.02,3.87,3.65,3.63,5.98-.27,2.63-1.87,5.14,2.72,4.77.22-.02.53,1,1.15.67,2.46-1.34-.35-5.47,3.39-6.36.67-.16.51-1.69-.77-2.01-.75-.19-1.68-.21-1.21-1.43.38-1.02.62-1.85,2.21-1.55,1.55.3,2.45-.46,1.69-2.36-.3-.75-.64-2.04,1.17-2.65.34,5.26,5.28,5.68,8.27,8.21,1.28,1.08,2.08,1.42,3.69.16,1.02-.8,2.61-2.76,4.49-1.08,2.38,2.12,4.25,2.47,5.8-.94.61-1.34,2.19-1.2,3.05-.32,1.04,1.05.08,1.88-.93,2.46-.59.33-1.07.7-1.23,1.44-.77,3.54-2.43,4.46-5.87,3.14-1.04-.4-2.14-1.07-2.89-.08-1.02,1.34.54,1.6,1.26,2.27,1.89,1.77,2.48,3.91,1.6,6.44-.77,2.2-2.43,2.54-4.44,2.42-1.26-.08-1.74.73-2.19,1.85-1.76,4.29-.61,8.02,3.71,10.64,2.27,1.39,3.52,3.46,4.78,5.61.54.93.51,1.71-.4,2.41-1.87,1.42-7.18.94-7.88-1.12-1.39-4.1-3.29-7.88-5.42-11.62-1.49-2.6-2.46-5.49-3.74-8.21-.46-1-1.33-1.85-2.51-1.48-1.26.38-.51,1.5-.58,2.36-.26,3.43-.21,6.91.74,10.16.56,1.93,1.02,3.95.66,5.66-.66,3.08-.06,6.08-.33,9.09-.16,1.87.77,2.38,2.41,2.93,3.45,1.16,7.51,1.5,10.33,3.3,4.48,2.87,8.52,4.31,13.77,3,2.17-.54,4.54-.03,6.88,1.13,2.59,1.29,4.75-1.91,7.19-2.22,6.32-.77,11.45-2.9,14.12-9.1.05-.11.21-.18.27-.29,1.73-3.2,3.6-6.46,3.88-10.09.22-2.87.96-5.23,2.11-7.91,1.15-2.66,3.66-5.66,1.82-9.39-.7-1.44.7-3.44,2.09-4.53.77-.59,2.46-.43,2.73.69.38,1.5.83,3.35-1.73,4.02-1.3.33-1.49,1.93-.64,2.98.85,1.04,1.44,1.77.34,3.01-.77.88.05,1.35.83,1.69,2.41,1.04,4.73,2.34,6.94-.59,1.98-2.63,6.33-2.41,7.8-5.29Zm-30.97-26.39c-.99-1.05-.59-2.34.56-2.95,2.01-1.03,2.3,1.15,3.63,2.01-1.57.56-2.5,2.75-4.19.94Zm-.5-41.51c.96-.64,2.3-1.58,3.17-1.32,5.8,1.67,5.12-3.57,6.73-6.2.64-1.04,1.89-1.83,1.85-3.25,2.4-.09,4.51,1.25,4.51,3.28.02,2.3-1.9,4.39-3.82,5.88-3.04,2.38-7.07,3.27-9.5,6.6-.96,1.29-2.89,1.74-3.68.24-.81-1.56-1.37-3.83.74-5.23Zm-52.28-70.46c-1.5,1.34-3.39,1.91-5.05,2.9-.69.4-1.55.51-2.17-.16-.72-.78.03-1.37.4-2.04,1.33-2.42,3.17-4.08,5.92-4.26,1.74,0,3.21.53,3.42,2.17.26,2.06-1.82.77-2.51,1.39Zm-27.95,96.74c-1.04-.22-2.51-.53-2.29-2.15.14-1.1.82-1.99,2.11-1.85,1.28.13,2.22.73,2.33,2.19-.4,1-.98,2.07-2.16,1.82Zm2.89-12.49c-.74.97-2.1,1.31-2.7.27-3.13-5.36-3.92.18-5.68,1.12-1.29.7-.24,3.83-2.14,3.01-1.81-.77-3.47-2.6-4.36-4.72-.64-1.5.8-3.95-2.03-4.5-.07-.02-.14-.59-.07-.64,4.76-2.84,1.63-8.23,3.87-11.93.94-1.56,2.49-2.15,3.71-3.25-.43,2.35,2.79,1.74,2.95,3.6,2.11.66,4.02-2.49,6.34-.13.38,1.18-1.61,1.47-1.42,2.85,1.63.26,3.25.43,3.36,2.85.09,2.41,3.07,3.05,3.8,5.34,1.22,3.83.74,4.86-3.18,5.13-.96.06-1.77.1-2.45.97Zm5.37,11.82c-2.25-.26-2.65-2.54-2.88-4.43-.14-1.23.37-2.31,1.92-2.5v.02c1.74.62,3.71,1.45,3.79,3.43.06,1.5-.8,3.72-2.83,3.49Zm10.34-26.07c-1.81-1.93-3.45-3.99-4.51-6.41-.37-.84-.93-2.2.38-2.81,1.21-.56,2.29.56,2.48,1.4.48,2.04,3.02,2.95,2.64,5.44-.21,1.28,1.18,1.53,2.57,1.77h.02c-1.5,1.5-2.54,1.72-3.58.61Zm21.6-27.16c-1.07,2.14-.75,5.57-2.3,7.81-2.49,3.64-2.45,7.97-4.06,11.77-1.09,2.54-3.68,1.12-4.27-.37-2.08-5.13-4.6-7.19-10.25-4.16-3.2,1.72-5.47-1.72-7.58-3.75-.73-.7-1.3-2.44-.93-3.22.61-1.29,2.38-.78,3.6-.7,1.89.13,3.34,1.37,4.8,2.5.74.56,1.53,1.4,2.46.67,2.38-1.87,1.49-4.64,1.46-6.98-.03-2.15-2.08-2.03-3.69-1.83-2.72.32-5.07-1.66-5.08-4.58-.03-3.4.14-6.79.29-10.19.02-.46.32-1.08.69-1.32,4.33-2.82,7.32-6.52,8.41-11.7.22-1.08,1.07-2.25,2.56-.77.46.46,1.53.29,2.27.54,1.38.48,3.61-.91,4.09,1.21.42,1.85-1.31,2.97-2.8,3.95-2.75,1.82-2.77,4.42-.32,6.36,1.33,1.05,2.57.61,3.73.1,1.46-.64,2.81-.62,4.27-.27,1.31.32,1.68,1.26,1.45,2.41-.26,1.28-1.25.97-2.21.91-4.78-.33-4.91-.24-8.22,4.46l.02.06c3.08.91,5.52,3.03,9.06,2.9,1.7-.06,4.53.24,2.56,4.18Zm4.57-38.76c-2.17-.06-4,.54-5.54,2.28-.59-1.6-.85-2.75.6-3.45,2.7-1.31,2.06-3.06.5-4.69-.67-.7-1.58-1.07-.83-2.17.74-1.1,1.71-.91,2.81-.53,2.59.92,3.55,3.43,4.78,5.41.9,1.45-.24,3.21-2.32,3.14Z"/>
  <path class="cls-3" d="m215.51,224.24s0,0,0,0c-.01,0-.02,0-.03-.01l.03.02Z"/>
  <path class="cls-3" d="m305.81,356.47c-2.27-1.85-3.97-4.53-5.5-7.1-1.55-2.58,1.04-7.19-4-8.16-.06,0-.11-.22-.14-.35-.83-2.79-2.33-2.27-3.55-.48-.93,1.36-1.5,2.39-3.37,1.48-1.98-.97-1.6-2.58-1.34-4.11.26-1.56,1.12-2.74,2.96-2.52.96.11,2.11,1.26,2.69-.32.61-1.67.54-4.45-.58-4.78-3.98-1.18-2.51-4.86-3.98-6.98-1.9-2.74-1.89-6.33-4.33-8.72-.7-.69-.75-1.58-.74-2.57.06-4.11-5.79-10.89-9.75-11.35-1.46-.17-3.34,0-3.1-2.07.21-1.79,1.69-1.53,3.12-1.04,1.2.41,2.05-.46,2.65-1.34.83-1.23-.13-2.04-.99-2.61-.99-.67-1.33-1.5-1.45-2.63-.27-2.47-1.04-4.59-3.82-5.44-.96-.29-1.76-1.24-2.01-2.33-.78-3.41-2.97-5.1-6.38-5.74-1.89-.35-2.54-2.54-3.48-3.88-.94-1.36,1.55-1.64,2.43-2.47,1.21-1.17.83-1.99-.1-3.03-.93-1.04-3.02-1.85-1.01-3.73.57-.54.11-1.05-.35-1.24-3.01-1.2-2.19-5.5-5.45-6.54-.83-.26-.21-.96.02-1.58.43-1.2.62-2.52.72-3.81.26-3.52-2.41-5.36-5.61-3.94-.96.43-1.49.45-1.98-.88-2-5.37.27-10.22,1.66-15.16.29-1,1.5-.7,2.05-.29,2.35,1.75,5.21,1.63,7.83,2.31,1.3.33,2.59.45,2.8,2.23.41,3.49,3.52,3.92,6.03,4.88,1.02.38,2.7.06,2.62-1.02-.21-2.73.75-6.24-2.33-7.81-2.61-1.34-5.02-3.22-8.09-3.68-4.86-.75-9.3-2.14-10.44-7.94-1.7,1.58-3.36,2.93-5.28.41-.45-.59-1.14-.59-1.82-.46-3.2.61-5.02-.99-6.59-3.6-.99-1.66-1.79-4.16-5.02-2.38-1.53.86-1.05-.94-.91-1.96.26-1.8-.37-4.37-1.93-4.15-3.44.48-3.71-1.55-4.08-3.71-.22-1.26.48-3.22-.16-3.78-3.93-3.38-.72-4.02,2.43-4.81-2.81-1.72-6.17-1.58-6.86-5.02-.09-.53-1.21-1.07-2.06-.53-.72.46-1.1,1.16-.77,2.04.38.97.69,2.04,1.29,2.87,1.69,2.27,2.78,4.55,2.7,7.58-.05,2.01.16,4.32,2.75,5.69,2.24,1.2.82,3.65-.61,4.05-3.53,1-3.63,3.83-4.27,6.41-.5,2.05-1.02,4.06-2.8,5.88,1.51.61,3.07-.97,3.45.96.24,1.29-.89,1.34-1.87,1.43-2.1.21-.64,1.34-.62,2.22.06,3.06,4.35,5.47,1.49,8.93-1.38,1.67-1.33,3.68-.66,5.28,1.28,3.05.96,5.49-1.41,7.77-.93.91-.78,1.72.35,2.6,1.95,1.5,4.09,3.03,3.02,6.09-.19.56.19.97.69,1.28,4.06,2.47,4.08,2.5.98,6.08-.74.86-1.77,1.16-.64,2.77,3.82,5.42,6.16,11.42,7,18.1.43,3.38-1.25,8.5,5.16,8.67,1.1.03,1.71,1.45.3,2.28-2,1.18-1.25,2.76-.46,3.95.99,1.53,1.92,3.56,1.5,4.78-2.22,6.49,4.43,9.03,5.8,13.82.24.81,1.36.56,2.16.54,1.28-.03,2.62-.3,4.03.76-2.33,1.16-1.95,2.35-1.28,4.62.59,2.01,2.49,5.41-1.23,7.75-1.06.67.32,4.13-.75,6.25-.14.3,1.01,1.13,1.89,1.13,1.33.02,2.61.1,3.92-.41,4.86-1.88,6.68-1.72,10.92.33.78.37,2.03.62,2.7.27,2.32-1.23,4.57-.91,6.73.05.86-1.5-1.92-3.68,1.02-4.04,1.9-.24,3.9.37,5.87.62.69.09,1.34.4,1.26,1.21-.06.73-.85,1.45-1.33,1.18-3.05-1.71-4.03,1.56-4.28,2.61-.59,2.42-2.35,3.19-3.85,4.58-1.31,1.21-3.98,2.85-1.61,5.15,2.45,2.38,2.16,5.37,3.08,8.39-4.6-1.88-6.01-4.93-5.9-9.41.05-2.09.8-4.05.58-6.11-.21-1.9-1.1-3.41-3.12-3.49-1.94-.08-3.48.94-3.24,3.13.32,3-.74,2.34-2.59,1.37-1.81-.94-3.81.38-2.99,1.95,3.09,5.91-1.63,8.4-4.67,11.5-1.23,1.26-2.93,2.65-5.12,2.27.77-2.73-3.76-3.48-2.41-6.38.58-1.24,1.26-2.39.1-3.64-.91-.96-2.21-.77-2.96-.24-1.55,1.08-3.84,2.42-4.01,3.88-.51,4.23-.14,8.56-.11,12.87.03,2.98,2.19,4.43,4.96,3.22,1.41-.62,2.67-1.16,3.93.19.83.91,1.95.7,2.99.56,3.18-.45,6.4-.03,9.56-.03,6.36,0,12.79,1.56,19.09.22,4.83-1.02,9.56,1.18,14.47-.67,3.9-1.47,8.47-.33,12.7-2.09,1.41-.59,2.4-.29,3.44-2.07,1.31-2.23,1.76-3.75.14-5.92-.9-1.23-.72-2.9-.43-3.83,1.87-1.31,1.36,2.54,2.94.57.74-.92,1.45-2.15-.37-3.65Zm-80.05-132.48c-.96-.27-1.58-1.1-.82-2.09.78-.99,1.73-2.36,3.17-1.17,1.42,1.19,2.55,2.72,4.41,4.78-2.88-.64-4.86-.97-6.76-1.53Zm55.78,132.62c-.51.05-1.84-.13-1.81-1.98.03-1.79,1.29-2.58,2.89-2.6,1.63-.02,2.86,1.07,2.97,2.6.18,2.22-1.74,1.79-4.06,1.98Zm15.28,11.54c-.14,1.07-.77,1.29-1.58,1.29-2.17.02-4.27-.92-6.56.26-1.18.59-1.38-.99-.94-1.8.67-1.26,1.31-2.44.4-3.97h.03c8.47,1.85.96-4.54,3.68-5.53,1.81.96,5.23,7.7,4.97,9.76Z"/>
  <path class="cls-3" d="m429,369.64c-1.44.69-2.75,1.53-4.46,1.32-1.01-.11-2.35-.73-1.78-1.48,2.13-2.76-.19-5.69.53-8.48,1.26.41,2.81,2.93,3.01,1.31.26-2.22,2.8-4.66.78-6.68-2.06-2.06-1.41-4.93-2.96-7.08-.51-.7-.85-2.96.7-3.49,2.08-.7,1.82-1.72.78-2.84-1.05-1.12-2.51-1.12-3.47.18-1.38,1.85-2.69,1.58-4.67.22,3.02-1.43,5.71-2.6,4.4-6.6-.35-1.08.93-3.49,3.32-1.34,1.9,1.71,5.15,1.87,5.39.62.5-2.62-2.11-5.49-2.94-5.36-4.25.69-4.01-2.92-5.72-4.75-3.31-3.56-.75-6.14,1.09-8.8.51-.75,1.1-1.4.48-1.96-3.48-3.16-3.41-8.99-8.52-11-1.15-.46-3.44-2.15-.34-3.64.69-.34.7-.78.22-1.18s-.88-1.16-1.68-.75c-.82.45-1.82,1.29-2.49.41-1.62-2.12-1.92-.41-2.85.61-2.88,3.13-.93,7.84-4.24,10.43,1.41,1.61,2.83-1.42,3.65.8.27.73-.34,1.18-.86,1.63-1.2,1.04-2.3,1.08-3.52-.02-.85-.75-1.18-1.67-1.57-2.68-.46-1.2-1.41-.97-2.25-.34-.74.56-1.84,1.82-.9,2.12,3.25,1.05,2.96,5.2,6.19,6.25-3.05.08-3.44,3.27-5.5,4.21-2.46,1.13-1.89,2.49-.14,3.24,2.89,1.26,1.55,1.85-.19,2.41-.9.29-1.97.22-1.86,1.53.08,1.07,1.02,1.83,1.87,1.79,4.29-.29,6.22,2.98,8.54,5.53,1.57,1.74,2.8,3.19,5.2,1.15,1.23-1.05,2.35,0,2.83,1.13.51,1.2-.99,2.58-1.37,2.39-2.56-1.24-6.04,2.06-7.82-1.8-.86.7-.34,2.87-1.95,2.02-1.78-.92-3.77-2.17-4.65-3.83-.82-1.51-1.3-4.02-2.94-3.56-2.89.81-6.63,1.02-8.01,4.37-.8,1.95-1.84,3.32-4.37,4.11,2.88,1.4,5.07,2.47,7.34,3.57-6.07,4.29-6.59,4.45-10.42,1.47-2.37-1.83-1.47-5.42-3.64-7.58-.4-.4,1.01-1.72,2.27-1.35.75.22,1.79.99,2.06,0,1.07-3.91,5.53-3.38,7.53-6.01.59-.78,2.17-1.24,1.28-2.42-.96-1.28-2.43-.56-3.68-.1-1.23.45-.45,2.04-1.45,2.63-2.49-1.98-2.38-2.04-3.63-4.77-.78-1.71-1.65-3.97-3.1-4.64-1.84-.85-1.55,1.87-2.38,2.89-.08.1-.24.1-.35.18-4.46,3.24-5.29,6.14-3.23,10.97.7,1.66.74,3.36.13,5.05-.22.59-.96,1.34-.27,1.75,3.15,1.91,2.4,5.84,4.53,8.44,1.1,1.34,2.99,3.25,3.04,4.59.14,3.86,1.76,4.1,4.97,3.11l.02-.02c-.89,1.77-4.57,2.49-1.61,4.99,3.12,2.63,6.2,5.2,8.31,8.8.69,1.16,1.84,1.99,3.66,1.8,3.68-.4,7.34.46,11.06.27,4.76-.25,9.61.41,13.99-2.17,1.85-1.1,3.55-2.02,4.75.86.42.99,7.35,1.15,7.43.27.16-1.63.11-3.45-.51-4.9-.72-1.67-2.14-.26-3.04.18Zm-31.34-23.94c.96-2.73-.4-4.13-2.59-5.2-.78-.37-1.93-.35-1.82-1.67.08-.96.78-1.29,1.57-1.55,1.5-.49,1.71.59,2.11,1.61.27.7.69,1.61,1.29,1.88,5.5,2.46.51,3.46-.56,4.93Zm17.09-12.76c1.37-2.71,1.55-5.7,4.51-5.42,1.42.14,4.4,1.47,3.64,3.33-1.32,3.29-4.83,1.19-8.15,2.08Zm-.85,30.91c-.62-1.37-1.93-2.81-3.76-3.22-1.42-.34-2.77-.77-3.52-2.19h.02c7.84-1.91,10.09,4.39,14.23,8.37-4.92,2.01-4.76,1.93-6.97-2.96Zm7.5-10.83c-2.49-.53-5.04,2.47-7.39-.24,1.57-1.19.61-3.41,1.5-4.45.72-.83,1.41,1.02,1.95,1.83,1.58,2.34,3.28,1.47,5.32-.3h.02c-.13,1.79.56,3.57-1.41,3.16Z"/>
  <path class="cls-3" d="m406.3,197.97c-.03.48-.85.99-1.39,1.31-3.2,1.82-5.88,4.21-8.39,6.87-2.91,3.08-4.08,7.83-8.94,9.04-1.09.27,0,1,.08,1.55.78,4.97-1.92,8.96-6.6,9.95-.41.08-.75.67-1.04,1.08-1.57,2.2-2.49,4.58-2.32,7.37.19,3.17,2.41,3.94,4.91,4.21.7.06,1.61-.59,1.97.4.48,1.36-.72,1.39-1.6,1.64-.81.24-1.6.7-1.47,1.61.13.88.94,1.23,1.81,1.21,1.53-.03,2.78.43,3.85,2.06h.1c-2.57,1.59-7.03-1-7.23,4.18-.05,1.48-1.58,3.32.57,3.99,1.76.56,4.05,2.12,5.77-.38.75-1.1,1.44-2.42,3.12-1.63.56.27,1.47,1.1,1.39,1.24-.69,1.31-1.33,3.3-2.4,3.6-6.25,1.74-3.6,7.73-5.76,11.37-.45.73.22,1.55,1.07,1.83.77.27,1.21-.25,1.6-.83,2.97-4.42,8.81-6.79,9.22-13.03.03-.4.61-.89,1.04-1.15,1.79-1.08,2.32-2.68,2.4-4.67.26-6.71,3.74-12.53,5.4-18.86.34-1.21,1.12-2.07,2.4-2.42,1.21-.32,2.69-.16,2.88-2.09.21-2.22-1.95-2.04-3.02-2.92.72-1.19,2.69-.37,2.75-2.09-.72-1.04-1.7-.41-2.54-.4-4.16.1-4.6-1.34-4.72-5.58-.11-3.78,2.33-6.3,2.93-9.41,1.01-5.33,4.65-8.69,7.85-12.21,4.22-4.66,6.84-9.74,7.02-15.95.03-1.52-.66-2.98.26-4.53.51-.86.08-1.87-.96-2.26-1.29-.49-2.65-.48-3.87.16-.93.49-.3,1.36-.29,2.1.09,3.4.57,6.68-.1,10.24-1.05,5.57-7.39,7.69-7.75,13.4Zm-14.66,50.96c-1.46-2.15-2.15-5.27-2.08-9.36,5.08,2.52,2.76,6.09,2.08,9.36Z"/>
  <path class="cls-3" d="m378.21,188.3c1.66-1,3.58-2.65,5.18-4.37,3.77-4.06,6.17-9.07,9.94-13.08,1.25-1.32,1.77-3.13,2.32-4.94,1.01-3.38.3-7.49,2.72-10.11,2.22-2.41,1.98-3.91-.77-6.22,3.93-.05,5.16-2.72,7.23-4.84-1.62-1.13-3.46.19-4.71-1.21-.94-1.04-1.95-1.08-3.13-.16-1.31,1.02-1.29,2.07-.78,3.49.82,2.28-1.7,4.55-.18,6.97.19.3-.45,1.31-1.2,1.37-3.34.3-2.38,3.24-1.98,4.48,1.02,3.24-.4,5.36-2.25,7.41-2.56,2.84-6.32,5.12-7.71,8.4-1.82,4.3-5.56,6.62-8.1,10.06-2.29,3.09-4.62,7.08-9.75,6.83-1.5-.08-1.54,1.99-1.87,3.19-.58,2.04-1.39,3.86-3.55,4.42-4.4,1.15-6.03,5.74-9.82,7.69-.81.41-1.09,2.07-.77,3.32.19.77.35,1.45,1.58.92,3.69-1.58,6.38-5.13,10.74-5.45.93-.06.88-1.2,1.23-1.88.59-1.16,1.06-2.62,2.02-3.37,4.95-3.84,8.06-9.55,13.61-12.93Z"/>
  <path class="cls-3" d="m404.85,144.73s0,0,0,0c.01,0,.03.01.04.02l-.03-.03Z"/>
  <path class="cls-3" d="m155.46,68.04c3.42-1.93,7.08-2.1,10.84-1.98,1.34.05,2.25-.43,1.68-1.8-.51-1.23.43-2.03.42-2.9-.06-2.93,3.95-5.15,1.69-8.21-1.82-2.47-.85-3.22,1.41-4.13,4.19-1.67,7.5-4.15,8.35-9.06.42-2.41-.64-5.45-2.03-5.15-3.26.72-5.79.18-8.46-1.35-.37-.21-1.44,0-1.47.16-.61,3-3.79,4.45-4.43,7.38-.26,1.18-.26,2.42.89,3.25,1.9,1.37,2.41,3.08,1.39,5.2-1.07,2.23-2.91,1.15-4.19,1.05-1.6-.48-2.49.08-2.81,1.21-.51,1.8,1.31,2.38,2.08,3.52.64.96,2.78-.1,2.48,1.9-.3,1.98-1.97,1.75-3.39,1.98-2.83.45-4.94,2.23-6.89,4.13-.89.86-1.28,2.23-.46,3.28.67.86,1.65,2.23,2.91,1.52Z"/>
  <path class="cls-3" d="m207.29,170.36c-1.29-1.23-1.44-2.84-1.2-4.43.32-2.11.21-3.68-2.48-3.81-.93-.05-1.26-.96-1.46-1.71-.14-.56.41-1.18.89-1,5.05,1.9,3.53-1.39,3.15-3.86-.05-.3.3-.72.54-1.02,1.01-1.31.56-2.87-.29-3.65-1.97-1.82-2.65-3.3-.51-5.5.64-.65.5-2.33-.67-2.73-1.65-.57-1.41.97-1.6,1.94-.3,1.53-.64,3.06-1.01,4.59-.38,1.58-2.21,2.6-2.89,1.8-1.74-2.01-4.65-2.03-6.51-4.11.16,1.55-1.44,2.63-.69,4.23,2.11,4.46.72,10.67,6.62,13.28.24.11.37.69.4,1.07.3,3.21,2,5.47,4.35,7.61,1.21,1.12,1.84,1.15,2.89.24.98-.84,1.73-1.72.45-2.93Z"/>
  <path class="cls-3" d="m240.15,197.31c1.41.7,2.24,1.82,3.02,3.05,2.93,4.58,7.5,7.22,12.17,9.44,2.33,1.1,5.32.4,7.13,3.32.69,1.12,3.01.5,4.32-.62.98-.83.51-2.09-.3-2.3-4.16-1.05-6.78-4.35-9.9-6.78-3.57-2.76-8.57-4.19-9.7-9.62-.66-3.11-4.05-3.43-6.35-4.58-1.02-.51-3.98-.18-2.11,2.74.4.62.43,1.21,0,1.83l.02-.02c-.66,1.77.37,2.85,1.71,3.52Z"/>
  <path class="cls-3" d="m276.53,14.14c1.25.22,2.54-.84,3.2,1.58.83,3.06,1.76,5.52-2.96,6.35,2.48,2.1,4.33.54,5.9-.11,1.01-.43,4.3-.69,1.62-3.75-.69-.78-2.82-5.01,1.6-6.65,1.45,3.89,4.89,2.22,7.51,2.54,1.63.19,1.61-1.21.88-2.54-.86-1.56-1.44-3.95.38-4.48,2.91-.83,1.81-3.52,3.2-4.94.74-.75-.26-1.4-.88-1.82-.75-.51-1.85-.4-2.09.33-1.04,3.25-3.53,2.9-6.04,2.73-1.09-.08-1.73.96-2.45,1.31-3.45,1.66-5.37,6.08-9.87,5.69-1.68-.14-2.7.4-2.85,1.93-.21,2.1,1.69,1.63,2.85,1.83Z"/>
  <path class="cls-3" d="m183.74,162.92c-.53,6.9.37,13.54,4.19,19.17,3.06,4.48,6.73,8.55,9.16,13.47.27.52.85,1.02,1.39,1.23.27.11.8-.49,1.21-.77-2.46-2.98,1.95-6.08-.19-9.07-1.28-1.82-2.53-3.62-4.06-5.25-2.01-2.14-5.18-4.37-5.39-6.78-.43-4.94-.91-9.3-6.31-12.02v.02Z"/>
  <path class="cls-3" d="m188.09,205.55h0s0-.02,0-.03v.03Z"/>
  <path class="cls-3" d="m198.9,219.37c.64-2.7-1.85-4.05-4.38-4.61-.5-.09-1.04,0-1.63,0,2.17-3.54,1.01-5.8-4.79-9.21.11,1.55.22,2.93.3,4.29.05,1,.48,2.28-1.07,2.52-1.39.21-2.21-.56-2.49-1.95-.73-3.59-3.55-6.75-2.21-10.81.22-.65.02-1.72-1.01-1.82-.7-.06-1.12.56-1.17,1.32-.21,3.68-.96,6.95.75,11.02,2.54,6.04,6.73,8.79,12.28,10.3,1.63.45,4.76,1.74,5.42-1.05Z"/>
  <path class="cls-3" d="m234.85,171.7h-.02c-2.57-.02-5.96,3.19-5.32,5.39.97,3.38,2.22,6.7,3.6,9.93.89,2.1,2.21,1.96,3.48.11,1.58-2.28,2.21-4.88,3.04-7.46.72-2.22-2.38-7.97-4.78-7.97Z"/>
  <path class="cls-3" d="m364.76,137.11c-2.64.99-4.14.85-5.21-2.23-.74-2.1-4.75-3.46-5.34-2.42-.65,1.18-3.44,1.48-2.14,3.17,1.36,1.77,1.89,4.8,4.51,5.02,2.16.19,2.27.67,1.97,2.57-.21,1.26-.08,3.35,1.33,3.78,1.39.43,3.07-.37,4.11-1.77,1.29-1.75,3.55-3.01,2.88-5.92h.02c.43-1.61.02-3-2.11-2.2Z"/>
  <path class="cls-3" d="m382.86,307.01l-.02-.02c-1.07-.3-2.16.18-2.35,1.31-.45,2.73-2.83,5.72,1.21,7.99,1.29.73,2.96,1.69,3.1,3.81.1,1.45,2.8,1.12,2.57,3.08,1.18-1.53,3.77-1.55,4.08-4.16.32-2.71.26-4.69-3.05-5.53-1.47-.38-3.92-1.47-2.94-3.76,1.37-3.24-.91-2.46-2.61-2.71Z"/>
  <path class="cls-3" d="m163.82,331.5c-.86-.75-1.36-2.04-3.04-.35-1.31,1.32-3.55,3.11-5.93,1.43-2.25-1.58-2.51-4.16-2.99-6.65-.38-2.01,2.35-1.08,2.24-2.79v-.02c-.67-.81-1.25-2.04-2.49-2.12-1.21-.08-.53,1.37-.77,1.61-2,2.01.08,4.58-1.6,7.14-2.67,4.1-.08,6.57,5.04,5.71,2.56-.41,5.1-.4,7.53.73,1.57.72,2.62-.22,3.31-1.37.88-1.48-.3-2.47-1.3-3.33Z"/>
  <path class="cls-3" d="m352.91,109.84c.34,1,.59,2.04.99,3.01.27.65.82,1.07,1.58.77.72-.29,1.12-1.02.69-1.58-1.39-1.83-.59-3.48.48-5.45v-.02c-1.94-3.71-1.34-8.59-4.97-11.88-.86-.78-1.69-1.43-2.7-.51-1.29,1.2-1.52,7.53-.1,8.39,2.86,1.72,3.12,4.62,4.03,7.27Z"/>
  <path class="cls-3" d="m437.46,349.61c.7-2.1-.03-3.09-1.6-3.83-2.22-1.04-3.49.81-5,1.61-1.47.77-.27,1.96-.08,3.08.54,3.24,3.77,4.53,4.91,7.27.32.75-.22,2.14,1.31,1.91.91-.13.83-1.21,1.25-1.82,2.08-3.09-.58-5.74-.78-8.21v-.02Z"/>
  <path class="cls-3" d="m165.53,81.44c-4.27-1.29-6.35,2.47-9.13,4.64-.67.51-3.04.8-1.5,2.71,1.21,1.51,2.49,1.02,3.76-.03,2.08-1.72,4.35-2.45,7.15-2.41,2.11.03,5.69.27,5.5-2.89-.17-2.66-3.26-2.39-5.77-2.03Z"/>
  <path class="cls-3" d="m191.02,236.57v-.02c-2.99-5.76-9.35-6.46-13.61-10-.85-.7-2.35.08-2.96,1.31-.83,1.72.48,2.71,1.66,3.01,2.62.69,4.97,1.96,6.99,3.51,2.32,1.79,4.53,2.92,7.91,2.18Z"/>
  <path class="cls-3" d="m164.76,102.79s0-.01,0-.02c0,0-.01.01-.02.02h.02Z"/>
  <path class="cls-3" d="m176.78,93.65c-.99-3.13-2.37-.02-3.52.14-6.84.96-7.86,2.04-8.5,8.98,2.7-2.75,5.87-3.8,9.03-4.88,2.09-.72,3.72-1.96,2.99-4.24Z"/>
  <path class="cls-3" d="m414.12,288.15c-1.53-.4-3.13.56-3.13,2.17-.02,1.23-.62,2.23-.66,3.68,2.03.11,3.77-.22,4.78,1.82.61,1.24,2.11,1.13,3.2.64,1.09-.51,2.32-2.03,1.63-2.78-1.79-1.98-2.99-4.78-5.82-5.53Z"/>
  <path class="cls-3" d="m392.67,131.24h.02c.38-.26,1.2-.62,1.17-.78-.59-2.5,1.57-4.69.93-7.11-.48-1.8-.9-3.24-3.71-1.93-4.2,1.95-4.81,2.5-1.73,5.85,1.15,1.24.88,3.68,3.33,3.97Z"/>
  <path class="cls-3" d="m175.49,106.81c-.1.45,0,1.1.27,1.4.54.57,1.44.46,1.66-.21.8-2.33,2.72-1.59,4.32-1.74,2.38-.21,3.93-1.32,4.35-3.78.24-1.5-.22-2.33-1.89-2.14-1.93.03-8.3,4.69-8.71,6.46Z"/>
  <path class="cls-3" d="m262.04,249.88c-.03.4.3,1.1.66,1.24,1.87.78,2.56,2.31,3.26,4.1.67,1.71,2.06,3.24,4.05,3.44,1.17.13,2.57,1.82,3.49.26.75-1.32-1.2-1.77-1.82-2.68-.75-1.08-1.54-2.14-2.35-3.17-1.57-1.98-3.52-3.41-6.12-3.76l.02.02c-.51-.16-1.12-.02-1.17.56Z"/>
  <path class="cls-3" d="m352.54,170.28c-.13.4.05,1.05.32,1.39,1.15,1.42,1.79,3.84,4.59,2.49,1.09-.24,2.51,1.31,3.47-.4.45-.81.75-1.87.1-2.61-1.68-1.95-4.29-1.72-6.48-2.44-.93-.3-1.69.67-2,1.58Z"/>
  <path class="cls-3" d="m385.95,149.85c1.28-1.47,3.58-2.14,3.92-4.24l.03-.02c-1.02-2.46-.08-4,1.49-5.5.69-.65,1.02-1.8,1.23-2.79.1-.46-.74-.65-1.26-.53-1.3.3-2.45.57-2.75,2.31-.42,2.26-1.07,4.45-3.15,6.03-1.17.89-1.2,2.6-.74,4.03.11.35,1.15.78,1.23.7Z"/>
  <path class="cls-3" d="m192.44,243.87c1.01-.06,2.67,1.12,2.72-.89.03-1.5-1.39-2.07-2.85-2.07h-11.96c3.61,4.37,7.91,3.25,12.09,2.96Z"/>
  <path class="cls-3" d="m183.35,258.74c5.87,2.78,8.76,2.47,12.44-1.4-4.25.18-8.26-.86-12.44,1.4Z"/>
  <path class="cls-3" d="m396.11,136.77c2.72,0,4.24,1.96,6.19,3.35.93.65,2.8,1.15,3.76-.94-2.16-.86-4.36-1.72-4.62-4.47-.13-1.31-1.18-1.47-2.03-1.2-1.42.46-3.05.7-3.98,2.06-.13.18.45,1.2.69,1.2Z"/>
  <path class="cls-3" d="m422.07,267.2c2.8.09,5.08,3.09,8.53,1.04-.68-.74-1.27-1.24-1.67-1.85-1.66-2.63-4.41-3.25-6.68-1.48-.98.76-1.47,2.25-.18,2.3Z"/>
  <path class="cls-3" d="m430.61,268.24s0,0,0,0c0,0,0,0,0,.01v-.02Z"/>
  <path class="cls-3" d="m225.12,164.46c-.48-.11-1.23.53-1.26,1.29-.03.81.67.96,1.26,1.26,3.2,1.61,5.72.56,8.06-1.85h-.02c-2.61-2.06-5.42-.14-8.04-.7Z"/>
  <path class="cls-3" d="m343.17,134.94c.3,1.96,2.25,2.58,3.9,2.76,1.42.16,2.3-1,2.27-2.57-.03-2.52-2.41-1.9-3.68-2.82v-.02c-1.38.46-2.73,1.2-2.49,2.65Z"/>
  <path class="cls-3" d="m272.47,28.29c2.06.54,3.66-.81,6.09-2.2v-.02c-1.76-1-2.97-1.88-4.32-2.42-2.09-.84-2.8.89-3.48,2.26-.82,1.63.83,2.15,1.71,2.38Z"/>
  <path class="cls-3" d="m328.66,99.75c1.65-.45,3.66-.85,3.87-2.84.18-1.61-1.55-2.2-2.78-2.87h-.02c-1.69.83-2.96,1.91-2.93,3.91.02,1.16.35,2.22,1.85,1.8Z"/>
  <path class="cls-3" d="m192.87,143.07c1.74,1.4,2.89-.65,4.7-.78-1.3-1.51-2.29-2.71-3.33-3.87-.16-.17-.45-.21-1.12-.5-.12,1.91-2.36,3.49-.26,5.16Z"/>
  <path class="cls-3" d="m193.11,137.91s0,0,.02,0c0,0,0,0,0,0h-.02Z"/>
  <path class="cls-3" d="m201.66,240.76c-1.47.62-3.84.34-4.14,2.28-.22,1.45,1.79,1.08,2.85,1.66,1.61,0,2.7-1.02,3.07-2.44.27-1.04-.91-1.85-1.77-1.5Z"/>
  <path class="cls-3" d="m209.9,188.95c-1.9-.27-1.09,2.17-2.01,3.11l.02-.02c.19,1.31-.18,2.89,1.66,3.14,1.28.19,1.6-1.18,1.53-1.82-.16-1.58-.58-4.32-1.2-4.42Z"/>
  <path class="cls-3" d="m238.66,350.68c1.66-.59,1.85-2.36,2.65-3.59.03-.94-.62-1.07-1.28-1.07-2.57,0-1.79,2.46-2.61,3.73-.37.56.58,1.15,1.23.93Z"/>
  <path class="cls-3" d="m391.77,115.85c-.05,1.04-1.02,2.63.94,2.97.7.11,2.06-1.23,1.63-1.71-.93-1.02-.78-3.13-2.37-3.17-1.33-.05-.45,1.1-.21,1.9v.02Z"/>
  <path class="cls-3" d="m412.07,220.35c1.55-.21,2.46-1.47,2.94-2.81.22-.62-.59-1.05-1.42-.94-.9.58-2.86-.08-2.57,2.06.1.7-.11,1.85,1.05,1.69Z"/>
  <path class="cls-3" d="m264.12,102.43s0-.02,0-.03c0,0-.02,0-.03.01l.02.02Z"/>
  <path class="cls-3" d="m269.43,90.16c-1.31.4-2.38,1.55-2.45,2.79-.18,3.13-1.78,5.84-2.85,9.46,4.14-2,3.3-6,5.49-8.21.77-.78,2.16-1.45,1.26-2.9-.3-.51-1.1-1.24-1.45-1.13Z"/>
  <path class="cls-3" d="m233.6,116.44c-.45,1.21-.78,2.58.4,3.56.74.61,1.41-.11,2-.61,1.47-1.23.56-2.25-.26-3.28-.29-.36-.63-.7-.95-1.05-.41.46-1,.85-1.2,1.38Z"/>
  <path class="cls-3" d="m57.2,250.93c-.04-.35-.11-.34-.15-.69-.04-.35.08-.36.04-.71-.04-.35-.19-.33-.23-.67-.04-.34.19-.37.14-.72-.05-.34-.18-.32-.22-.67-.04-.35-.02-.35-.06-.7s-.11-.34-.15-.68c-.04-.34-.02-.34-.06-.69-.04-.35,0-.35-.04-.7-.04-.34.09-.35.05-.7-.04-.34-.09-.33-.12-.68-.04-.34-.19-.32-.23-.67-.04-.34.04-.35,0-.7-.04-.34-.11-.33-.14-.68-.04-.34-.09-.33-.13-.68-.05-.35.16-.36.12-.71-.04-.35-.02-.35-.06-.69-.04-.34-.05-.34-.09-.69-.04-.34-.21-.33-.25-.67-.04-.34.05-.35,0-.7q-.05-.34-.09-.69c-.04-.34-.14-.34-.18-.68-.04-.33.11-.35.07-.7-.04-.34-.22-.33-.26-.67-.04-.33.1-.35.06-.7-.04-.35-.12-.33-.17-.68s-.03-.34-.07-.69c-.04-.34.12-.37.09-.71-.04-.33-.22-.32-.27-.66-.05-.34,0-.34-.05-.69-.04-.34,0-.34-.04-.69s-.12-.33-.15-.68c-.04-.34-.1-.33-.14-.68-.05-.35,0-.35-.05-.69q-.04-.33-.09-.68c-.05-.34.09-.36.05-.7-.04-.33.02-.34-.02-.69-.04-.34-.05-.34-.09-.69-.04-.34-.05-.34-.09-.69-.04-.34-.15-.33-.2-.67s0-.35-.05-.69c-.04-.33-.12-.33-.16-.67-.04-.34-.07-.33-.1-.68-.04-.34.07-.35.03-.7-.04-.34.02-.34-.02-.69-.04-.34.02-.35-.02-.69-.04-.33-.18-.32-.23-.66-.05-.33-.12-.33-.17-.67-.05-.34,0-.34-.05-.69-.04-.34.17-.36.13-.71-.04-.34-.08-.33-.11-.68-.04-.34-.24-.33-.28-.66-.04-.33.04-.34,0-.69-.04-.34-.08-.34-.11-.68-.04-.34.14-.37.11-.71-.04-.33-.15-.33-.19-.67-.04-.34-.02-.34-.06-.69s-.1-.34-.13-.68-.12-.33-.16-.67c-.04-.34.16-.36.12-.71-.04-.34,0-.34-.05-.69-.04-.34-.05-.33-.09-.68-.04-.34-.13-.33-.17-.67-.04-.34-.03-.34-.07-.68-.04-.34.05-.36,0-.7-.04-.33-.21-.32-.25-.66-.04-.34.08-.35.04-.7-.04-.34-.16-.33-.21-.67-.05-.34.04-.36,0-.7-.03-.33.04-.34,0-.69-.04-.35-.18-.33-.23-.67-.05-.34.04-.36,0-.7-.04-.33-.06-.34-.1-.68-.04-.33.04-.35,0-.69-.04-.34-.26-.32-.31-.66-.05-.34.06-.36.02-.7-.04-.34-.12-.34-.16-.67-.04-.33.04-.35,0-.69-.04-.34.11-.36.08-.7q-.04-.33-.08-.68c-.04-.34-.11-.34-.14-.68-.04-.33-.03-.33-.08-.68-.05-.35,0-.35-.05-.69-.04-.33-.12-.33-.16-.67-.04-.34,0-.34-.04-.69-.04-.34-.07-.33-.11-.68-.04-.34-.18-.33-.22-.67-.04-.35-.02-.35-.06-.69-.04-.34,0-.34-.02-.69-.03-.34,0-.34-.03-.69-.04-.34-.07-.33-.11-.68-.05-.35.07-.35.02-.7-.05-.34,0-.34-.05-.69-.04-.34-.15-.33-.19-.67-.04-.34.07-.35.03-.7-.04-.35-.09-.33-.12-.68s-.17-.33-.22-.67c-.05-.34.05-.34,0-.69-.05-.34,0-.35-.05-.69-.04-.33-.21-.33-.25-.66-.04-.34.12-.35.09-.7-.04-.34-.1-.33-.14-.68-.05-.35,0-.35-.05-.69-.04-.33-.02-.34-.07-.68-.05-.33-.06-.33-.1-.68-.04-.35-.16-.33-.2-.67-.04-.33-.06-.33-.1-.68-.04-.35.13-.37.1-.71-.04-.34-.2-.33-.24-.66-.04-.33.04-.35,0-.69s-.05-.34-.09-.68c-.05-.33.11-.35.08-.7-.04-.34-.11-.33-.14-.68-.04-.34-.09-.33-.12-.68-.04-.35-.1-.34-.14-.68-.05-.34.12-.36.09-.71-.04-.34-.25-.33-.29-.66-.04-.34.12-.35.08-.7-.05-.34-.25-.32-.29-.66-.04-.34.21-.37.16-.71-.05-.33-.28-.31-.32-.65-.04-.34-.02-.35-.06-.69-.04-.34.05-.34,0-.69-.04-.34.07-.35.03-.7-.04-.34-.08-.33-.11-.68-.04-.35-.23-.32-.27-.66-.04-.34.09-.35.04-.7-.05-.34.1-.36.05-.7-.05-.33-.12-.33-.16-.67-.04-.34-.21-.33-.25-.66-.04-.33-.04-.34-.08-.68-.04-.34.16-.35.11-.7-.05-.35-.17-.33-.21-.67-.04-.33.07-.35.03-.69-.04-.33-.11-.33-.16-.67-.05-.33.04-.34,0-.69-.04-.34,0-.35-.03-.69-.04-.33-.11-.33-.15-.67-.04-.33-.19-.33-.23-.66-.04-.33.13-.36.1-.7-.04-.33-.11-.32-.15-.67-.04-.34-.13-.32-.17-.67-.04-.34.17-.37.13-.71-.04-.33-.19-.31-.23-.66s.1-.35.07-.7c-.04-.34-.13-.33-.17-.67q-.04-.33-.08-.68c-.04-.34.06-.36.02-.7-.04-.33-.11-.33-.15-.67-.04-.33-.05-.33-.09-.68s-.06-.34-.11-.68c-.05-.33.04-.34,0-.69-.04-.34-.14-.33-.18-.67-.04-.34-.06-.33-.1-.68s.1-.35.06-.7c-.04-.34-.1-.34-.13-.68-.04-.34-.18-.33-.22-.67-.04-.34.15-.36.11-.71-.04-.34-.21-.32-.26-.66-.05-.34.1-.36.06-.7-.04-.33.05-.34,0-.69-.05-.34-.08-.33-.12-.68-.05-.34-.15-.33-.19-.67-.04-.33.07-.35.03-.69s-.02-.33-.06-.68c-.04-.34-.22-.32-.27-.66-.05-.33.04-.34,0-.69-.04-.34-.05-.33-.09-.68-.04-.34.05-.34,0-.69-.05-.34-.22-.33-.27-.66s.04-.34,0-.69c-.04-.34-.05-.33-.1-.68s.11-.36.07-.7c-.04-.33-.03-.34-.07-.68-.04-.33-.03-.33-.07-.68-.04-.34-.16-.32-.19-.67-.03-.34,0-.34-.03-.69-.04-.34-.06-.34-.09-.68-.04-.33-.12-.33-.15-.67s.02-.35-.02-.69-.16-.33-.21-.66c-.05-.33,0-.33-.05-.68-.04-.34-.03-.34-.08-.68s.13-.36.1-.7-.27-.32-.31-.65c-.03-.23-.03-.42-.11-.63-.09-.21-.09-.46-.21-.64-.12-.18-.33-.29-.51-.43s-.37-.2-.57-.31c-.2-.1-.35-.31-.56-.36-.21-.06-.43-.16-.66-.16-.35,0-.34.12-.7.12s-.35-.04-.7-.04-.34-.1-.69-.1-.34.25-.69.25-.34-.08-.69-.08-.34,0-.69,0-.34-.15-.69-.15h-.69c-.34,0-.34.03-.69.03s-.34.12-.69.12-.34.03-.69.03-.34.02-.69.02-.34-.06-.69-.06-.34-.15-.69-.15-.34-.04-.69-.04-.35.21-.69.21-.34-.06-.68-.06-.34-.09-.68-.09-.33.17-.68.17-.34-.1-.69-.1-.34.1-.69.1-.34-.02-.69-.02-.34-.09-.69-.09-.34.06-.69.06-.34-.12-.69-.12-.34.06-.69.06-.34.13-.69.13-.34-.19-.69-.19-.34.19-.69.19h-.69c-.34,0-.34-.11-.69-.11s-.34-.05-.69-.05c-.23,0-.42.18-.64.24-.22.06-.49-.03-.68.08-.19.11-.32.33-.49.47-.16.14-.36.27-.49.45-.12.18-.1.45-.17.65-.08.2-.26.37-.29.59-.05.34.07.36.03.71s-.07.34-.1.69c-.04.34-.08.34-.12.69-.05.34.02.35-.02.7s-.09.33-.12.68-.1.33-.13.68-.12.33-.16.68c-.04.34,0,.34-.06.69-.05.34,0,.34-.05.69s.1.36.06.71c-.04.34-.23.32-.27.67s-.11.33-.14.68c-.04.34.08.35.03.7-.05.34-.08.33-.12.68s-.11.33-.15.68c-.04.34.08.36.04.7-.04.33-.05.34-.09.68s-.06.34-.1.68c-.04.33-.1.33-.14.67-.04.34.17.36.12.71-.05.34-.23.32-.27.67-.04.34.06.35.02.7-.04.34-.06.34-.1.69s-.13.33-.18.68c-.05.34.1.36.07.71s-.17.33-.21.67c-.04.34-.02.34-.06.69-.04.35-.03.35-.07.69-.04.34-.12.33-.16.68-.04.34.1.36.06.71-.04.34-.02.34-.06.69-.04.34.06.35.02.7-.04.34-.25.32-.29.66-.04.34,0,.34-.04.69-.04.34-.02.34-.06.69-.04.34.1.35.06.7q-.04.34-.08.69c-.04.35-.22.32-.27.66-.05.34-.08.34-.11.68-.04.33.1.35.06.7-.04.34-.08.33-.12.68-.04.35.08.35.03.7-.05.34-.16.32-.21.67-.05.34,0,.34-.05.69-.04.34-.18.33-.22.67-.04.34.04.34,0,.69-.04.34.03.35,0,.69-.04.33.04.35,0,.69-.04.33-.21.32-.25.66-.04.34-.1.33-.13.68-.03.34,0,.34-.03.69-.04.34.02.34-.03.69-.05.34.05.35,0,.7-.04.34-.06.33-.1.68-.04.34-.15.32-.19.67-.04.34.11.35.06.7-.05.34-.18.33-.22.67-.04.34.14.36.1.71-.04.34-.06.33-.1.68-.05.34-.25.32-.3.66-.05.34.1.36.06.7-.04.33-.02.33-.06.68-.04.34-.07.34-.11.68-.04.33,0,.33-.05.68-.04.35.04.35,0,.69-.04.33-.03.33-.07.68-.04.34-.17.32-.21.67-.04.34,0,.34-.05.69-.04.34-.12.33-.16.68-.04.34.04.35,0,.7-.04.34.04.36,0,.7-.04.33-.22.33-.26.66-.04.33-.06.33-.1.68q-.04.35-.08.69c-.04.34-.07.33-.1.68-.04.34.02.34-.02.69-.04.34-.09.34-.12.68-.04.33.11.36.07.7-.04.33-.03.33-.08.68-.05.34,0,.34-.05.69-.04.35,0,.35-.04.69-.05.33-.13.33-.18.67q-.05.33-.09.68c-.04.34-.16.32-.2.67-.04.34.12.36.09.71-.04.34-.18.33-.23.67-.05.33-.06.33-.1.68-.04.34.07.35.03.7-.04.34,0,.34-.04.69-.04.34-.12.33-.16.68-.04.34-.06.33-.1.68-.05.34.09.35.04.7-.05.34-.08.33-.12.68-.04.34-.09.33-.13.68-.04.35-.14.33-.18.67-.04.34.1.35.06.7-.04.34-.07.33-.1.68-.04.35.02.35-.03.69-.05.33-.12.33-.16.67-.04.33.04.34,0,.69-.04.35-.1.35-.14.68-.04.34-.04.34-.08.68-.04.33-.11.33-.15.67-.04.33.07.34.02.69-.05.35,0,.35-.05.69-.04.33.04.35,0,.69-.04.33-.11.32-.16.67-.05.35-.07.34-.11.68-.04.34.06.36.02.7-.04.33-.12.33-.16.67-.04.35,0,.35-.06.69-.05.34-.06.34-.1.68-.05.33-.14.32-.18.67-.04.34-.09.33-.12.68-.04.35,0,.35-.03.69-.04.34.02.35-.02.69-.04.33-.05.33-.09.68-.04.34-.11.34-.14.68-.04.34.05.35,0,.7-.04.34.08.35.03.7-.05.35-.24.32-.28.66-.04.34,0,.34-.05.69s-.09.33-.13.68c-.04.34.19.36.15.71-.04.34-.15.33-.19.67-.04.34.07.36.03.7-.04.33-.11.33-.14.67-.04.34-.1.33-.13.68-.04.34.03.34,0,.69-.04.35-.14.33-.19.67-.05.35,0,.35-.05.69-.04.33-.12.33-.16.67-.04.33-.03.34-.07.68q-.04.33-.08.68c-.04.35-.09.35-.12.68-.04.33.21.37.17.71-.04.33-.29.32-.33.65-.04.33.12.36.09.7-.04.33,0,.34-.05.68-.04.33-.2.31-.24.66-.04.34-.08.34-.12.68-.04.33-.04.34-.08.68-.04.33.06.35.02.69-.04.33,0,.33-.06.68-.05.34-.08.34-.11.68-.04.33-.04.34-.08.68-.04.33-.12.33-.16.67-.04.34-.02.34-.07.68-.05.34,0,.34-.05.69-.05.35,0,.35-.05.69-.04.34-.08.34-.12.68-.04.33-.05.33-.09.68-.04.34.09.36.04.7q-.05.33-.09.68c-.04.35.03.35-.02.69-.05.34-.11.34-.13.68-.03.33.04.34,0,.69-.04.34-.06.33-.1.68-.04.34-.14.33-.18.67-.04.34-.17.33-.21.67-.04.34.07.36.03.7-.04.34.11.36.08.7-.04.33-.27.31-.31.65-.04.34.03.34,0,.69-.04.35.02.35-.02.69-.04.34,0,.34-.04.69-.05.34.02.35-.02.69-.04.33-.12.33-.15.67-.04.34-.23.33-.27.66-.04.33.13.35.1.7-.04.35,0,.35-.04.69-.04.34-.24.31-.28.66-.04.35-.05.35-.09.68-.05.33.05.35,0,.69-.04.33.12.35.09.7-.04.34-.22.31-.26.66s-.07.33-.1.68c-.04.34.05.34,0,.69-.05.35.02.35-.02.69-.04.34.02.34-.02.69-.04.34-.12.33-.16.67-.04.34,0,.35-.04.68-.04.34-.17.32-.21.66-.04.35-.05.35-.09.68-.04.34-.02.34-.06.68-.04.33-.1.33-.14.67s.12.35.09.7c0,.25.04.49.09.76.05.25.02.55.12.78s.2.5.36.72c.17.17.47.24.69.36.22.12.42.32.66.39.26.08.52.05.76.05h.69c.34,0,.34.03.69.03s.34-.1.69-.1.34.06.69.06.34.07.69.07.34-.1.69-.1.34.08.69.08.34-.06.69-.06.34.12.69.12.34.05.69.05.34-.1.69-.1.34-.03.69-.03.34.05.69.05.34-.14.69-.14.34.05.69.05.35.12.69.12.34-.02.68-.02.34-.13.68-.13.33.2.68.2.34-.03.69-.03.34.06.69.06.34-.05.69-.05.34-.16.69-.16.34.11.69.11c.23,0,.46-.07.68-.12.22-.06.37-.26.57-.36.2-.1.41-.18.57-.33.16-.15.31-.32.44-.51.12-.19.22-.39.3-.61.07-.21.03-.43.06-.67.04-.34.18-.23.23-.66.02-.19.13-.41.16-.68.02-.21-.18-.47-.15-.72.03-.21.18-.43.21-.67.02-.22.1-.44.12-.68.03-.23,0-.46.03-.7.02-.23-.09-.48-.07-.71.03-.23.19-.46.21-.68.02-.22-.06-.48-.03-.7.03-.22.02-.46.05-.69.03-.23.11-.46.14-.68.03-.22.11-.45.12-.68.02-.23-.02-.47,0-.7.02-.23.11-.45.14-.68.03-.23.08-.46.1-.69.02-.23-.12-.48-.1-.71.03-.23.3-.43.32-.66.02-.23-.12-.48-.1-.71.03-.23,0-.46.03-.69.02-.23.07-.45.09-.68.02-.23.03-.46.05-.69.02-.23.1-.45.12-.68.02-.23.2-.43.23-.67.03-.24-.11-.48-.08-.71.03-.23.17-.44.21-.67.04-.23,0-.47.04-.69.03-.24-.04-.48,0-.7.03-.24.09-.46.11-.68.03-.24-.06-.48-.03-.69.03-.26.15-.48.17-.68,0-.23.17-.38.27-.55.1-.18.19-.34.37-.45.17-.1.35-.31.58-.31.34,0,.34.19.69.19s.34-.19.69-.19.34.03.69.03.35.09.69.09.33.09.68.09.34-.11.69-.11.34.04.69.04.34-.12.69-.12l.06-.04c.22,0,.47.11.64.2.18.1.22.36.32.54.1.17.18.34.18.56.03.2.02.44.05.69.02.22.21.43.24.67.03.22.04.45.07.69.03.22.11.44.13.68.03.22,0,.45.04.69.02.23-.1.49-.08.71.03.22.19.44.21.67.02.23-.12.48-.1.71.02.23.28.45.3.67.03.22.04.46.07.69.03.23.06.46.09.69.03.23-.15.49-.13.72.02.23.04.46.07.69.03.23.13.45.15.68.02.23-.03.47,0,.7.03.23.03.46.06.69.03.23.2.44.23.67.03.23.11.45.12.68.02.23-.04.47-.02.7.02.23.11.44.12.68.02.24-.12.48-.1.71.02.23.13.44.15.67.02.23.12.45.14.68.03.23,0,.47.03.69.03.24-.03.48,0,.7.03.24.05.47.07.69.03.25.13.47.15.68.03.25.17.46.19.67.03.27.04.5.06.69.05.44-.16.36-.12.71.02.24.23.44.3.65.08.23.02.51.14.71.12.2.37.3.54.46.17.16.35.31.55.41.2.1.4.24.62.3.22.07.47,0,.7,0,.34,0,.35.09.7.09s.35-.11.7-.11.34-.03.7-.03.34.08.7.08.34.05.7.05.34.03.7.03.34-.02.7-.02.34-.03.7-.03.34.09.7.09.34-.12.7-.12.35.07.7.07.34-.1.69-.1.34.02.69.02.33.07.69.07.35-.05.7-.05.34.17.69.17.34-.09.69-.09.34-.09.69-.09.34.12.69.12.34-.15.69-.15.34.17.69.17.33-.04.69-.04.35.07.7.07.34-.16.69-.16.34.1.69.1c.21,0,.39-.19.59-.23.2-.04.37-.09.56-.17.19-.08.44-.01.61-.12.18-.11.33-.28.46-.41.16-.22.34-.41.45-.66.11-.25.12-.54.16-.78.05-.27,0-.53,0-.77-.03-.34.12-.36.09-.71s-.14-.33-.18-.68Zm-25.73-41.43c-.09.16-.22.29-.37.37-.15.09-.35.13-.53.13-.37,0-.38.09-.75.09s-.38-.16-.75-.16-.37-.09-.75-.09-.37.23-.75.23-.38-.13-.75-.13c-.18,0-.32-.09-.47-.17-.14-.09-.29-.16-.37-.33-.19-.1-.4-.2-.44-.41-.03-.16.1-.36.1-.59.02-.34-.08-.35-.04-.7.04-.34,0-.34.04-.69.03-.34.1-.33.13-.68.04-.35.08-.33.11-.68s-.03-.34,0-.69c.03-.34.11-.33.13-.68.03-.35.06-.34.09-.68.03-.34-.13-.35-.1-.7.03-.34.28-.31.31-.66.03-.34-.13-.35-.11-.7.03-.34,0-.34.02-.69.03-.35.04-.35.08-.68.04-.33,0-.34.04-.68.03-.33.09-.33.11-.67.03-.34.19-.33.22-.67.03-.34-.12-.36-.1-.7.03-.34.18-.33.2-.66.02-.33-.02-.34.02-.68.04-.33-.05-.33-.02-.68.03-.34.06-.34.1-.68.04-.33-.07-.35-.04-.69.03-.33.11-.33.15-.67.04-.34.16-.33.19-.67.03-.34-.04-.35,0-.69.04-.33-.12-.35-.09-.69.04-.34.22-.33.26-.66.04-.33-.17-.36-.12-.7.06-.22.18-.46.31-.63.13-.18.36-.28.55-.38.19-.1.4-.08.62-.08s.44-.06.61.04c.18.11.31.29.41.47.1.18.28.37.28.59v-.04c.04.34-.09.34-.08.7,0,.35.1.35.14.69.04.34.03.34.07.69.04.34,0,.34.04.69s.14.33.17.67c.03.34-.02.34,0,.69.03.35-.03.35,0,.69.03.33.12.33.16.67.04.34-.04.34,0,.69.04.35.1.33.13.68s-.09.35-.05.7c.04.34-.02.34.02.69.04.34.14.33.18.67.04.34.07.33.1.68.03.34,0,.35.02.69.03.33.18.32.21.66.03.33,0,.35.03.68.03.33-.09.35-.05.69.04.33.05.32.09.67.04.34.17.33.2.67.03.33-.17.35-.13.7.04.34.08.33.11.68.03.34-.03.34,0,.69.04.34.08.34.11.68.04.33.19.33.23.66.04.34-.08.34-.04.69.04.34.08.33.11.68,0,.23.12.44.1.6-.04.21-.21.38-.4.48Z"/>
  <path class="cls-3" d="m573.96,144.06c0-.34-.1-.35-.1-.69v-.68c0-.33,0-.34,0-.68s-.06-.33-.06-.68.11-.35.11-.69-.11-.34-.11-.68.04-.33.04-.68v-.69c0-.33-.14-.34-.14-.68s.09-.34.09-.68,0-.34,0-.68.14-.34.14-.68-.15-.33-.15-.68-.04-.33-.04-.68.18-.33.18-.68-.07-.34-.07-.68.03-.34.03-.68-.08-.34-.08-.68.02-.34.02-.68.08-.34.08-.68-.2-.34-.2-.68.16-.34.16-.68-.04-.34-.04-.68.05-.34.05-.68-.18-.34-.18-.68.07-.34.07-.68.07-.34.07-.68.07-.33.07-.68c0-.24-.02-.51-.09-.75-.07-.24-.32-.41-.43-.62-.12-.21-.12-.53-.31-.7-.17-.17-.5-.15-.71-.28-.21-.12-.36-.42-.59-.49-.23-.07-.51.07-.75.07-.35,0-.34.03-.7.03s-.35-.15-.7-.15-.35.13-.69.13-.34-.17-.69-.17-.34.19-.69.19-.34-.04-.69-.04-.35-.06-.69-.06-.34.1-.69.1-.35-.1-.69-.1-.34.03-.69.03-.35.02-.69.02h-.69c-.34,0-.34.09-.69.09s-.34-.06-.69-.06-.34.06-.69.06-.34-.11-.69-.11-.35-.02-.69-.02-.34.09-.68.09-.33-.06-.68-.06-.34-.06-.69-.06-.34.15-.69.15-.34-.08-.69-.08-.34-.1-.69-.1-.34-.03-.69-.03-.34.14-.69.14-.34-.15-.69-.15-.34.21-.69.21-.34-.07-.69-.07-.34-.16-.69-.16-.34.13-.69.13-.34-.08-.69-.08-.34.17-.69.17h-.69c-.34,0-.34-.02-.69-.02s-.34-.14-.69-.14-.34-.07-.69-.07-.34.23-.69.23-.34.03-.69.03-.34-.03-.69-.03-.34-.08-.69-.08-.35-.06-.69-.06-.34.1-.69.1-.35,0-.69,0-.34.06-.68.06-.34,0-.68,0-.35-.07-.68-.07-.34-.12-.68-.12-.34-.03-.68-.03-.34.11-.68.11-.34-.09-.68-.09-.34.19-.68.19-.34-.17-.68-.17-.34.11-.68.11-.35-.15-.68-.15-.34.22-.68.22h-.69c-.34,0-.34-.15-.69-.15s-.34-.03-.69-.03-.35.1-.69.1-.34,0-.68,0-.34.09-.68.09-.35-.22-.68-.22-.34.09-.68.09-.34.07-.68.07-.33.1-.68.1-.33-.11-.68-.11-.35-.11-.69-.11-.34.11-.69.11c-.25,0-.48.09-.71.14-.23.06-.55-.03-.76.09-.21.12-.3.42-.47.6-.18.16-.28.37-.4.58-.12.21-.24.4-.31.64-.07.24-.17.46-.17.71,0,.34.11.34.11.69s-.14.34-.14.69.1.34.1.69-.06.35-.06.69.03.34.03.68.05.34.05.68-.12.33-.12.68-.06.35-.06.69.13.34.13.68-.11.33-.11.68v.69c0,.33.19.34.19.68s-.21.34-.21.68.09.34.09.68.07.34.07.68-.05.33-.05.68-.12.33-.12.68.13.33.13.68-.07.34-.07.68.14.34.14.68-.14.34-.14.68,0,.34,0,.68-.07.34-.07.68.19.34.19.68-.07.34-.07.68-.15.34-.15.68.15.34.15.68.06.34.06.68,0,.34,0,.68-.06.34-.06.68.03.33.03.68c0,.25.02.47.09.71.07.24.2.43.32.64s.2.43.38.6c.17.17.3.4.51.53.21.12.45.26.68.33.23.07.5.03.75.03.35,0,.35.07.71.07s.35-.09.71-.09h1.41c.34,0,.35-.1.7-.1s.35.12.7.12.35.08.7.08.35-.11.7-.11.35.11.7.11.35-.19.7-.19.35.21.7.21.35-.07.7-.07.35-.04.7-.04h.7c.34,0,.34.03.7.03s.69.09.93.33c.25.24.4.56.4.91l.02-.02c0,.34.09.34.08.7,0,.35-.19.34-.19.7s.03.35.03.7-.05.35-.05.7.23.34.23.69-.11.34-.11.69.11.33.11.69-.07.35-.07.7-.06.34-.06.69.07.33.07.69-.12.35-.12.7.04.34.04.69-.09.34-.09.69,0,.34,0,.69v.69c0,.34-.04.34-.04.69s.25.34.25.69-.25.34-.25.69.16.34.16.69.03.34.03.69-.16.34-.16.69-.04.34-.04.69v.69c0,.34.09.34.09.69s.02.34.02.69-.03.35-.03.69v.69c0,.34-.08.34-.08.69s0,.34,0,.69.04.35.04.69.04.34.04.69-.04.34-.04.69v.69c0,.35.12.35.12.69v.69c0,.35.07.35.07.69s-.05.34-.05.69.08.35.08.69-.02.34-.02.69-.1.34-.1.69-.12.34-.12.69.1.35.1.69.16.34.16.69-.23.35-.23.69.07.34.07.69.06.34.06.69.04.34.04.69.07.34.07.69-.08.34-.08.69-.19.34-.19.69.17.34.17.69.05.34.05.69-.2.34-.2.69-.02.34-.02.69.1.34.1.69.17.34.17.69-.18.34-.18.69-.03.34-.03.69.08.34.08.69.07.34.07.69.06.34.06.69-.09.34-.09.69.04.35.04.69-.13.34-.13.68v.68c0,.34.03.34.03.69s-.07.34-.07.69.18.35.18.69,0,.34,0,.69-.12.35-.12.69-.04.34-.04.69.12.35.12.69-.1.34-.1.69.07.34.07.69v.69c0,.35-.03.35-.03.69s.1.34.1.69-.06.35-.06.69-.07.34-.07.69.1.35.1.69-.08.34-.08.69.06.34.06.69-.12.34-.12.69-.05.35-.05.69.1.34.1.69.03.35.03.69-.05.34-.05.69.14.34.14.69-.05.34-.05.69-.12.34-.12.69.02.34.02.69.13.34.13.69-.2.34-.2.69.03.34.03.69-.06.34-.06.69.05.34.05.69.16.34.16.69-.11.34-.11.69.04.34.04.69.12.34.12.69-.07.34-.07.69-.02.34-.02.69v.69c0,.34.09.34.09.69s-.16.34-.16.69-.09.34-.09.69.23.35.23.69-.13.34-.13.69-.05.34-.05.69.05.34.05.69.13.35.13.69-.13.34-.13.69.11.35.11.69.03.34.03.69-.07.35-.07.69-.05.34-.05.69.07.34.07.69-.08.34-.08.69-.02.35-.02.69.16.34.16.69-.24.35-.24.69.16.34.16.69.04.35.04.69-.02.34-.02.69.02.34.02.69-.06.34-.06.69-.16.34-.16.69.15.34.15.69-.13.34-.13.69.04.34.04.69.09.34.09.69-.04.34-.04.69.11.34.11.69-.09.34-.09.69-.12.34-.12.69.06.34.06.69.15.34.15.69-.19.34-.19.69.19.34.19.69-.03.34-.03.69-.09.34-.09.69-.09.34-.09.69.12.34.12.69-.04.34-.04.69.12.34.12.69-.24.35-.24.69.02.34.02.69.24.34.24.69-.14.34-.14.69c0,.25.05.49.11.73.07.24.07.53.18.74.11.21.34.37.52.54.17.17.37.34.58.46.21.11.44.3.67.36.23.06.51-.11.76-.11h1.39c.35,0,.35.02.7.02s.34.07.7.07.34-.1.7-.1.34.11.7.11.34.04.7.04.35.04.7.04h.7c.35,0,.34.02.7.02s.35-.25.7-.25.35.25.69.25h.69c.34,0,.33-.06.69-.06s.35-.17.7-.17.34.14.69.14.34.02.69.02.34-.1.69-.1.35.14.69.14h.69c.35,0,.35-.12.69-.12s.33-.04.69-.04.35-.07.7-.07.34.07.69.07.34.12.69.12c.26,0,.5-.06.74-.12.24-.07.43-.23.64-.35.21-.12.4-.26.57-.43.17-.17.35-.33.48-.54.12-.21.29-.42.35-.65.07-.23.04-.5.04-.75,0-.34-.12-.35-.12-.7s.02-.34.02-.7.07-.34.07-.7.1-.35.1-.7.03-.35.03-.69-.02-.34-.02-.69-.07-.34-.07-.69.1-.35.1-.7-.15-.34-.15-.69.06-.33.06-.69.12-.35.12-.7-.23-.34-.23-.69.12-.34.12-.69-.08-.35-.08-.69.07-.34.07-.69-.06-.34-.06-.69.19-.34.19-.69-.08-.34-.08-.69.04-.34.04-.69-.16-.34-.16-.69.03-.34.03-.69.18-.34.18-.69v-.69c0-.34-.1-.34-.1-.69s-.1-.34-.1-.69.2-.34.2-.69-.18-.34-.18-.69.15-.34.15-.69-.22-.34-.22-.69.16-.34.16-.69v-.69c0-.34.09-.34.09-.69s-.02-.34-.02-.69-.23-.34-.23-.69.18-.34.18-.69.03-.34.03-.69-.09-.34-.09-.69v-.69c0-.35-.05-.35-.05-.69s.16-.34.16-.69.04-.35.04-.69-.05-.34-.05-.69v-.69c0-.34-.1-.34-.1-.69s-.07-.34-.07-.69.04-.34.04-.69v-.69c0-.34.18-.34.18-.69s-.23-.35-.23-.69.12-.34.12-.69-.09-.35-.09-.69,0-.34,0-.69.16-.35.16-.69-.06-.34-.06-.69.05-.34.05-.69-.11-.34-.11-.69.02-.34.02-.69-.06-.34-.06-.69v-.69c0-.34-.07-.34-.07-.69s.23-.34.23-.69v-.69c0-.34-.2-.35-.2-.69s.22-.34.22-.68,0-.33,0-.68-.22-.34-.22-.69.23-.34.23-.69-.14-.34-.14-.69v-.69c0-.34.13-.34.13-.69s-.13-.34-.13-.69.07-.34.07-.69-.07-.34-.07-.69.05-.34.05-.69-.07-.34-.07-.69-.07-.34-.07-.69v-.69c0-.34.26-.34.26-.69s-.04-.35-.04-.69-.02-.34-.02-.69-.04-.35-.04-.69-.06-.34-.06-.69.15-.35.15-.69-.09-.34-.09-.69,0-.35,0-.69.06-.34.06-.69v-.69c0-.34-.22-.34-.22-.69s.08-.34.08-.69.08-.34.08-.69-.07-.35-.07-.69.09-.34.09-.69-.08-.35-.08-.69.11-.34.11-.69-.11-.35-.11-.69.02-.34.02-.69v-.69c0-.34.08-.34.08-.69v-.69c0-.34-.09-.34-.09-.69v-.69c0-.34.11-.34.11-.69s-.19-.34-.19-.69.16-.34.16-.69.04-.34.04-.69-.1-.34-.1-.69.09-.34.09-.69-.07-.34-.07-.69.07-.34.07-.69-.06-.34-.06-.69.06-.34.06-.69-.15-.34-.15-.69.12-.34.12-.69-.14-.34-.14-.69.23-.34.23-.69-.1-.35-.1-.69-.15-.34-.15-.69.09-.35.09-.69-.05-.34-.05-.69.2-.35.2-.69-.13-.34-.13-.69.07-.34.07-.69,0-.34,0-.69-.04-.35-.04-.69v-.69c0-.35.02-.35.02-.69s.07-.34.07-.69.02-.35.02-.69v-.69c0-.35-.08-.35-.08-.69s-.04-.34-.04-.69.05-.34.05-.69,0-.34,0-.69-.09-.34-.09-.69.1-.34.1-.69.08-.34.08-.69-.02-.34-.02-.69-.09-.34-.09-.69-.03-.34-.03-.69.02-.34.02-.69v-.69c0-.34.1-.34.1-.69s-.22-.34-.22-.69.07-.34.07-.69.07-.34.07-.69.07-.34.07-.69.05-.34.05-.69-.18-.34-.18-.69.13-.34.13-.69.07-.65.31-.89.56-.48.89-.48c.35,0,.35-.01.71-.01s.35.18.71.18.35-.06.71-.06.36-.1.7-.1.35.17.7.17.35-.12.7-.12.34.09.7.09.36.04.71.04h.7c.34,0,.34-.13.7-.13s.36-.05.71-.05.35,0,.7,0,.35.14.7.14.35-.01.7-.01.34.11.7.11c.25,0,.49-.15.73-.22.24-.07.46-.17.67-.3.21-.12.47-.21.64-.38.18-.18.32-.4.45-.61.13-.21.08-.5.13-.74.06-.24.16-.46.16-.71,0-.35.13-.35.13-.69s-.09-.34-.09-.69.1-.35.1-.69Z"/>
</svg>