<?xml version="1.0" encoding="UTF-8"?>
<svg id="Layer_1" data-name="Layer 1" xmlns="http://www.w3.org/2000/svg" xmlns:xlink="http://www.w3.org/1999/xlink" viewBox="0 0 559.66 372.14">
  <defs>
    <style>
      .cls-1 {
        fill: none;
      }

      .cls-2 {
        fill: #c90e0e;
      }

      .cls-3 {
        fill: url(#New_Pattern_Swatch_4);
      }
    </style>
    <pattern id="New_Pattern_Swatch_4" data-name="New Pattern Swatch 4" x="0" y="0" width="659" height="659" patternTransform="translate(1923.86 6239.44)" patternUnits="userSpaceOnUse" viewBox="0 0 659 659">
      <g>
        <rect class="cls-1" width="659" height="659"/>
        <rect class="cls-2" width="659" height="659"/>
      </g>
    </pattern>
  </defs>
  <path class="cls-3" d="m339.48,183.44c1.34-2.62,2.09-5.47,4.39-7.55,1.45-1.3,1.04-2.29-.83-2.58-3.43-.53-6.05-2.88-9.22-4.01-2.68-.94-4.6-.19-5.58,2.5-.43,1.19-.52,2.92-1.92,3.02-1.7.13-3.1-.82-3.75-2.73-.36-1.09-.71-2.73-2.68-2.05-1.05.37-2.15.27-2.77-.78-.85-1.46.65-2.01,1.31-2.88.68-.88,2.41-1.71,1.61-2.8-1.15-1.55-2.39.16-3.24.86-2.97,2.44-5.64,4.8-10.02,4.89-2,.03-4.75,1.87-6.04,5.13,5.19-.71,10.01-.79,14.27-3.45.65-.41,1.13-1.19,1.95-.36.5.5.95,1.43.36,1.68-2.87,1.22-2.02,3.69-2.38,5.86-.17,1.05-.92,2.03-2.57,2.47-3.42.92-7.66,3.41-7.83,6.24-.3,5.15-4.02,9.51-2.67,14.98.8,3.27-1.97,6.16-4.06,4.92-2.3-1.35-4.11-.29-6.35.26.44-1.26-.32-3.16.71-2.96,3.17.65,2.19-1.58,2.33-2.89.13-1.1.5-1.87,1.23-2.7,3.26-3.81,3.06-8.58-.54-12.15-1.05-1.06-2.05-3.07-3.75-2.34-2.61,1.1-4.87-.17-7.28-.24-2.82-.08-4.4-2.64-2.74-4.76,1.73-2.21,2.49-5.33,6.14-6.1,2.08-.44,4.39-2.49,4.92-4.72.57-2.4-2.4-2.17-3.76-3.16-1.07-.76-1.03-2.06-1.19-3.19-.09-.76.43-1.15,1.19-1.25,1.31-.17,2.3.21,2.93,1.43.35.69.83,1.32,1.2,2.01.38.74.79,1.46,1.71,1.32,1.04-.16.98-1.1,1.04-1.85.17-1.81.19-3.65,1.45-5.17.46-.56.69-1.65,1.65-1.19.63.3,1.52,1.29,1.39,1.71-.68,2.34,1.78,4.34.6,6.68-.35.68-.02,1.48.83,1.25,3.94-1.04,9.06.88,11.51-3.84,1.46-2.84,3.81-4.69,5.97-6.79,1.07-1.05,1.37-2.7.73-3-2.68-1.25-1.77-4.1-3.09-5.92-1.56-2.15-.9-4.95-1.36-7.43-.33-1.85,2.04.36,2.97-1.07.76-1.18,1.39-2.09,1.09-3.5-.19-.95-.8-1.98.35-2.83,2.05.46,3.78,2.31,6.19,1.57-2.01-4.34-.76-7.46,3.33-9.6,2.63-1.37,5.36-2.99,3.87-6.87-.2-.52-.02-1.55.37-1.82,2.25-1.6,1.32-3.94.53-5.29-2.08-3.57-3.03-7.33-4.08-11.25-1.43-5.28-1.4-6.9,3.06-9.46.63-.36.89-.85,1.09-1.51.92-3.3-1.11-7.97-4.18-9.59-1.51-.8-1.82-1.7-.32-2.94,2.15-1.76,3.58-.85,4.57,1.19.38.77.05,2.08,1.28,2.09,5.05.06,7.09,4.7,10.68,6.98,6.41,4.09,6.08,10.74,5.64,17.15-.2,3.02.5,5.42,2.12,7.99,1.95,3.09,4.29,6.19,2.18,10.48-1.37,2.79.61,5.86.75,8.85.02.17.6.5.89.45.32-.05.69-.38.83-.68,2-4.14,1.09-8.83,2.33-13.14.29-.96-.46-1.68-1.27-2.23-.65-.44-1.64-1.24-1.25-1.81,2.18-3.09,1.11-6.37.87-9.62-.29-4.04.92-8.52-3.7-11.14-.49-.29-.7-1.06-1.07-1.58-2.38-3.35-5.02-6.54-7.07-10.08-1.89-3.28-5.62-4.21-7.84-7.34-2.76-3.93-5.25-8.9-11.1-9.62-.52-.07-1.06-.77-1.4-1.31-2.08-3.27-6.08-3.22-8.95-5.14-1-.66-2.75.16-1.8,1.72,2.61,4.24,1.15,10.51,6.79,13.21,1.04.5,1.31,1.88,1.95,2.75,3.97,5.33-1.18,11.18,1.15,16.53,0,.04-.42.23-.62.38-2.78,2-.98,4.96-.74,7.03.3,2.53-.17,3.94-2.03,5.09-.95.59-2.11.86-2.73,1.9-3.35-.84-4.66.75-4.49,3.93.14,2.56-1.22,3.35-3.51,3.6-2.16.23-3.39-.06-3.8-2.59-.29-1.75-1.29-3.23-3.44-.96-1.25,1.32-2.57,2.52-3.59,4.04-.5.75-1.28,1.51-2.3,1.01-1.1-.53-.75-1.52-.38-2.37.66-1.49,1.34-3.19.35-4.51-3.97-5.28-3.45-12.01-6.04-17.75-1.13-2.51-.36-4.33,2.6-5.81,3.5-1.74,6.34.62,9.49.33,1.04-.08,1.99,2.22,2.91.58.71-1.25-.33-2.81-1.42-3.77-.85-.76-2.28-.95-2.94-1.79-1.06-1.34-3.97-1.19-3.36-3.74.65-2.69,3.06-1.07,4.62-1.54.62-.19,1.31-.13,1.95-.13.92.03,1.92.22,2.49-.71.79-1.28-.5-1.88-1.07-2.63-1.73-2.25-4.24-3.38-6.82-4.37-.83-.32-1.78-.82-1.49-1.94.09-.33,1.02-.83,1.19-.71,1.91,1.27,3.75-.18,5.62-.1,1.55.06,3.73,1.12,4.54-1.01.65-1.68-1.26-2.92-1.85-4.47-.39-1.02-1.61-1.02-2.58-1.4-2.6-.99-5.5-1.91-7.42-3.77-2.79-2.69-5.93-3.66-9.48-3.46-1.31.08-2.27.6-2.57-1.12-.26-1.43-.68-3.5.89-3.8,2.49-.47,4.68-2.12,7.4-1.74,1.52.2,2.3.45,2.35,2.26.08,2.78.42,4.34,4.48,5.25,5.31,1.21,10.14-.17,15.14.14,1.86.11,1.97-.96,1.15-2.25-1.35-2.09-2.8-3.98-5.58-1.73-.82.66-1.76,1.16-3.13.54,2.06-1.98,4.35-4.66,6.85-3.92,2.98.89,6.25,3.05,7.83,5.62,1.59,2.61,2.82,2.75,5.17,2.09,1.39-.38,2.73.02,3.03,1.65.24,1.31.92,2.95-1.38,3.35-.65.11-1.13.66-1.09,1.73,2.38,0,3.4,1.45,3.67,3.74.11.98.52,2.2,1.82,2.24,1.3.03,1.69-1.01,1.89-2.11.68-3.81,2.52-6.16,6.83-5.39h.4c.64-.05,1.42.05,1.73-.65.44-.98-.47-1.31-1.02-1.81-.62-.56-1.94-.94-1.32-2.01.46-.8,1.32-1.55,2.52-1.55,3.99.02,6.05-3.6,5.89-5.92-.35-5.38,3.87-8.25,5.41-12.48,1.49-4.11.88-10.41-2.65-11.93-2.65-1.15-4.27.69-6.13,2.07-1.43,1.07-.2,1.68.33,2.08,1.5,1.08,2.94,2.24,1.39,4.08-1.35,1.6-2.76,3.63-5.53,2.37-3.26-1.48-6.93.23-10.26-1.16-.57-.23-1.67.16-1.62.74.32,3.84-3.5,3.92-5.29,5.77-2.3,2.39-5.08,4.57-8.73,1.9-.29-.22-1.17-.05-1.46.26-2.95,2.84-6.59,1.79-9.95,1.61-3.14-.16-6.19,1.05-9.3.26-1.3-.33-3.36,0-3.08-2.09.19-1.37.92-3.21,3.2-2.23,1.19.5,1.76-.39,2.06-1.21.46-1.26-.56-1.48-1.49-1.73-2.78-.77-5.55-1.61-8.32-2.39-1.67-.47-2.4-1.82-2.09-3.19.28-1.32,1.58-1.38,2.9-.78,3.42,1.54,6.6-.5,9.88-.93.69-.09,1.32-.92,1.31-1.76-.02-.73-.74-1.35-1.34-.95-1.96,1.34-2.78-.19-3.88-1.25-2.73-2.66-6.49-1.22-9.69-2.22-1.48-.47-2.14,2.33-2.94,3.75-.8,1.4-1.75,1.73-3.2,1.61-2.03-.14-3.75-.22-3.88,2.88-.08,1.76-1.87,3.42-3.95,3.93-3.09.77-6.15.85-9.16-.52-1.34-.62-2.7-.05-3.31,1.16-.62,1.22.66,2.31,1.52,2.2,3.04-.41,5.75,2.39,8.84.77.59-.3,1.26-.66,1.78-.05.81.94-.28,1.35-.72,1.85-1.85,2.07-13.36,4.46-14.94,2.47-2.79-3.54-4.45-1.92-6.73.94.13-2.13-2.24-2.92-1.26-4.7,1.1-1.98,1.88-4.82.27-5.71-2.4-1.3-6.28-2.36-8.31-1.25-3.66,1.97-7.7,2.1-11.32,3.85-2.28,1.1-6.02-1.18-6.7-4.04-.53-2.22,1.58-3.45,3.09-4.37,1.1-.68,2.79-.4,4.2-.53,1.2-.13,2.77-.26,2.85-1.56.1-1.52-1.42-2.46-2.76-2.82-1.09-.3-2.28-.16-3.39-.73-2.7-1.35-5.64-.11-7.26,1.34-3.34,2.99-4.76,8-4.27,11.87.79,6.22,1.43,13.69,10.05,15.37,1.13.22,2.32,1.1,1.88,2.53-.4,1.31-1.67,1.88-2.84,2.55-1.37.77-1.49-3-2.94-.77-1.09,1.67.91,2.46,1.41,3.71.08.2.08.52-.03.69-1.81,2.88.32,5.12,1.86,6.64,2.3,2.27,2.18-1.82,3.94-2.23,3.34-.77,2.08-2.47.26-3.98-.63-.52-2.11-.28-1.73-1.66.29-1.01,1-2.15,2.06-2.17,4.04-.08,8.01-2.7,12.13-.44,1.73.95,3.67.88,5.35.41,3.41-.95,6.48,1.95,9.87.51.63-.27,1.4.61,1.56,1.46.27,1.52-3.39,5.77-4.87,5.42-5.01-1.14-8.87-.05-13.68,2.57-4.82,2.59-8.19,6.6-12.75,9.24-1.75,1.02-4.08,2.85-.06,5.34-4.96.2-8.35,1.29-8.06,6.46.04.53-.45,1.28-.92,1.65-4.24,3.31-4.83,8.69-7.3,12.98-1.61,2.79,1.45,6.38-.07,9.63-.05.1.27.53.46.56,2.84.59,1.53,2.4,1.19,3.9-.68,2.92-2.33,5.61-1.91,8.81.23,1.76,2.91,2.72,1.91,4.43-1.73,2.96.56,5.24.69,7.83.1,1.85,2.32,2.37,2.47,4.29.35,4.05,4.36,8.09,8.36,8.09,1.82,0,2.65.95,3.94,1.71,4.3,2.48,7.91,6.83,13.8,5.41,1.17-.29,2.75-.11,2.49,1.55-.46,3.05.89,5.23,3.18,7.1-1.12.54-1.92.59-2.58.08-.73-.53-1.34-1.45-2.32-.53-.79.74-.52,1.8-.19,2.58.5,1.18,1.4,2.63,2.67,2.63,4.65-.02,3.81,3.6,3.57,5.89-.26,2.59-1.84,5.06,2.68,4.7.23-.02.52.98,1.13.65,2.43-1.31-.35-5.39,3.34-6.27.66-.16.5-1.67-.76-1.98-.74-.19-1.65-.2-1.19-1.41.38-1.01.62-1.82,2.18-1.52,1.52.3,2.41-.46,1.67-2.33-.3-.74-.63-2.01,1.15-2.61.33,5.18,5.2,5.59,8.15,8.09,1.25,1.07,2.04,1.4,3.63.16,1.01-.79,2.58-2.73,4.43-1.07,2.35,2.09,4.2,2.44,5.72-.92.6-1.32,2.16-1.18,3.01-.32,1.02,1.04.08,1.85-.92,2.42-.58.33-1.05.69-1.21,1.42-.76,3.48-2.4,4.4-5.79,3.09-1.02-.39-2.11-1.05-2.85-.08-1.01,1.31.54,1.57,1.25,2.23,1.86,1.74,2.45,3.85,1.58,6.35-.76,2.17-2.4,2.5-4.38,2.39-1.25-.08-1.72.72-2.16,1.82-1.73,4.23-.6,7.91,3.66,10.48,2.24,1.37,3.47,3.41,4.72,5.53.53.91.5,1.68-.4,2.37-1.84,1.4-7.07.93-7.77-1.1-1.37-4.04-3.24-7.77-5.34-11.47-1.46-2.56-2.43-5.41-3.69-8.09-.46-.99-1.31-1.82-2.48-1.46-1.25.38-.5,1.47-.56,2.32-.26,3.38-.21,6.81.72,10.02.56,1.9,1.01,3.9.65,5.58-.65,3.03-.06,5.99-.33,8.96-.16,1.84.76,2.34,2.38,2.9,3.4,1.14,7.41,1.47,10.18,3.25,4.41,2.83,8.4,4.24,13.57,2.96,2.15-.54,4.48-.04,6.78,1.11,2.55,1.28,4.68-1.88,7.09-2.19,6.22-.75,11.28-2.86,13.92-8.97.05-.11.2-.17.26-.29,1.7-3.16,3.55-6.37,3.83-9.95.23-2.83.95-5.16,2.09-7.79,1.13-2.63,3.6-5.59,1.79-9.26-.69-1.42.69-3.4,2.06-4.47.76-.58,2.43-.43,2.7.68.38,1.48.82,3.3-1.7,3.96-1.28.33-1.46,1.9-.63,2.94.83,1.02,1.42,1.74.33,2.97-.76.86.05,1.34.82,1.67,2.38,1.02,4.66,2.3,6.84-.59,1.95-2.59,6.25-2.37,7.7-5.22Zm-26.38-26.92s0,0-.02,0c-1.55.56-2.47,2.7-4.13.92-.98-1.04-.59-2.3.55-2.91,1.98-1.01,2.27,1.13,3.58,1.99t.02,0v.02Zm-4.63-40c.95-.63,2.27-1.55,3.12-1.31,5.72,1.65,5.05-3.51,6.64-6.11.63-1.02,1.87-1.8,1.83-3.21,2.36-.1,4.44,1.23,4.44,3.24.02,2.27-1.87,4.32-3.76,5.8-3,2.34-6.97,3.22-9.36,6.5-.95,1.28-2.85,1.72-3.63.24-.8-1.54-1.35-3.78.73-5.16Zm-51.54-69.46c-1.48,1.32-3.34,1.88-4.98,2.86-.68.4-1.53.5-2.15-.16-.71-.77.04-1.35.4-2.01,1.31-2.39,3.12-4.02,5.83-4.2,1.72,0,3.17.52,3.38,2.14.25,2.03-1.8.76-2.48,1.37Zm-27.55,95.36c-1.02-.22-2.48-.52-2.25-2.12.14-1.09.8-1.97,2.08-1.82,1.26.13,2.19.72,2.3,2.15-.39.98-.96,2.04-2.12,1.79Zm2.85-12.31c-.73.96-2.06,1.29-2.67.27-3.09-5.29-3.86.17-5.59,1.1-1.28.69-.23,3.78-2.11,2.97-1.78-.76-3.42-2.56-4.3-4.66-.63-1.48.79-3.9-2-4.43-.06-.02-.14-.59-.06-.63,4.69-2.8,1.61-8.11,3.81-11.76.93-1.54,2.46-2.12,3.66-3.21-.42,2.32,2.77,1.71,2.91,3.56,2.08.65,3.96-2.47,6.25-.13.38,1.16-1.59,1.44-1.4,2.81,1.61.26,3.21.43,3.31,2.82.1,2.37,3.03,3,3.75,5.26,1.19,3.78.72,4.8-3.14,5.06-.95.07-1.75.1-2.41.96Zm5.29,11.65c-2.22-.25-2.61-2.5-2.84-4.37-.14-1.21.37-2.27,1.89-2.46v.02c1.72.61,3.66,1.43,3.74,3.38.06,1.48-.79,3.66-2.79,3.44Zm10.2-25.7c-1.78-1.9-3.4-3.93-4.44-6.31-.36-.83-.91-2.17.38-2.77,1.19-.55,2.25.56,2.44,1.39.47,2.01,2.98,2.91,2.6,5.36-.2,1.25,1.17,1.51,2.54,1.74h.02c-1.48,1.48-2.5,1.7-3.53.59Zm21.29-26.77c-1.06,2.11-.74,5.49-2.27,7.7-2.46,3.58-2.41,7.86-4,11.6-1.07,2.5-3.63,1.1-4.21-.36-2.05-5.06-4.53-7.09-10.1-4.1-3.15,1.7-5.39-1.7-7.47-3.69-.73-.7-1.28-2.41-.92-3.18.6-1.28,2.35-.77,3.54-.69,1.86.12,3.3,1.35,4.73,2.46.73.56,1.52,1.39,2.43.66,2.35-1.84,1.46-4.57,1.43-6.89-.03-2.12-2.05-2-3.64-1.8-2.67.31-4.99-1.64-5.01-4.51-.03-3.35.14-6.7.29-10.05.02-.46.32-1.07.68-1.31,4.27-2.78,7.22-6.43,8.29-11.53.22-1.07,1.06-2.22,2.52-.76.46.46,1.51.29,2.24.53,1.35.47,3.56-.89,4.03,1.19.41,1.82-1.29,2.93-2.76,3.9-2.71,1.79-2.73,4.35-.32,6.27,1.31,1.04,2.54.59,3.67.09,1.43-.62,2.77-.61,4.2-.26,1.3.32,1.66,1.24,1.43,2.37-.25,1.25-1.22.96-2.17.89-4.72-.33-4.84-.23-8.1,4.4l.02.07c3.04.89,5.44,2.99,8.93,2.86,1.67-.07,4.46.23,2.52,4.11Zm4.5-38.21c-2.13-.06-3.95.53-5.46,2.25t0,.02h-.02s0,0,0-.02c-.58-1.58-.83-2.71.59-3.4,2.66-1.28,2.03-3.02.49-4.62-.66-.69-1.56-1.05-.82-2.14.72-1.08,1.68-.89,2.77-.52,2.55.91,3.5,3.38,4.72,5.33.88,1.43-.24,3.16-2.29,3.09Z"/>
  <path class="cls-3" d="m295.85,351.38c-2.24-1.82-3.91-4.47-5.42-6.99-1.53-2.55,1.02-7.1-3.94-8.05-.06,0-.11-.23-.14-.35-.82-2.76-2.3-2.23-3.5-.47-.92,1.34-1.48,2.36-3.33,1.46-1.95-.96-1.58-2.55-1.32-4.05.26-1.55,1.1-2.71,2.91-2.48.95.1,2.08,1.24,2.65-.32.6-1.65.53-4.38-.57-4.72-3.92-1.16-2.47-4.8-3.92-6.89-1.88-2.7-1.86-6.24-4.27-8.6-.69-.68-.74-1.56-.73-2.53.07-4.05-5.71-10.74-9.61-11.19-1.43-.17-3.3,0-3.06-2.04.2-1.76,1.67-1.51,3.07-1.02,1.18.41,2.02-.46,2.61-1.32.83-1.21-.12-2.01-.98-2.58-.98-.66-1.31-1.48-1.43-2.6-.26-2.43-1.02-4.53-3.76-5.36-.95-.28-1.73-1.22-1.99-2.29-.77-3.36-2.93-5.03-6.28-5.66-1.86-.35-2.51-2.5-3.44-3.82-.93-1.33,1.53-1.61,2.4-2.43,1.2-1.15.82-1.97-.09-2.99-.92-1.02-2.98-1.82-1-3.68.57-.53.11-1.04-.35-1.22-2.96-1.18-2.15-5.42-5.38-6.44-.82-.26-.2-.95.02-1.56.43-1.18.62-2.48.71-3.75.26-3.48-2.38-5.28-5.53-3.88-.95.43-1.46.44-1.95-.86-1.97-5.3.27-10.08,1.64-14.95.29-.99,1.48-.69,2.02-.29,2.31,1.73,5.14,1.61,7.72,2.28,1.28.33,2.55.44,2.76,2.2.41,3.44,3.46,3.87,5.94,4.81,1.01.38,2.67.06,2.58-1.01-.2-2.69.74-6.15-2.3-7.7-2.57-1.32-4.95-3.18-7.97-3.63-4.79-.74-9.18-2.1-10.29-7.82-1.67,1.55-3.31,2.89-5.2.41-.44-.58-1.12-.58-1.79-.46-3.15.6-4.95-.97-6.49-3.55-.98-1.63-1.76-4.1-4.95-2.34-1.51.85-1.04-.92-.89-1.93.25-1.78-.37-4.31-1.91-4.08-3.39.47-3.66-1.52-4.02-3.66-.22-1.25.47-3.18-.16-3.72-3.87-3.33-.71-3.96,2.4-4.75-2.77-1.7-6.08-1.55-6.76-4.95-.1-.52-1.2-1.05-2.03-.52-.71.46-1.09,1.15-.76,2.01.38.96.68,2.01,1.28,2.83,1.67,2.23,2.75,4.47,2.67,7.46-.05,1.98.16,4.26,2.71,5.61,2.21,1.18.8,3.6-.6,3.99-3.48.99-3.57,3.78-4.2,6.32-.49,2.03-1.01,4.01-2.76,5.8,1.49.61,3.03-.96,3.4.95.24,1.27-.88,1.32-1.84,1.41-2.06.2-.63,1.32-.62,2.19.06,3.02,4.29,5.39,1.46,8.81-1.36,1.64-1.31,3.63-.65,5.2,1.26,3,.95,5.41-1.39,7.65-.92.89-.77,1.7.35,2.56,1.92,1.48,4.04,2.99,2.98,6.01-.19.55.19.96.68,1.25,4,2.44,4.02,2.47.96,5.99-.72.85-1.75,1.15-.63,2.73,3.77,5.35,6.07,11.26,6.91,17.84.42,3.33-1.23,8.38,5.09,8.55,1.08.03,1.68,1.43.3,2.25-1.97,1.16-1.23,2.72-.46,3.9.98,1.51,1.89,3.51,1.48,4.72-2.19,6.4,4.36,8.9,5.72,13.63.23.8,1.34.55,2.12.53,1.26-.03,2.59-.3,3.97.76-2.3,1.15-1.92,2.3-1.26,4.55.59,1.98,2.46,5.33-1.21,7.64-1.04.66.32,4.07-.74,6.16-.14.3.99,1.11,1.86,1.11,1.31.02,2.57.1,3.86-.41,4.79-1.85,6.58-1.7,10.77.33.77.36,2,.61,2.66.26,2.29-1.21,4.51-.89,6.64.05.85-1.48-1.89-3.63,1.01-3.98,1.88-.23,3.84.36,5.79.61.68.1,1.32.4,1.24,1.2-.06.72-.83,1.43-1.31,1.16-3.01-1.68-3.97,1.54-4.22,2.58-.59,2.39-2.32,3.15-3.8,4.51-1.29,1.19-3.93,2.81-1.59,5.08,2.41,2.34,2.12,5.3,3.04,8.27-4.54-1.85-5.92-4.86-5.82-9.27.05-2.06.79-3.99.57-6.02-.2-1.87-1.09-3.36-3.07-3.44-1.91-.08-3.44.92-3.2,3.08.32,2.96-.73,2.31-2.55,1.35-1.79-.92-3.75.38-2.95,1.92,3.04,5.83-1.61,8.28-4.6,11.33-1.21,1.24-2.88,2.61-5.05,2.23.76-2.69-3.7-3.42-2.37-6.28.56-1.22,1.24-2.36.09-3.58-.9-.95-2.18-.76-2.91-.24-1.53,1.07-3.78,2.39-3.96,3.82-.5,4.17-.14,8.44-.11,12.68.03,2.94,2.16,4.37,4.89,3.18,1.39-.62,2.63-1.15,3.87.19.82.89,1.92.69,2.95.55,3.13-.44,6.3-.03,9.42-.03,6.27,0,12.61,1.54,18.82.23,4.76-1.01,9.42,1.16,14.27-.66,3.84-1.45,8.35-.33,12.51-2.06,1.39-.58,2.37-.28,3.39-2.04,1.29-2.2,1.73-3.69.14-5.83-.89-1.21-.71-2.86-.43-3.78,1.84-1.29,1.34,2.5,2.9.57.73-.92,1.43-2.12-.36-3.6Zm-72.23-129.06s0,0-.01-.02c-2.85-.63-4.79-.96-6.67-1.51-.95-.27-1.56-1.09-.8-2.06.77-.98,1.7-2.33,3.12-1.15,1.4,1.18,2.51,2.68,4.35,4.72h.01v.02Zm48.31,129.2c-.51.05-1.82-.13-1.79-1.94.04-1.76,1.28-2.55,2.85-2.57,1.61-.01,2.82,1.05,2.94,2.57.17,2.18-1.72,1.76-4,1.94Zm15.06,11.38c-.14,1.05-.76,1.27-1.56,1.27-2.14.02-4.2-.91-6.46.26-1.17.58-1.36-.98-.93-1.78.66-1.24,1.29-2.4.39-3.91h.04c8.35,1.82.95-4.48,3.62-5.45,1.79.94,5.16,7.59,4.9,9.62Z"/>
  <path class="cls-3" d="m417.28,364.36c-1.42.68-2.71,1.51-4.4,1.3-.99-.11-2.32-.72-1.75-1.46,2.09-2.72-.19-5.61.52-8.36,1.25.41,2.78,2.89,2.97,1.29.26-2.19,2.76-4.6.77-6.59-2.03-2.03-1.39-4.85-2.91-6.98-.51-.69-.84-2.92.69-3.44,2.05-.69,1.79-1.7.77-2.8-1.04-1.1-2.48-1.1-3.42.17-1.35,1.82-2.64,1.55-4.6.22,2.98-1.41,5.63-2.56,4.34-6.5-.35-1.07.91-3.45,3.27-1.32,1.88,1.68,5.08,1.84,5.32.62.49-2.58-2.09-5.41-2.9-5.29-4.2.68-3.96-2.88-5.65-4.69-3.27-3.51-.74-6.05,1.07-8.67.5-.74,1.08-1.39.47-1.94-3.44-3.11-3.36-8.87-8.4-10.84-1.13-.46-3.39-2.12-.33-3.59.68-.33.69-.77.22-1.16-.47-.39-.86-1.14-1.65-.74-.8.44-1.8,1.28-2.46.41-1.59-2.09-1.89-.41-2.8.6-2.84,3.08-.92,7.73-4.18,10.28,1.39,1.58,2.79-1.4,3.6.79.27.72-.33,1.16-.85,1.6-1.19,1.02-2.28,1.07-3.47-.02-.83-.74-1.16-1.65-1.55-2.64-.46-1.18-1.39-.95-2.22-.33-.73.56-1.81,1.79-.88,2.09,3.2,1.04,2.91,5.12,6.1,6.16-3.01.08-3.39,3.22-5.42,4.14-2.43,1.12-1.86,2.46-.14,3.19,2.85,1.25,1.53,1.82-.19,2.37-.89.29-1.94.23-1.83,1.51.08,1.06,1.01,1.81,1.85,1.76,4.23-.29,6.13,2.94,8.42,5.45,1.54,1.71,2.76,3.15,5.12,1.13,1.22-1.04,2.32,0,2.79,1.12.5,1.17-.98,2.55-1.36,2.35-2.52-1.22-5.96,2.03-7.7-1.77-.86.69-.34,2.83-1.93,2-1.74-.92-3.72-2.14-4.58-3.78-.8-1.49-1.28-3.96-2.91-3.5-2.85.8-6.53,1-7.89,4.3-.79,1.91-1.82,3.27-4.3,4.05,2.84,1.39,4.99,2.44,7.23,3.52-5.98,4.23-6.49,4.38-10.27,1.45-2.33-1.81-1.45-5.35-3.6-7.47-.39-.39.99-1.7,2.24-1.34.74.23,1.76.98,2.03,0,1.06-3.84,5.45-3.33,7.43-5.92.58-.77,2.14-1.22,1.26-2.39-.95-1.25-2.4-.55-3.63-.1-1.22.44-.44,2.01-1.43,2.6-2.46-1.95-2.35-2.01-3.58-4.7-.77-1.68-1.62-3.91-3.06-4.57-1.81-.83-1.53,1.84-2.35,2.85-.08.09-.23.09-.35.17-4.4,3.19-5.21,6.05-3.18,10.81.7,1.64.73,3.32.13,4.98-.22.59-.95,1.32-.27,1.73,3.11,1.88,2.37,5.75,4.46,8.31,1.09,1.32,2.95,3.21,3,4.53.14,3.81,1.73,4.04,4.9,3.07-.89,1.73-4.47,2.44-1.58,4.9,3.07,2.59,6.11,5.12,8.19,8.67.68,1.15,1.82,1.97,3.61,1.78,3.63-.4,7.24.46,10.91.26,4.69-.25,9.47.41,13.79-2.13,1.83-1.09,3.5-2,4.68.85.41.97,7.25,1.13,7.33.26.16-1.6.11-3.39-.51-4.82-.71-1.65-2.11-.26-2.99.17Zm-30.89-23.6c.95-2.69-.4-4.07-2.55-5.12-.77-.36-1.91-.35-1.8-1.65.08-.95.77-1.28,1.55-1.52,1.48-.49,1.69.58,2.08,1.59.27.68.68,1.58,1.28,1.85,5.42,2.43.5,3.42-.55,4.86Zm16.85-12.58c1.35-2.67,1.52-5.62,4.44-5.34,1.4.14,4.33,1.44,3.59,3.28-1.31,3.25-4.77,1.17-8.03,2.06Zm-.84,30.47c-.62-1.35-1.91-2.77-3.7-3.18-1.4-.33-2.73-.76-3.47-2.15h.02c7.73-1.88,9.95,4.32,14.03,8.25-4.86,1.98-4.7,1.91-6.88-2.92Zm7.4-10.68c-2.46-.52-4.97,2.44-7.28-.23,1.55-1.18.6-3.36,1.48-4.39.71-.82,1.39,1.01,1.92,1.81,1.56,2.3,3.24,1.44,5.25-.3h.02c-.13,1.76.56,3.52-1.38,3.11Z"/>
  <path class="cls-3" d="m394.9,195.15c-.03.47-.83.98-1.37,1.29-3.15,1.79-5.8,4.14-8.27,6.77-2.88,3.03-4.02,7.72-8.81,8.91-1.07.26,0,.99.08,1.52.77,4.9-1.89,8.83-6.51,9.81-.41.08-.74.66-1.02,1.07-1.55,2.16-2.46,4.5-2.29,7.26.19,3.12,2.38,3.88,4.84,4.14.69.07,1.58-.58,1.94.4.47,1.34-.71,1.37-1.58,1.61-.8.24-1.58.69-1.45,1.59.12.86.93,1.21,1.78,1.19,1.51-.03,2.74.42,3.8,2.03h.09c-2.54,1.57-6.93-.99-7.12,4.11-.05,1.46-1.56,3.27.56,3.93,1.73.55,3.99,2.09,5.69-.38.74-1.09,1.42-2.4,3.07-1.61.55.27,1.45,1.09,1.37,1.22-.68,1.29-1.31,3.26-2.37,3.55-6.16,1.72-3.54,7.63-5.68,11.21-.44.72.23,1.52,1.06,1.81.76.26,1.2-.26,1.58-.82,2.93-4.36,8.68-6.7,9.09-12.84.03-.4.6-.89,1.02-1.13,1.77-1.07,2.29-2.64,2.37-4.6.26-6.62,3.69-12.36,5.33-18.6.33-1.19,1.1-2.04,2.37-2.39,1.19-.32,2.64-.16,2.83-2.06.21-2.19-1.92-2.01-2.97-2.88.71-1.18,2.64-.36,2.71-2.06-.71-1.02-1.67-.41-2.51-.39-4.1.09-4.54-1.32-4.65-5.5-.11-3.72,2.3-6.21,2.88-9.27.99-5.25,4.59-8.57,7.74-12.04,4.16-4.59,6.74-9.6,6.92-15.71.03-1.49-.65-2.94.26-4.47.5-.85.07-1.84-.95-2.23-1.28-.49-2.62-.47-3.82.16-.91.49-.29,1.34-.28,2.07.09,3.35.57,6.59-.1,10.09-1.04,5.49-7.28,7.58-7.64,13.21Zm-14.45,50.24c-1.43-2.12-2.12-5.2-2.05-9.23,5.02,2.48,2.73,6,2.05,9.23Z"/>
  <path class="cls-3" d="m367.22,185.61c1.64-.99,3.53-2.61,5.11-4.31,3.72-4.01,6.08-8.94,9.8-12.89,1.23-1.3,1.75-3.08,2.29-4.87.99-3.33.3-7.39,2.68-9.97,2.19-2.37,1.95-3.85-.76-6.13,3.87-.05,5.09-2.68,7.13-4.77-1.6-1.12-3.41.19-4.64-1.19-.93-1.02-1.92-1.07-3.09-.16-1.29,1.01-1.28,2.04-.77,3.44.81,2.25-1.67,4.48-.17,6.87.19.3-.44,1.29-1.18,1.35-3.29.3-2.35,3.19-1.95,4.42,1.01,3.19-.39,5.28-2.22,7.31-2.52,2.8-6.22,5.05-7.59,8.28-1.8,4.24-5.49,6.52-7.99,9.92-2.25,3.05-4.56,6.98-9.61,6.73-1.48-.08-1.51,1.97-1.84,3.14-.57,2.01-1.37,3.8-3.5,4.35-4.33,1.13-5.94,5.66-9.68,7.58-.8.41-1.07,2.04-.76,3.27.19.75.35,1.43,1.56.91,3.64-1.56,6.29-5.06,10.59-5.38.91-.06.86-1.18,1.21-1.85.58-1.15,1.04-2.58,1.99-3.32,4.88-3.79,7.94-9.42,13.41-12.75Z"/>
  <path class="cls-3" d="m393.47,142.67s0,0,0,0c.01,0,.03.02.04.02l-.03-.03Z"/>
  <path class="cls-3" d="m147.64,67.07c3.37-1.9,6.98-2.08,10.69-1.95,1.32.05,2.22-.42,1.65-1.78-.5-1.21.43-2,.41-2.86-.06-2.89,3.89-5.08,1.67-8.09-1.8-2.44-.84-3.18,1.39-4.07,4.13-1.65,7.39-4.09,8.23-8.93.41-2.37-.63-5.38-2-5.08-3.21.71-5.7.17-8.34-1.34-.36-.2-1.42,0-1.45.16-.6,2.95-3.74,4.39-4.37,7.28-.25,1.16-.25,2.39.88,3.21,1.88,1.35,2.38,3.03,1.37,5.12-1.06,2.2-2.87,1.13-4.13,1.04-1.58-.47-2.46.08-2.77,1.19-.5,1.78,1.29,2.34,2.05,3.47.63.94,2.74-.09,2.44,1.87-.3,1.95-1.94,1.73-3.34,1.95-2.79.44-4.87,2.2-6.79,4.07-.88.85-1.26,2.2-.46,3.24.66.85,1.62,2.2,2.87,1.49Z"/>
  <path class="cls-3" d="m198.73,167.93c-1.28-1.21-1.42-2.8-1.18-4.37.32-2.08.2-3.63-2.44-3.76-.91-.05-1.25-.94-1.43-1.68-.14-.55.41-1.16.88-.99,4.98,1.87,3.48-1.37,3.1-3.8-.05-.3.3-.71.54-1.01.99-1.29.55-2.83-.28-3.6-1.94-1.79-2.62-3.25-.5-5.42.63-.64.49-2.3-.66-2.69-1.62-.57-1.39.96-1.58,1.92-.3,1.51-.63,3.02-.99,4.53-.38,1.56-2.17,2.56-2.85,1.78-1.72-1.98-4.59-2-6.41-4.06.16,1.52-1.42,2.59-.68,4.17,2.08,4.4.71,10.52,6.52,13.09.24.11.36.68.39,1.05.3,3.16,1.97,5.39,4.29,7.5,1.2,1.1,1.81,1.13,2.85.24.96-.83,1.7-1.7.44-2.89Z"/>
  <path class="cls-3" d="m231.12,194.49c1.39.69,2.21,1.79,2.98,3,2.88,4.51,7.39,7.12,11.99,9.31,2.3,1.08,5.25.39,7.03,3.27.68,1.1,2.96.49,4.25-.61.96-.82.5-2.06-.3-2.26-4.1-1.04-6.68-4.29-9.76-6.68-3.51-2.72-8.45-4.13-9.57-9.48-.65-3.06-3.99-3.38-6.26-4.51-1.01-.5-3.92-.17-2.08,2.7.39.61.43,1.19,0,1.81l.02-.02c-.65,1.74.36,2.81,1.69,3.47Z"/>
  <path class="cls-3" d="m266.98,13.94c1.23.22,2.51-.83,3.15,1.56.82,3.02,1.73,5.44-2.92,6.26,2.44,2.07,4.27.53,5.82-.11.99-.42,4.24-.68,1.59-3.69-.68-.77-2.77-4.94,1.58-6.55,1.43,3.84,4.82,2.18,7.41,2.5,1.61.19,1.59-1.19.87-2.5-.85-1.54-1.42-3.9.38-4.42,2.87-.82,1.78-3.47,3.15-4.87.72-.74-.25-1.38-.87-1.79-.74-.5-1.83-.39-2.06.33-1.02,3.21-3.48,2.86-5.96,2.69-1.07-.08-1.7.94-2.41,1.29-3.4,1.63-5.3,5.99-9.72,5.61-1.65-.14-2.66.39-2.81,1.9-.2,2.08,1.67,1.6,2.81,1.81Z"/>
  <path class="cls-3" d="m175.52,160.6c-.52,6.81.36,13.34,4.13,18.89,3.01,4.42,6.64,8.43,9.03,13.28.27.52.84,1.01,1.37,1.21.27.11.79-.49,1.2-.75-2.43-2.94,1.92-5.99-.19-8.94-1.26-1.79-2.49-3.57-4-5.17-1.99-2.11-5.11-4.31-5.31-6.68-.43-4.87-.9-9.16-6.23-11.85v.02Z"/>
  <path class="cls-3" d="m190.46,216.24c.63-2.66-1.83-3.99-4.32-4.54-.49-.09-1.02,0-1.61,0,2.14-3.49.99-5.72-4.73-9.08.11,1.53.22,2.88.3,4.23.05.99.47,2.25-1.06,2.48-1.37.2-2.17-.55-2.46-1.92-.72-3.54-3.5-6.65-2.17-10.66.22-.64.02-1.7-.99-1.79-.69-.06-1.1.55-1.15,1.3-.2,3.63-.95,6.85.74,10.86,2.51,5.96,6.63,8.66,12.1,10.15,1.61.44,4.7,1.71,5.34-1.04Z"/>
  <path class="cls-3" d="m179.81,202.61s0,0,0,0c0-.01,0-.02,0-.03v.03Z"/>
  <path class="cls-3" d="m225.9,169.25h-.02c-2.54-.02-5.88,3.14-5.25,5.31.96,3.33,2.19,6.6,3.55,9.79.88,2.08,2.17,1.93,3.44.11,1.56-2.25,2.17-4.81,2.99-7.36.71-2.19-2.35-7.86-4.71-7.86Z"/>
  <path class="cls-3" d="m353.95,135.15c-2.6.97-4.08.83-5.14-2.2-.72-2.08-4.68-3.41-5.26-2.39-.65,1.16-3.39,1.46-2.11,3.13,1.34,1.74,1.86,4.73,4.44,4.95,2.13.19,2.24.66,1.94,2.53-.21,1.24-.08,3.3,1.31,3.73,1.37.42,3.03-.36,4.05-1.74,1.28-1.73,3.5-2.97,2.84-5.83h.02c.43-1.59.02-2.95-2.08-2.17Z"/>
  <path class="cls-3" d="m380.27,314.47c.32-2.67.25-4.62-3.01-5.45-1.45-.38-3.86-1.45-2.9-3.71,1.36-3.19-.9-2.42-2.57-2.67l-.02-.02c-1.06-.3-2.13.17-2.32,1.29-.44,2.69-2.79,5.64,1.2,7.88,1.27.72,2.91,1.66,3.06,3.76.1,1.43,2.76,1.1,2.54,3.03,1.17-1.51,3.72-1.52,4.02-4.1Z"/>
  <path class="cls-3" d="m342.27,108.27c.33.99.58,2.01.98,2.97.27.64.8,1.05,1.56.75.71-.28,1.1-1.01.67-1.56-1.37-1.81-.58-3.43.48-5.38v-.02c-1.91-3.66-1.32-8.47-4.9-11.71-.85-.77-1.67-1.41-2.66-.5-1.28,1.18-1.5,7.42-.1,8.27,2.82,1.7,3.08,4.56,3.97,7.17Z"/>
  <path class="cls-3" d="m425.62,344.62c.69-2.08-.03-3.05-1.58-3.77-2.19-1.02-3.44.8-4.93,1.59-1.45.76-.27,1.93-.08,3.04.54,3.19,3.72,4.46,4.84,7.17.32.74-.22,2.11,1.29,1.88.9-.12.82-1.19,1.23-1.79,2.05-3.05-.57-5.66-.77-8.09v-.02Z"/>
  <path class="cls-3" d="m157.57,80.28c-4.21-1.27-6.26,2.44-9,4.57-.66.5-2.99.79-1.48,2.67,1.2,1.49,2.46,1.01,3.7-.03,2.05-1.7,4.29-2.42,7.04-2.37,2.08.03,5.61.27,5.42-2.85-.17-2.62-3.21-2.36-5.69-2Z"/>
  <path class="cls-3" d="m182.69,233.2v-.02c-2.95-5.67-9.22-6.37-13.41-9.85-.84-.69-2.32.08-2.92,1.29-.82,1.7.47,2.67,1.64,2.97,2.58.68,4.9,1.93,6.89,3.46,2.29,1.76,4.46,2.88,7.8,2.15Z"/>
  <path class="cls-3" d="m168.66,92.32c-.98-3.08-2.33-.02-3.47.14-6.74.94-7.75,2.01-8.38,8.85,2.66-2.71,5.79-3.74,8.9-4.81,2.06-.71,3.67-1.93,2.95-4.18Z"/>
  <path class="cls-3" d="m156.81,101.33s0-.01,0-.02c0,0-.01.01-.02.02h.02Z"/>
  <path class="cls-3" d="m402.62,284.03c-1.51-.39-3.09.55-3.09,2.14-.02,1.21-.62,2.2-.65,3.63,2,.11,3.72-.22,4.71,1.79.6,1.23,2.08,1.12,3.15.63,1.07-.5,2.29-2,1.61-2.73-1.76-1.95-2.94-4.72-5.74-5.45Z"/>
  <path class="cls-3" d="m381.47,129.37h.02c.38-.25,1.18-.61,1.15-.77-.58-2.47,1.55-4.62.91-7.01-.47-1.78-.88-3.19-3.66-1.9-4.14,1.92-4.74,2.47-1.7,5.77,1.14,1.23.87,3.63,3.28,3.91Z"/>
  <path class="cls-3" d="m167.39,105.29c-.09.44,0,1.08.27,1.38.54.57,1.42.46,1.64-.2.79-2.3,2.68-1.57,4.26-1.71,2.35-.2,3.88-1.3,4.29-3.73.24-1.48-.22-2.3-1.86-2.11-1.91.03-8.18,4.62-8.59,6.37Z"/>
  <path class="cls-3" d="m252.7,246.31c-.03.39.3,1.08.65,1.23,1.84.77,2.52,2.28,3.22,4.04.66,1.68,2.03,3.19,3.99,3.4,1.15.13,2.54,1.79,3.44.25.74-1.3-1.18-1.74-1.8-2.64-.74-1.07-1.51-2.11-2.32-3.13-1.54-1.95-3.47-3.36-6.04-3.71l.02.02c-.5-.16-1.1-.02-1.15.55Z"/>
  <path class="cls-3" d="m343.87,166.3c-.91-.3-1.67.66-1.97,1.56-.13.39.05,1.04.31,1.37,1.14,1.4,1.77,3.79,4.52,2.45,1.07-.24,2.48,1.29,3.42-.39.44-.8.74-1.84.09-2.58-1.65-1.92-4.22-1.7-6.38-2.4Z"/>
  <path class="cls-3" d="m374.86,147.71c1.26-1.45,3.53-2.11,3.86-4.18l.03-.02c-1.01-2.42-.08-3.95,1.46-5.42.68-.64,1.01-1.78,1.21-2.75.1-.46-.72-.64-1.24-.52-1.28.3-2.41.57-2.71,2.28-.41,2.23-1.05,4.39-3.1,5.94-1.15.88-1.18,2.56-.72,3.98.11.35,1.14.77,1.21.69Z"/>
  <path class="cls-3" d="m184.1,240.39c.99-.06,2.63,1.1,2.68-.88.03-1.48-1.37-2.04-2.8-2.04h-11.79c3.56,4.31,7.8,3.21,11.91,2.92Z"/>
  <path class="cls-3" d="m175.14,255.05c5.78,2.73,8.64,2.44,12.26-1.38-4.19.17-8.15-.85-12.26,1.38Z"/>
  <path class="cls-3" d="m384.86,134.82c2.68,0,4.18,1.93,6.1,3.3.91.64,2.76,1.13,3.7-.93-2.13-.85-4.3-1.7-4.56-4.4-.12-1.29-1.17-1.45-2-1.18-1.4.46-3.01.69-3.92,2.03-.13.17.44,1.18.68,1.18Z"/>
  <path class="cls-3" d="m418.87,264.41s0,0-.01,0c0,0,0,0,.01.01v-.02Z"/>
  <path class="cls-3" d="m410.46,263.39c2.76.09,5.01,3.04,8.4,1.03-.67-.73-1.25-1.22-1.64-1.83-1.64-2.59-4.35-3.21-6.59-1.46-.96.75-1.45,2.22-.17,2.26Z"/>
  <path class="cls-3" d="m216.3,162.12c-.47-.11-1.21.52-1.25,1.27-.03.8.66.94,1.25,1.24,3.15,1.59,5.64.55,7.94-1.82h-.02c-2.57-2.03-5.34-.14-7.93-.69Z"/>
  <path class="cls-3" d="m332.68,133.02c.3,1.93,2.22,2.55,3.85,2.72,1.4.16,2.27-.99,2.24-2.53-.03-2.48-2.38-1.87-3.63-2.78v-.02c-1.36.46-2.7,1.18-2.46,2.61Z"/>
  <path class="cls-3" d="m262.99,27.9c2.03.53,3.61-.8,6-2.17v-.02c-1.73-.99-2.93-1.85-4.25-2.39-2.06-.83-2.76.88-3.44,2.23-.8,1.6.82,2.12,1.69,2.34Z"/>
  <path class="cls-3" d="m318.37,98.33c1.62-.44,3.61-.83,3.81-2.8.17-1.59-1.53-2.17-2.74-2.83h-.02c-1.67.82-2.92,1.89-2.89,3.85.02,1.15.35,2.18,1.83,1.78Z"/>
  <path class="cls-3" d="m184.52,141.04c1.72,1.38,2.85-.64,4.63-.77-1.28-1.49-2.25-2.67-3.28-3.82-.16-.17-.44-.21-1.1-.5-.11,1.88-2.33,3.44-.25,5.09Z"/>
  <path class="cls-3" d="m184.76,135.95s0,0,.02,0c0,0,0,0,0,0h-.02Z"/>
  <path class="cls-3" d="m193.19,237.33c-1.45.61-3.78.33-4.08,2.25-.22,1.43,1.77,1.07,2.81,1.63,1.59,0,2.66-1.01,3.03-2.4.27-1.02-.9-1.82-1.75-1.48Z"/>
  <path class="cls-3" d="m201.3,186.25c-1.88-.27-1.07,2.14-1.99,3.07l.02-.02c.19,1.29-.17,2.84,1.64,3.1,1.26.19,1.58-1.16,1.51-1.79-.16-1.56-.57-4.26-1.18-4.35Z"/>
  <path class="cls-3" d="m229.65,345.67c1.64-.58,1.83-2.33,2.62-3.54.03-.93-.61-1.05-1.26-1.05-2.54,0-1.77,2.42-2.57,3.68-.36.55.57,1.13,1.21.91Z"/>
  <path class="cls-3" d="m380.58,114.2c-.05,1.02-1.01,2.59.93,2.92.69.11,2.03-1.21,1.61-1.68-.91-1.01-.77-3.08-2.33-3.13-1.31-.05-.44,1.08-.21,1.87v.02Z"/>
  <path class="cls-3" d="m400.59,217.2c1.53-.2,2.43-1.45,2.9-2.77.22-.61-.58-1.04-1.41-.93-.88.57-2.82-.08-2.54,2.03.1.69-.11,1.82,1.04,1.67Z"/>
  <path class="cls-3" d="m259.98,88.88c-1.29.39-2.35,1.52-2.41,2.75-.17,3.09-1.76,5.75-2.81,9.32,4.08-1.97,3.26-5.92,5.41-8.1.76-.77,2.13-1.43,1.25-2.86-.3-.5-1.09-1.23-1.43-1.12Z"/>
  <path class="cls-3" d="m254.75,100.98s0-.02,0-.03c0,0-.02,0-.02.01l.02.02Z"/>
  <path class="cls-3" d="m225.77,113.31l-.02.02s.06.07.09.1c.02-.02.03-.03.05-.05-.02,0-.13-.06-.13-.06Z"/>
  <path class="cls-3" d="m225.85,113.42c-.41.45-.98.83-1.18,1.36-.44,1.19-.77,2.55.39,3.5.73.6,1.39-.11,1.97-.6,1.45-1.21.55-2.22-.25-3.24-.29-.36-.61-.69-.93-1.03Z"/>
  <path class="cls-3" d="m559.66,61.22c0-.96-.29-.99-.29-1.92v-1.89c0-.93.03-.96.03-1.89s-.16-.93-.16-1.89.29-.99.29-1.92-.29-.96-.29-1.89.11-.93.11-1.89v-1.92c0-.93-.37-.96-.37-1.89s.24-.96.24-1.89.02-.96.02-1.89.4-.96.4-1.89-.43-.93-.43-1.89-.11-.93-.11-1.89.51-.93.51-1.89-.19-.96-.19-1.89.08-.96.08-1.89-.21-.96-.21-1.89.05-.96.05-1.89.24-.96.24-1.89-.56-.96-.56-1.89.45-.96.45-1.89-.11-.96-.11-1.89.13-.96.13-1.89-.51-.96-.51-1.89.19-.96.19-1.89.19-.96.19-1.89.19-.93.19-1.89c0-.67-.05-1.41-.24-2.08-.19-.67-.88-1.14-1.2-1.73-.32-.59-.35-1.46-.85-1.94-.48-.48-1.38-.43-1.97-.77-.58-.35-1.01-1.17-1.65-1.36-.64-.19-1.41.19-2.1.19-.99,0-.96.08-1.94.08s-.99-.43-1.94-.43-.96.37-1.92.37-.96-.48-1.92-.48-.96.53-1.92.53-.96-.11-1.92-.11-.96-.16-1.92-.16-.96.29-1.92.29-.96-.27-1.92-.27-.96.08-1.92.08-.96.05-1.92.05h-1.92c-.96,0-.96.24-1.92.24s-.96-.16-1.92-.16-.96.16-1.92.16-.96-.32-1.92-.32-.99-.05-1.92-.05-.96.24-1.89.24-.93-.16-1.89-.16-.96-.16-1.92-.16-.96.43-1.92.43-.96-.21-1.92-.21-.96-.29-1.92-.29-.96-.08-1.92-.08-.96.4-1.92.4-.96-.43-1.92-.43-.96.59-1.92.59-.96-.19-1.92-.19-.96-.45-1.92-.45-.96.37-1.92.37-.96-.21-1.92-.21-.96.48-1.92.48h-1.92c-.96,0-.96-.05-1.92-.05s-.96-.4-1.92-.4-.96-.19-1.92-.19-.96.64-1.92.64-.96.08-1.92.08-.96-.08-1.92-.08-.96-.21-1.92-.21-.96-.16-1.92-.16-.96.27-1.92.27-.99.03-1.92.03-.96.16-1.89.16-.96-.03-1.89-.03-.96-.19-1.89-.19-.96-.35-1.89-.35-.96-.08-1.89-.08-.96.29-1.89.29-.96-.24-1.89-.24-.96.53-1.89.53-.96-.48-1.89-.48-.96.29-1.89.29-.96-.43-1.89-.43-.93.61-1.89.61h-1.92c-.96,0-.96-.43-1.92-.43s-.96-.08-1.92-.08-.98.27-1.92.27-.96-.03-1.89-.03-.96.27-1.89.27-.96-.61-1.89-.61-.96.27-1.89.27-.96.19-1.89.19-.93.27-1.89.27-.93-.29-1.89-.29-.96-.29-1.92-.29-.96.29-1.92.29c-.69,0-1.33.24-1.97.4-.64.16-1.52-.08-2.1.27-.59.35-.83,1.17-1.31,1.68-.5.45-.77,1.04-1.12,1.62-.35.59-.67,1.12-.85,1.78s-.48,1.28-.48,1.97c0,.96.32.96.32,1.92s-.4.96-.4,1.92.27.96.27,1.92-.16.99-.16,1.92.08.96.08,1.89.13.96.13,1.89-.35.93-.35,1.89-.16.99-.16,1.92.37.96.37,1.89-.29.93-.29,1.89v1.92c0,.93.53.96.53,1.89s-.58.96-.58,1.89.24.96.24,1.89.19.96.19,1.89-.13.93-.13,1.89-.32.93-.32,1.89.37.93.37,1.89-.19.96-.19,1.89.4.96.4,1.89-.4.96-.4,1.89.03.96.03,1.89-.19.96-.19,1.89.53.96.53,1.89-.19.96-.19,1.89-.43.96-.43,1.89.43.96.43,1.89.16.96.16,1.89.03.96.03,1.89-.16.96-.16,1.89.08.93.08,1.89c0,.69.05,1.3.24,1.97.19.67.56,1.2.88,1.78.32.59.56,1.2,1.06,1.68.48.48.85,1.12,1.44,1.46.59.35,1.25.72,1.89.9.64.19,1.38.08,2.08.08.99,0,.99.19,1.97.19s.98-.24,1.97-.24h3.94c.96,0,.99-.27,1.94-.27s.99.32,1.94.32.99.21,1.94.21.99-.32,1.94-.32.98.32,1.94.32.98-.53,1.94-.53.98.59,1.94.59.96-.19,1.94-.19.99-.11,1.94-.11h1.94c.96,0,.96.08,1.94.08s1.92.27,2.58.93c.69.67,1.12,1.57,1.12,2.53l.05-.05c0,.96.24.96.21,1.94-.03.99-.53.96-.53,1.94s.08.96.08,1.94-.13.99-.13,1.94.64.96.64,1.92-.32.96-.32,1.92.29.93.29,1.92-.19.99-.19,1.94-.16.96-.16,1.92.19.93.19,1.92-.32.99-.32,1.94.11.96.11,1.92-.24.96-.24,1.92.03.96.03,1.92v1.92c0,.96-.11.96-.11,1.92s.69.96.69,1.92-.69.96-.69,1.92.45.96.45,1.92.08.96.08,1.92-.45.96-.45,1.92-.11.96-.11,1.92v1.92c0,.96.27.96.27,1.92s.05.96.05,1.92-.08.96-.08,1.92v1.92c0,.96-.21.96-.21,1.92s.02.96.02,1.92.11.96.11,1.92.11.96.11,1.92-.11.96-.11,1.92v1.92c0,.96.32.96.32,1.92v1.92c0,.96.19.96.19,1.92s-.13.96-.13,1.92.21.96.21,1.92-.05.96-.05,1.92-.29.96-.29,1.92-.35.96-.35,1.92.29.96.29,1.92.45.96.45,1.92-.64.96-.64,1.92.18.96.18,1.92.16.96.16,1.92.11.96.11,1.92.19.96.19,1.92-.21.96-.21,1.92-.53.96-.53,1.92.48.96.48,1.92.13.96.13,1.92-.56.96-.56,1.92-.05.96-.05,1.92.27.96.27,1.92.48.96.48,1.92-.51.96-.51,1.92-.08.96-.08,1.92.21.96.21,1.92.19.96.19,1.92.16.96.16,1.92-.24.96-.24,1.92.11.99.11,1.92-.37.96-.37,1.89v1.89c0,.96.08.96.08,1.92s-.18.96-.18,1.92.5.96.5,1.92.03.96.03,1.92-.32.96-.32,1.92-.11.96-.11,1.92.32.96.32,1.92-.3.96-.3,1.92.19.96.19,1.92v1.92c0,.96-.08.96-.08,1.92s.29.96.29,1.92-.16.96-.16,1.92-.19.96-.19,1.92.27.96.27,1.92-.21.96-.21,1.92.16.96.16,1.92-.34.96-.34,1.92-.13.96-.13,1.92.29.96.29,1.92.08.96.08,1.92-.13.96-.13,1.92.4.96.4,1.92-.13.96-.13,1.92-.32.96-.32,1.92.05.96.05,1.92.37.96.37,1.92-.56.96-.56,1.92.08.96.08,1.92-.16.96-.16,1.92.13.96.13,1.92.45.96.45,1.92-.3.96-.3,1.92.11.96.11,1.92.34.96.34,1.92-.19.96-.19,1.92-.05.96-.05,1.92v1.92c0,.96.24.96.24,1.92s-.45.96-.45,1.92-.24.96-.24,1.92.64.96.64,1.92-.37.96-.37,1.92-.13.96-.13,1.92.13.96.13,1.92.37.96.37,1.92-.37.96-.37,1.92.29.96.29,1.92.08.96.08,1.92-.19.96-.19,1.92-.13.96-.13,1.92.19.96.19,1.92-.21.96-.21,1.92-.06.96-.06,1.92.45.96.45,1.92-.67.96-.67,1.92.45.96.45,1.91.11.96.11,1.92-.05.96-.05,1.92.05.96.05,1.92-.16.96-.16,1.92-.45.96-.45,1.92.43.96.43,1.92-.37.96-.37,1.92.11.96.11,1.92.24.96.24,1.92-.11.96-.11,1.92.29.96.29,1.92-.24.96-.24,1.92-.35.96-.35,1.92.16.96.16,1.92.43.96.43,1.92-.53.96-.53,1.92.53.96.53,1.92-.08.96-.08,1.92-.27.96-.27,1.92-.24.96-.24,1.92.32.96.32,1.92-.11.96-.11,1.92.35.96.35,1.92-.67.96-.67,1.92.05.96.05,1.92.67.96.67,1.92-.4.96-.4,1.92c0,.69.13,1.36.32,2.02.19.67.19,1.46.51,2.05.32.59.96,1.04,1.44,1.52.48.48,1.04.96,1.62,1.28.59.32,1.23.85,1.86,1.01.64.16,1.41-.29,2.11-.29h3.89c.96,0,.96.05,1.94.05s.96.19,1.94.19.96-.29,1.94-.29.96.32,1.94.32.96.11,1.94.11.96.11,1.94.11h1.94c.99,0,.96.05,1.94.05s.99-.69,1.94-.69.96.69,1.92.69h1.92c.96,0,.93-.16,1.92-.16s.99-.48,1.94-.48.96.4,1.92.4.96.06,1.92.06.96-.27,1.92-.27.96.37,1.92.37h1.92c.96,0,.96-.35,1.92-.35s.93-.11,1.92-.11.98-.19,1.94-.19.96.19,1.92.19.96.35,1.92.35c.72,0,1.38-.16,2.05-.35.67-.19,1.2-.64,1.78-.99.58-.34,1.12-.72,1.6-1.2s.98-.93,1.33-1.52c.35-.58.8-1.17.98-1.81.19-.64.11-1.38.11-2.08,0-.96-.32-.98-.32-1.94s.05-.96.05-1.94.19-.96.19-1.94.27-.99.27-1.94.08-.96.08-1.92-.05-.96-.05-1.92-.19-.93-.19-1.92.27-.99.27-1.94-.43-.96-.43-1.92.16-.93.16-1.92.32-.99.32-1.94-.64-.96-.64-1.92.34-.96.34-1.92-.24-.96-.24-1.92.19-.96.19-1.92-.16-.96-.16-1.92.53-.96.53-1.92-.21-.96-.21-1.92.11-.96.11-1.92-.45-.96-.45-1.92.08-.96.08-1.92.51-.96.51-1.92v-1.92c0-.96-.29-.96-.29-1.92s-.29-.96-.29-1.92.56-.96.56-1.92-.51-.96-.51-1.92.43-.96.43-1.92-.61-.96-.61-1.92.45-.96.45-1.92v-1.92c0-.96.24-.96.24-1.92s-.06-.96-.06-1.92-.64-.96-.64-1.92.51-.96.51-1.92.08-.96.08-1.92-.26-.96-.26-1.92v-1.92c0-.96-.13-.96-.13-1.92s.45-.96.45-1.92.11-.96.11-1.92-.13-.96-.13-1.92v-1.92c0-.96-.27-.96-.27-1.92s-.21-.96-.21-1.92.11-.96.11-1.92v-1.92c0-.96.51-.96.51-1.92s-.64-.96-.64-1.92.32-.96.32-1.92-.24-.96-.24-1.92.02-.96.02-1.92.45-.96.45-1.92-.16-.96-.16-1.92.13-.96.13-1.92-.29-.96-.29-1.92.05-.96.05-1.92-.16-.96-.16-1.92v-1.92c0-.96-.19-.96-.19-1.92s.64-.96.64-1.92v-1.92c0-.96-.56-.98-.56-1.92s.61-.96.61-1.89-.03-.93-.03-1.89-.61-.96-.61-1.92.64-.96.64-1.92-.4-.96-.4-1.92v-1.92c0-.96.37-.96.37-1.92s-.37-.96-.37-1.92.19-.96.19-1.92-.19-.96-.19-1.92.13-.96.13-1.92-.19-.96-.19-1.92-.19-.96-.19-1.92v-1.92c0-.96.72-.96.72-1.92s-.11-.96-.11-1.92-.05-.96-.05-1.92-.11-.96-.11-1.92-.16-.96-.16-1.92.43-.96.43-1.92-.24-.96-.24-1.92.03-.96.03-1.92.16-.96.16-1.92v-1.92c0-.96-.61-.96-.61-1.92s.21-.96.21-1.92.21-.96.21-1.92-.19-.96-.19-1.92.27-.96.27-1.92-.21-.96-.21-1.92.29-.96.29-1.92-.32-.96-.32-1.92.05-.96.05-1.92v-1.92c0-.96.21-.96.21-1.92v-1.92c0-.96-.24-.96-.24-1.92v-1.92c0-.96.29-.96.29-1.92s-.53-.96-.53-1.92.45-.96.45-1.92.11-.96.11-1.92-.29-.96-.29-1.92.24-.96.24-1.92-.19-.96-.19-1.92.19-.96.19-1.92-.16-.96-.16-1.92.16-.96.16-1.92-.43-.96-.43-1.92.34-.96.34-1.92-.4-.96-.4-1.92.64-.96.64-1.92-.29-.96-.29-1.92-.43-.96-.43-1.92.24-.96.24-1.92-.13-.96-.13-1.92.56-.96.56-1.92-.37-.96-.37-1.92.18-.96.18-1.92-.02-.96-.02-1.92-.11-.96-.11-1.92v-1.92c0-.96.05-.96.05-1.92s.19-.96.19-1.92.05-.96.05-1.92v-1.92c0-.96-.21-.96-.21-1.92s-.11-.96-.11-1.92.13-.96.13-1.92-.03-.96-.03-1.92-.26-.96-.26-1.92.29-.96.29-1.92.21-.96.21-1.92-.05-.96-.05-1.92-.26-.96-.26-1.92-.08-.96-.08-1.92.05-.96.05-1.92v-1.92c0-.96.29-.96.29-1.92s-.61-.96-.61-1.92.19-.96.19-1.92.19-.96.19-1.92.19-.96.19-1.92.13-.96.13-1.92-.51-.96-.51-1.92.37-.96.37-1.92.19-1.81.85-2.48,1.57-1.33,2.48-1.33c.99,0,.99-.03,1.97-.03s.98.51,1.97.51.99-.16,1.97-.16,1.01-.27,1.97-.27.99.48,1.94.48.99-.35,1.94-.35.96.27,1.94.27,1.01.11,1.97.11h1.94c.96,0,.96-.37,1.94-.37s1.01-.13,1.97-.13.99-.03,1.94-.03.99.37,1.94.37.98-.03,1.94-.03.96.29,1.94.29c.69,0,1.36-.43,2.02-.61.67-.19,1.28-.48,1.86-.83.59-.35,1.31-.59,1.78-1.07.51-.51.88-1.12,1.25-1.7.37-.59.21-1.38.37-2.05.16-.67.45-1.28.45-1.97,0-.96.35-.96.35-1.92s-.24-.96-.24-1.92.29-.96.29-1.92Z"/>
  <path class="cls-3" d="m159.92,360.67c-.11-.96-.4-.91-.51-1.89-.11-.99-.32-.96-.43-1.92-.11-.96.21-1.01.11-1.97-.11-.96-.53-.91-.64-1.86-.11-.96.53-1.04.4-2-.13-.96-.51-.88-.61-1.86-.11-.99-.05-.99-.16-1.94-.11-.96-.32-.93-.43-1.89-.11-.96-.05-.96-.16-1.92-.11-.96,0-.98-.11-1.94-.11-.96.24-.99.13-1.94-.11-.96-.24-.93-.35-1.89-.11-.96-.53-.91-.64-1.86-.11-.96.11-.99,0-1.94-.11-.96-.29-.93-.4-1.89-.11-.96-.24-.93-.37-1.89-.13-.96.45-1.01.35-1.97-.11-.96-.05-.96-.16-1.92-.11-.96-.13-.96-.24-1.92-.11-.96-.59-.9-.69-1.87-.11-.96.13-.98,0-1.94q-.13-.96-.24-1.92c-.11-.96-.4-.96-.51-1.89-.11-.93.29-.98.19-1.94-.11-.96-.61-.93-.72-1.86-.11-.93.27-.99.16-1.94-.11-.96-.35-.93-.48-1.89s-.08-.96-.19-1.92c-.11-.96.35-1.04.24-1.97s-.61-.88-.75-1.84-.03-.96-.13-1.92c-.11-.96,0-.96-.11-1.92-.11-.96-.32-.93-.43-1.89-.11-.96-.27-.93-.4-1.89s-.03-.98-.13-1.92q-.11-.93-.24-1.89c-.13-.96.24-1.01.13-1.94-.11-.93.05-.96-.05-1.92-.11-.96-.13-.96-.24-1.92-.11-.96-.13-.96-.24-1.92-.11-.96-.43-.9-.56-1.86s-.03-.99-.13-1.92c-.11-.93-.35-.91-.45-1.86-.11-.96-.19-.93-.29-1.89-.11-.96.19-.99.08-1.94-.11-.96.05-.96-.05-1.92-.11-.96.05-.98-.05-1.92-.11-.93-.51-.91-.64-1.84s-.35-.91-.48-1.86c-.13-.96-.03-.96-.13-1.92-.11-.96.48-1.01.37-1.97-.11-.96-.21-.93-.32-1.89-.11-.96-.67-.91-.77-1.84-.11-.93.11-.96,0-1.92-.11-.96-.21-.93-.32-1.89-.11-.96.4-1.04.29-1.97s-.43-.91-.53-1.86c-.11-.96-.05-.96-.16-1.92-.11-.96-.27-.96-.37-1.89-.11-.93-.35-.91-.45-1.86s.45-1.01.35-1.97c-.11-.96-.03-.96-.13-1.92s-.13-.93-.24-1.89-.37-.93-.48-1.86c-.11-.93-.08-.93-.19-1.89-.11-.96.13-1.01.03-1.94-.11-.93-.59-.88-.69-1.84-.11-.96.21-.99.11-1.94-.11-.96-.45-.91-.59-1.86-.13-.96.11-1.01.03-1.94-.08-.93.11-.96,0-1.92-.11-.96-.51-.91-.64-1.86-.13-.96.11-1.01,0-1.94-.11-.93-.16-.96-.27-1.89-.11-.93.11-.96,0-1.92-.11-.96-.72-.88-.85-1.84-.13-.96.16-1.01.05-1.94-.11-.93-.35-.93-.45-1.86-.11-.93.11-.99,0-1.92-.11-.93.32-1.01.21-1.94q-.11-.93-.21-1.89c-.11-.96-.29-.96-.4-1.89-.11-.93-.08-.93-.21-1.89-.13-.96-.03-.98-.13-1.92-.11-.93-.35-.91-.45-1.86-.11-.96,0-.96-.11-1.92-.11-.96-.19-.93-.29-1.89-.11-.96-.51-.91-.61-1.86-.11-.96-.05-.96-.16-1.92-.11-.96.03-.96-.05-1.92-.08-.96.03-.96-.08-1.92-.11-.96-.19-.93-.32-1.89-.13-.96.19-.99.05-1.94-.13-.96-.03-.96-.13-1.92-.11-.96-.43-.91-.53-1.86-.11-.96.19-.99.08-1.94s-.24-.93-.35-1.89c-.11-.96-.48-.93-.61-1.86-.13-.93.13-.96,0-1.92-.13-.96-.03-.99-.13-1.92-.11-.93-.59-.91-.69-1.84-.11-.93.35-.98.24-1.94-.11-.96-.27-.93-.4-1.89-.13-.96-.03-.99-.13-1.92-.11-.93-.05-.96-.19-1.89s-.16-.93-.27-1.89c-.11-.96-.45-.93-.56-1.86s-.16-.93-.27-1.89.37-1.04.27-1.97c-.11-.93-.56-.9-.67-1.84-.11-.93.11-.98-.03-1.92-.13-.93-.13-.96-.27-1.89-.13-.93.32-.99.21-1.94s-.29-.93-.4-1.89c-.11-.96-.24-.93-.35-1.89-.11-.96-.27-.93-.4-1.89-.13-.96.35-1.01.24-1.97-.11-.96-.69-.91-.8-1.84-.11-.93.35-.98.21-1.94s-.69-.91-.8-1.84c-.11-.93.59-1.04.45-1.97s-.77-.85-.88-1.81c-.11-.96-.05-.99-.16-1.92-.11-.93.13-.96.03-1.92-.11-.96.19-.98.08-1.94-.11-.96-.21-.93-.32-1.89-.11-.96-.64-.88-.75-1.84-.11-.96.24-.99.11-1.94s.27-1.01.13-1.94c-.13-.93-.35-.91-.45-1.86-.11-.96-.59-.91-.69-1.84s-.11-.96-.21-1.89c-.11-.93.45-.98.32-1.94-.13-.96-.48-.93-.59-1.86-.11-.93.19-.98.08-1.92s-.32-.93-.45-1.86.11-.96,0-1.92c-.11-.96.03-.98-.08-1.92-.11-.93-.32-.93-.43-1.86s-.53-.91-.64-1.84c-.11-.93.37-1.01.27-1.94-.11-.93-.32-.91-.43-1.86-.11-.96-.37-.91-.48-1.86-.11-.96.48-1.04.37-1.97-.11-.93-.53-.88-.64-1.84-.11-.96.29-.98.19-1.94-.11-.96-.37-.93-.48-1.86q-.11-.93-.21-1.89c-.11-.96.16-1.01.05-1.94-.11-.93-.32-.93-.43-1.86-.11-.93-.13-.93-.24-1.89-.11-.96-.16-.96-.29-1.89-.13-.93.11-.96,0-1.92-.11-.96-.4-.91-.51-1.86-.11-.96-.16-.93-.29-1.89s.27-.99.16-1.94c-.11-.96-.27-.93-.37-1.89-.11-.96-.51-.91-.61-1.86-.11-.96.43-1.01.32-1.97-.11-.96-.59-.88-.72-1.84-.13-.96.27-1.01.16-1.94-.11-.93.13-.96,0-1.92s-.21-.93-.35-1.89-.43-.93-.53-1.86c-.11-.93.19-.99.08-1.92-.11-.93-.05-.93-.16-1.89s-.61-.91-.75-1.84c-.13-.93.11-.96,0-1.92-.11-.96-.13-.93-.24-1.89-.11-.96.13-.96,0-1.92-.13-.96-.61-.91-.75-1.84-.13-.93.11-.96,0-1.92-.11-.96-.13-.93-.27-1.89s.29-1.01.19-1.94c-.11-.93-.08-.96-.19-1.89-.11-.93-.08-.93-.19-1.89-.11-.96-.45-.91-.53-1.86-.08-.96.03-.96-.08-1.92-.11-.96-.16-.96-.27-1.89-.11-.93-.32-.91-.43-1.86-.11-.96.05-.98-.05-1.92-.11-.93-.45-.9-.59-1.84-.13-.93-.03-.93-.13-1.89-.11-.96-.08-.96-.21-1.89-.13-.93.37-1.01.27-1.94-.11-.93-.75-.88-.85-1.81-.08-.64-.08-1.17-.32-1.76-.24-.59-.24-1.28-.59-1.78s-.93-.8-1.41-1.2c-.48-.4-1.04-.56-1.6-.85s-.99-.85-1.57-1.01-1.2-.45-1.84-.45c-.98,0-.96.32-1.94.32s-.99-.11-1.94-.11-.96-.27-1.92-.27-.96.69-1.92.69-.96-.21-1.92-.21-.96.03-1.92.03-.96-.43-1.92-.43h-1.92c-.96,0-.96.08-1.92.08s-.96.35-1.92.35-.96.08-1.92.08-.96.05-1.92.05-.96-.16-1.92-.16-.96-.43-1.92-.43-.96-.11-1.92-.11-.98.59-1.92.59-.96-.16-1.89-.16-.96-.24-1.89-.24-.93.48-1.89.48-.96-.29-1.92-.29-.96.27-1.92.27-.96-.05-1.92-.05-.96-.27-1.92-.27-.96.16-1.92.16-.96-.35-1.92-.35-.96.16-1.92.16-.96.37-1.92.37-.96-.53-1.92-.53-.96.53-1.92.53h-1.92c-.96,0-.96-.32-1.92-.32s-.96-.13-1.92-.13c-.64,0-1.17.51-1.78.67-.61.16-1.36-.08-1.89.21-.53.29-.9.91-1.36,1.3-.45.4-1.01.75-1.36,1.25-.35.51-.27,1.25-.48,1.81-.21.56-.72,1.04-.8,1.65-.13.96.19,1.01.08,1.97-.11.96-.19.96-.29,1.92-.11.96-.21.96-.35,1.92s.05.99-.05,1.94c-.11.96-.24.93-.35,1.89-.11.96-.27.93-.37,1.89s-.35.93-.45,1.89c-.11.96-.03.96-.16,1.92s0,.96-.13,1.92.27,1.01.16,1.97c-.11.96-.64.91-.75,1.86-.11.96-.29.93-.4,1.89-.11.96.21.99.08,1.94-.13.96-.21.93-.35,1.89-.13.96-.32.93-.43,1.89-.11.96.21,1.01.11,1.94-.11.93-.13.96-.24,1.89s-.16.96-.27,1.89c-.11.93-.29.9-.4,1.86-.11.96.48,1.01.35,1.97-.13.96-.64.91-.75,1.86-.11.96.16.98.05,1.94-.11.96-.16.96-.27,1.92-.11.96-.37.93-.51,1.89s.29,1.01.19,1.97c-.11.96-.48.91-.59,1.86s-.05.96-.16,1.92c-.11.96-.08.96-.19,1.92-.11.96-.35.93-.45,1.89-.11.96.27,1.01.16,1.97-.11.96-.05.96-.16,1.92-.11.96.16.99.05,1.94s-.69.88-.8,1.84c-.11.96,0,.96-.11,1.92-.11.96-.05.96-.16,1.92-.11.96.27.98.16,1.94q-.11.96-.21,1.92c-.11.96-.61.88-.75,1.84-.13.96-.21.96-.32,1.89-.11.93.27.98.16,1.94-.11.96-.21.93-.32,1.89-.11.96.21.99.08,1.94-.13.96-.45.9-.59,1.86s-.03.96-.13,1.92c-.11.96-.51.93-.61,1.86-.11.93.11.96,0,1.92-.11.96.08.99-.03,1.92s.11.98,0,1.92c-.11.93-.59.88-.69,1.84-.11.96-.29.93-.37,1.89-.08.96.03.96-.08,1.92-.11.96.05.96-.08,1.92s.13.98.03,1.94c-.11.96-.16.93-.27,1.89-.11.96-.43.91-.53,1.86-.11.96.29.98.16,1.94s-.51.91-.61,1.86c-.11.96.4,1.01.29,1.97-.11.96-.16.93-.29,1.89-.13.96-.69.88-.83,1.84-.13.96.27,1.01.16,1.94-.11.93-.05.93-.16,1.89-.11.96-.19.96-.29,1.89-.11.93-.03.93-.13,1.89-.11.96.11.99,0,1.92-.11.93-.08.93-.19,1.89-.11.96-.48.91-.59,1.86-.11.96-.03.96-.13,1.92-.11.96-.35.93-.45,1.89s.11.99,0,1.94c-.11.96.11,1.01,0,1.94-.11.93-.61.9-.72,1.84-.11.93-.16.93-.27,1.89q-.11.96-.21,1.92c-.11.96-.19.93-.29,1.89-.11.96.05.96-.05,1.92-.11.96-.24.96-.35,1.89-.11.93.29,1.01.19,1.94-.11.93-.08.93-.21,1.89s-.03.96-.13,1.92c-.11.96.03.99-.11,1.92-.13.93-.37.93-.51,1.86s-.13.93-.24,1.89c-.11.96-.45.9-.56,1.86-.11.96.35,1.01.24,1.97-.11.96-.51.93-.64,1.86-.13.93-.16.93-.27,1.89-.11.96.19.98.08,1.94-.11.96,0,.96-.11,1.92-.11.96-.35.93-.45,1.89-.11.96-.16.93-.29,1.89-.13.96.24.98.11,1.94s-.21.93-.32,1.89c-.11.96-.27.93-.37,1.89-.11.96-.4.91-.51,1.86-.11.96.27.98.16,1.94-.11.96-.19.93-.29,1.89-.11.96.05.99-.08,1.92-.13.93-.35.93-.45,1.86-.11.93.11.96,0,1.92-.11.96-.29.96-.4,1.89-.11.93-.11.96-.21,1.89-.11.93-.32.93-.43,1.86-.11.93.19.96.05,1.92-.13.96-.03.98-.13,1.92-.11.93.11.99,0,1.92-.11.93-.32.91-.45,1.86-.13.96-.19.93-.29,1.89-.11.96.16,1.01.05,1.94s-.35.91-.45,1.86c-.11.96-.03.96-.16,1.92s-.16.96-.29,1.89-.4.91-.51,1.86c-.11.96-.24.93-.35,1.89-.11.96.03.96-.08,1.92-.11.96.05.99-.05,1.92-.11.93-.13.93-.24,1.89-.11.96-.29.93-.4,1.89-.11.96.13.99.03,1.94-.11.96.21.99.08,1.94s-.67.88-.77,1.84c-.11.96,0,.96-.13,1.92-.13.96-.27.93-.37,1.89-.11.96.53,1.01.43,1.97-.11.96-.43.9-.53,1.86-.11.96.19,1.01.08,1.94-.11.93-.29.91-.4,1.86-.11.96-.27.93-.37,1.89-.11.96.08.96-.03,1.92s-.4.9-.53,1.86-.03.99-.13,1.92c-.11.93-.35.93-.45,1.86-.11.93-.08.96-.19,1.89q-.11.93-.21,1.89c-.11.96-.24.96-.35,1.89-.11.93.59,1.04.48,1.97-.11.93-.8.88-.9,1.81-.11.93.35,1.01.24,1.94-.11.93-.03.96-.13,1.89-.11.93-.56.88-.67,1.84-.11.96-.21.96-.32,1.89-.11.93-.11.96-.21,1.89-.11.93.16.99.05,1.92-.11.93-.03.93-.16,1.89s-.21.96-.32,1.89c-.11.93-.11.96-.21,1.89-.11.93-.35.93-.45,1.86-.11.93-.05.93-.19,1.89s0,.96-.13,1.92c-.13.96-.03.96-.13,1.92-.11.96-.21.96-.32,1.89-.11.93-.13.93-.24,1.89-.11.96.24,1.01.11,1.94s-.13.93-.24,1.89c-.11.96.08.96-.05,1.92s-.29.96-.37,1.89c-.08.93.11.96,0,1.92-.11.96-.16.93-.27,1.89-.11.96-.4.91-.51,1.86-.11.96-.48.9-.59,1.86-.11.96.19,1.01.08,1.94-.11.93.32,1.01.21,1.94-.11.93-.75.85-.85,1.81-.11.96.08.96-.03,1.92-.11.96.05.96-.05,1.92-.11.96.03.96-.11,1.92-.13.96.05.99-.05,1.92-.11.93-.32.9-.43,1.86-.11.96-.64.91-.75,1.83-.11.93.37.99.27,1.94-.11.96,0,.96-.11,1.92-.11.96-.67.88-.77,1.83-.11.96-.13.96-.27,1.89-.13.93.13.99.03,1.92-.11.93.35.98.24,1.94-.11.96-.61.88-.72,1.83-.11.96-.19.93-.29,1.89s.13.96,0,1.92c-.13.96.05.96-.05,1.92-.11.96.05.96-.05,1.92-.11.96-.35.93-.45,1.86-.11.93,0,.96-.11,1.89-.11.93-.48.88-.59,1.84-.11.96-.13.96-.24,1.89-.11.93-.05.96-.16,1.89-.11.93-.29.9-.4,1.86-.11.96.35.99.27,1.94,0,.69.11,1.36.24,2.13.13.69.05,1.52.32,2.18s.56,1.38,1.01,2c.48.48,1.3.67,1.92,1.01.61.35,1.17.9,1.84,1.09.72.21,1.46.13,2.13.13h1.92c.96,0,.96.08,1.92.08s.96-.29,1.92-.29.96.16,1.92.16.96.19,1.92.19.96-.27,1.92-.27.96.21,1.92.21.96-.16,1.92-.16.96.34,1.92.34.96.13,1.92.13.96-.29,1.92-.29.96-.08,1.92-.08.96.13,1.92.13.96-.4,1.92-.4.96.13,1.92.13.99.32,1.92.32.96-.05,1.89-.05.96-.37,1.89-.37.93.56,1.89.56.96-.08,1.92-.08.96.16,1.92.16.96-.13,1.92-.13.96-.45,1.92-.45.96.3,1.92.3c.64,0,1.28-.19,1.89-.35.61-.16,1.04-.72,1.6-1.01.56-.29,1.14-.51,1.6-.93.45-.43.88-.88,1.22-1.41.35-.53.61-1.09.83-1.7.19-.59.08-1.2.16-1.87.11-.93.51-.64.64-1.83.05-.53.37-1.14.45-1.89.05-.58-.51-1.31-.43-2,.08-.58.51-1.2.59-1.86.05-.61.27-1.23.35-1.89.08-.64,0-1.28.08-1.94.05-.64-.27-1.33-.19-1.97.08-.64.53-1.28.59-1.89.05-.61-.16-1.33-.08-1.94.08-.61.05-1.28.13-1.92.08-.64.32-1.28.4-1.89.08-.61.29-1.25.35-1.89.05-.64-.05-1.31,0-1.94.05-.64.32-1.25.4-1.89.08-.64.21-1.28.27-1.92.05-.64-.35-1.33-.27-1.97.08-.64.82-1.2.88-1.84.05-.64-.35-1.33-.27-1.97.08-.64.03-1.28.08-1.92.05-.64.19-1.25.24-1.89.05-.64.08-1.28.13-1.92.05-.64.29-1.25.35-1.89.05-.64.56-1.2.64-1.87s-.29-1.33-.21-1.97c.08-.64.48-1.23.59-1.86.11-.64.03-1.31.11-1.92.08-.67-.11-1.33-.03-1.94.08-.67.24-1.28.32-1.89.08-.67-.16-1.33-.08-1.92.08-.72.43-1.33.48-1.89,0-.64.48-1.06.75-1.54.29-.51.53-.96,1.04-1.25.48-.29.99-.85,1.62-.85.96,0,.96.53,1.92.53s.96-.53,1.92-.53.96.08,1.92.08.98.27,1.92.27.93.24,1.89.24.96-.32,1.92-.32.96.11,1.92.11.96-.35,1.92-.35l.16-.11c.61,0,1.3.29,1.78.56.51.27.61,1.01.91,1.52.27.48.51.96.51,1.57.08.56.05,1.22.13,1.92.05.61.59,1.2.67,1.86.08.61.11,1.25.19,1.92.08.61.29,1.22.37,1.89.08.61.03,1.25.11,1.92.05.64-.29,1.36-.21,1.97s.53,1.23.59,1.86c.05.64-.35,1.33-.29,1.97.05.64.77,1.25.85,1.86.08.61.11,1.28.19,1.92.08.64.16,1.27.24,1.92.08.64-.43,1.36-.37,2,.05.64.11,1.28.19,1.92.08.64.37,1.25.43,1.89.05.64-.08,1.31,0,1.94.08.64.08,1.28.16,1.92.08.64.56,1.23.64,1.87.08.64.29,1.25.35,1.89.05.64-.11,1.3-.05,1.94.05.64.29,1.22.35,1.89.05.67-.35,1.33-.29,1.97.05.64.37,1.23.43,1.86.05.64.32,1.25.4,1.89.08.64.03,1.3.08,1.92.08.67-.08,1.33-.03,1.94.08.67.13,1.31.19,1.92.08.69.37,1.3.43,1.89.08.69.48,1.28.53,1.87.08.74.11,1.38.16,1.92.13,1.23-.45,1.01-.35,1.97.05.67.64,1.23.83,1.81.21.64.05,1.41.4,1.97s1.04.82,1.52,1.28c.48.45.99.85,1.54,1.14.56.29,1.12.67,1.73.85.61.19,1.3,0,1.94,0,.96,0,.99.24,1.94.24s.98-.32,1.94-.32.96-.08,1.94-.08.96.21,1.94.21.96.13,1.94.13.96.08,1.94.08.96-.05,1.94-.05.96-.08,1.94-.08.96.24,1.94.24.96-.32,1.94-.32.99.19,1.94.19.96-.29,1.92-.29.96.05,1.92.05.93.19,1.92.19.99-.13,1.94-.13.96.48,1.92.48.96-.24,1.92-.24.96-.26,1.92-.26.96.34,1.92.34.96-.43,1.92-.43.96.48,1.92.48.93-.11,1.92-.11.99.19,1.94.19.96-.45,1.92-.45.96.27,1.92.27c.59,0,1.09-.53,1.65-.64.56-.11,1.04-.26,1.57-.48.53-.21,1.22-.02,1.7-.32.51-.32.91-.77,1.28-1.14.45-.61.96-1.14,1.25-1.83.29-.69.32-1.49.45-2.18.13-.75,0-1.46,0-2.16-.08-.96.35-1.01.24-1.97Zm-72.22-117.37c-.24.45-.61.8-1.04,1.04-.43.24-.98.37-1.46.37-1.04,0-1.07.24-2.1.24s-1.06-.45-2.1-.45-1.04-.24-2.1-.24-1.04.64-2.1.64-1.07-.37-2.1-.37c-.51,0-.91-.24-1.3-.48-.4-.24-.8-.45-1.04-.93-.53-.27-1.12-.56-1.22-1.14-.08-.45.29-1.01.29-1.65.05-.96-.21-.99-.11-1.94s.03-.96.11-1.92c.08-.96.27-.93.37-1.89.11-.96.21-.93.32-1.89.11-.96-.08-.96,0-1.92s.29-.93.37-1.89c.08-.96.16-.93.24-1.89.08-.96-.37-.99-.29-1.94.08-.96.77-.88.85-1.84s-.37-.98-.29-1.94-.03-.96.05-1.92c.08-.96.11-.96.21-1.89.11-.93.03-.96.11-1.89s.24-.91.32-1.86c.08-.96.53-.91.61-1.86s-.35-1.01-.27-1.94c.08-.93.51-.91.56-1.84.05-.93-.05-.96.05-1.89.11-.93-.13-.93-.05-1.89.08-.96.16-.96.27-1.89.11-.93-.19-.99-.11-1.92s.32-.91.43-1.86c.11-.96.45-.9.53-1.86s-.11-.98,0-1.92c.11-.93-.35-.99-.24-1.92.11-.93.61-.91.72-1.84.11-.93-.48-1.01-.35-1.94.16-.61.51-1.28.85-1.76.37-.51,1.01-.77,1.54-1.07s1.12-.21,1.73-.21,1.22-.16,1.7.11c.51.29.85.8,1.14,1.3.27.51.77,1.04.77,1.65l.03-.11c.08.96-.27.96-.24,1.94.03.98.29.96.4,1.92.11.96.08.96.19,1.92.11.96,0,.96.11,1.92s.4.91.48,1.86c.08.96-.05.96.03,1.92s-.08.99,0,1.92c.08.93.35.91.45,1.86.11.96-.11.96,0,1.92.11.96.27.93.37,1.89s-.24.99-.13,1.94c.11.96-.05.96.05,1.92.11.96.4.91.51,1.86.11.96.19.93.27,1.89s-.03.98.05,1.92c.08.93.51.91.59,1.84.08.93,0,.96.08,1.89.08.93-.24.99-.13,1.92.11.93.13.91.24,1.86.11.96.48.93.56,1.86.08.93-.48.99-.37,1.94.11.96.21.93.29,1.89.08.96-.08.96.03,1.92.11.96.21.96.32,1.89.11.93.53.91.64,1.84s-.21.96-.11,1.92c.11.96.21.93.29,1.89,0,.64.35,1.22.27,1.68-.11.59-.59,1.06-1.12,1.33Z"/>
</svg>