<?xml version="1.0" encoding="UTF-8"?>
<svg id="Layer_1" data-name="Layer 1" xmlns="http://www.w3.org/2000/svg" viewBox="0 0 324.1 446.17">
  <path d="m163.27,321.34c1.59-1.67,5.89-1.52,9.76-1,3.89.53,7.37,1.4,7.37,1.4l.1.24-1.26,1.51c.37,2.48-.41,5.27-.62,7.12,0,.8-.19,2.92.26,4.03l-.41-.06c.11,1.35.74,3.18.91,3.99l-.17-.02c.07.54.54,1.93,1.29,1.74-.19,1.3-.93,1.1-.46,2.72l.08-.26c.13.93.24,3.69.3,6.42.16,2.72.28,5.42.51,6.21l-.17-.14c.6,1.44.32,3.41,1.17,4.86,0,.72.09,2.03.23,3.64.08.81.15,1.68.26,2.6.12.91.26,1.86.39,2.81.15.95.28,1.92.44,2.83.18.92.35,1.8.52,2.61.34,1.62.66,2.96.96,3.72.83,2.67.6.08,1.18,2.78.07.39.43.48.49-.05.07.92.47,2.04.27,3,.53,1.31,1.05,2.99,1.68,4.8.66,1.81,1.26,3.81,1.97,5.76,1.36,3.93,2.82,7.8,3.9,10.28l-.12-.1c.3.71.81,1.88,1.44,3.33.22.53.46,1.08.71,1.66l.04.04c.34.79.68,1.63.95,2.51.56,1.76.92,3.68.86,5.7-.06,2.24-.63,4.53-1.61,6.65-.48,1.06-1.06,2.08-1.68,3.05-.43.68-.85,1.33-1.26,1.97-1.21,1.91-2.26,3.52-2.87,4.38l-.03.88c-.74.44-.91,1.21-1.75,1.93-.27.49.14.49.37.32-.76.6-1.03,1.65-1.54,1.92l-.05-.22c-1.21.93-.69,2.31-1.99,3.36l-.07-.06c-.6.39-.64,1.27-.84,1.81-.61.54-.51-.28-1.05.17.27.53-.41.92-.85,1.47.4-.68.81-1.47.4-1.69-.51.82-.54-.11-.92.82l.44.38c-.12.43-.68,1.05-.94.99.15-.05.39-.38.64-.71-.89-.59-11.46-11.03-12.14-11.63.19-1.49,2.03-2.59,2.05-4.4-.37.22.51-.82-.13-.66.29-.12.47-.5.64-.72-.12.44-.24.88-.06,1.05,1.23-1.65,2.35-3.57,3.65-5.17.86-.89.16-1.87.32-2.09l.3.28.74-.99c-.47-.05-.89-.6-1.34-.27-.19-.17.19-.39.37-.77-.03.16.06.6.29.44.57-.78-.08-.45.39-1.49.06.06.08.99.84.38.17-.18.41-.49.67-.83.09-.1.2-.23.3-.39.2-.31.44-.74.43-1.23,0-.31-.12-.64-.25-.93-.06-.14-.14-.28-.2-.41-.19-.43-.36-.85-.54-1.26-.77-1.81-1.4-3.29-1.69-3.99.18.1,1.63-.05,1.67.07-.29-.32-.57-.64-.84-.96l-.27.79c-.65-.51-1.77-2.59-2.89-4.71-1.1-2.13-2.11-4.31-2.68-4.93l.12.42c-.72-1.04-1.05-1.85-1.46-3.24l.45.8c.54-.54.29-1.21,0-2.04l-.1.59c-.86-.73-.58-1.65-1.09-3.02l-.03.58c-.23-.26-.26-.69-.36-1.11.5.65.26-.61.54-.94-.54.65-.84-.75-1.02-1.17.42-.34-.69-1.21-.23-1.41-.26-.4-.49.07-.46.2.04-1.01-.96-1.61-1.47-3.3-.56-2.98.33-.48-1.03-3.67l.25-.45-.6-.09c.84-.79-.2-2,.72-2.51-.45-.25-.03-.71-.56-1.4-.58.48-.12,1.3-.46,1.77-.43-1.41-1.22-5.35-1.75-9.31-.31-1.97-.5-3.96-.67-5.61-.17-1.66-.3-2.98-.31-3.67.11.43.43.29.56-.14l-.32-1.01c-.15.15-.13.43-.31.29-.19-.43.18-1-.42-1.16.33,0,.28-.71.36-.71-.6-.45.31-2.42-.78-2.9-.31-1.45.64-.42.49-2l-.75-.03s-.02-.59-.08-1.39c-.06-.8-.17-1.85-.26-2.89-.17-2.07-.38-4.11-.55-3.98.16-.13.41-.26.57-.68-.3-1.46-.23-2.9-.47-4.52.08.16.08.3.25.17-.29-5.37.28-10.55.79-15.83.1-1.01.68-.17.77-1.03.22-.54-.13-1.19-.25-1.65-.09.13-.12.42-.27.24.14-.28.21-.61.27-.96.21.33.4.93.57.1l-.11,1.14c.41.07-.05-.33.19-1.16v-.69l.41.08Zm-33.89-26.13c.09.17.19.42.5.6,1.14-.19,2.25-.13,3.51-.31-.12.07-.23.08-.14.24,4.16-.09,8.16.37,12.28.68.78.04.16.66.83.7.42.19.91-.19,1.27-.34-.1-.09-.32-.1-.19-.26.22.12.48.18.76.21-.25.23-.71.45-.06.57l-.89-.05c-.05.42.26-.06.91.14l.54-.06-.04.41c1.71,1.87,1.52,8.02,1.15,12.42.88.04,1.79-.47,2.48-.72-.22-.06-.68,0-.43-.19.45.06,1,.03,1.56-.02-.46.3-1.35.65-.02.57l-1.81.22c-.03.41.51-.14,1.85-.14l1.08-.21-.03.42-.06.02c2.98,1.07,3.85,5.28,4,9.21.15,3.92-.41,7.58-.41,7.58l-.37.18-2.79-.77c-3.98,1.11-8.74,1.21-11.8,1.55-1.32.24-4.8.72-6.54,1.49v-.41c-2.18.5-5.07,1.7-6.36,2.12v-.17c-.87.24-3.09,1.13-2.66,1.8-2.16.21-1.95-.59-4.54.39h.43c-1.51.47-6.04,1.34-10.49,2.31-2.22.5-4.43,1-6.25,1.41-1.81.43-3.23.82-3.87,1.06l.2-.21c-2.33,1.06-5.58,1.34-7.86,2.71-1.18.23-3.3.73-5.92,1.37-2.61.66-5.69,1.52-8.79,2.39-3.09.91-6.17,1.88-8.81,2.73-2.63.89-4.79,1.7-6.03,2.22-4.36,1.7-.17.61-4.54,2.12-.63.2-.79.61.06.5-1.47.4-3.31,1.18-4.84,1.25-4.31,1.91-10.81,4.55-17.23,7.29-3.22,1.35-6.38,2.79-9.3,4.05l-.54.24-.15.08-.28.14c-.19.09-.36.19-.53.27-.33.17-.63.33-.89.47v-.07c-.06.04-.14.06-.38.18.04.21.12.55.21.87.21,3.01.46,6.48.71,9.92.5,7.05.96,14.01,1.06,16.89l.52,1.19c-.3,1.28.06,2.46-.16,4.21.1.91.43.52.5.08-.21,1.53.23,3.16,0,4.01l-.17-.25c-.36,2.4.91,3.71.54,6.33l-.08-.02c-.22,1.08.3,2.28.48,3.2-.14,1.31-.58.13-.72,1.22.54.44.25,1.6.25,2.76-.1-1.28-.28-2.73-.74-2.62.12,1.57-.48.36-.2,1.97l.58.09c.18.69.12,2.02-.12,2.21.08-.21.06-.88.06-1.55-1.06.06-15.87-3.68-16.78-3.83-.79-2.13-.03-5.35-1.15-7.75-.15.64-.11-1.58-.51-.75.15-.43.06-1.1.05-1.55.19.69.36,1.39.61,1.43-.06-3.36-.39-6.97-.37-10.31.12-1.99-1.05-2.62-1.05-3.07l.42.06-.05-2.02c-.41.38-1.07.05-1.22.92-.25-.05-.1-.69-.19-1.37.08.24.43.74.5.31-.04-1.56-.34-.5-.63-2.33.08.02.69,1.23.9-.3.07-1.59-.15-6.26-.43-11.43-.41-7.12-.86-14.93-1.15-19.83,1.99-.91,3.47-1.59,4.39-2.01-.26.26.11,1.63-.14,1.74l2.24-1.48-1.85.25c.6-.51,2.18-1.42,4.29-2.56,1.85-.97,4.08-2.16,6.32-3.34,3.33-1.77,6.7-3.56,7.71-4.3l-.64.24c1.64-1.05,2.91-1.6,5.03-2.48l-1.24.72c.76.43,1.8-.06,3.07-.61l-.89.06c1.17-1.15,2.54-1.12,4.66-2.03l-.89.14c.41-.31,1.06-.46,1.71-.68-1.02.71.92.12,1.41.3-.96-.36,1.18-1.12,1.82-1.43.51.35,1.88-1.09,2.17-.67.63-.38-.07-.5-.29-.43,1.55-.26,2.52-1.44,5.1-2.47,4.56-1.48.72.17,5.63-2.16l.69.13.15-.65c1.21.67,3.07-.78,3.84.02.39-.54,1.09-.25,2.14-1.01-.73-.46-2,.28-2.7.06,1.08-.44,3.13-1.17,5.67-1.95,2.54-.79,5.56-1.76,8.61-2.58,6.06-1.74,12.15-3.22,14.25-3.71-.66.25-.41.53.25.53l1.54-.64c-.23-.12-.68,0-.46-.23.66-.32,1.56-.11,1.76-.75,0,.33,1.13.08,1.13.16.64-.74,3.79-.38,4.41-1.62,2.22-.76.68.5,3.14-.11l-.02-.76c.06,0,.91-.19,2.14-.48,1.23-.3,2.85-.7,4.45-1.1,2.1-.53,4.17-1.04,5.28-1.36-3.96-.31-11.38-.56-13.62-.21-2.38.19-.19.56-2.54.51-.34-.02-.48.3-.06.49-.78-.13-1.79-.02-2.53-.47-4.77.64-14.28.61-18.9.85l.12-.07c-.27,0-.61.03-1.02.04-.1,0-.21,0-.32,0-.09,0-.23,0-.23,0l-.08.03c-.11.05-.22.1-.32.16-.2.11-.32.24-.37.32.07.24.11.35.08.39.16.1.31.18.47.27-.37-.15-.08,0-.37-.06.06.04.4.12.5.15-.29-.06.08.04-.19,0l-.16-.03c-.24,0-.06.06.12.07h.06l.07.19c.05.12.08.25.1.38.05.26.04.54-.07.87h-.08c-.27.54.21,1.14.36,1.6-.18.66-.57.07-.76.61.53.22.19.81.16,1.38-.06-.64-.17-1.36-.65-1.31.06.8-.5.19-.28.99l.57.05c.16.34.06,1.01-.19,1.1.08-.1.09-.44.1-.78-1.08.03-15.71-1.8-16.62-1.87-.35-.54-.32-1.2-.32-1.89,0-.18,0-.34-.02-.52,0-.18-.04-.32-.08-.63-.08-.54-.22-1.08-.49-1.61-.17.52-.07-1.32-.49-.69.17-.33.09-.92.09-1.3.17.62.32,1.22.57,1.3.02-2.72-.2-5.76-.1-8.38.18-1.44-.99-2.79-.99-3.18l.43.37v-1.64c-.43-.03-1.09-.86-1.27-.25-.25-.24-.07-.67-.16-1.33.08.29.43.99.51.7,0-1.33-.34-.71-.58-2.54.1.11.68,1.65.93.62.03-.25.05-.62.05-1.2,2.58.1,7.56.06,12.37,0,2.41-.05,4.78-.08,6.74-.12,1.2-.03,2.15-.07,2.65-.08-.12.13-.41,1.53-.52,1.54l.94-.44-.51-.53c1.09-.85,7.34-1.42,8.53-2.09l-.33-.02c.93-.36,1.62-.41,2.74-.43l-.69.21c.27.68.83.63,1.51.59l-.42-.27c.74-.62,1.35-.09,2.49-.19l-.43-.19c.25-.15.57-.04.91-.03-.59.3.4.43.59.77-.38-.68.74-.62,1.08-.68.18.51,1.05-.35,1.11.15.35-.15.05-.5-.06-.5.76.29,1.4-.5,2.76-.59,2.35.13.31.43,2.95-.16l.3.35.17-.56c.46,1.02,1.55.26,1.78,1.26.26-.4.55.11,1.15-.27-.26-.68-.96-.39-1.26-.82,2.28-.29,12.42.24,14.53.44-.34.07-.26.4.06.58l.8-.2c-.1-.17-.32-.19-.19-.34.35-.15.76.29.93-.28-.03.33.52.36.52.44.4-.56,1.85.59,2.3-.45,1.14-.19.27.66,1.5.66l.07-.74c.1.09,6.6.06,6.41-.29Zm110.9,1.89c1,0,1.88.08,2.63.2l-.19.05c.49.08,1.15.21,1.87.43.74.22,1.49.5,2.34.96.86.47,1.81,1.21,2.49,1.95.7.75,1.38,1.65,1.96,2.74.59,1.06,1.02,2.32,1.36,3.56.36,1.23.71,2.42,1.03,3.52.27.93.51,1.76.71,2.48.13.44.22.81.29,1.09l.57.32c-.23.55.17.9.05,1.6.14.31.44.08.48-.09-.13.62.38,1.12.19,1.49l-.18-.06c-.23.97,1.06,1.17.83,2.22l-.08.02c-.17.45.4.78.62,1.07-.07.53-.55.18-.64.63.54.04.33.52.38.94,0,0,0,0,0,0-.17-.45-.41-.93-.85-.79.19.57-.45.26-.1.79l.56-.1c.21.21.22.72,0,.85.06-.1.02-.34-.03-.59-1.04.28-15.57,2.4-16.46,2.57-.87-.6-.29-1.98-1.49-2.61-.11.28-.19-.56-.53-.16.13-.19,0-.42-.03-.59.2.21.42.43.66.39-.23-1.24-.71-2.5-.86-3.75.03-.77-1.14-.72-1.17-.89l.41-.07c-.07-.32-.06-.32-.06-.43-.39.17-1.02.32-1.18.44-.24.07-.08-.03-.15-.06.07,0,.39-.06.47-.12,0-.16-.32.05-.54-.02.08-.05.62-.12.85-.38.12-.26-.07-.95-.3-1.55-.06-.16-.14-.31-.3-.36-.16-.05-.33-.02-.48,0-.3.04-.53.07-.64.08-.05.17.73-1.53.78-1.53-.16.15-.32.3-.45.44-.02.18-.05.35-.08.53-.32.43-.82.77-1.17,1.1.13.32-1.87.64-2.18.97l.25.02c-.7.36-1.2.41-2.04.42l.52-.2c-.2-.68-.62-.63-1.13-.58l.32.27c-.56.61-1.02.08-1.86.19l.32.19c-.19.15-.43.05-.68.03.43-.3-.3-.43-.44-.78.29.68-.55.62-.81.68-.13-.51-.78.35-.82-.15-.26.15-.04.5.05.5-.56-.3-1.05.5-2.05.58-1.74-.13-.22-.43-2.19.16l-.22-.35-.13.57c-.34-1.02-1.15-.26-1.32-1.26-.2.4-.42-.11-.86.27.2.68.72.39.94.81-1.7.29-9.25-.26-10.83-.46.26-.06.2-.4-.03-.58l-.6.2c.06.18.23.19.14.34-.27.15-.56-.29-.69.28.03-.33-.38-.36-.38-.44-.3.55-1.38-.6-1.71.44-.85.18-.2-.68-1.12-.67l-.06.74s-.74-.04-1.61-.03l-.13.31c1.78.33,4.35.3,5.45.44l-.06.15c.72.11,2.66.23,2.64-.57,1.63.69,1.14,1.32,3.39,1.51l-.31-.19c2.58.36,14.16,4.66,16.28,5.13l-.24.08c2.07.21,4.33,1.53,6.49,1.56,1.76.79,6.46,2.66,11.23,4.48,4.76,1.83,9.58,3.57,11.64,4.09,3.54,1.06.46-.43,3.87.84.48.19.79-.04.24-.43,1.07.52,2.59.94,3.52,1.75,1.79.47,3.99,1.13,6.38,1.84,2.39.73,4.99,1.54,7.58,2.33,2.58.8,5.15,1.6,7.5,2.26,2.35.67,4.47,1.3,6.16,1.69l-.19.02c1.11.28,3.02.76,5.35,1.34,1.16.29,2.43.53,3.74.82.34.08.68.15,1.03.22.67.15,1.33.31,2.01.46,1.34.32,2.74.58,4.01,1.05,1.29.44,2.41,1.01,3.47,1.72,1.05.7,2.02,1.6,2.8,2.59.78.98,1.37,2.02,1.84,3.11.47,1.09.81,2.27,1.05,3.43.39,1.98.74,3.78,1.03,5.33.19.94.33,1.73.43,2.31l.62.85c-.19,1.03.27,1.89.22,3.27.19.68.46.33.5,0-.08,1.21.51,2.41.36,3.09l-.2-.17c-.14,1.89,1.23,2.73,1.12,4.79h-.08c-.12.86.5,1.71.77,2.4-.02,1.03-.56.19-.6,1.05.57.27.39,1.2.5,2.09l-.02.03c-.23-.96-.53-2.05-.98-1.91.26,1.19-.45.35-.03,1.54h.59c.24.51.3,1.55.08,1.72.06-.18-.02-.69-.09-1.21-1.05.19-16.04-.57-16.95-.55-.97-1.53-.51-4.12-1.84-5.81-.09.51-.26-1.2-.57-.51.12-.34-.05-.86-.09-1.2.24.51.48,1.02.73,1.02-.38-2.58-1.03-5.32-1.32-7.89-.06-1.54-1.28-1.87-1.32-2.22h.42l-.06-.39c-.02-.08-.02-.12-.02-.12v-.07l-.02-.26c-.4.19-1.04.31-1.19.49-.24.05-.07-.09-.16-.19.08,0,.41,0,.48-.09,0-.3-.31,0-.55-.21.07-.06.63-.03.84-.47.02-.12.03-.31,0-.53-.03-.22-.11-.51-.36-.68-.25-.18-.58-.23-.92-.3-.46-.1-.93-.21-1.41-.32-1.22-.28-2.44-.56-3.61-.83-1.16-.3-2.26-.58-3.27-.84-1.97-.51-3.54-.92-4.34-1.13.23-.09,1.06-1.29,1.21-1.24l-1.56.02.63.72c-.96.18-3.84-.35-6.75-.89-2.91-.52-5.77-1.19-6.79-1.15l.5.18c-1.53-.12-2.56-.41-4.26-.95l1.11.15c-.19-.77-1.05-1.01-2.07-1.32l.54.47c-1.3.21-2.05-.61-3.77-1.09l.58.4c-.41.02-.86-.24-1.35-.43.98.02-.46-.62-.63-1.04.34.84-1.3.21-1.83.09-.08-.57-1.65-.21-1.58-.71-.56-.05-.24.43-.08.5-1.02-.67-2.23-.26-4.26-.89-3.41-1.35-.31-.57-4.39-1.4l-.32-.48-.44.44c-.32-1.2-2.18-1.06-2.18-2.12-.53.24-.77-.39-1.78-.35.17.77,1.29.87,1.57,1.43-3.44-.94-17.98-6.74-20.94-7.89.52.11.51-.24.11-.57l-1.23-.21c.08.21.4.33.17.42-.56-.04-1-.65-1.43-.19.16-.3-.63-.6-.6-.68-.75.33-2.48-1.44-3.45-.66-1.7-.36-.18-.76-1.96-1.33l-.34.67c-.12-.2-9.49-2.98-9.32-2.58-.08-.21-.14-.48-.55-.79-1.7-.28-3.29-.79-5.14-1.12.19-.03.35.03.26-.17-1.5-.4-2.98-.8-4.46-1.19-1.47-.4-2.92-.82-4.38-1.25-1.46-.4-2.92-.79-4.37-1.18-1.46-.37-2.92-.83-4.4-1.14-1.13-.23-.1-.7-1.07-.9-.59-.29-1.37-.03-1.91.03.13.11.45.19.24.3-.3-.18-.68-.3-1.06-.4.4-.17,1.1-.27.17-.55l1.3.27c.13-.4-.39,0-1.3-.36l-.79-.08.13-.4c-1.76-1.83-1.4-6.1-.52-9.92.36-1.58.8-3.08,1.21-4.3-.02-.04-.06-.06-.07-.1h.11c.12-.34.23-.66.33-.95-1.63-3.81-.18-16.58-.18-16.62l.15-.12,1,1.16c1.54-.54,3.33.18,4.49.34.51-.05,1.83.14,2.54-.31l-.04.41c.84-.1,2-.75,2.5-.88v.17c.34-.06,1.23-.48,1.12-1.23.81.23.68.96,1.71.55l-.16-.09c1.19-.24,6.98.38,8.01.13l-.09.16c.95-.41,2.16.08,3.14-.58,1.8.39,9.61.87,11.66.44,1.77-.19.14-.56,1.89-.51.25.02.36-.31.03-.49.57.13,1.33.02,1.89.47,1.78-.31,4.44-.46,7.09-.56.66-.02,1.32-.05,1.97-.07,1.2-.02,2.39-.04,3.52-.06,1.13-.02,2.21-.04,3.21-.06Zm-56.01,34.11h-.03s.03,0,.03,0Zm-1.96-.9c.82.08,1.42.38,1.93.9-.74-.2-1.54-.38-1.93-.9Zm-107.35-7.4c-.04-.14-.04-.28-.03-.42,0,.15.03.3.03.42Zm87.25-1.04h0s0-.02,0-.02v.02Zm.67-1.77c0,.73-.21,1.26-.67,1.75.11-.67.19-1.37.67-1.75ZM268.39.02c1.48-.09,2.8.18,4.08.59,1.29.43,2.59,1.05,3.83,1.86,2.12,1.45,4.16,2.85,6.1,4.17,2.54,1.74,4.82,3.3,6.69,4.57,1.06.71,2.02,1.36,2.83,1.91,1.27.84,2.33,1.56,3.09,2.16-.42-.27-.84-.53-1.28-.77,1.52,1.02,2.94,2.2,4.1,3.64,1.18,1.41,2.05,3.14,2.54,5.01.47,1.88.51,3.85.2,5.82-.3,1.98-1,3.95-1.78,5.92l-.77,2.02c-.19.53-.4,1.05-.57,1.58-.37,1.06-.74,2.11-1.06,3.16-.32,1.06-.64,2.1-.92,3.13-.27,1.04-.51,2.05-.73,3.04-1.19,3.58-3.12,10.24-5.01,18.73-1.92,8.47-3.78,18.78-5.66,29.27-3.77,20.94-7.49,42.14-8.83,50.96-2.48,15.29.34,1.29-2.35,16.37-.4,2.15-.24,3.14.43.42-.99,4.94-2.05,11.49-3.28,16.11-.79,5.41-1.71,11.74-2.46,18.6l8.77,2.04-9.41,4.57c-.06.66-.12,1.31-.17,1.98-.08,1.27-.19,2.55-.25,3.85-.05.83-.09,1.66-.14,2.5-.07,1.27-.2,2.54-.44,3.77-.48,2.46-1.41,4.83-2.94,6.85-1.51,2.03-3.51,3.67-5.78,4.87-2.25,1.21-4.9,1.99-7.38,2.48l-1.23.23-1.17.2c-.78.14-1.56.25-2.33.37-3.11.45-6.21.79-9.28,1.02-6.14.47-12.14.57-17.85.61-5.65.03-11.18.06-16.45.08-10.04.06-19.14.12-26.5.17l-.04.04c.51,1.73-.25,3.69-.43,4.97.04.57-.17,2.03.26,2.81l-.41-.05c.08.94.72,2.23.84,2.8l-.17-.02c.06.38.47,1.37,1.22,1.26-.24.9-.96.73-.57,1.89l.1-.18c.22,1.32-.44,7.73-.19,8.86l-.16-.11c.42,1.05-.09,2.4.57,3.48-.4,2.01-.86,10.65-.42,12.91.2,1.96.56.15.52,2.09-.02.28.3.39.49.03-.12.64,0,1.48-.45,2.09.67,3.93.75,11.76,1.06,15.57l-.08-.09c.11,2.51,1.01,12.32,1.01,14.81l.47.49c-.35.54-.04,1.02-.32,1.74.06.37.4.2.49.03-.28.63.11,1.3-.15,1.65l-.16-.1c-.44.99.77,1.51.32,2.59h-.08c-.26.45.22.93.37,1.31-.18.54-.58.07-.76.52.52.18.2.67.16,1.14-.06-.52-.19-1.12-.66-1.06.06.65-.5.16-.28.81l.57.03c.16.29.06.83-.19.92.08-.08.09-.36.1-.64-1.07.05-15.72-1.27-16.63-1.32l-.02-.05c-.71-.88.16-2.23-.88-3.22-.17.27-.06-.66-.48-.3.17-.18.1-.46.1-.65.16.29.31.58.56.59.06-1.4-.13-2.9,0-4.29.2-.82-.94-1.08-.94-1.27l.41.03.04-.84c-.42.17-1.07.04-1.25.4-.24,0-.06-.28-.14-.56.08.09.4.3.49.12.03-.66-.32-.21-.54-.97.08.01.65.51.92-.13.3-1.56-.31-10.25-.39-12.01.14.1,1.53.31,1.54.4l-.45-.78-.52.43c-.87-.9-1.51-6.1-2.2-7.09l-.02.28c-.37-.78-.43-1.35-.45-2.29l.21.57c.68-.23.61-.7.57-1.27l-.27.35c-.62-.6-.1-1.13-.21-2.07l-.18.36c-.15-.19-.06-.47-.04-.75.3.49.43-.34.77-.5-.68.32-.63-.61-.7-.9.51-.15-.36-.87.14-.93-.15-.3-.5-.04-.5.06.28-.63-.51-1.17-.61-2.29.11-1.96.43-.26-.18-2.46l.34-.25-.57-.14c1.02-.39.25-1.3,1.25-1.49-.4-.22.11-.46-.27-.96-.67.22-.38.8-.8,1.05-.3-1.91.23-10.38.44-12.14.06.29.4.22.58-.04l-.2-.68c-.18.08-.19.27-.34.16-.15-.3.29-.63-.28-.78.32.04.36-.42.44-.42-.54-.33.61-1.54-.43-1.92-.19-.95.67-.21.67-1.25l-.74-.07c.08-.08.1-5.52-.24-5.36.18-.07.43-.15.61-.41-.18-.95-.09-1.88-.26-2.93.07.1.07.19.24.12-.06-3.48.47-6.81.85-10.24.06-.65.68-.12.72-.68.14-.24,0-.52-.15-.76-11.7.09-26.9.2-42.09.32-6.11.05-12.21.08-18.1.13-5.95.03-11.81-.04-17.27-.34-5.47-.29-10.56-.82-14.92-1.52-4.35-.68-7.93-1.48-10.52-2.12-1.43-.19-2.86-.41-4.29-.65-2.12-.79-4.19-1.43-6.45-2.2-1.13-.38-2.3-.79-3.54-1.27-.31-.12-.62-.24-.94-.37l-.5-.2c-.29-.11-.57-.23-.85-.35-1.16-.52-2.42-.97-3.6-1.62-2.52-1.28-3.14-1.81-3.06-1.58.08.16.63.66,1.41,1.19-1.74-1.11-3.31-2.42-4.58-4-.2-.26-.39-.53-.57-.8l-28.22.45,25.09-9.7c-.05-.68-.07-1.37-.05-2.02.04-.95.09-1.84.21-2.66.06-.42.11-.81.16-1.18.02-.16.05-.31.06-.45.02-.1.04-.2.06-.3,0,.18.02.29.02.51v.82c.09-.67.19-1.31.28-1.95.06-.51.16-1,.23-1.49.14-.97.27-1.9.4-2.81.29-1.81.5-3.54.8-5.27.59-3.47,1.33-7.07,3.13-11.46l.06.09c1.54-3.58,2.85-7.85,4.23-10.97,1.16-2.1,1.33-2.11,1.45-2.03.13.07.19.23,1.22-1.45.33-1.77,2.75-5.23,5.16-8.66-2.64,3.86-5.09,8.55-4.52,8.51,1.35-2.53,1.68-2.69,1.92-2.92.27-.21.46-.49,1.97-3l-.24-.69c.62-1.13,1.69-2.63,2.65-3.91.99-1.26,1.89-2.29,2.17-2.46-.5.55-2.04,2.45-3.41,4.47.43.31,1.35,5.86,2.9,11.05.56,1.92,1.17,3.79,1.76,5.4.14-.74.24-1.19.24-1.19l.46-.17,3.45.7c5.01-1.27,10.98-1.64,14.8-2.27.85-.2,2.44-.51,4.08-.9.28-1.76.7-4.24,1.11-6.64-3.5.63-7.11,1.06-10.87,1.34-1.17.1-.3-.62-1.31-.56-.66-.12-1.36.33-1.88.53.17.07.51.06.32.23-.34-.09-.74-.09-1.17-.11.37-.26,1.03-.54.04-.57l1.34-.07c.03-.41-.38.12-1.38,0l-.82.1.04-.41c-2.2-1.37-2.5-5.65-2.41-9.57.11-3.9.55-7.44.56-7.48l.22-.13c.54.35,1.1.73,1.67,1.06,2.42-.72,5.43-.49,7.39-.68.82-.18,3.08-.45,4.16-1.15l.04.42c1.4-.42,3.2-1.52,4.04-1.86l.02.17c.57-.19,1.98-1,1.61-1.67,1.44-.13,1.39.64,3.07-.23l-.3-.02c.99-.38,4.05-1.1,7.16-1.8,3.1-.71,6.27-1.36,7.2-1.69l-.15.19c.85-.4,1.86-.61,2.89-.82,1.03-.19,2.05-.42,2.92-.92,1.75-.17,6.35-.68,10.98-1.06,4.63-.41,9.3-.58,11.23-.91,3.35-.27.24-.57,3.57-.58.47,0,.67-.31.06-.49,1.1.11,2.55-.05,3.59.43,1.68-.13,3.79-.26,6.1-.28,2.3.02,4.81,0,7.29.14,2.49.11,4.97.23,7.21.42,2.25.17,4.28.31,5.88.44l-.18.06c.51.05,1.2.1,2.03.18.09-.05.19-.09.28-.14.03,0,.13-.05.14-.06l-.04.09-.06.14c2.58.22,6.32.56,10.04.97,5.13.55,10.21,1.23,12.24,1.61l.9-.32c.79.5,1.65.34,2.77.82.62.05.43-.33.15-.47.97.45,2.13.29,2.65.65l-.19.13c.68.34,1.3.3,1.92.25l.76-3.88c.32-7.18,1.65-14.83,3.52-21.81,1.86-7,4.24-13.32,6.2-18.23.4-1.09.96-2.61,1.71-4.34.36-.87.75-1.8,1.16-2.77.43-.96.87-1.95,1.32-2.95,1.79-4.03,3.84-8.15,5.15-11.09l.22.46c.85-1.72,1.87-3.55,2.84-5.46,1.02-1.88,2.06-3.79,3.05-5.63,2.04-3.64,3.99-6.89,5.23-8.84l.06.19c.86-1.27,2.32-3.63,3.51-5.58,1.17-1.95,1.99-3.55,1.4-3.39,2.33-2.88,3.43-3.96,4.67-5.24,1.23-1.29,2.53-2.84,5.36-6.55l-.99,1.05c1.65-2.12,5.06-6.13,9.44-10.95,4.38-4.82,9.76-10.39,15.22-15.77.79-.78,1.58-1.56,2.37-2.33,1.22-1.05,2.44-2.1,3.65-3.14.61-.52,1.21-1.04,1.81-1.56.6-.49,1.19-1.12,1.83-1.37,1.24-.63,2.59-1.07,4.08-1.15Zm-89.8,316.76c-.04-.11-.05-.23-.04-.35,0,.12.03.24.04.35Zm-25.17-7.53c1.06-.08,2.19-.2,2.89.14-1.13.22-2.02.17-2.89-.14Zm-5.23-12.49c.52.07,1.07.12,1.39.56-.56.05-.99-.14-1.39-.56Zm0,0h-.02,0s0,0,0,0Zm10.22-62.77c.11,0,.15,0,.17-.03h-.17v.03Zm86.87-23.56l.22.11-.02-.17-.2-.02v.08Zm-197.74-24.8c-.55,1.51-1.1,3.08-1.59,4.7h.02c-1.2,3.9-2.06,8.05-2.1,11.71h.02c.08-.3.1-.27.08-.03l10.33-4c1.33-.52,2.71-.87,3.16-1.54-.04.37,2.54-.63,2.54-.55.4-.3,1.15-.65,2.06-1,.22-.08.46-.17.7-.26l-3.61-4.44c-.72-.06-.01-.59-1.43-.4-1.16,0-2.38.57-3.28.84.28.05.87-.03.56.18-.59-.04-1.3.02-2.02.08.62-.32,1.79-.7.06-.58l2.35-.29c.06-.42-.67.18-2.41.21l-1.42.25.06-.42c-2.26-.6-3.47-2.33-4.08-4.46Zm200.99,5.42c-.18.92-.35,1.84-.53,2.78h0c.3.06.6.12.9.18.03-.26.06-.52.08-.77l-.41-2.48c-.02.1-.04.19-.06.3Zm-199.34-.19c1.47-.23,2.62-.2,3.73.07-1.38.12-2.83.27-3.73-.07Zm181.37-6.2c-.38.31-.76.63-1.12.93-.37.33-.73.65-1.08.95h.01c-.8.71-2.02,1.85-3.45,3.21.97.02,2.01.05,3.11.07.56,0,1.11.03,1.69.04.06,0,.14-.02.21-.02.14,0,.28-.03.43-.03.12,0,.3-.04.3-.23,0-.16.02-.32.03-.47v-.22s0-.06,0-.06l.09-.54.2-1.17c.2-1.1.4-2.2.59-3.29-.35.29-.7.56-1.03.84Zm-113.42-8.45c.03-.09-.15.02-.32.13l-.35.49c-.7.71-.81.79-.85.76-.04-.04-.01-.17-.25,0-.04.09-.09.19-.15.3-.27.32-.2.17-.27.17.56-.62.45-.73.75-1.28-.68,1.14-.93,1.19-1.08,1.34.21-.4.04-.21-.1-.04-.14.19-.26.34-.09-.03-.2.27-.34.75-.34.75.03-.17-.15.06-.3.33-.16.28-.28.6-.33.68-.08-.03-.13-.15-.13-.16,0-.02-.07.1-.03.42-.03-.05-.07-.09-.1-.14-.06-.04-.02-.13-.2-.09l-.1.71c-.85-.19-1.87.38-2.77.79.23,0,.5,0,.81-.04,1.22-.25,2.43-.48,3.65-.71.04-.1.08-.2.11-.31.17-.44.35-.92.57-1.46.11-.27.23-.54.35-.84.1-.22.03-.12.03-.12l-.06.03c.08-.08.2-.2.28-.25l-.15.6c.79-.98,1.52-2.18,1.42-2.03Zm49.2-.9c.37,0,.74-.03,1.11-.04h0c.45-.32.79-.61.77-.78-.62.26-1.25.54-1.88.81Zm16.5-7.33c-.81.07-2.94-.03-4.05.45l.04-.42c-.27.04-.57.09-.86.16.03.81.06,1.35.07,1.5-2.25,1.67-6.3,2.39-8.73,4.55.8-.16-1.81.84-.7.82-.21.02-.46.1-.71.2,4.35-.16,8.7-.27,13.07-.35,1.87-2.72,1.21-3.41,1.7-4.11l.47.05c.64-.91,1.28-1.78,1.94-2.65-.28-.03-.55-.06-.81-.08-.41.13-.84.35-1.49,1.09-.18-.03.19-.52.67-1.17-.2-.02-.41-.04-.59-.05Zm-128.13-2.95c.85-.1,1.51.04,2.16.43-.8-.03-1.65-.02-2.16-.43Zm160.13-31.31c-.81.81-1.76,1.52-2.59,2.03-.19.19-.4.39-.71.7l-9.5,9.39c-.09,1.32-.2,2.52-.38,3.41-.03-.85-.04-1.65-.04-2.4,0-.21.03-.41.04-.63l-1.87,1.85c-.07.13-.12.28-.19.4-.65,1.26-1.43,2.16-2.3,2.76h0c-1.72,1.22-3.76,1.25-5.74.68-.33-.09-.67-.21-.99-.34l-.03.36c1.35,1.15,1.85,4.1,1.95,7.23.83-.77,1.76-1.59,2.79-2.48,1.92-1.42,3.93-3.05,6.5-4.58.62-.39,1.25-.79,1.89-1.19.69-.35,1.4-.71,2.11-1.07,1.43-.72,2.82-1.52,4.42-2.13.64-.25,1.28-.51,1.92-.77.53-.23,1.07-.4,1.62-.58,0,0,.03,0,.04,0,.1-3.16.58-6.27.81-8.52.02-.73.14-2.04.2-3.42.02-.22.03-.45.04-.67Zm-172.37,24.32c.63-.91,1.21-1.81,1.79-2.57-.58.83-1.19,1.71-1.79,2.57Zm147.18-6.86c-.19.15-.27.28.26.33h-1.06c-.04.41.3-.07,1.08.09h0l.54-.07c-.28-.11-.56-.23-.82-.36Zm-1.23.22c.32-.1.61-.29.86-.38-.1-.07-.27-.09-.28-.17-.11-.05-.21-.11-.31-.16-.09.24-.19.47-.28.71Zm82.1-87.74c-.3.95-.58,1.89-.86,2.8h0l.26.12c.22-1.07.44-2.14.68-3.18l-.08.26Zm.14-42.58c-.15.19-.3.4-.43.6,0-.02-.06-.08-.17-.16-.07-.03-.13.05-.18.11-1.06,1.07-2.19,2.21-3.32,3.34h-.01c-1.5,1.53-2.98,3.05-4.37,4.52,2.35,1.56,5.31,4.31,7.51,6.49l6.87-10.05c-3.39-2.36-.09-.91-5.89-4.86Z"/>
</svg>