<?xml version="1.0" encoding="UTF-8"?>
<svg id="Layer_1" data-name="Layer 1" xmlns="http://www.w3.org/2000/svg" viewBox="0 0 853 1144.53">
  <path d="m657.06,0c2.95,0,2.95,1.39,5.89,1.39,2.95,0,2.95.57,5.9.57,2.95,0,2.95-1.8,5.9-1.8,2.95,0,2.95,1.31,5.9,1.31s2.95-1.23,5.9-1.23c2.95,0,2.95.25,5.9.25,2.95,0,2.95.9,5.9.9,2.95,0,2.95.66,5.9.66,2.95,0,2.95-1.31,5.9-1.31,2.95,0,2.95.49,5.89.49,2.95,0,2.95.49,5.81.49,2.86,0,2.95-.74,5.81-.74,2.87,0,2.95.16,5.9.16s2.95.98,5.9.98c2.95,0,2.95-.49,5.9-.49s2.95.49,5.89.49c2.95,0,2.95-.74,5.9-.74h5.9c2.95,0,2.95-.16,5.9-.16,2.95,0,2.95-.25,5.9-.25,2.95,0,2.95.82,5.89.82,2.95,0,2.95-.9,5.9-.9,2.95,0,2.95.49,5.9.49,2.95,0,2.95.33,5.9.33,2.95,0,2.95-1.64,5.9-1.64,2.95,0,2.95,1.47,5.9,1.47,2.95,0,2.95-1.15,5.9-1.15,2.95,0,2.95,1.31,5.98,1.31,3.03,0,2.95-.25,5.98-.25,2.13,0,4.5-1.15,6.47-.57,1.96.57,3.28,3.11,5.08,4.18,1.8,1.06,4.59.9,6.06,2.38,1.56,1.47,1.64,4.18,2.62,5.98.98,1.8,3.11,3.28,3.68,5.32.57,2.05.74,4.34.74,6.39,0,2.95-.57,2.95-.57,5.81s-.57,2.95-.57,5.81-.57,2.95-.57,5.81,1.55,2.95,1.55,5.81-.41,2.95-.41,5.81.33,2.95.33,5.81-1.39,2.95-1.39,5.81,1.72,2.95,1.72,5.81-.74,2.95-.74,5.81-.16,2.95-.16,5.81.65,2.95.65,5.81-.25,2.95-.25,5.81.57,2.87.57,5.81-1.55,2.87-1.55,5.81.33,2.87.33,5.81,1.31,2.95,1.31,5.81-1.23,2.95-1.23,5.81-.08,2.95-.08,5.81-.74,2.95-.74,5.81c0,2.87,1.15,2.95,1.15,5.81v5.9c0,2.95-.33,2.95-.33,5.81s.9,2.95.9,5.81-.9,2.95-.9,5.9.49,2.95.49,5.81-.08,2.95-.08,5.81v5.81c0,2.86.9,2.95.9,5.89s-.9,2.95-.9,5.9.74,2.95.74,5.89-1.06,2.95-1.06,5.9c0,2.13-.9,4.01-1.39,6.06-.49,2.05,0,4.5-1.15,6.31-1.15,1.8-2.29,3.68-3.85,5.24-1.47,1.47-3.68,2.21-5.48,3.28-1.8,1.06-3.68,1.96-5.73,2.54-2.05.57-4.09,1.88-6.22,1.88-3.03,0-3.03-.9-5.98-.9s-3.03.08-5.98.08-3.03-1.15-5.98-1.15-3.03.08-5.98.08-3.03.41-6.06.41-3.03,1.15-5.98,1.15h-5.98c-2.95,0-3.03-.33-6.06-.33s-3.03-.82-5.98-.82-3.03,1.06-5.98,1.06-3.03-1.47-5.98-1.47-3.03.82-6.06.82-3.03.49-6.06.49-3.03-1.55-6.06-1.55-3.03.08-6.06.08c-2.78,0-5.57,2.05-7.61,4.09-2.05,2.05-2.62,4.67-2.62,7.62s-1.15,2.95-1.15,5.89,1.56,2.95,1.56,5.9-.41,2.95-.41,5.9-.57,2.95-.57,5.9-.57,2.95-.57,5.89-.57,2.95-.57,5.9,1.88,2.95,1.88,5.89-.9,2.95-.9,5.9v5.89c0,2.95-.16,2.95-.16,5.9s.25,2.95.25,5.89.82,2.95.82,5.9.16,2.95.16,5.89-.65,2.95-.65,5.9-.9,2.95-.9,5.89c0,2.95.82,2.95.82,5.9s.08,2.95.08,5.9-.41,2.95-.41,5.9.33,2.95.33,5.89.66,2.95.66,5.9v5.9c0,2.95-.16,2.95-.16,5.9s-.57,2.95-.57,5.89-.16,2.95-.16,5.89v5.9c0,2.95.33,2.95.33,5.9s.08,2.95.08,5.89-.57,2.95-.57,5.9,1.15,2.95,1.15,5.9-1.72,2.95-1.72,5.9.41,2.95.41,5.89-.74,2.95-.74,5.9,1.31,2.95,1.31,5.89.9,2.95.9,5.9-1.97,2.95-1.97,5.89,1.23,2.95,1.23,5.9-1.07,2.95-1.07,5.89,1.31,2.95,1.31,5.9-.49,2.95-.49,5.89.49,2.95.49,5.9-.57,2.95-.57,5.89.57,2.95.57,5.89-.74,2.95-.74,5.9.9,2.95.9,5.9-.33,2.95-.33,5.9-1.39,2.95-1.39,5.89,1.64,2.95,1.64,5.9-.9,2.95-.9,5.89v5.9c0,2.95.74,2.95.74,5.89v5.9c0,2.95-.65,2.95-.65,5.89v5.9c0,2.95-.16,2.95-.16,5.89s.98,2.95.98,5.9-.9,2.95-.9,5.9.66,2.95.66,5.9-.82,2.95-.82,5.9.57,2.95.57,5.89-.65,2.95-.65,5.9-.66,2.95-.66,5.9,1.88,2.95,1.88,5.9v5.9c0,2.95-.49,2.95-.49,5.9s-.08,2.95-.08,5.9.74,2.95.74,5.89-1.31,2.95-1.31,5.9.49,2.95.49,5.89.33,2.95.33,5.9.16,2.95.16,5.89.33,2.95.33,5.9-2.21,2.95-2.21,5.9v5.9c0,2.95.57,2.95.57,5.9s.57,2.95.57,5.9-.41,2.95-.41,5.9c0,2.95.57,2.95.57,5.89s-.57,2.95-.57,5.9c0,2.95,1.15,2.95,1.15,5.9s-1.15,2.95-1.15,5.9v5.9c0,2.95,1.23,2.95,1.23,5.89s-1.97,2.95-1.97,5.9,1.88,2.95,1.88,5.89.08,2.95.08,5.81-1.88,2.95-1.88,5.81,1.72,2.95,1.72,5.9v5.9c0,2.95-1.97,2.95-1.97,5.89s.57,2.95.57,5.9v5.9c0,2.95.49,2.95.49,5.9s-.16,2.95-.16,5.9.9,2.95.9,5.9-.41,2.95-.41,5.9.49,2.95.49,5.89-1.39,2.95-1.39,5.9-.08,2.95-.08,5.9.74,2.95.74,5.9-.98,2.95-.98,5.9,1.97,2.95,1.97,5.89-1.56,2.95-1.56,5.9v5.89c0,2.95-.33,2.95-.33,5.9s.65,2.95.65,5.9c0,2.95.82,2.95.82,5.9v5.89c0,2.95.41,2.95.41,5.9s-.33,2.95-.33,5.9-1.39,2.95-1.39,5.9.41,2.95.41,5.9v5.9c0,2.95.82,2.95.82,5.9s-.24,2.95-.24,5.9-1.56,2.95-1.56,5.89,1.96,2.95,1.96,5.9.16,2.95.16,5.9-.74,2.95-.74,5.9v5.89c0,2.95-1.39,2.95-1.39,5.9s1.88,2.95,1.88,5.9-1.31,2.95-1.31,5.9,1.56,2.95,1.56,5.9-1.72,2.95-1.72,5.9.9,2.95.9,5.89.9,2.95.9,5.9v5.9c0,2.95-1.56,2.95-1.56,5.9s-.24,2.95-.24,5.89,1.39,2.95,1.39,5.9-.33,2.95-.33,5.89.65,2.95.65,5.9-1.64,2.95-1.64,5.89.49,2.95.49,5.9-.57,2.95-.57,5.9.74,2.94.74,5.89c0,2.95-1.07,2.95-1.07,5.9s1.97,2.94,1.97,5.89-.98,2.95-.98,5.98-.49,2.95-.49,5.89,1.31,2.95,1.31,5.9-.82,2.95-.82,5.98c0,3.03.57,2.94.57,5.89s.16,2.95.16,5.9-.24,2.95-.24,5.89-.82,2.95-.82,5.98-.57,2.95-.57,5.98-.16,3.03-.16,5.98.98,3.03.98,5.97c0,2.13.24,4.42-.33,6.39-.57,1.96-1.97,3.77-3.03,5.57-1.06,1.8-2.62,3.19-4.09,4.66-1.47,1.48-3.11,2.62-4.91,3.69-1.8,1.06-3.44,2.46-5.49,3.03-2.05.57-4.09,1.06-6.3,1.06-2.95,0-2.95-1.06-5.89-1.06s-2.95-.57-5.9-.57-2.95.57-5.98.57-2.95.33-5.9.33-2.95,1.06-5.9,1.06h-5.9c-2.95,0-2.95-1.15-5.9-1.15s-2.95.82-5.9.82-2.95-.16-5.9-.16-2.95-1.23-5.89-1.23-2.95,1.48-5.98,1.48-2.95.49-5.89.49h-5.9c-2.95,0-2.95-2.13-5.89-2.13s-2.95,2.13-5.98,2.13-2.95-.17-5.98-.17h-5.98c-3.03,0-2.95-.32-5.98-.32s-2.95-.33-5.98-.33-2.95-.99-5.98-.99-2.95.9-5.98.9-2.95-.57-5.98-.57-3.03-.16-5.98-.16h-11.96c-2.13,0-4.5,1.39-6.47.9-1.97-.49-3.93-2.13-5.73-3.11-1.8-.98-3.52-2.46-4.99-3.93-1.47-1.48-3.44-2.87-4.42-4.67-.98-1.8-.98-4.26-1.56-6.3-.57-2.05-.98-4.1-.98-6.23,0-2.94,1.23-2.95,1.23-5.89s-2.05-2.95-2.05-5.9-.16-2.95-.16-5.89,2.05-2.95,2.05-5.9-1.06-2.95-1.06-5.89.33-2.95.33-5.9-.98-2.95-.98-5.89c0-2.77.65-2.94.73-5.38l.02-1.04c.09-2.44.81-2.61.81-5.38,0-2.94.25-2.94.25-5.89s-1.64-2.95-1.64-5.9,1.64-2.94,1.64-5.89-1.31-2.95-1.31-5.9-.49-2.95-.49-5.89,1.07-2.95,1.07-5.9.74-2.95.74-5.89-.9-2.95-.9-5.9.33-2.95.33-5.89-.74-2.95-.74-5.9-.33-2.95-.33-5.9,1.15-2.94,1.15-5.89-1.31-2.95-1.31-5.9,1.39-2.95,1.39-5.9.49-2.95.49-5.9-.16-2.95-.16-5.89.16-2.95.16-5.9-.33-2.95-.33-5.89-1.39-2.95-1.39-5.9,2.05-2.95,2.05-5.9-1.39-2.95-1.39-5.9.16-2.95.16-5.9.66-2.95.66-5.9-.57-2.95-.57-5.89.41-2.95.41-5.9.57-2.95.57-5.9-.24-2.95-.24-5.9-.9-2.95-.9-5.9,1.15-2.95,1.15-5.9-1.15-2.95-1.15-5.89-.41-2.95-.41-5.9.41-2.95.41-5.9,1.15-2.95,1.15-5.9-1.96-2.95-1.97-5.89c0-2.95.74-2.95.74-5.9s1.39-2.95,1.39-5.9-.74-2.95-.74-5.9v-5.9c0-2.95.16-2.95.16-5.9s.57-2.95.57-5.9-1.06-2.95-1.06-5.9-.33-2.95-.33-5.89.9-2.95.9-5.9-1.39-2.95-1.39-5.9-.41-2.95-.41-5.9.49-2.95.49-5.89-.25-2.95-.25-5.9,1.72-2.95,1.72-5.89-1.15-2.95-1.15-5.9-.16-2.95-.16-5.9.98-2.95.98-5.9.41-2.95.41-5.89-1.23-2.95-1.23-5.9.41-2.95.41-5.9-.25-2.95-.25-5.9-.9-2.95-.9-5.9.41-2.95.41-5.9,1.06-2.95,1.06-5.9-.49-2.95-.49-5.9.66-2.95.66-5.89-.82-2.95-.82-5.9c0-2.76.5-2.94.57-5.38v-1.04c.07-2.44.5-2.61.5-5.38,0-2.95-.9-2.95-.9-5.9s.25-2.95.25-5.89v-5.9c0-2.95-.57-2.95-.57-5.89s.9-2.95.9-5.9-.98-2.95-.98-5.89.33-2.95.33-5.9.98-2.95.98-5.89-.08-2.95-.08-5.9-1.55-2.95-1.56-5.9c0-2.95.57-2.95.57-5.9s-.24-2.95-.24-5.9v-5.81c0-2.87,1.15-2.95,1.15-5.81s-.33-2.95-.33-5.9.74-2.95.74-5.89-.49-2.95-.49-5.9-.57-2.95-.57-5.89-.66-2.95-.66-5.9.25-2.95.25-5.89,1.55-2.95,1.55-5.9-1.47-2.95-1.47-5.89-.82-2.95-.82-5.9.16-2.95.16-5.9,1.72-2.95,1.72-5.9-.41-2.95-.41-5.9-1.47-2.95-1.47-5.89c0-2.95,1.64-2.95,1.64-5.9s.66-2.95.66-5.9-.57-2.95-.57-5.9-.33-2.95-.33-5.9c0-2.76-.43-2.94-.49-5.38v-1.04c-.08-2.44-.58-2.61-.58-5.38,0-2.95,1.97-2.95,1.97-5.9s-1.39-2.95-1.39-5.9-.9-2.95-.9-5.89,1.07-2.95,1.07-5.9.9-2.95.9-5.9.16-2.95.16-5.9-.66-2.95-.66-5.89.41-2.95.41-5.9-.57-2.95-.57-5.9v-5.9c0-2.95-.98-2.95-.98-5.89v-5.9c0-2.95.33-2.95.33-5.89s-.33-2.95-.33-5.9-.33-2.95-.33-5.89-.08-2.95-.08-5.9.66-2.95.66-5.89v-5.9c0-2.95.25-2.95.25-5.89s-.16-2.95-.16-5.9-.82-2.95-.82-5.89v-5.89c0-2.95.33-2.95.33-5.9s1.39-2.95,1.39-5.9-.24-2.95-.24-5.9-1.39-2.95-1.39-5.89,2.13-2.95,2.13-5.9-2.13-2.95-2.13-5.9.33-2.95.33-5.9v-5.89c0-2.95-.08-2.95-.08-5.9s.74-2.95.74-5.89-.33-2.95-.33-5.9.98-2.95.98-5.98-.57-2.95-.57-5.9.49-2.95.49-5.9.57-2.95.57-5.98-.9-2.95-.9-5.9.98-2.95.98-5.9-1.97-2.95-1.97-5.89.41-2.95.41-5.98-.24-2.95-.25-5.98c0-3.03,1.55-2.95,1.64-5.98.08-3.03-.65-3.03-.65-5.98l-.16.16c0-2.95-1.31-5.73-3.44-7.78-2.05-2.05-4.99-2.87-7.94-2.87s-3.03-.25-5.98-.25h-5.98c-2.95,0-2.95.33-5.98.33s-3.03.57-5.98.57-3.03-1.8-5.98-1.8-3.03,1.64-5.98,1.64-3.03-.98-5.98-.98-3.03.98-5.98.98-3.03-.65-5.98-.65-3.03-.98-5.98-.98-3.03.82-5.98.82h-12.12c-3.03,0-3.03.74-6.06.74s-3.03-.57-6.06-.57c-2.13,0-4.42.33-6.39-.24-1.97-.57-4.01-1.72-5.81-2.78-1.8-1.06-2.95-3.03-4.42-4.5-1.56-1.47-2.29-3.36-3.28-5.16-.98-1.8-2.13-3.44-2.7-5.49-.57-2.05-.74-3.93-.74-6.06,0-2.95-.25-2.95-.25-5.81s.49-2.95.49-5.81-.08-2.95-.08-5.81-.49-2.95-.49-5.81-1.31-2.95-1.31-5.81,1.31-2.95,1.31-5.81c0-2.87.57-2.95.57-5.81s-1.64-2.95-1.64-5.81.57-2.95.57-5.82-.08-2.95-.08-5.81,1.23-2.95,1.23-5.81-1.23-2.95-1.23-5.81.57-2.87.57-5.81-1.15-2.87-1.15-5.81.98-2.87.98-5.81.41-2.95.41-5.81-.57-2.95-.57-5.81-.74-2.95-.74-5.81,1.8-2.95,1.8-5.81-1.64-2.95-1.64-5.81v-5.9c0-2.95.9-2.95.9-5.81s-1.15-2.95-1.15-5.81.49-2.95.49-5.9,1.07-2.95,1.07-5.81-.41-2.95-.41-5.81-.25-2.95-.25-5.81.49-2.95.49-5.9-.82-2.95-.82-5.9,1.23-2.95,1.23-5.9-.98-2.95-.98-5.9c0-2.13.9-4.01,1.48-6.06.57-2.05,1.55-3.69,2.62-5.49,1.07-1.8,1.88-3.6,3.44-4.99,1.47-1.56,2.21-4.09,4.01-5.16,1.8-1.06,4.5-.33,6.47-.82,1.96-.49,3.93-1.23,6.06-1.23,2.95,0,2.95-.9,5.89-.9,2.95,0,2.95.9,5.9.9,2.95,0,2.87.9,5.81.9,2.95,0,2.95-.82,5.81-.82,2.86,0,2.95-.57,5.81-.57,2.87,0,2.95-.82,5.81-.82,2.87,0,2.95,1.88,5.81,1.88,2.87,0,2.95-.82,5.81-.82s2.95.08,5.81.08c2.87,0,2.95-.82,5.9-.82,2.95,0,2.95.25,5.9.25,2.95,0,2.95,1.31,5.9,1.31h5.89c2.95,0,2.95-1.88,5.81-1.88,2.86,0,2.95,1.31,5.81,1.31,2.87,0,2.95-.9,5.81-.9,2.86,0,2.95,1.47,5.81,1.47,2.86,0,2.95-1.64,5.81-1.64,2.87,0,2.95.74,5.81.74,2.87,0,2.95-.9,5.81-.9,2.87,0,2.95.25,5.81.25,2.86,0,2.95,1.06,5.81,1.06,2.87,0,2.95.57,5.81.57s2.95.08,5.81.08c2.87,0,2.95-.49,5.81-.49,2.86,0,2.95-.08,5.9-.08,2.95,0,2.95-.82,5.9-.82,2.95,0,2.95.49,5.9.49,2.95,0,2.95.65,5.89.65,2.95,0,2.95.25,5.9.25,2.95,0,2.95-.25,5.9-.25,2.95,0,2.95-1.96,5.9-1.96,2.95,0,2.95.57,5.9.57,2.95,0,2.95,1.23,5.89,1.23s2.95.16,5.9.16h5.89c2.95,0,2.95-1.47,5.9-1.47,2.95,0,2.95.66,5.9.66,2.95,0,2.95-1.15,5.9-1.15ZM251.34.8c2.95,0,2.95.33,5.9.33,2.95,0,2.95,1.31,5.89,1.31,2.95,0,2.95.49,5.9.49,2.95,0,2.95-.16,5.89-.16,2.95,0,2.95-.25,5.9-.25,2.95,0,2.95-1.06,5.89-1.06,2.95,0,2.95-.25,5.9-.25h5.9c2.95,0,2.95,1.31,5.9,1.31s2.95-.08,5.89-.08c2.95,0,2.95.66,5.9.66,2.95,0,2.95-2.13,5.89-2.13,2.95,0,2.95.82,5.9.82,2.95,0,2.95.33,5.98.33,3.03,0,2.95-.98,5.98-.98,1.96,0,3.85.9,5.65,1.39,1.8.49,3.11,2.21,4.83,3.11,1.72.9,3.44,1.39,4.91,2.62,1.47,1.23,3.28,2.13,4.34,3.68,1.06,1.56,1.06,3.69,1.8,5.49.74,1.8.74,3.44.98,5.4.33,2.87,2.29,2.7,2.62,5.57.33,2.87-1.23,3.11-.82,5.98.41,2.87.33,2.87.66,5.81.33,2.95,0,2.95.41,5.81.41,2.87,1.47,2.78,1.8,5.65.33,2.87-.16,2.95.17,5.9.33,2.95.98,2.87,1.31,5.73.33,2.87.49,2.87.82,5.81.33,2.95,0,2.95.25,5.9.24,2.95,1.31,2.78,1.64,5.73.33,2.95.25,2.95.57,5.81.33,2.87.24,2.95.57,5.81.33,2.87-.98,3.03-.57,5.98.41,2.95.49,2.87.82,5.81.33,2.95-.41,3.03,0,5.89.41,2.87,1.88,2.7,2.29,5.65.41,2.95-.33,2.95,0,5.89.33,2.95.41,2.87.74,5.81.33,2.95-.41,3.03,0,5.9.41,2.87,1.97,2.7,2.29,5.65.33,2.95.16,2.95.49,5.81.33,2.87-.57,3.03-.25,5.9.33,2.86,1.23,2.78,1.64,5.73.41,2.95.65,2.87,1.06,5.81.41,2.95-.33,3.03,0,5.89.33,2.87-.9,3.03-.49,5.98.41,2.95,1.88,2.7,2.21,5.65.33,2.95-1.31,3.11-.98,6.06.33,2.95,1.55,2.78,1.88,5.73.33,2.95.82,2.87,1.15,5.81.33,2.95-.9,3.03-.49,5.98.41,2.95.57,2.87.9,5.81.33,2.95,1.23,2.78,1.56,5.73.33,2.95-.41,3.03,0,5.89.41,2.87.57,2.87.9,5.81.33,2.95.41,2.95.74,5.81.33,2.87.98,2.87,1.31,5.73.33,2.86-.49,3.03-.16,5.98q.33,2.95.65,5.81c.33,2.87,1.15,2.79,1.47,5.73.33,2.95-.9,3.03-.57,5.98.33,2.95,1.64,2.78,1.96,5.65.33,2.87-1.47,3.11-1.15,6.06.33,2.95,1.15,2.79,1.47,5.73.33,2.95.98,2.87,1.31,5.73.33,2.87-1.15,3.11-.82,5.98.33,2.87,1.64,2.79,1.96,5.65.33,2.86.98,2.86,1.31,5.73.33,2.87-.08,2.95.25,5.9.33,2.95-.41,3.03,0,5.89.41,2.87,1.06,2.87,1.39,5.73.33,2.86-.57,3.03-.25,5.89.33,2.87,1.39,2.78,1.8,5.73.41,2.95-1.31,3.11-.98,5.98.33,2.87.33,2.95.65,5.81.33,2.86,1.8,2.7,2.13,5.65.33,2.95.98,2.87,1.39,5.73.41,2.87-.82,3.03-.41,5.98.41,2.95-.66,3.03-.33,5.98.33,2.95,1.96,2.7,2.29,5.65.33,2.95.65,2.87.98,5.81.33,2.95-.57,3.03-.24,5.98.33,2.95-.41,3.03-.08,5.89.33,2.87.16,2.95.49,5.9.33,2.95,2.29,2.7,2.7,5.57.41,2.87-1.72,3.19-1.39,6.06.33,2.87,2.05,2.7,2.46,5.65.41,2.95-.98,3.11-.66,5.98.33,2.87,2.13,2.7,2.46,5.65.33,2.95-1.14,3.11-.74,6.06.38,2.76.84,2.86,1.17,5.3l.12,1.04c.32,2.43.69,2.53,1,5.3.33,2.95.9,2.87,1.23,5.81.33,2.95-1.07,3.11-.66,5.98.41,2.86.41,2.95.82,5.81.41,2.87-.25,3.03.08,5.9.33,2.86,1.72,2.78,2.05,5.65.33,2.87-1.15,3.11-.82,6.06.33,2.95.49,2.95.82,5.81.33,2.87,1.39,2.78,1.72,5.73.33,2.95.41,2.95.82,5.81.41,2.87.24,2.95.57,5.81.33,2.87,0,2.95.41,5.9.41,2.95.9,2.87,1.23,5.81.33,2.95-1.07,3.11-.74,5.98.33,2.87,1.8,2.78,2.13,5.65.33,2.86,0,2.95.41,5.89.41,2.95-.41,3.03,0,5.9.41,2.87,1.56,2.78,1.88,5.73.33,2.95.74,2.87,1.07,5.81.33,2.95-.57,3.03-.25,5.98.33,2.95,1.31,2.78,1.64,5.73.33,2.95,0,2.95.41,5.9.41,2.95-.57,3.03-.16,5.98.41,2.95.65,2.86.98,5.81.33,2.95,0,2.95.25,5.9.25,2.95-.16,2.95.16,5.9.33,2.95.16,2.95.49,5.9.33,2.95,1.56,2.78,1.88,5.73.33,2.95.57,2.87.9,5.81.33,2.95,0,2.95.33,5.9.33,2.95,1.07,2.87,1.39,5.73.33,2.87,0,2.95.41,5.9.41,2.95.33,2.95.66,5.81.33,2.87.9,2.87,1.23,5.82q.33,2.95.65,5.81c.33,2.87-.98,3.11-.65,5.98.33,2.87-.33,3.03,0,5.9.33,2.87,1.07,2.87,1.39,5.73.33,2.87-.57,3.03-.16,5.98.41,2.95,2.29,2.7,2.62,5.65.33,2.95-.33,3.03,0,5.89.33,2.87.49,2.95.82,5.81.33,2.87-.41,3.03,0,5.98.41,2.95,1.64,2.78,1.96,5.73.33,2.95-.25,3.03,0,5.9.25,2.87-.49,3.03-.08,5.98.41,2.95,1.47,2.78,1.8,5.73.33,2.95-.66,3.03-.33,5.98.33,2.95,1.8,2.78,2.13,5.65.33,2.87-.41,3.03-.08,5.98.33,2.95.25,2.95.57,5.81.33,2.87,1.15,2.78,1.47,5.73.33,2.95.41,2.87.74,5.81.33,2.95.08,2.95.41,5.9.33,2.95-1.39,3.11-1.07,6.06.33,2.95,1.07,2.87,1.39,5.73.33,2.86.82,2.87,1.15,5.81.33,2.95.16,2.95.49,5.9.33,2.95,1.31,2.86,1.64,5.73.33,2.87-1.23,3.11-.9,6.06.33,2.95.66,2.87.98,5.81.33,2.95-.33,3.03,0,5.89.33,2.87,2.05,2.7,2.37,5.65.33,2.95.65,2.87.98,5.81.33,2.95-1.47,3.11-1.15,6.06.33,2.95,0,2.95.41,5.9.41,2.95,1.07,2.87,1.47,5.73.41,2.87,1.64,2.78,1.96,5.65.33,2.86-.16,2.95.16,5.89.33,2.95-.16,2.95.16,5.9.33,2.95-.57,3.03-.24,5.98.33,2.95.57,2.87.9,5.81.33,2.95,1.07,2.87,1.39,5.73.33,2.86,0,2.95.41,5.9.41,2.95,1.39,2.78,1.72,5.73.33,2.95.41,2.95.74,5.89.33,2.95.41,2.95.74,5.9.33,2.95-.16,3.03.16,5.9.33,2.86-.82,3.03-.41,5.98q.41,2.95.74,5.81c.33,2.86,0,2.95.41,5.89.41,2.95.9,2.87,1.23,5.81.33,2.95.98,2.87,1.31,5.81.33,2.95,0,2.95.33,5.9.33,2.95,0,2.95.41,5.9.41,2.95,1.97,2.78,2.29,5.65.33,2.87-1.07,3.11-.74,6.06.33,2.95.16,2.95.57,5.9.41,2.95,1.15,2.87,1.47,5.81.33,2.95-.82,3.11-.49,5.98.33,2.86,1.88,2.78,2.21,5.73.33,2.95-.9,3.11-.57,5.98.33,2.86,1.23,2.87,1.56,5.81q.33,2.95.74,5.89c.41,2.95-.33,3.03,0,5.98.33,2.95,1.8,2.78,2.13,5.73.33,2.95.41,2.95.74,5.9.33,2.94.16,2.94.49,5.89.33,2.95-1.47,3.11-1.07,6.06.41,2.95.82,2.87,1.15,5.82.33,2.94.9,2.86,1.23,5.81.33,2.95-.33,3.03,0,5.98.33,2.94,1.64,2.78,1.96,5.73.33,2.95.74,2.86,1.06,5.81.33,2.95-.74,3.03-.41,5.98.33,2.95,0,3.03.33,5.98.33,2.94.16,2.94.49,5.89.33,2.95.98,2.87,1.31,5.81.33,2.95.16,2.95.49,5.98.33,3.03,1.47,2.79,1.88,5.73.41,2.95-1.56,3.2-1.23,6.15.33,2.94,1.64,2.78,1.96,5.73.33,2.94-.65,3.11-.33,6.06.33,2.94.98,2.86,1.31,5.89.33,3.03,1.23,2.87,1.56,5.81.33,2.95-.98,3.12-.74,6.06,0,2.13.41,4.34,0,6.64-.41,2.12-.49,4.58-1.39,6.71-.9,2.13-2.46,3.77-3.85,5.65-1.15,1.15-2.38,2.54-3.93,3.52-1.47.9-3.6.33-5.24.98-1.64.66-3.11,1.15-4.83,1.48-1.72.32-3.27,1.96-5.08,1.96-2.95,0-2.95-.82-5.9-.82s-2.95,1.4-5.89,1.4-2.95-.58-5.98-.58-2.95.33-5.9.33-2.95-1.47-5.9-1.47-2.95,1.31-5.89,1.31-2.95-1.07-5.9-1.07c-2.76,0-2.94.72-5.38.81l-1.04.02c-2.44.08-2.61.73-5.38.73-2.95,0-2.95-1.48-5.89-1.48s-2.95.41-5.98.41-2.95-.57-5.9-.57-2.95-.16-5.9-.16-2.95.9-5.89.9-2.95-.58-5.98-.58-2.95.99-5.98.99-2.95-.74-5.98-.74-2.95.25-5.98.25-2.95.16-5.98.16-2.95-.25-5.98-.25-2.95-.41-5.98-.41-2.95-.65-5.98-.65-3.03.24-5.98.24-3.03.99-5.98.99-3.03-.74-5.98-.74c-1.96,0-4.09.57-5.98,0-1.88-.57-3.6-1.72-5.32-2.62-1.72-.9-3.27-2.13-4.75-3.52s-3.6-2.21-4.67-3.93c-1.07-1.72-.57-4.1-1.23-6.06-.57-1.8-2.38-3.52-2.54-5.57-.33-2.95,1.47-2.29,1.07-6.06-.16-1.64-.25-3.6-.49-5.89-.16-1.8-1.39-3.61-1.64-5.73-.16-1.81-1.06-3.69-1.31-5.82-.16-1.88-.33-3.85-.57-5.89-.16-1.89.33-3.93.08-5.98-.16-1.88,0-3.93-.25-5.9-.25-1.96-1.06-3.85-1.23-5.81-.16-1.97-1.15-3.77-1.31-5.73-.16-1.97,1.06-4.01.9-6.06-.16-2.05-.9-3.85-1.06-5.81-.16-1.97.33-4.02.16-5.98-.16-1.97-.82-3.85-1.07-5.81-.24-1.97-1.72-3.77-1.96-5.74-.25-1.96-.25-3.93-.49-5.89-.24-1.97.16-4.01,0-5.98-.16-1.96-1.07-3.85-1.31-5.81-.25-1.97-.41-3.93-.57-5.9-.16-1.96,1.39-4.17,1.15-6.14-.25-1.96-.49-3.93-.74-5.89-.25-1.97-.33-4.02-.57-5.9-.25-1.88-2.46-3.77-2.62-5.73-.16-1.97,1.07-4.09.9-6.06-.16-1.96-1.56-3.85-1.8-5.73-.25-1.88.82-4.09.65-6.06-.24-2.05-.08-4.01-.33-5.9-.25-2.05-.9-3.93-1.15-5.81-.25-2.05-.33-4.01-.57-5.9-.24-2.05-1.88-3.85-2.05-5.73-.25-2.13-.16-4.18-.41-5.9,0-1.88-.74-3.36-1.56-4.83-.9-1.55-1.23-3.85-2.78-4.67-1.47-.82-3.6-1.72-5.49-1.72l-.49.33c-2.95,0-2.95,1.06-5.9,1.06s-2.95-.33-5.89-.33-2.95.98-5.9.98c-2.76,0-2.93-.65-5.31-.73l-1.01-.02c-2.38-.09-2.63-.81-5.39-.81-2.95,0-2.95-.25-5.89-.25s-2.95,1.64-5.9,1.64-2.95-1.64-5.9-1.64c-1.96,0-3.52,1.72-4.99,2.62-1.56.9-2.29,2.29-3.19,3.85-.82,1.47-2.29,2.78-2.29,4.75-.16,1.72-1.23,3.6-1.47,5.81-.25,1.8.49,3.85.25,5.9-.25,1.88-.74,3.77-.98,5.81-.25,1.88.33,3.93.08,5.98-.25,1.88,0,3.93-.33,5.9-.33,1.96-1.56,3.77-1.8,5.73-.25,1.96.9,4.01.65,6.06-.25,2.05-1.8,3.77-1.96,5.73-.16,1.97-.9,3.85-1.06,5.81-.16,1.96-.25,3.93-.41,5.9-.16,1.96-.57,3.85-.74,5.81-.16,1.97,0,3.93-.25,5.9-.25,1.96.98,4.09.82,6.06-.16,1.96-2.46,3.68-2.7,5.65-.25,1.96.98,4.09.82,6.06-.16,1.96-.57,3.93-.82,5.89-.25,1.97-1.06,3.85-1.23,5.82-.16,1.96.16,4.01,0,5.97-.16,1.97-.82,3.93-1.06,5.82-.25,1.88-.98,3.84-1.23,5.81-.25,1.96-.16,4.01-.41,5.9-.25,1.88.41,4.09.24,5.97-.16,1.88-1.56,3.85-1.8,5.82-.25,1.96.74,4.09.57,6.05-.24,2.05,0,4.02-.24,5.98-.25,2.05-.9,3.93-1.06,5.82-.25,2.04-1.56,3.93-1.8,5.73-.25,2.13,1.47,4.34,1.31,6.14-.24,2.29-1.23,4.17-1.39,5.81-.41,3.69-1.64,2.79-1.96,5.65-.25,2.05.08,3.93-.49,5.73-.65,1.89-1.47,3.61-2.54,5.24-1.07,1.64-2.38,3.03-3.77,4.34-1.39,1.31-3.19,1.97-4.91,2.87-1.72.9-3.03,2.62-4.91,3.11s-3.85,1.07-5.81,1.07c-2.95-.01-2.95-.91-5.89-.91s-2.95,1.4-5.9,1.4-2.95.41-5.89.41-2.95-.5-5.9-.5-2.95.25-5.89.25-2.95-1.72-5.81-1.72-2.95,1.15-5.81,1.15-2.95.16-5.81.16-2.95-.98-5.9-.98-2.95-.41-5.9-.41-2.95,1.23-5.9,1.23-2.95-.41-5.9-.41-2.95.24-5.9.24-2.95.9-5.89.9-2.95-.41-5.9-.41-2.95-1.06-5.9-1.06-2.95.49-5.9.49-2.95-.65-5.9-.65-2.95.82-5.9.82c-2.76,0-2.94-.51-5.38-.57h-1.04c-2.44-.07-2.61-.5-5.38-.5-2.95,0-2.95.9-5.9.9s-2.95-.25-5.89-.25h-5.9c-2.05,0-4.34.25-6.55-.4-2.05-.58-3.77-2.3-5.65-3.36-1.88-1.07-4.42-1.64-5.9-3.11-1.39-1.89-2.29-4.1-3.11-6.14-.82-2.05-.57-4.59-.98-6.72-.41-2.37-.74-4.42-.74-6.55.25-2.95-1.15-3.03-.82-5.98.33-2.94.9-2.86,1.23-5.73.33-2.86.16-2.94.49-5.81.33-2.87.41-2.87.74-5.81.33-2.95,1.47-2.79,1.8-5.65.33-2.87,0-2.95.33-5.82.33-2.86,1.06-2.78,1.39-5.73.33-2.95-.16-2.95.16-5.9.33-2.94-.25-2.94.16-5.89.41-2.95-.33-2.95,0-5.9.33-2.94.57-2.86.9-5.81.33-2.95,1.88-2.7,2.21-5.65.33-2.95-1.06-3.11-.74-5.98.33-2.86-.49-3.03-.08-5.89.41-2.87.49-2.87.82-5.81.33-2.95,2.05-2.71,2.37-5.65.33-2.95,0-2.95.33-5.9.33-2.95-1.15-3.11-.82-5.98.33-2.86,1.97-2.7,2.29-5.65.33-2.94.98-2.86,1.31-5.73.33-2.87-.25-2.95.16-5.9.38-2.76.05-2.94.27-5.38l.11-1.04c.2-2.28-.14-2.58.06-4.86l.1-1.04c.21-2.44-.28-2.61.03-5.38.33-2.95,2.29-2.7,2.62-5.57.33-2.87-.98-3.11-.66-5.98.33-2.86-.57-3.03-.25-5.98.33-2.95,1.47-2.78,1.8-5.73.33-2.95,1.23-2.78,1.56-5.73.33-2.95.49-2.87.82-5.81.33-2.95-.25-3.03,0-5.89.25-2.87.74-2.87,1.15-5.81.41-2.95-.16-2.95.16-5.9q.33-2.95.74-5.81c.41-2.86-.65-3.03-.33-5.98.33-2.95.41-2.95.74-5.81.33-2.86.65-2.87.98-5.81.33-2.95,0-2.95.41-5.9.41-2.95,0-2.95.41-5.9.41-2.95.25-2.95.57-5.81.33-2.86,1.06-2.87,1.39-5.73.33-2.86.33-2.95.66-5.81.33-2.86.57-2.86.98-5.81.41-2.95.16-2.95.49-5.81.33-2.87-.49-3.03-.16-5.9.33-2.86.33-2.95.66-5.81.33-2.87.65-2.87.98-5.81.33-2.95,1.72-2.78,2.05-5.65.33-2.87.08-2.95.41-5.81.33-2.87-1.06-3.11-.74-5.98.33-2.87,2.46-2.7,2.78-5.57.33-2.87-1.8-3.19-1.47-6.06.33-2.87.74-2.87,1.06-5.81q.33-2.95.65-5.81c.33-2.87.25-2.95.57-5.81.33-2.87,1.06-2.87,1.39-5.73.33-2.87,0-2.95.41-5.9.41-2.95,1.31-2.78,1.64-5.73.33-2.95-.25-2.95.08-5.9.33-2.95.82-2.87,1.15-5.81.33-2.95.9-2.87,1.23-5.73.33-2.86-.57-3.03-.25-5.98.33-2.95,1.31-2.78,1.64-5.73.33-2.95-1.64-3.11-1.31-6.06.33-2.95.74-2.87,1.15-5.81.41-2.95.08-2.95.41-5.9s1.97-2.7,2.38-5.65c.41-2.95-.57-3.03-.25-5.98s-.41-3.03-.08-5.98c.33-2.95.9-2.87,1.23-5.81.33-2.95.41-2.95.74-5.81.33-2.86-.16-2.95.16-5.9.33-2.95-.08-2.95.25-5.9.33-2.95.74-2.87,1.06-5.81.33-2.95,1.15-2.87,1.56-5.73.41-2.87.49-2.87.9-5.81.41-2.95.16-2.95.49-5.9.33-2.95,1.07-2.87,1.39-5.73.33-2.87-.49-3.03-.16-5.98.33-2.95.49-2.87.9-5.81.41-2.95,1.07-2.87,1.39-5.73.33-2.87-.33-3.03,0-5.9.33-2.86,0-2.95.41-5.89.41-2.95-.49-3.03-.16-5.9.33-2.87.98-2.87,1.31-5.73.33-2.87.33-2.95.65-5.81.33-2.86.9-2.87,1.23-5.81.33-2.95-.33-3.03,0-5.9.33-2.86.98-2.87,1.39-5.73.41-2.87-.08-2.95.25-5.9.33-2.95.57-2.87.9-5.81.33-2.95-.82-3.03-.49-5.98.33-2.95,1.23-2.78,1.56-5.73.33-2.95.82-2.87,1.15-5.81.33-2.95.57-2.87.98-5.81.41-2.95-.74-3.03-.33-5.98.41-2.95.57-2.87.9-5.81.33-2.95,1.07-2.87,1.39-5.81.33-2.95,0-2.95.33-5.9.33-2.95-.57-3.03-.25-5.98.33-2.95.41-2.95.82-5.81.41-2.87,1.64-2.79,1.96-5.73.33-2.95-1.06-3.11-.74-6.06.33-2.95,1.39-2.78,1.72-5.73q.33-2.95.74-5.81c.41-2.87,1.15-2.87,1.56-5.73.41-2.86,0-2.95.33-5.89.33-2.95,0-2.95.41-5.9.41-2.95.33-2.95.65-5.81.33-2.87-.9-3.11-.57-5.98.33-2.86.74-2.87,1.06-5.81.33-2.95-.16-2.95.16-5.9.33-2.95.57-2.87.9-5.81s.33-2.95.66-5.9c.33-2.95.49-2.95.82-5.81.33-2.87,1.88-2.78,2.21-5.65.33-2.87-.33-3.03,0-5.98s-.33-3.03,0-5.98c.33-2.95,1.06-2.86,1.39-5.81.33-2.95.08-2.95.41-5.9.33-2.95,1.47-2.78,1.8-5.73.33-2.95.25-2.95.57-5.81.33-2.87-.33-2.95,0-5.9.33-2.95.08-2.95.41-5.81.33-2.87.57-2.87.9-5.81s.16-2.95.49-5.81c.33-2.87-.9-3.03-.49-5.98.41-2.95,2.13-2.7,2.54-5.65.41-2.95.57-2.87.9-5.81.33-2.95-1.23-3.11-.9-6.06.33-2.95,1.47-2.78,1.88-5.73.41-2.95-.82-3.03-.49-5.98.33-2.95,1.31-2.78,1.64-5.73.33-2.95.49-2.87.82-5.81.33-2.95-.49-3.03-.08-5.98.41-2.95-.08-2.95.25-5.89.33-2.95,0-2.95.25-5.9s.82-2.87,1.15-5.81c.33-2.95,1.8-2.79,2.13-5.65.33-2.87-.33-3.03,0-5.9.33-2.87-.25-2.95.08-5.9.33-2.95-.33-3.03,0-5.89.33-2.87,1.56-2.78,1.88-5.73.33-2.95,0-2.95.41-5.89.41-2.95,1.39-2.79,1.8-5.73.41-2.95-.57-3.03-.25-5.98.33-2.95.65-2.87.98-5.81.33-2.95-.82-3.11-.49-5.98.33-2.87.57-2.87.98-5.81.41-2.95,1.97-2.7,2.29-5.65q.33-2.95.65-5.9c.33-2.95-.82-3.03-.49-5.98.33-2.95.16-2.95.49-5.9.33-2.95,0-2.95.33-5.9.33-2.95,2.13-2.7,2.46-5.65.33-2.95-.49-3.03-.16-5.98.33-2.95.16-2.95.49-5.9.33-2.95-.82-3.11-.49-6.06.33-2.95,1.07-2.87,1.39-5.81.33-2.95.25-2.95.57-5.89.33-2.95.16-2.95.49-5.9.33-2.95,1.47-2.78,1.8-5.73.33-2.95-.98-3.11-.57-6.06.41-2.95,1.23-2.87,1.56-5.81.33-2.95.49-2.95.82-5.9.33-2.95-.49-3.03-.16-5.98.33-2.95,1.88-2.78,2.29-5.73.41-2.95-1.39-3.11-1.06-6.06.33-2.95.9-2.87,1.23-5.73.33-2.86.49-2.95.82-5.81.33-2.87.41-2.95.74-5.81.33-2.86-.66-3.03-.33-5.98.33-2.95.9-2.87,1.31-5.81.41-2.95.65-2.87,1.06-5.81.41-2.95-.57-3.03-.25-5.98.33-2.95.9-2.87,1.23-5.81.33-2.95,1.97-2.78,2.29-5.73.33-2.95-.9-3.11-.49-6.06.41-2.95,0-2.95.41-5.9.41-2.95.16-2.95.49-5.9.33-2.95,1.06-2.87,1.39-5.81.33-2.95.82-2.87,1.15-5.81.33-2.95.74-2.87,1.07-5.81.33-2.95-.25-3.03.16-5.98.41-2.95.74-2.95,1.06-5.9.33-2.95.57-2.95.9-5.9.33-2.95-.65-3.11-.24-6.06.24-1.88,1.8-3.36,2.46-5.08.65-1.72.41-4.01,1.47-5.57,1.07-1.56,2.78-2.62,4.18-3.85,1.39-1.23,2.54-3.11,4.18-4.01,1.64-.9,3.93-.16,5.81-.66,1.88-.49,3.52-2.05,5.49-2.05,2.95,0,2.95.41,5.9.41,2.95,0,2.95.98,5.9.98h5.9c2.95,0,2.95-1.64,5.9-1.64,2.95,0,2.95,1.64,5.9,1.64,2.95,0,2.95-1.15,5.9-1.15,2.95,0,2.95-.49,5.89-.49,2.95,0,2.95,1.06,5.9,1.06,2.95,0,2.95-.49,5.89-.49,2.95,0,2.95.82,5.9.82,2.95,0,2.95.16,5.89.16,2.95,0,2.95-.82,5.9-.82,2.95,0,2.95.9,5.9.9,2.95,0,2.95-1.47,5.81-1.47,2.86,0,2.95.74,5.81.74,2.87,0,2.95.49,5.81.49,2.86,0,2.95-1.8,5.89-1.8Zm-.16,572.59c-1.47-.82-3.36-.33-5.24-.33s-3.68-.25-5.32.65c-1.64.9-3.6,1.72-4.75,3.28-1.07,1.47-2.13,3.52-2.62,5.4-.41,2.87,1.39,3.11,1.07,5.98-.33,2.86-1.88,2.78-2.21,5.65-.33,2.87,1.06,3.03.74,5.9-.33,2.87.25,2.95,0,5.9-.25,2.95-1.31,2.78-1.64,5.73-.33,2.95-1.07,2.87-1.31,5.73-.25,2.87.66,3.03.33,5.9-.33,2.87-.57,2.87-.82,5.81-.25,2.95.49,2.95.16,5.81-.33,2.87,0,2.95-.16,5.81-.16,2.87-1.47,2.78-1.72,5.65-.25,2.86,1.07,3.03.82,5.98-.24,2.95-1.64,2.78-1.88,5.73-.25,2.95-.74,2.87-.98,5.73-.24,2.87,0,2.95-.33,5.82-.33,2.86-.41,2.87-.65,5.81-.25,2.95.08,2.95-.16,5.9-.25,2.95,1.15,3.03.9,5.98-.25,2.95-2.37,2.7-2.62,5.65-.25,2.95,1.15,3.03.9,5.98-.24,2.95-.49,2.87-.74,5.81-.25,2.95-.9,2.87-1.15,5.81-.25,2.95.33,2.95,0,5.9-.33,2.95-.65,2.87-.98,5.81-.33,2.95-.9,2.87-1.15,5.81-.25,2.95,0,2.95-.33,5.9-.33,2.95.49,3.03.33,5.98,0,1.96-1.15,3.68-.9,5.08.33,1.8,2.13,2.7,3.77,3.52.74,1.47,1.96,2.13,3.19,2.86,1.23.74,2.46,1.47,4.01,1.47,3.19,0,3.19,1.15,6.47,1.15,3.27,0,3.19-1.96,6.47-1.96s3.28.74,6.47.74,3.28,1.39,6.47,1.39,3.27-.74,6.47-.74c1.47,0,3.19-.41,4.5-1.15s2.46-1.8,3.19-3.19c1.64-.82,3.11-2.29,3.44-4.09.25-1.39-.82-3.19-.82-5.16-.25-2.95-.57-2.87-.9-5.81-.33-2.95.65-3.03.33-5.89-.33-2.87-1.64-2.78-1.97-5.65-.33-2.87-.65-2.87-.98-5.81-.33-2.95.16-2.95-.08-5.9-.25-2.95-.57-2.87-.9-5.81-.33-2.95,1.39-3.11,1.15-5.98-.25-2.86-1.39-2.78-1.72-5.73-.33-2.95-.41-2.87-.74-5.73-.33-2.87.65-3.03.41-5.89-.25-2.87,0-2.95-.24-5.81-.25-2.87-1.56-2.78-1.8-5.65-.25-2.87.08-2.95-.16-5.9-.25-2.95-.49-2.87-.82-5.81-.33-2.95-1.23-2.79-1.56-5.73-.33-2.95.16-2.95-.16-5.89-.33-2.95.74-3.03.41-5.98-.33-2.95-.82-2.87-1.15-5.81-.33-2.95.33-2.95,0-5.9-.33-2.95-1.15-2.87-1.39-5.73-.25-2.87.24-2.95,0-5.9-.25-2.95.16-2.95-.08-5.89-.25-2.95-1.15-2.78-1.47-5.73-.33-2.95,0-2.95-.33-5.9-.33-2.95-.25-2.95-.57-5.9-.33-2.95-1.15-2.87-1.23-5.9-.08-3.03.98-3.03.74-5.98l-.08.33c0-1.88-1.56-3.52-2.38-5.08-.9-1.55-1.97-3.11-3.52-4.01Z"/>
</svg>