<?xml version="1.0" encoding="UTF-8"?>
<svg id="Layer_1" data-name="Layer 1" xmlns="http://www.w3.org/2000/svg" viewBox="0 0 701.07 1145">
  <path d="m277.94,990.66c7.4-14.39,23.79-17.36,34.97-9.5,4.71,3.31,7.46,8.06,9.66,13.22,3.58,8.49,4.99,17.4,4.65,26.57-.16,4.25-3.84,8.06-7.62,8.29-4.42.27-7.23-1.87-8.33-6.72-.74-3.18-.97-6.46-1.71-9.63-1.87-8.07-9-11.65-14.89-7.47-3.61,2.58-4.61,6.8-4.95,10.74-.33,4.09-.87,8.17-.97,12.28-.23,8.37,1.07,16.6,2.48,24.76,1.33,7.8.97,15.56-.44,23.25-1.91,10.81-1.97,21.65-.37,32.42.91,6.02,4.75,9.4,9.47,9.43,4.32.04,8.73-3.81,9.6-9.36,1.81-11.58,1.84-23.05-3.07-34.13-2.55-5.69-4.15-11.71-.94-17.8,2.07-3.91,8.76-6.32,13.92-5.15,4.78,1.11,7.82,4.99,7.82,10.27,0,15.26.57,30.51-.16,45.74-.57,11.61-3.41,22.85-12.35,31.48-7.12,6.89-20.87,7.59-28.77,1.54-8.06-6.16-11.17-14.96-13.15-24.26-1.5-6.99-1.8-14.15-1.7-21.31.1-11.51,0-22.98,0-34.49,0-13.79-.27-27.54.1-41.32.23-10,2.07-19.74,6.75-28.84Zm231.44-10.38c5.22-.07,10.44,0,15.62,0h.07c4.68,0,9.37.1,14.02,0,8.83-.23,11.31,5.25,11.57,10.54.34,6.26-4.28,10.17-11.37,10.31-3.45.06-6.76.7-10.07,1.54-7.46,1.9-11.01,7.36-11.88,14.35-.7,5.39-.73,11.01,0,16.39,1.17,8.57,6.36,13.55,15.09,15.23,7.76,1.47,10.34,4.75,10.31,11.1-.04,6.19-3.18,10.01-10.38,11.04-9.23,1.31-14.18,6.86-14.98,15.39-.71,7.6-.91,15.36.36,23.05,1.91,11.44,9.67,13.92,18.74,14.66,1.84.13,3.58.13,5.45.67,6.09,1.74,9.27,5.18,8.8,10.2-.53,6.09-4.05,9.74-10.6,9.9-10.28.3-20.58.24-30.88,0-5.42-.1-8.8-4.25-8.97-10.8-.2-8.23-.74-16.46-1.04-24.69-.47-12.38-1.13-24.79-.47-37.14.54-9.94,1.28-19.94,1.07-29.78-.26-12.37-.5-24.79-.23-37.13.1-5.99-.1-12.15,1.37-18.1,1.11-4.42,3.72-6.66,8.4-6.72Zm-379.93-63.58c1.91-2.84,6.66-4.18,10.17-2.84,3.68,1.41,4.96,4.88,4.96,8.3,0,7.33.73,14.59,1.03,21.88,1.34,30.28.47,60.56.57,90.83.04,10.98-.83,21.99-1.57,32.96-.47,6.96-3.85,9.73-9.84,8.8-3.98-.6-6.08-4.22-6.12-11.01-.07-12.14,0-24.32,0-36.47v-73.73c0-9.54-.6-19.04-1.44-28.54-.3-3.35.2-7.13,2.24-10.17Zm516.43-84.16c-.81-9.2.67-16.79,13.01-16.19,6.49.3,12.95-.43,19.47.6,11.85,1.84,18.04,9.13,20.14,20.17,3.18,16.43,3.38,32.89-1.97,49.01-2.54,7.7-1.81,15.19.9,22.58,2.78,7.56,3.15,15.46,3.41,23.28.44,12.95.11,25.93.11,38.88,0,6.02-1.51,8.57-5.39,9.1-5.35.77-9.27-2.11-10.64-7.73-.6-2.44-.87-4.88-.84-7.43.07-8.43.41-16.86-.1-25.26-.33-5.45-.1-11.04-2.27-16.29-1.31-3.15-3.11-5.39-6.69-5.89-4.12-.6-6.46,1.51-8.17,4.82-1.3,2.61-2.04,5.35-2,8.33v19h.06c-.5,6.46.67,14.28-.7,22.15-.94,5.39-3.11,8.2-7.66,8.33-6.32.17-8.97-2.14-10.17-7.93-1.27-6.26.17-12.28.77-18.37.1-1.2.1-2.41.1-3.61,0-34.36.1-68.68-.1-103.04,0-4.82-.87-9.7-1.27-14.52ZM22.25,756.13c6.29-.07,12.58,0,18.83,0h.04c6.02,0,12.04.03,18.03,0,4.38-.03,7.76,1.67,9.6,5.65,2.11,4.58,1.14,9.33-2.24,12.65-2.18,2.14-5.02,3.21-7.66,4.65-6.86,3.75-9.71,10.1-9.74,17.73-.03,36.63-.07,73.27.03,109.94,0,2.84-.6,5.52-.97,8.23-.5,3.38-3.58,5.05-7.96,4.85-3.51-.17-6.72-2.94-7.12-6.22-.14-1.07,0-2.14,0-3.21,0-35.16.06-70.32-.1-105.52,0-4.68-.47-9.43-1.38-14.12-1.13-5.79-4.48-9.57-9.56-12.14-8.2-4.15-9.54-6.69-8.23-15.49.7-4.65,3.37-6.93,8.43-6.99Zm524.16,10.21c1.54-1.69,2.04-4.52,4.71-1,1.11,1.45,2.77.05,4.12-.69,1.32-.69,1.98.58,2.78,1.24.79.66.76,1.4-.37,1.96-5.13,2.46-1.35,5.26.55,6.03,8.46,3.33,8.33,13,14.09,18.24,1.03.92.05,2.01-.79,3.25-3.04,4.41-7.27,8.7-1.8,14.59,2.83,3.04,2.43,9.01,9.46,7.88,1.38-.21,5.69,4.55,4.87,8.88-.4,2.06-5.77,1.8-8.91-1.03-3.97-3.57-6.08.42-5.5,2.22,2.17,6.63-2.27,8.56-7.27,10.94,3.28,2.25,5.45,2.7,7.72-.37,1.59-2.14,3.99-2.14,5.74-.29,1.71,1.85,2.14,3.54-1.3,4.71-2.56.87-2.01,4.63-1.16,5.79,2.56,3.57,1.48,8.33,4.89,11.74,3.33,3.36-.87,7.4-1.3,11.08-.31,2.7-2.88-1.48-4.97-2.17-1.19,4.63,2.65,9.49-.87,14.06-.95,1.24,1.27,2.27,2.94,2.46,2.82.34,4.99-1.06,7.37-2.19,1.48-.71,3.83-3.07,5.02-.29,1.03,2.41,1.11,5.42.85,8.11-.13,1.45-11.61,1.19-12.29-.45-1.98-4.78-4.79-3.25-7.85-1.43-7.25,4.28-15.26,3.17-23.13,3.6-6.16.32-12.21-1.11-18.29-.45-3.02.32-4.92-1.06-6.06-2.99-3.48-5.97-8.59-10.23-13.74-14.59-4.89-4.15,1.19-5.34,2.67-8.27l-.03.03c-5.31,1.64-7.98,1.24-8.22-5.16-.08-2.22-3.2-5.39-5.02-7.61-3.52-4.31-2.27-10.81-7.48-13.98-1.14-.69.08-1.93.45-2.91,1-2.8.95-5.63-.21-8.38-3.41-8.01-2.04-12.82,5.34-18.19.18-.13.45-.13.58-.29,1.37-1.69.9-6.18,3.94-4.78,2.4,1.11,3.83,4.86,5.12,7.69,2.07,4.52,1.88,4.63,6,7.9,1.67-.98.37-3.62,2.41-4.36,2.06-.77,4.49-1.96,6.08.16,1.48,1.96-1.14,2.72-2.12,4.02-3.3,4.36-10.67,3.49-12.45,9.97-.44,1.64-2.16.37-3.4,0-2.09-.61-4.42,1.59-3.76,2.25,3.6,3.57,2.12,9.52,6.03,12.55,6.34,4.94,7.19,4.68,17.23-2.43-3.75-1.82-7.37-3.6-12.13-5.92,4.18-1.32,5.89-3.59,7.22-6.82,2.27-5.55,8.45-5.9,13.24-7.24,2.72-.77,3.51,3.38,4.86,5.9,1.46,2.75,4.76,4.81,7.69,6.34,2.67,1.4,1.8-2.2,3.23-3.36,2.93,6.4,8.7.93,12.92,2.99.64.32,3.12-1.98,2.28-3.97-.8-1.88-2.65-3.62-4.68-1.88-3.97,3.38-6,.98-8.59-1.9-3.83-4.23-7.03-9.65-14.12-9.17-1.4.08-2.96-1.19-3.09-2.96-.18-2.17,1.59-2.06,3.07-2.54,2.88-.93,5.1-1.9.31-3.99-2.88-1.24-3.83-3.49.24-5.37,3.41-1.56,4.05-6.85,9.1-6.98-5.34-1.74-4.87-8.62-10.23-10.36-1.56-.5.26-2.59,1.48-3.52,1.4-1.06,2.96-1.43,3.72.55.64,1.66,1.19,3.2,2.59,4.44,2.01,1.82,3.84,1.74,5.82.03.87-.74,1.88-1.48,1.43-2.7-1.35-3.67-3.7,1.35-6.03-1.32,5.47-4.28,2.25-12.11,7-17.29Zm-315.15-180.93c1.4-.9,3.25,0,3.41.87,1.13,5.71,6.68,5.47,11.34,8.33-5.21,1.32-10.52,2.38-4.02,7.98,1.05.93-.11,4.18.26,6.26.61,3.6,1.06,6.95,6.74,6.16,2.59-.37,3.62,3.89,3.2,6.87-.24,1.69-1.03,4.68,1.51,3.25,5.34-2.96,6.66,1.19,8.3,3.94,2.59,4.34,5.6,6.98,10.89,5.97,1.13-.21,2.27-.21,3.01.77,3.17,4.18,5.92,1.93,8.72-.69,1.88,9.62,9.23,11.92,17.26,13.16,5.08.77,9.07,3.89,13.38,6.11,5.1,2.62,3.51,8.43,3.86,12.95.13,1.8-2.65,2.33-4.34,1.69-4.15-1.59-9.28-2.3-9.96-8.09-.35-2.96-2.49-3.14-4.63-3.7-4.33-1.14-9.06-.93-12.95-3.83-.9-.69-2.91-1.19-3.38.47-2.3,8.19-6.06,16.23-2.75,25.14.82,2.19,1.69,2.17,3.27,1.45,5.29-2.35,9.71.69,9.28,6.53-.16,2.14-.47,4.34-1.19,6.32-.37,1.03-1.4,2.19-.02,2.62,5.39,1.72,4.04,8.86,9.01,10.84.77.32,1.53,1.16.58,2.06-3.33,3.12.13,4.47,1.67,6.19,1.53,1.72,2.16,3.09.16,5.02-1.46,1.38-5.58,1.85-4.02,4.1,1.56,2.22,2.64,5.84,5.76,6.42,5.63,1.06,9.25,3.86,10.55,9.52.42,1.8,1.74,3.38,3.33,3.86,4.6,1.4,5.87,4.92,6.31,9.01.22,1.88.77,3.25,2.41,4.36,1.43.95,3.01,2.3,1.64,4.34-1,1.45-2.41,2.91-4.39,2.22-2.35-.82-4.81-1.24-5.15,1.72-.4,3.44,2.72,3.15,5.12,3.44,6.56.77,16.23,12,16.13,18.82-.03,1.64.05,3.12,1.21,4.26,4.05,3.97,4.02,9.91,7.17,14.46,2.43,3.51,0,9.62,6.58,11.58,1.85.55,1.96,5.15.95,7.93-.95,2.62-2.85.71-4.44.53-3.04-.37-4.47,1.59-4.89,4.18-.42,2.54-1.06,5.21,2.22,6.82,3.09,1.51,4.05-.21,5.58-2.46,2.01-2.96,4.49-3.83,5.87.79.05.21.13.58.23.58,8.33,1.61,4.05,9.25,6.61,13.53,2.54,4.26,5.34,8.7,9.1,11.76,3.01,2.49,1.82,4.52.6,6.05-2.61,3.25-1.77-3.12-4.86-.95-.48,1.53-.77,4.31.71,6.34,2.67,3.6,1.93,6.11-.23,9.81-1.72,2.96-3.36,2.46-5.69,3.44-6.98,2.91-14.54,1.03-20.98,3.46-8.12,3.07-15.94-.58-23.93,1.11-10.41,2.22-21.04-.37-31.56-.37-5.23,0-10.54-.69-15.8.05-1.72.24-3.57.58-4.95-.92-2.09-2.25-4.17-1.35-6.5-.32-4.57,2.01-8.14-.4-8.19-5.34-.06-7.14-.66-14.33.18-21.33.29-2.4,4.07-4.63,6.64-6.42,1.24-.87,3.38-1.19,4.89.4,1.93,2.06.79,3.97-.16,6.03-2.22,4.81,5.26,6.05,3.99,10.57,3.62.63,6.42-1.66,8.46-3.75,5.02-5.13,12.82-9.25,7.72-19.06-1.35-2.59,1.95-4.78,4.94-3.23,3.06,1.61,4.81,2.7,4.28-2.27-.4-3.62,2.17-5.31,5.37-5.18,3.33.13,4.81,2.64,5.15,5.79.37,3.41-.87,6.66-.95,10.12-.19,7.43,2.14,12.48,9.75,15.6-1.53-4.99-1.05-9.97-5.1-13.9-3.91-3.81.5-6.53,2.67-8.54,2.49-2.3,5.39-3.57,6.37-7.59.42-1.75,2.04-7.16,7.09-4.34.79.45,2.08-.74,2.19-1.96.13-1.35-.95-1.85-2.09-2.01-3.25-.42-6.55-1.43-9.7-1.03-4.86.58-.26,4.2-1.69,6.69-3.57-1.59-7.3-2.11-11.13-.08-1.11.58-3.17.16-4.47-.45-7-3.41-10.01-3.67-18.05-.55-2.17.85-4.28.71-6.48.69-1.45,0-3.35-1.37-3.11-1.88,1.77-3.52-.51-9.25,1.24-10.36,6.16-3.89,3.01-9.52,2.03-12.85-1.11-3.78-1.74-5.74,2.12-7.67-2.33-1.77-4.55-1.32-6.66-1.27-1.33.03-3.18.45-3.57-.9-2.28-7.96-13.27-12.16-9.6-22.92.69-2.04-.84-5.39-2.48-7.93-1.3-1.98-2.54-4.6.76-6.56,2.33-1.37,1.33-3.73-.5-3.78-10.6-.29-7.82-8.78-8.54-14.38-1.4-11.08-5.26-21.01-11.57-30-1.88-2.67-.16-3.17,1.05-4.6,5.13-5.92,5.11-5.97-1.61-10.07-.82-.5-1.45-1.19-1.13-2.12,1.77-5.07-1.78-7.61-5-10.1-1.88-1.45-2.11-2.8-.58-4.31,3.91-3.78,4.44-7.83,2.32-12.87-1.11-2.64-1.18-5.97,1.09-8.75,4.73-5.74-2.36-9.73-2.46-14.8-.03-1.45-2.43-3.33,1.03-3.67,1.61-.16,3.49-.24,3.09-2.38-.63-3.2-3.21-.57-5.7-1.59,2.93-3.01,3.8-6.34,4.62-9.75,1.06-4.28,1.22-8.96,7.06-10.62,2.35-.66,4.7-4.73,1-6.71-4.28-2.27-4.62-6.11-4.55-9.44.14-5.02-1.66-8.8-4.46-12.56-1.01-1.37-1.51-3.14-2.14-4.76-.56-1.45.08-2.62,1.27-3.38Zm443.29,258.22c-3.21-.23-7.8,3.01-8.6,6.86-1.94,9.17-2.41,18.43.17,27.64,1.14,4.05,4.01,6.82,8.03,7.06,3.71.2,6.49-2.31,8.26-5.75,2.44-4.75,2.61-9.84,2.58-14.99l-.04-.03v-5.22c-.03-1.84-.73-3.58-.9-5.42-.5-5.15-5.12-9.84-9.5-10.14Zm-319.88,21.39c-4.49,1.64,7.93,12.24-6.08,9.17h-.05c1.5,2.54.45,4.49-.66,6.58-.72,1.35-.4,3.97,1.56,2.99,3.78-1.96,7.24-.4,10.83-.42,1.35,0,2.38-.37,2.62-2.14.42-3.41-5.23-14.59-8.22-16.18Zm213.31,13.96c-6.84-6.61-10.57-17.05-23.52-13.88h-.03c1.24,2.35,3.46,3.07,5.82,3.62,3.01.69,5.18,3.07,6.21,5.34,3.65,8.11,3.38,8.25,11.52,4.92Zm16.5-32.19c2.51-1.32,4.6-4.39,8.27-2.67,2.59,1.22,3.81,2.86,2.64,6.34v.03c.35,4.1,4.73,8.49,1.3,13.61-.69,1.01-.56,2.8-2.06,3.01-2.54.37-1.64-1.93-2.17-3.17-1.88-4.55-7.22-6.69-8.12-12.05-.31-1.85-2.3-3.83.14-5.1Zm-245.06,7.69c-2.65.03-4.73,1.35-4.79,4.31-.05,3.07,2.14,3.36,2.99,3.28,3.83-.32,7,.4,6.71-3.28-.18-2.54-2.22-4.34-4.91-4.31Zm222.93-3.09c-.9-1.35-2.03-4.42-3.22-3.04-1.48,1.72.1,5.39-2.49,7.38,3.89,4.49,8.09-.48,12.21.4,3.26.69,2.12-2.27,2.33-5.23h-.03c-3.38,2.93-6.18,4.39-8.8.5Zm-293.35-6.9c1.08,0,2.17.21,2.12,1.77-1.33,2.03-1.64,4.97-4.39,5.95-1.09.37-2.65-.61-2.04-1.53,1.35-2.11.06-6.18,4.31-6.18Zm259.39-11.79c-.66-1.69-1.01-3.49-3.49-2.67-1.3.42-2.46.98-2.59,2.56-.19,2.19,1.72,2.17,3.01,2.77,3.62,1.77,5.87,4.1,4.28,8.62,1.77-2.43,10.02-4.1.93-8.17-1.01-.45-1.69-1.96-2.14-3.12Zm-405.59-29.68c2.07.13,3.02,2.17,4.13,3.52v.03c.18,2.83-4.34,1.3-3.7,4.63.79,4.12,1.21,8.41,4.94,11.02,3.94,2.78,7.64-.18,9.81-2.38,2.77-2.8,3.59-.66,5.02.58,1.64,1.43,3.59,3.07,2.14,5.52-1.14,1.9-2.88,3.46-5.47,2.27-4.02-1.88-8.22-1.9-12.45-1.22-8.46,1.43-12.74-2.67-8.33-9.46,2.78-4.26-.66-8.51,2.64-11.84.4-.4-.73-2.8,1.27-2.67Zm37.48-.61c1.8,7.64,2.33,15.44,7.09,22.1,1.61,2.27-2.67,2.46-4.52,2.85-2.78.61-5.47-.5-4.34-3.62,1.35-3.7-.68-5.71-2.22-8.25-3.12-5.15-1.78-9.52,4.02-13.11l-.03.03Zm405.03,11.45c-4.88-.48-5.18,4.49-7.45,8.98,5.49-1.49,11.29,2.01,13.48-3.45,1.24-3.09-3.67-5.29-6.03-5.53Zm-64.1-31.85c.32-1.88,2.12-2.67,3.89-2.17l.02.03c2.81.42,6.59-.87,4.31,4.49-1.61,3.81,2.43,5.6,4.87,6.24,5.47,1.4,5.57,4.68,5.04,9.17-.5,4.34-4.78,4.36-6.74,6.9.37-3.25-4.09-2.7-4.25-5.1-.24-3.51-2.99-5.1-5.13-6.32-6.69-3.75-2.75-8.72-2.01-13.24Zm-336.3-4.89c-.24-1.69,1.72-1.64,2.98-1.35,2.46.53,1.78,2.59,1.86,3.38v2.14c-.08,1.59-1.43,2.93-2.44,2.33-4.23-2.46-7.87,4.99-11.92.5-1.08-1.19-1.37-2.7-.05-4.1,1.37-1.48,2.7-1.77,4.57-.66,2.43,1.43,5.92,4.63,5-2.25Zm386.74-24.9c0-2.67,2.64-4.26,5.18-3.6,4.68,1.24,6.66,5.89,9.62,9.17,1.14,1.24-.9,3.75-2.7,4.6-1.79.82-4.28,1-5.28-1.06-1.67-3.38-4.55-2.83-7.91-3.01.06-2.41,1.06-4.07,1.09-6.11Zm5.7-195.77c2.01-1.06,4.26-1.08,6.4-.26,1.72.66,2.43,2.33,1.59,3.75-1.51,2.56-.37,5-.42,7.51-.3,10.28-4.63,18.72-11.61,26.43-5.29,5.84-11.31,11.42-12.98,20.25-.98,5.15-5.02,9.33-4.83,15.59.18,7.03.92,9.41,7.79,9.25,1.4-.03,3.02-1.06,4.21.66-.11,2.85-3.36,1.48-4.55,3.46,1.77,1.45,5.34,1.16,5,4.84-.32,3.2-2.75,2.93-4.76,3.46-2.12.58-3.41,2.01-3.97,4.02-2.75,10.49-8.51,20.14-8.93,31.27-.13,3.3-1.01,5.95-3.97,7.74-.71.42-1.66,1.24-1.72,1.9-.68,10.34-10.33,14.27-15.25,21.6-.63.95-1.37,1.82-2.64,1.38-1.4-.48-2.51-1.83-1.77-3.04,3.57-6.03-.82-15.97,9.52-18.85,1.77-.5,2.82-3.81,3.96-5.97.13-.24-1.37-1.61-2.3-2.06-2.78-1.32-3.91.87-5.15,2.7-2.86,4.15-6.64,1.56-9.55.63-3.56-1.11-1.03-4.15-.95-6.61.32-8.59,7.69-4.28,11.95-6.92h-.16c-1.77-2.7-3.83-3.46-6.37-3.41-1.43.03-2.78-.55-2.99-2.01-.21-1.51,1.09-2.27,2.44-2.67,1.45-.42,3.43-.48,2.64-2.72-.58-1.64-2.09-.55-3.25-.66-4.13-.45-7.8-1.72-8.12-6.98-.29-4.62,1.25-8.56,3.84-12.21.47-.69,1.03-1.67,1.71-1.8,7.75-1.64,12.22-8.25,10.92-16.49-.13-.9-1.93-2.12-.13-2.57,8.03-2.01,9.96-9.89,14.77-14.99,4.15-4.41,8.6-8.38,13.88-11.39.9-.53,2.25-1.37,2.3-2.17.61-9.46,11.08-12.98,12.82-22.2,1.11-5.89.32-11.34.16-16.97-.03-1.24-1.06-2.67.47-3.49Zm12.9,153.57c3.76-2.93,8.3-1.9,11.05,2.46.66,1.03,1.63,1.84,2.76,3.08-5.7,3.39-9.48-1.57-14.1-1.73-2.14-.08-1.32-2.54.29-3.81Zm13.83,5.55s-.01-.01-.02-.02c0,0,0,0,.02,0v.03Zm-408.78-15.78c6.9-3.75,13.53-2.04,20.56-2.33-6.08,6.42-10.86,6.92-20.56,2.33Zm130.1-14.64c.08-.95,1.08-1.19,1.93-.93l-.03-.03c4.31.58,7.54,2.96,10.13,6.24,1.34,1.72,2.64,3.46,3.88,5.26,1.03,1.51,4.26,2.25,3.02,4.44-1.51,2.59-3.84-.21-5.77-.42-3.27-.34-5.57-2.88-6.68-5.71-1.17-2.96-2.3-5.5-5.4-6.79-.58-.24-1.13-1.4-1.08-2.06Zm210.83-17.08c-.13,6.78,1.02,11.96,3.43,15.52,1.14-5.42,4.97-11.34-3.43-15.52Zm-310.67,1.98c1.43-.58,3.39.77,2.94,2.48-.61,2.35-2.41,4.04-5.08,4.04-1.74-.95-5.07-.34-4.7-2.75.5-3.22,4.41-2.75,6.84-3.78Zm-15.46.18c2.41,0,4.76.95,4.71,3.44-.08,3.33-2.83,1.37-4.5,1.48-6.89.48-14,2.33-19.98-4.92h19.77Zm-29.52-21.6c1-2.04,3.49-3.33,4.89-2.17,7.03,5.87,17.55,7.03,22.49,16.57v.03c-5.6,1.22-9.25-.66-13.08-3.62-3.33-2.56-7.22-4.68-11.55-5.81-1.96-.5-4.13-2.14-2.75-5Zm88.7-11.81c-2.38-1.98-3.94.29-5.23,1.93-1.27,1.64-.24,3.01,1.35,3.46,3.14.92,6.41,1.48,11.18,2.53-3.08-3.42-4.95-5.95-7.3-7.92Zm-20.82,5.81s-.01,0-.01,0l-.05-.03s.04.01.06.02Zm23.84-338.7c2.72-2.43,7.66-4.52,12.18-2.25,1.88.95,3.86.72,5.68,1.22,2.25.61,4.79,2.19,4.63,4.76-.13,2.19-2.78,2.4-4.78,2.62-2.38.24-5.21-.24-7.06.9-2.54,1.56-6.08,3.62-5.18,7.35,1.13,4.81,7.4,8.64,11.23,6.79,6.06-2.93,12.85-3.17,18.98-6.48,3.41-1.85,9.91-.08,13.93,2.11,2.7,1.48,1.4,6.26-.45,9.6-1.64,2.99,2.33,4.31,2.12,7.9,3.83-4.81,6.6-7.53,11.28-1.59,2.65,3.36,21.97-.66,25.06-4.15.74-.85,2.56-1.53,1.22-3.12-.88-1.03-2.01-.42-2.99.08-5.18,2.72-9.73-1.98-14.83-1.29-1.43.18-3.57-1.64-2.54-3.7,1.03-2.04,3.31-2.99,5.55-1.96,5.05,2.3,10.18,2.17,15.36.87,3.49-.87,6.5-3.65,6.64-6.61.21-5.21,3.09-5.08,6.5-4.84,2.43.18,4.02-.37,5.36-2.72,1.35-2.38,2.46-7.08,4.95-6.29,5.36,1.69,11.68-.74,16.25,3.73,1.85,1.8,3.23,4.36,6.51,2.11,1-.69,2.22.37,2.24,1.59.03,1.4-1.03,2.8-2.19,2.96-5.5.71-10.84,4.15-16.57,1.56-2.2-1.01-4.39-.9-4.87,1.32-.5,2.3.72,4.57,3.52,5.36,4.65,1.29,9.3,2.72,13.95,4.02,1.56.42,3.28.79,2.52,2.91-.51,1.37-1.49,2.88-3.47,2.04-3.83-1.64-5.05,1.45-5.36,3.75-.48,3.51,2.98,2.96,5.15,3.52,5.21,1.35,10.34-.69,15.6-.42,5.63.29,11.73,2.06,16.67-2.72.51-.5,1.99-.79,2.46-.42,6.14,4.49,10.79.82,14.65-3.2,3.01-3.12,9.41-3.25,8.88-9.7-.08-.98,1.77-1.64,2.72-1.24,5.58,2.35,11.74-.53,17.21,1.96,4.65,2.11,7-1.3,9.28-3.99,2.59-3.09.18-5.05-2.33-6.87-.9-.66-2.96-1.69-.55-3.49,3.11-2.33,5.84-5.42,10.28-3.49,5.92,2.56,6.95,13.16,4.44,20.06-2.59,7.11-9.65,11.95-9.07,20.99.27,3.91-3.2,9.99-9.88,9.96-2.01,0-3.47,1.27-4.23,2.62-1.03,1.8,1.19,2.43,2.22,3.38.92.85,2.46,1.4,1.71,3.04-.52,1.16-1.82,1-2.9,1.08h-.66c-7.22-1.29-10.31,2.67-11.45,9.07-.34,1.85-1,3.6-3.17,3.54-2.19-.05-2.88-2.11-3.07-3.75-.45-3.86-2.16-6.29-6.16-6.29-.05-1.8.75-2.72,1.83-2.91,3.86-.66,2.72-3.44,2.32-5.63-.5-2.75-2.74-3.41-5.07-2.77-3.94,1.11-6,.87-8.67-3.52-2.64-4.31-8.14-7.96-13.14-9.44-4.2-1.24-8.03,3.25-11.5,6.58,2.3,1.06,3.89.21,5.26-.9,4.66-3.78,7.09-.61,9.36,2.91,1.38,2.17,1.19,3.97-1.93,3.78-8.4-.53-16.49,1.8-25.4-.24-6.79-1.53-7.37-4.15-7.51-8.83-.08-3.04-1.4-3.46-3.93-3.81-4.58-.63-8.25,2.14-12.43,2.93-2.62.5-1.9,3.99-1.48,6.4.5,2.88,2.12,2.01,4.31,1.88,5.95-.34,11.21,1.29,15.89,5.81,3.22,3.12,8.08,4.68,12.45,6.34,1.63.63,3.67.63,4.33,2.35.98,2.59,4.18,4.68,3.09,7.51-1.34,3.57-4.99,1.8-7.61,1.69-3.12-.13-6.21,2.3-9.41.16-.29-.21-1.85.63-2.01,1.19-.47,1.9,1.11,2.75,2.51,3.28,4.34,1.67,8.54,3.57,11.45,7.35.95,1.24,3.12,2.27,1.8,4.41-.96,1.56-2.65,1.24-4.18,1.19-1.08,0-2.25-.11-3.28.21-2.62.79-6.66-1.93-7.74,2.59-1.03,4.28,3.86,4.04,5.63,6.29,1.11,1.43,3.51,1.75,4.94,3.01,1.82,1.61,3.57,4.23,2.38,6.34-1.56,2.75-3.15-1.11-4.89-.98-5.29.48-10.05-3.49-15.91-.55-4.97,2.48-6.27,5.55-4.37,9.78,4.34,9.65,3.47,20.96,10.13,29.84,1.66,2.22.53,5.08-.58,7.59-.64,1.43-1.22,3.09.63,3.99,1.61.79,2.85-.27,3.7-1.45l.49-.71c1.67-2.34,3.74-4.24,5.7-6.32,3.59-3.81,5.28-1.32,5.76,1.61.69,4.26,2.75,4.76,6.37,4.36,3.86-.42,6.13-1.74,5.89-6.05-.28-5.35,1.93-8.02,7.54-6.61,1.03-1.74,2.96-2.2,4.57-3.19,3.12-1.93,3.91-4.31,3.41-8.56-.4-3.46-3.41-8.46,1.24-11.82.35-.24,1.09-.58,1.06-.64-3.91-8.99,4.73-18.82-1.93-27.78-1.08-1.45-1.53-3.78-3.28-4.63-9.46-4.55-7.03-15.09-11.39-22.23-1.59-2.62,1.35-3.99,3.01-2.88,4.81,3.23,11.53,3.15,15.02,8.64.58.9,1.48,2.09,2.35,2.19,9.83,1.22,14.01,9.57,18.63,16.18,3.71,5.26,9.97,6.82,13.14,12.34,3.44,5.95,7.88,11.31,11.87,16.94.63.87.98,2.17,1.8,2.64,7.74,4.41,5.73,11.95,6.21,18.74.4,5.47,2.19,10.97-1.45,16.18-.67.95,1,2.3,2.08,3.04,1.38.92,2.62,2.14,2.14,3.75-2.08,7.24-.55,15.12-3.91,22.1-.24.5-.87,1.06-1.4,1.14-.47.08-1.45-.48-1.48-.77-.24-5.02-3.57-10.2-1.27-14.88,3.54-7.22-.37-12.42-3.64-17.63-2.7-4.31-3.89-8.35-3.55-13.43.74-10.78,1.3-21.96-9.46-28.84-6.03-3.83-9.44-11.63-17.92-11.74-2.06-.03-1.51-2.22-2.14-3.52-1.67-3.44-4.05-4.97-7.67-2.01-2.53,2.09-2.01,3.6.53,4.94,5.16,2.72,8.57,10.57,7.01,16.12-.32,1.11-.77,1.93-1.83,2.54-7.48,4.31-7.53,7.03-5.13,15.91,1.77,6.61,3.36,12.93,6.85,18.93,1.32,2.27,2.88,6.21-.9,8.91-.63.45-.95,2.19-.61,3.07,2.49,6.53-2.09,9.25-6.5,11.55-6.85,3.6-8.96,8.85-5.58,16.15-4.04,1.24-6.95-1.88-10.38-2.64-1.93,1.43-.9,3.17-.59,4.76.51,2.38-.55,3.91-1.82,5.89-1.56,2.41-5.52-1.32-4.97,1.8.77,4.18-.34,8.88,2.27,12.5,2.22,3.07.69,7.85,5.18,9.97,1.09.5.59,3.28-1.21,5.05-3.62,3.52-7.56,6.63-10.02,11.42-4.1,7.93-12.69,4.71-19.29,6.45-1.43.37-1.99-.98-1.41-2.11,1.99-3.94-2.14-7.3-1-11.23.21-.71-1.27-2.38-2.33-2.88-1.61-.77-2.01,1.06-2.77,2.01-2.12,2.56-2.14,5.66-2.43,8.7-.11,1.27,0,2.85-1.75,3.12-1.56.24-2.24-.98-2.88-2.22-.61-1.16-1.43-2.22-2.01-3.38-1.06-2.06-2.72-2.7-4.91-2.4-1.27.16-2.15.82-1.99,2.09.27,1.9.19,4.1,1.99,5.37,2.29,1.66,7.26,1.29,6.31,5.31-.9,3.75-4.76,7.19-8.24,7.93-6.14,1.29-7.41,6.53-10.31,10.26-2.78,3.57-.13,7.88,4.6,8.01,4.04.11,7.85,2.25,12.21.4,2.85-1.21,4.52,2.17,6.29,3.94,6.03,6,6.37,14.03.9,20.43-1.22,1.4-1.85,2.7-2.06,4.55-.24,2.19,1.4,5.95-3.92,4.86-1.71-.34-.45,2.85-1.19,4.97,3.76-.9,6.8-2.7,10.66-.42,3.51,2.09,8.16-2.78,6.82-8.27-2.28-9.2,3.96-16.52,4.46-25.19.29-4.76,7.41-8.93,13.14-10.49,2.75-.74,4.02-2.38,4.31-4.15.61-3.65-.82-7.8,3.99-9.86.98-.42.24-1.98-.61-2.83-1.37-1.4-2.19-.08-3.27.61-7.14,4.47-15.23,4.6-23.93,5.79,2.17-5.47,6.77-8.56,10.13-8.62,7.35-.16,11.84-4.12,16.81-8.22,1.43-1.19,3.51-4.07,5.44-1.45,1.35,1.82-1.56,3.22-2.69,4.71-1.11,1.45-3.62,2.38-2.2,4.84,1.03,1.77,2.88,1.93,4.66,1.32,3.3-1.14,3.88,1.61,4.49,3.44,1.08,3.22,3.44,4.81,6.29,4.6,2.35-.16,2.51-3.07,3.22-5.08,1.64-4.52,4.87-5.79,9.36-4.2,5.31,1.9,9.7,5.84,15.46,6.74,3.15.48,3.84,2.14,1.41,4.33-3.86,3.49-5.13,8.27-7.38,12.69-2.43,4.78-9.62,4.41-12.9,8.77-3.65,4.86-7.48,2.7-11.47.98-1.29-.55-2.64-1.35-1.37-2.8,1.82-2.06.84-3.28-.56-5-1.4-1.74-1.08-4.39,1.06-4.94,4.23-1.11,3.49-4.18,2.85-6.66-.45-1.85-3.25-2.11-4.52-1.14-2.3,1.8-4.62,5.13-3.46,7.51,3.04,6.19-1.11,11.15-3.01,15.57-1.91,4.44-3.12,8.35-3.49,13.11-.48,6.03-3.57,11.42-6.43,16.73-.1.18-.37.29-.44.48-4.42,10.28-12.9,13.82-23.34,15.09-4.05.5-7.62,5.81-11.9,3.67-3.86-1.93-7.77-2.78-11.37-1.88-8.67,2.17-15.35-.21-22.75-4.97-4.66-2.99-11.37-3.54-17.08-5.47-2.72-.92-4.25-1.77-3.99-4.86.45-5-.53-9.97.55-15.07.61-2.83-.15-6.19-1.08-9.38-1.56-5.39-1.64-11.16-1.22-16.84.11-1.43-1.13-3.28.96-3.91,1.95-.61,3.38.79,4.15,2.46,2.11,4.52,3.72,9.3,6.18,13.61,3.52,6.21,6.66,12.48,8.96,19.27,1.17,3.41,9.94,4.2,13.03,1.85,1.51-1.16,1.56-2.46.66-3.99-2.08-3.57-4.15-7.01-7.9-9.31-7.14-4.33-9.04-10.52-6.13-17.63.74-1.85,1.53-3.2,3.62-3.07,3.33.18,6.08-.37,7.35-4.02,1.45-4.2.47-7.74-2.65-10.68-1.18-1.11-3.77-1.53-2.08-3.75,1.24-1.64,3.06-.53,4.78.13,5.68,2.19,8.43.66,9.7-5.21.27-1.22,1.06-1.82,2.04-2.38,1.66-.95,3.25-2.33,1.53-4.07-1.43-1.45-4.04-1.69-5.05.53-2.56,5.66-5.66,5.08-9.59,1.56-3.12-2.78-5.74.48-7.43,1.8-2.67,2.09-3.99,1.53-6.11-.26-4.94-4.2-13.11-4.89-13.66-13.61-2.99,1.01-2.43,3.15-1.93,4.39,1.24,3.15-.24,4.41-2.8,3.91-2.62-.5-3.02.87-3.65,2.57-.77,2.03.76,2.06,2.01,2.38,2.11.53,2.38,3.07,1.27,3.33-6.19,1.48-1.54,8.33-5.61,10.55-1.03.56-1.53-1.14-1.9-1.11-7.59.61-4.94-3.54-4.49-7.9.39-3.86,1.79-9.94-6-9.91-2.12,0-3.63-2.43-4.47-4.41-.56-1.3-1.01-3.09.31-4.34,1.64-1.53,2.67,0,3.89.9,1.11.85,2.46.77,4.34-.13-3.86-3.14-6.11-6.82-5.34-11.95.42-2.8-2.22-3.09-4.18-2.62-9.89,2.4-15.94-4.92-23.16-9.09-2.16-1.27-3.54-2.88-6.6-2.88-6.72,0-13.43-6.79-14.01-13.59-.27-3.22-3.99-4.1-4.15-7.22-.21-4.36-4.07-8.19-1.17-13.16,1.7-2.88-2.8-4.49-3.19-7.45-.72-5.39,2.06-9.91,3.19-14.83.59-2.54,2.78-5.58-1.98-6.56-.32-.05-.84-.79-.76-.95,2.53-5.47-2.59-11.5.1-16.2,4.15-7.22,5.13-16.26,12.24-21.83.79-.61,1.61-1.88,1.56-2.77-.5-8.7,5.18-10.55,13.51-10.86-6.74-4.2-2.83-7.27.1-8.99,7.64-4.44,13.3-11.18,21.39-15.54,8.06-4.39,14.53-6.24,22.94-4.31,2.48.58,8.62-6.56,8.17-9.12-.27-1.43-1.56-2.91-2.62-2.46-5.68,2.43-10.84-2.46-16.55-.85-2.82.79-6.08.9-8.98-.69-6.9-3.81-13.56.61-20.33.74-1.8.03-2.99,1.95-3.46,3.65-.64,2.33,1.85,1.93,2.9,2.8,3.04,2.54,5.16,5.39-.44,6.69-2.97.69-2.75,7.56-6.61,3.75-2.59-2.56-6.16-6.34-3.12-11.18.18-.29.18-.82.05-1.16-.85-2.09-4.2-3.44-2.38-6.24,2.43-3.75,2.65,2.59,4.94,1.3,1.96-1.11,4.1-2.09,4.76-4.28.74-2.4-1.24-3.89-3.14-4.26-14.46-2.83-15.55-15.38-16.87-25.85-.82-6.5,1.56-14.93,7.17-19.96Zm-79.88,294.8c1.69.16,2.03,1.93,1.66,3.01-2.22,6.74,2.43,11.97,3.65,17.92.48,2.3,1.82,3.57,4.12,3.22,2.57-.4,1.85-2.51,1.78-4.18-.14-2.26-.32-4.54-.5-7.11,9.59,5.66,11.52,9.41,7.92,15.28.98,0,1.88-.16,2.7,0,4.17.93,8.3,3.17,7.24,7.64-1.08,4.63-6.26,2.48-8.96,1.74-9.17-2.51-16.1-7.06-20.3-17.08-2.83-6.74-1.59-12.16-1.24-18.27.08-1.27.76-2.3,1.93-2.19Zm383.51,31.24c1.37-.18,2.72.53,2.35,1.56-.79,2.22-2.3,4.31-4.87,4.65-1.92.26-1.58-1.64-1.74-2.8-.48-3.54,2.78-2.46,4.26-3.41Zm-289.6-40.86c-3.09-4.84,1.8-5.39,3.49-4.55,3.81,1.9,9.41,2.43,10.49,7.59,1.88,8.99,10.15,11.37,16.05,15.94,5.15,4.02,9.49,9.49,16.36,11.23,1.35.34,2.11,2.43.5,3.81-2.17,1.85-6,2.88-7.13,1.03-2.99-4.84-7.93-3.67-11.79-5.5-7.72-3.67-15.28-8.06-20.12-15.65-1.29-2.03-2.67-3.89-4.99-5.05-2.22-1.11-3.92-2.91-2.83-5.84l-.03.03c.71-1.03.66-2.01,0-3.04Zm262.16-80.52c1.96-1.53,3.62-1.45,5.18.26,2.07,2.31,5.11.12,7.79,1.99-3.43,3.51-5.47,7.95-11.97,8.03,4.55,3.83,4.95,6.32,1.27,10.31-3.99,4.34-2.83,11.15-4.49,16.76-.9,3.01-1.77,6-3.83,8.19-6.24,6.64-10.21,14.93-16.45,21.67-2.64,2.85-5.81,5.58-8.56,7.24-9.17,5.6-14.3,15.07-22.49,21.44-1.59,1.24-2.36,3.65-3.33,5.58-.59,1.14-.51,3.01-2.04,3.12-7.22.53-11.66,6.42-17.76,9.04-2.04.87-2.3-.26-2.62-1.53-.53-2.06-.08-4.81,1.27-5.5,6.26-3.23,8.96-10.84,16.23-12.74,3.57-.93,4.92-3.94,5.87-7.32.55-1.98.61-5.42,3.09-5.29,8.48.42,12.34-6.18,16.12-11.31,4.21-5.71,10.39-9.54,13.4-16.68,2.3-5.45,8.52-9.23,12.75-13.93,3.06-3.41,5.41-6.92,3.72-12.29-.66-2.06-2.24-6.93,3.28-7.43,1.24-.11,2.3-1.77,1.98-2.27-2.51-4.02,1.64-7.77.29-11.55-.84-2.35-.87-4.1,1.3-5.79Zm-345.36,103.01s-.01,0-.01,0v-.05s0,.04.01.06Zm-7.2-70.63c8.94,4.52,9.73,11.74,10.44,19.93.35,3.99,5.58,7.69,8.91,11.23,2.54,2.7,4.6,5.68,6.71,8.7,3.55,4.97-3.75,10.1.32,15.04-.69.45-1.56,1.45-2.01,1.27-.9-.34-1.85-1.16-2.3-2.04-4.02-8.17-10.09-14.91-15.14-22.34-6.32-9.33-7.8-20.33-6.93-31.77v-.03Zm39.91,48.32c1.54-1.56.19-5.6,3.33-5.16,1.03.16,1.72,4.71,1.99,7.32.1,1.06-.43,3.33-2.54,3.01-3.04-.42-2.43-3.04-2.75-5.21l-.03.03Zm44.6-33.75c3.96,0,9.09,9.54,7.9,13.22-1.37,4.28-2.4,8.59-5.02,12.37-2.11,3.07-4.28,3.3-5.76-.19-2.27-5.37-4.34-10.86-5.95-16.47-1.06-3.65,4.55-8.96,8.8-8.93h.03Zm194.55-2.37c.5-1.51,1.77-3.12,3.3-2.62,3.62,1.19,7.93.82,10.7,4.04,1.09,1.24.59,2.99-.15,4.34-1.59,2.83-3.94.27-5.74.66-4.63,2.25-5.68-1.77-7.59-4.12-.45-.55-.74-1.64-.52-2.3Zm-246.1-42.51c.32-1.61-.08-4.18,2.65-3.23,1.93.66,2.16,3.44,1.11,4.52-3.55,3.65-2.41,6.11.84,9.12,1.4,1.3,2.14,3.89.48,6.05-.4.5-.98,1.19-.9,1.69.63,4.1,3.14,9.54-5.21,6.4-.79-.29-1.72.74-1.48,1.66.32,1.24.87,2.75,2.41,2.83,4.44.21,4.62,2.83,4.09,6.32-.39,2.64-.15,5.31,1.99,7.35,2.11,2.01.87,3.46-.74,4.86-1.75,1.51-2.78,1.45-4.79-.4-3.88-3.54-6.68-7.3-7.19-12.61-.05-.63-.26-1.58-.66-1.77-9.75-4.34-7.45-14.62-10.94-22.02-1.24-2.64,1.4-4.44,1.14-7,3.06,3.46,7.87,3.49,10.75,6.82,1.14,1.32,4.15-.37,4.79-2.99.61-2.54,1.16-5.08,1.66-7.61Zm35.45,32.86c4.33.92,8.99-2.25,13.29,1.16h.03c-3.86,3.99-8.04,5.74-13.32,3.07-.98-.5-2.14-.74-2.09-2.09.05-1.27,1.3-2.33,2.09-2.14Zm162.3-9.4c-2.2-1.44-2.69-5.05-6-3.34-1.91,1-2.57,3.15-.93,4.89,2.79,3,4.33-.61,6.93-1.55Zm112.55-36.46c.87-.21,2.25.11,2.09.87-.35,1.64-.9,3.54-2.04,4.62-2.59,2.48-4.15,5.05-2.46,9.12l-.05.03c-.55,3.49-4.36,4.6-6.48,7.03-.13.13-1.85-.58-2.03-1.16-.77-2.38-.71-5.21,1.21-6.69,3.44-2.62,4.52-6.24,5.21-9.99.5-2.88,2.41-3.33,4.55-3.83Zm-61.43-7.24c.98-1.72,7.61.53,8.83,4.02,1.77,5.1,4.25,5.34,8.61,3.7,3.52-1.32,4.21.98,3.49,3.65h-.02c1.11,4.81-2.62,6.9-4.76,9.81-1.72,2.33-4.5,3.65-6.8,2.93-2.32-.71-2.53-4.18-2.19-6.26.5-3.14.32-3.94-3.25-4.26-4.34-.37-5.21-5.39-7.45-8.33-2.15-2.8,2.45-3.3,3.54-5.26ZM17.24,356.12c1.77-5.59,2.75-8.63,12.18-8.13h-.03c9.5,0,12.41,3.28,13.18,13.62.8,10.74,2.47,21.41,3.74,32.08.94,7.96,1.85,15.96,2.65,23.95.83,7.96,2.01,15.89,2.98,23.85.66,5.62,1.13,11.27,1.8,16.9.91,7.69,2.18,15.36,2.85,23.05.67,7.59,2.77,15.02,2.81,22.72,0,3.81-1.34,6.52-5.06,7.46-4.48,1.1-8.93-1.11-10.17-5.19-1.1-3.61-1.6-7.36-2.51-11.04-.93-3.85-2.27-7.7-5.52-10.1-8.33-6.15-17.29-1.47-20.04,7.6-1.17,3.85-1.5,7.96-2.54,11.84-.77,2.88-1.77,5.65-5.42,6.52-4.38,1.07-8.03-1.27-8.13-5.85-.17-7.8,1.47-15.46,2.18-23.19.67-7.63,1.7-15.15,2.67-22.75,1.04-8.2,1.91-16.43,2.91-24.66.97-7.83,1.78-15.69,2.68-23.55.97-8.46,2.11-16.93,3.11-25.42.87-7.46,1.64-14.92,2.51-22.35.3-2.48.44-5.02,1.17-7.36Zm524.28,154.77s-.04-.03-.06-.04c0,0,0,0,.01,0l.05.05Zm-275.56-7.11c-2.14-.24-3.25,1.24-3.49,3.07-.37,2.7,2.06,3.2,3.78,3.57,1.96.42,2.91-1.35,3.57-3.01-.18-2.4-1.74-3.41-3.86-3.62Zm12.37-5.97c-2.56.32-3.41,2.11-3.17,4.15.37,3.15,1.03,6.93,4.76,7.35,3.35.37,4.78-3.3,4.68-5.79-.14-3.28-3.39-4.65-6.27-5.68v-.03Zm-86.88,1.75c1.12.49,1.59.55,1.85.83,1.72,1.93,3.36,3.91,5.5,6.42-2.99.21-4.89,3.62-7.77,1.3-3.49-2.77.23-5.39.42-8.55Zm341.03-7.38c1.4-.45,3.15-.18,3.36,1.98.42,4.55,4.07,5.97,7.64,7.4-1.59,3.46-4.68,2.64-6.21,1.56-3.23-2.3-5.74-5.55-10.23-5.55-.4,0-1.35-1.69-1.14-1.98,1.53-2.25,4.23-2.64,6.58-3.41Zm-341.03,7.38s-.02,0-.03-.01h.03Zm252.19-9.28c2.09,1.53,6.03.5,6.08,4.68.06,2.59-1.4,4.52-3.75,4.26-2.72-.29-5.95-1.32-6.45-4.57-.4-2.4,1.85-3.62,4.12-4.39v.03Zm-188.15-34.76c-2,1.82-4.57,2.8-6.13,5.39-3.7,6.13,1.48,15.07-6.39,19.77-.14.08,0,1.03.1,1.06,4.68.9,2.3,4.97,3.36,7.45,1.48,3.52,4.23,6.55,7.21,7.82,3.15,1.35,1.41-3.83,3.55-5,2.9-1.56,4.2-10.73,9.38-1.85,1,1.72,3.25,1.16,4.47-.45,1.11-1.45,2.46-1.51,4.04-1.61,6.48-.45,7.27-2.17,5.26-8.51-1.21-3.81-6.13-4.86-6.29-8.85-.19-4.02-2.85-4.31-5.55-4.73-.32-2.3,2.99-2.77,2.35-4.73-3.84-3.92-6.98,1.3-10.47.23-.23-3.11-5.59-2.09-4.89-5.99Zm263.22,16.6c4.65-2.17,5.34.21,6.13,3.2,1.06,4.02-2.51,7.64-1.53,11.79.05.26-1.3.87-1.93,1.3h-.03c-4.04-.48-3.59-4.52-5.5-6.58-5.1-5.55-4.09-6.48,2.86-9.7Zm-92.94-17.68c0-3.37-3.49-5.6-7.44-5.45.07,2.37-2.02,3.67-3.08,5.4-2.67,4.36-1.53,13.06-11.12,10.28-1.43-.42-3.65,1.14-5.24,2.19-3.49,2.33-2.56,6.08-1.21,8.67,1.29,2.48,4.49,1.74,6.08-.4,4.01-5.52,10.67-7.01,15.7-10.94,3.17-2.48,6.34-5.95,6.31-9.75Zm-165.41,7.24c.53.58,1.08,1.14,1.56,1.74,1.35,1.72,2.85,3.41.42,5.45-.98.82-2.09,2.01-3.3,1-1.96-1.61-1.4-3.89-.66-5.89.33-.89,1.29-1.54,1.98-2.29Zm259.83-1.86c2.62.08,2.38,3.57,3.92,5.26.71.79-1.54,3.01-2.7,2.83-3.25-.55-1.64-3.2-1.56-4.92v-.03c-.4-1.32-1.85-3.22.34-3.14Zm-225.89-6.68c-.32-1.4-2.09-3.25-4.1-2.33-2.17,1.01-1.24,3.25-.63,4.65,1.74,4.02,4.46,7.43,7.45,10.63,1.72,1.85,3.44,1.48,5.92-1.01h-.02c-2.3-.4-4.6-.82-4.26-2.93.63-4.12-3.57-5.63-4.36-9.01Zm-33.92,8.37v.06s.05.03.06.03c-.03.03-.06.06-.08.09-.05-.05-.1-.1-.15-.16h-.01s.03-.04.03-.04h0s.02-.02.02-.02c.04.02.09.03.13.04Zm-224.5-24.99c-3.62-6.16-9.5-6.09-13.25-.07-2.14,3.41-2.95,7.23-2.61,10.84h.03c0,1.87-.1,3.35,0,4.82.3,3.81,4.38,8.5,7.73,9,4.05.6,8.63-1.64,9.74-5.59,1.84-6.42,1.9-13.01-1.64-19Zm413.23-9.5c1.67-1.53,3.04-.45,4.47.85,6,5.44,5.02,13.53,8.22,19.69v.03c-1.77,3.28-3.09,6-.79,9.04.71.93.05,2.14-1.14,2.62-1.27.5-2.17-.19-2.62-1.27-.66-1.61-1.08-3.33-1.64-4.99-1.5-4.39-1.93-9.2-6.66-12.05-2.35-1.43-1.98-11.92.16-13.9Zm-139.38-50.4c-2.45-2.46-3.85-.53-4.22,1.27-1.8,8.59-6.75,14.72-13.91,19.4-.61.4-1.11,1.43-1.13,2.19-.24,5.63-.53,11.26-.48,16.89.03,4.84,3.91,8.11,8.4,7.59,2.67-.32,6.06-.53,6.11,3.04.05,3.88,1.53,8.48-2.4,11.58-1.54,1.22-2.86-.18-4.08-1.11-2.4-1.88-4.81-3.94-7.93-4.15-2-.13-4.94-.98-5.94,1.16-.61,1.3.31,4.18,1.53,5.34,3.49,3.36,7.24,9.07,12.53,6.21,9.33-5.02,13.51-1.61,16.94,6.9.98,2.46,5.26,4.81,7.06.61,2.67-6.29,2.59-13.48,6.71-19.51,2.57-3.73,2.04-9.41,3.81-12.95,3.25-6.53-1.43-7.03-4.23-6.92-5.87.21-9.88-3.3-14.99-4.81l-.02-.11c5.47-7.8,5.68-7.96,13.58-7.4,1.59.1,3.23.61,3.65-1.51.37-1.9-.24-3.46-2.4-3.99-2.41-.58-4.66-.61-7.06.45-1.9.85-3.97,1.58-6.16-.16-4.04-3.23-4.02-7.53.53-10.55,2.46-1.64,5.31-3.49,4.63-6.56-.8-3.52-4.5-1.22-6.77-2.01-1.22-.42-2.99-.13-3.76-.9Zm-133.03,60.58c2.75-.32,3.52,1.06,3.12,3.54-.69,4.07-3.25,5.92-7.19,6.26-2.64.24-5.81-.98-7.14,2.88-.37,1.11-1.85,1.3-2.75.34-.44-.5-.6-1.59-.44-2.33.68-2.93,11.2-10.65,14.4-10.71Zm-32.14,4.12h-.03s.02-.02.03-.03v.03Zm14.06-14.91c1.91-.26,4.18-5.42,5.82-.24,1.21,3.78-1.48,5.84-4.95,7.03-5.22,1.79-10.47,3.53-14.93,8.09,1.06-11.5,2.76-13.29,14.06-14.88Zm150.19,14.33l-.03-.03s.03-.01.04-.02c0,.02,0,.03,0,.05Zm8.77-20.35c.58-.18,1.91,1.03,2.41,1.88,1.48,2.4-.82,3.52-2.09,4.81-3.61,3.67-2.23,10.31-9.08,13.62,1.77-6,4.43-10.49,4.72-15.68.1-2.06,1.88-3.96,4.04-4.62Zm99.74,6.42c2.03,1.11,4.89,2.09,4.6,4.76-.35,3.3-3.68,3.97-6.4,4.71-2.48.69-3.04-1.06-3.06-2.99-.06-3.3,2.03-5.1,4.83-6.48h.03Zm202.96-165.43c4.95-1.44,9.94.87,11.64,5.79,2.05,5.89,2.28,12.31,5.49,17.87,3.28,5.65,8.47,7.63,12.55,4.45,3.11-2.44,5.02-5.72,6.05-9.5,1.14-4.15,2.21-8.3,3.21-12.48.51-2.04,1.61-3.68,3.25-4.82,2.31-1.61,4.82-1.81,7.49-.7,2.78,1.14,3.05,3.41,2.92,5.89-.27,5.52-2.08,10.77-3.32,16.13-5.15,22.38-10.57,44.7-15.76,67.08-.73,3.18-.9,6.56-.93,9.84-.1,16.83-.03,33.69-.03,50.52,0,3.18-.64,6.22-1.75,9.2-1.07,2.94-3.34,3.71-6.25,3.71s-5.45-.84-6.69-3.88c-.81-1.94-1.41-3.88-1.37-6.09.06-8.7,0-17.36,0-26.06l.03.03c0-3.21-.17-6.42,0-9.63,1.17-17.46-2.34-34.33-6.62-51.09-4.72-18.43-9.64-36.87-13.96-55.4-1.37-5.96-.8-9.43,4.05-10.84Zm-489.55,152.19c4.6-3.6,8.04-9.83,15.1-7.69,4.15-.61,9.25-1.06,9.54,3.36.31,5.23-5.61,4.84-9.1,4.78-4.62-.08-8.37,1.14-11.81,3.99-2.09,1.74-4.2,2.56-6.21.05-2.54-3.17,1.37-3.65,2.48-4.49Zm18.98-86.96c.06-.26,1.83-.61,2.43-.26,4.42,2.54,8.6,3.44,13.99,2.25,2.3-.5,4.04,4.55,3.35,8.54-1.4,8.14-6.87,12.24-13.79,15.01-3.73,1.51-5.34,2.75-2.33,6.85,3.73,5.08-2.91,8.75-2.8,13.61.02,1.45-1.53,2.78-.69,4.81.95,2.27-.55,3.07-2.77,2.99-6.22-.21-12.27.08-17.93,3.28-2.08,1.19-3.7-1.08-4.81-2.51-1.34-1.74-.71-4.02.77-5.45,3.23-3.14,6.72-6.11,11.39-6.85,2.36-.37,5.1,0,5.61-3.28.5-3.3-3.04-1.56-4.1-3.14-1.27-1.9-4.28-2.86-3.44-5.84.53-1.88,2.01-2.8,4.66-2.01,2.11.16,5.15,1.96,6.92-1.74,1.69-3.52.85-6.34-2.3-8.62-1.9-1.38-1.9-3.44-1.48-5.39,1.06-4.86,6.32-7.27,7.32-12.24Zm186.51,16.05c-1.82-.63-3.44-.95-4.65.87-1.24,1.82.26,2.43,1.37,3.6,2.59,2.7,3.65,5.6-.82,7.77-2.4,1.16-1.96,3.06-.98,5.71,2.53-2.89,5.56-3.89,9.15-3.79,3.44.11,5.31-2.8,3.83-5.21-2.03-3.28-3.62-7.43-7.9-8.96Zm-25.27,1.51c-4.55.29-7.59,3.04-9.78,7.06-.61,1.11-1.85,2.09-.66,3.38,1.03,1.11,2.46.93,3.59.26,2.75-1.64,5.87-2.59,8.36-4.81,1.13-1.03,4.57,1.11,4.15-2.3-.35-2.72-2.78-3.6-5.66-3.6Zm8.86-30.3c1.14-2.27,2.3-5.15,5.76-3.75,2.22.9,4.23,2.35,7.14,4.02v.03c-4.02,2.3-6.66,4.55-10.07,3.65-1.46-.37-4.18-1.24-2.83-3.94Zm39.86-41.82c.4-1.21,2.22-1.4,3.46-.55,1.03.69,2.67,1.77,1.46,3.01-2.3,2.35-.48,6.82-5.29,8.2-3.01.87-2.06,4.84-.63,7.43,1.21,2.19,1.24,4.52-1.46,4.2-4.33-.53-10.02,2.25-12.42-4.2-7.3,2.72-3.78,9.73-2.65,11.02,4.45,5.08-1,5.5-2.67,6.21-2.59,1.08-5.65,3.68-9.75.18,7.8-1.37,6.27-5.44,4.89-10.52-1.08-4.02-3.22-2.25-5.29-2.62-1.9-.34-5.04.45-4.7-3.04.24-2.54,1.93-3.44,4.7-3.2,7.43.64,10.6-6.69,16.31-9.44,1.19-.58,2.25-2.3,4.05-2.17,4.15.29,8.27.87,9.99-4.52ZM113.18,87.01c3.81-.33,7.66,2.58,9.1,6.26,2.64,6.72,3.28,13.95,5.52,20.78,1.5,4.62,3.04,9.17,5.72,13.21,1.14,1.74,2.74,3.25,4.82,2.88,2.04-.4,3.78-1.84,4.71-3.88,2.11-4.58,2.95-9.57,3.11-14.49.17-5.19,1.14-10.27,1.04-15.49-.1-5.35,3.08-8.6,7.33-8.53,3.21.07,5.45,1.84,6.02,4.75.5,2.54.9,5.15,1.1,7.8,1.68,23.02,1.74,46.04,1.51,69.09l-.07-.03c0,12.58.2,25.13-.06,37.71-.24,11.27-.94,22.52-1.58,33.79-.33,5.65-3.11,9.43-6.65,9.77-6.8.64-10.24-1.54-12.12-8.03-2.17-7.53-3.41-15.29-6.05-22.68-1.24-3.45-2.54-6.93-5.32-9.53-2.54-2.38-5.72-1.87-7.53,1.14-2.77,4.65-3.54,9.9-3.81,15.09-.3,5.29-1.17,10.54-1.04,15.89.1,4.22-2.64,7.56-6.19,8.03-3.08.4-5.85-.9-7.22-3.78-1.28-2.71-2.31-5.82-1.54-8.77.6-2.41.6-4.72.6-7.09,0-43.33,0-86.62.07-129.94,0-2.88.23-5.85.97-8.6.97-3.61,4.11-5.02,7.56-5.32Zm376.02-3.21c7.56.2,15.15-.87,22.68.77,12.04,2.61,17.96,10.34,20.37,22.15,1.31,6.42.81,12.98.84,19.47.07,9.54-1.34,18.87-4.28,27.94-2.34,7.19-1.54,14.22.73,21.28,2.41,7.43,3.58,15.05,3.55,22.88,0,11.64.1,23.25-.1,34.89-.03,2.71,1.2,5.15.33,8.13-.83,2.84-1.23,5.39-4.51,6.06-4.35.9-8.2-.54-10.11-3.82-2-3.38-2.37-7.23-2.4-11.01-.14-10.44.1-20.84-.11-31.28-.1-4.42-.7-8.8-3.04-12.85-1.74-2.98-4.45-4.38-7.39-4.22-3.32.2-5.76,2.68-6.9,5.79-1.2,3.31-1.77,6.86-1.84,10.4-.1,5.89,0,11.78,0,19.04l-.03.1c-.57,6.29.97,14.05-.8,21.68-1.04,4.42-4.18,6.56-9.14,6.26-3.68-.23-6.52-3.28-6.89-7.39-2.47-27-1.67-54.07-1.4-81.1.06-6.72.8-13.55.43-20.31-.3-5.42-.8-10.87-.6-16.29.37-10.2.94-20.38,1.61-30.58.3-4.85,4.04-8.13,9-8ZM291.97,13.21c7.62-14.42,24.99-17.4,36.83-7.13,6.59,5.72,9.2,14.12,10.98,22.62,1,4.85.77,9.77.77,14.69,0,5.39-3.02,8.93-7.7,9.1-4.38.17-7.76-3.38-8.36-8.56-.3-2.71-.77-5.45-1.54-8.06-1.81-6.09-5.72-9.53-9.94-9.07-4.72.54-8.76,5.82-9.4,11.71-1.51,13.65-.74,27.03,2.14,40.55,1.41,6.46.34,13.42-.9,20.14-2.08,11.17-3.38,22.45-.4,33.72.33,1.24.9,2.44,1.57,3.58,1.77,2.98,3.98,5.18,7.83,5.08,3.68-.1,5.89-2.21,7.42-5.08,3.68-6.93,3.25-14.45,2.98-22.01-.3-8.2-4.75-15.12-6.56-22.82-1.07-4.58-1.67-9.74,2.51-13.35,4.59-3.98,11.45-4.45,16.23-1.81,4.42,2.44,4.72,6.93,4.82,10.94.3,12.68.47,25.43,0,38.11-.4,11.61-2.24,22.95-9.1,32.89-8.97,13.05-29.34,13.22-38.04.03-5.52-8.36-8.03-17.7-9-27.7-1.47-15.59-.03-31.21-.7-43.76h.03c0-15.59-.17-28.17.03-40.71.2-11.51,2.01-22.72,7.5-33.09Zm221.08,100.8c-1.87-2.04-4.45-3.51-7.43-2.84-4.31.97-6.49,4.22-7.79,8.1-1.31,3.98-.77,8.13-.87,11.54l.03.03c0,3.35-.1,6.02.03,8.7.07,1.54.51,3.08.77,4.62.91,4.88,6.66,10.44,11.71,7.79,2.81-1.47,4.79-3.61,5.89-6.59,2.61-6.93,1.71-14.15,1.47-21.24-.13-3.58-1.23-7.33-3.81-10.1Z"/>
</svg>