<?xml version="1.0" encoding="UTF-8"?>
<svg id="Layer_1" data-name="Layer 1" xmlns="http://www.w3.org/2000/svg" viewBox="0 0 1323 375.82">
  <path d="m963.53.49h359.47v374.83h-359.47v.5H0V0h963.53v.49ZM15.36,360.45h932.8V15.36H15.36v345.09Zm948.17-.49h344.11V15.85h-344.11v344.11Zm237.6-108.52c.54-.6.72-1.6,1.66-.36.4.51.98.02,1.46-.24.47-.24.7.2.98.44.28.23.27.49-.13.69-1.81.87-.48,1.86.2,2.13,2.98,1.17,2.94,4.59,4.97,6.44.37.33.02.71-.28,1.15-1.07,1.56-2.56,3.07-.63,5.15,1,1.08.86,3.19,3.34,2.78.49-.07,2.01,1.61,1.72,3.14-.14.73-2.04.64-3.15-.36-1.4-1.26-2.14.15-1.94.78.77,2.35-.8,3.03-2.57,3.87,1.16.79,1.93.95,2.73-.13.56-.76,1.41-.76,2.03-.11.6.66.75,1.26-.46,1.67-.91.3-.71,1.63-.41,2.04.9,1.26.52,2.94,1.72,4.15,1.18,1.18-.3,2.61-.45,3.91-.12.95-1.02-.52-1.76-.77-.42,1.64.94,3.36-.31,4.97-.33.44.45.8,1.04.87,1,.12,1.76-.37,2.61-.78.52-.25,1.35-1.08,1.77-.1.36.85.39,1.92.3,2.87-.05.51-4.1.42-4.34-.16-.7-1.69-1.69-1.15-2.78-.5-2.56,1.51-5.39,1.12-8.17,1.27-2.17.11-4.31-.4-6.46-.16-1.06.11-1.74-.38-2.14-1.06-1.23-2.11-3.03-3.61-4.85-5.15-1.73-1.47.42-1.89.94-2.93h-.01c-1.88.59-2.82.45-2.9-1.81-.03-.78-1.13-1.9-1.78-2.69-1.24-1.52-.8-3.81-2.64-4.94-.4-.24.03-.68.16-1.02.35-.99.34-1.99-.08-2.96-1.2-2.83-.71-4.53,1.89-6.43.07-.04.16-.04.21-.1.48-.6.31-2.18,1.39-1.69.85.39,1.35,1.72,1.81,2.72.73,1.59.66,1.63,2.12,2.79.59-.35.13-1.28.85-1.54.73-.27,1.59-.69,2.15.05.52.7-.41.97-.75,1.42-1.17,1.54-3.77,1.24-4.4,3.52-.16.58-.77.14-1.2,0-.74-.21-1.56.56-1.33.8,1.27,1.26.75,3.36,2.13,4.43,2.24,1.75,2.54,1.66,6.09-.86-1.33-.64-2.61-1.27-4.29-2.09,1.48-.46,2.08-1.27,2.55-2.41.8-1.96,2.99-2.08,4.68-2.56.96-.27,1.24,1.2,1.72,2.09.51.97,1.68,1.7,2.71,2.24.95.49.64-.78,1.14-1.19,1.04,2.26,3.07.33,4.57,1.06.22.11,1.1-.7.8-1.4-.28-.67-.93-1.28-1.65-.67-1.4,1.2-2.12.35-3.04-.67-1.35-1.49-2.48-3.41-4.98-3.24-.5.03-1.05-.42-1.09-1.04-.07-.77.56-.73,1.08-.9,1.02-.33,1.8-.67.11-1.41-1.02-.44-1.35-1.23.09-1.9,1.2-.55,1.42-2.41,3.21-2.46-1.89-.62-1.72-3.05-3.62-3.66-.55-.18.1-.92.53-1.24.49-.38,1.04-.51,1.31.19.23.59.42,1.13.92,1.57.71.65,1.35.62,2.05.01.31-.26.67-.52.51-.95-.48-1.3-1.31.47-2.13-.47,1.93-1.51.79-4.27,2.47-6.1Zm-111.32-63.92c.49-.31,1.15,0,1.2.31.4,2.02,2.36,1.93,4.01,2.94-1.84.47-3.72.84-1.42,2.82.37.33-.04,1.48.09,2.22.22,1.27.37,2.45,2.38,2.17.92-.13,1.28,1.38,1.13,2.43-.08.6-.36,1.65.53,1.15,1.89-1.05,2.36.42,2.94,1.39.91,1.53,1.98,2.46,3.84,2.11.41-.08.81-.07,1.07.27,1.12,1.48,2.09.68,3.08-.24.66,3.4,3.26,4.21,6.1,4.65,1.79.27,3.2,1.37,4.72,2.15,1.8.93,1.24,2.98,1.36,4.58.05.63-.93.82-1.53.6-1.46-.56-3.27-.81-3.52-2.86-.12-1.04-.87-1.11-1.63-1.31-1.53-.4-3.2-.32-4.58-1.35-.31-.24-1.02-.42-1.19.17-.81,2.89-2.14,5.73-.97,8.88.29.77.6.76,1.16.51,1.86-.83,3.42.24,3.27,2.31-.05.75-.17,1.53-.42,2.23-.13.36-.49.77-.01.92,1.91.61,1.43,3.13,3.19,3.83.27.11.54.41.2.73-1.17,1.1.05,1.58.59,2.18.54.61.77,1.1.06,1.78-.52.48-1.97.65-1.42,1.45.55.78.93,2.06,2.03,2.26,1.99.38,3.27,1.37,3.73,3.37.15.63.62,1.19,1.18,1.36,1.62.5,2.07,1.74,2.23,3.18.07.67.27,1.15.85,1.54.5.34,1.06.82.58,1.54-.36.51-.85,1.02-1.56.78-.83-.29-1.69-.44-1.82.61-.14,1.21.97,1.11,1.82,1.21,2.31.27,5.73,4.24,5.69,6.65-.01.58.02,1.1.43,1.5,1.43,1.4,1.42,3.5,2.53,5.11.86,1.24,0,3.4,2.33,4.09.65.2.69,1.82.33,2.8-.33.93-1.01.25-1.57.19-1.07-.13-1.57.56-1.72,1.47-.15.9-.38,1.84.78,2.41,1.09.53,1.43-.07,1.97-.87.71-1.04,1.59-1.35,2.07.28.02.08.05.21.09.21,2.94.57,1.43,3.27,2.33,4.78.9,1.5,1.89,3.07,3.21,4.16,1.07.87.65,1.59.22,2.13-.92,1.15-.63-1.1-1.72-.33-.17.54-.27,1.52.25,2.24.95,1.27.69,2.16-.08,3.46-.61,1.05-1.19.87-2.01,1.22-2.46,1.02-5.13.36-7.41,1.22-2.87,1.08-5.63-.21-8.45.39-3.68.79-7.43-.13-11.15-.13-1.85,0-3.73-.24-5.58.02-.61.08-1.27.2-1.75-.33-.74-.79-1.48-.47-2.3-.11-1.61.71-2.87-.14-2.89-1.89-.02-2.52-.24-5.06.06-7.53.11-.85,1.44-1.63,2.35-2.27.44-.31,1.19-.42,1.72.14.69.73.28,1.4-.05,2.13-.79,1.7,1.86,2.14,1.41,3.73,1.28.23,2.27-.58,2.99-1.32,1.77-1.81,4.52-3.27,2.72-6.73-.47-.92.69-1.69,1.75-1.14,1.08.57,1.7.95,1.51-.81-.14-1.28.77-1.87,1.9-1.83,1.17.05,1.7.94,1.82,2.05.13,1.2-.31,2.35-.34,3.57-.06,2.63.76,4.41,3.45,5.51-.54-1.76-.38-3.52-1.8-4.91-1.39-1.34.17-2.3.94-3.01.88-.82,1.9-1.26,2.25-2.68.15-.62.72-2.53,2.5-1.53.28.15.74-.27.78-.7.04-.47-.34-.65-.74-.7-1.15-.15-2.32-.51-3.43-.37-1.72.21-.09,1.49-.6,2.36-1.26-.56-2.57-.74-3.93-.02-.39.2-1.12.05-1.58-.16-2.47-1.21-3.53-1.3-6.37-.2-.77.3-1.52.25-2.29.24-.51,0-1.19-.48-1.1-.66.62-1.24-.18-3.27.44-3.66,2.17-1.37,1.06-3.36.71-4.54-.39-1.33-.61-2.02.75-2.71-.82-.62-1.6-.46-2.35-.44-.47.01-1.12.15-1.26-.32-.8-2.81-4.69-4.3-3.39-8.1.24-.72-.3-1.9-.88-2.8-.46-.7-.89-1.62.27-2.31.82-.49.47-1.32-.18-1.34-3.74-.1-2.76-3.1-3.01-5.08-.5-3.91-1.86-7.42-4.09-10.6-.66-.94-.06-1.12.37-1.62,1.81-2.09,1.8-2.11-.57-3.56-.29-.18-.51-.42-.4-.75.63-1.79-.62-2.69-1.76-3.56-.67-.52-.75-.99-.21-1.53,1.38-1.33,1.57-2.76.82-4.54-.39-.94-.42-2.11.39-3.09,1.67-2.03-.84-3.44-.87-5.23-.01-.52-.86-1.18.36-1.3.57-.06,1.23-.08,1.09-.84-.22-1.13-1.13-.2-2.01-.56,1.03-1.07,1.34-2.24,1.63-3.45.37-1.51.43-3.16,2.49-3.75.84-.23,1.67-1.67.36-2.37-1.51-.8-1.63-2.16-1.61-3.34.05-1.77-.59-3.1-1.57-4.43-.36-.49-.54-1.11-.76-1.68-.2-.51.03-.92.45-1.2ZM295.24,88.44c12.69,0,22.27,5.18,29.01,15.28,5.96,9.07,9.07,21.76,9.07,38.59v18.65c0,1.04-.26,2.33-1.3,3.11-.78.78-1.81,1.03-2.85,1.03h-25.12c-2.33,0-4.14-1.81-4.14-4.14v-20.46c0-3.88-.52-6.99-1.29-9.32-.52-1.56-1.55-2.34-2.85-2.34-1.55,0-2.33.78-2.85,2.34-1.04,2.33-1.3,5.44-1.3,9.32v102.56c0,3.89.26,6.74,1.3,9.07.52,1.55,1.29,2.33,2.85,2.33,1.29,0,2.33-.78,2.85-2.33.78-2.33,1.29-5.18,1.29-9.07v-29c0-.52-.52-.78-.78-.78-1.04,0-1.81-.52-2.59-1.04-.52-.77-1.04-1.81-1.04-2.59v-32.63c0-2.33,2.07-4.14,4.4-4.14h29.27c2.33,0,4.14,1.81,4.15,4.14v63.97c0,16.84-3.11,29.53-9.07,38.59-6.73,10.1-16.32,15.28-29.01,15.28s-22.53-5.18-29.01-15.28c-5.96-9.06-9.32-21.75-9.32-38.59v-98.68c0-16.83,3.37-29.52,9.32-38.59,6.48-10.1,16.32-15.28,29.01-15.28Zm394.81,0c12.69,0,22.27,5.18,29.01,15.28,5.96,9.07,9.07,21.76,9.07,38.59v18.65c0,1.04-.26,2.33-1.29,3.11-.78.78-1.81,1.03-2.85,1.03h-25.12c-2.33,0-4.14-1.81-4.14-4.14v-20.46c0-3.88-.52-6.99-1.29-9.32-.52-1.56-1.55-2.34-2.85-2.34-1.55,0-2.33.78-2.85,2.34-1.04,2.33-1.29,5.44-1.29,9.32v102.56c0,3.89.26,6.74,1.29,9.07.52,1.55,1.29,2.33,2.85,2.33,1.29,0,2.33-.78,2.85-2.33.78-2.33,1.29-5.18,1.29-9.07v-29c0-.52-.52-.78-.78-.78-1.04,0-1.81-.52-2.59-1.04-.52-.77-1.04-1.81-1.04-2.59v-32.63c0-2.33,2.07-4.14,4.4-4.14h29.27c2.33,0,4.14,1.81,4.14,4.14v63.97c0,16.84-3.11,29.53-9.07,38.59-6.73,10.1-16.32,15.28-29.01,15.28s-22.53-5.18-29.01-15.28c-5.96-9.06-9.32-21.75-9.32-38.59v-98.68c0-16.83,3.37-29.52,9.32-38.59,6.47-10.1,16.32-15.28,29.01-15.28Zm443.36,197.85c-1.58.58,2.8,4.33-2.14,3.25h-.02c.53.89.16,1.58-.24,2.32-.25.48-.14,1.4.55,1.06,1.34-.7,2.56-.15,3.83-.15.48,0,.84-.13.93-.76.15-1.2-1.85-5.15-2.91-5.72ZM139.43,91.03c2.07,0,3.88,1.56,4.14,3.63l22.53,192.69c0,1.04-.26,2.34-1.04,3.37-.78.78-2.07,1.3-3.37,1.3h-26.16c-2.07,0-3.88-1.56-4.14-3.89,0,0-2.59-24.34-3.37-31.08,0-1.03-.78-1.81-1.81-1.81h-8.29c-1.04,0-1.81.78-1.81,1.81-.78,6.74-3.37,31.08-3.37,31.08-.26,2.33-2.07,3.89-4.14,3.89h-24.86c-1.04,0-2.33-.52-3.11-1.3-.78-1.03-1.04-2.33-1.04-3.37l22.53-192.69c.26-2.07,2.07-3.63,4.14-3.63h33.15Zm237.48,0c13.47,0,23.05,4.67,29.27,13.47,5.44,7.77,8.55,19.94,8.55,36.52v11.4c0,17.09-3.63,29.26-9.84,36.77,2.85,3.11,5.18,7,6.73,11.66,2.33,7.25,3.37,16.83,3.37,28.75v32.89c0,5.18.26,9.32.52,12.43,0,2.85.78,5.44,1.55,8.29l1.04,3.37c.52,1.29.26,2.59-.52,3.62-1.04,1.3-2.07,1.82-3.63,1.82h-26.93c-1.81,0-3.63-1.3-4.14-3.11l-.26-2.07c-1.04-3.37-1.55-6.48-1.81-9.59-.26-2.85-.52-7.77-.52-15.02v-34.19c0-6.99-.26-11.91-2.07-14.5-.78-1.55-2.33-1.81-4.14-1.81h-.52v76.14c0,1.04-.52,2.07-1.3,2.85-.78.78-1.81,1.3-3.11,1.3h-26.16c-1.04,0-2.07-.52-2.85-1.3-1.04-.78-1.29-1.81-1.29-2.85V95.18c0-2.33,1.81-4.15,4.14-4.15h33.93Zm68.91,0c2.07,0,3.89,1.56,4.14,3.37,1.55,6.73,4.66,28.49,6.47,38.07.26.78,1.04,1.56,2.07,1.56.78,0,1.55-.78,1.81-1.56,2.07-9.58,5.18-31.34,6.48-38.07.26-1.81,2.07-3.37,4.14-3.37h25.9c1.29,0,2.33.78,3.11,1.82.78,1.03,1.3,2.33.78,3.62-4.92,21.76-24.86,104.9-25.9,109.56v81.84c0,1.04-.52,2.33-1.3,3.11s-1.81,1.04-2.85,1.04h-26.42c-1.04,0-2.07-.26-2.85-1.04s-1.3-2.07-1.3-3.11v-81.84c-1.29-4.66-20.98-87.8-26.16-109.56-.26-1.29,0-2.59,1.04-3.62.78-1.04,1.81-1.82,3.11-1.82h27.71Zm196.24,0c1.04,0,2.07.52,2.85,1.3.78.78,1.29,1.81,1.29,3.11v192.43c0,1.04-.52,2.33-1.29,3.11-.78.78-1.81,1.04-2.85,1.04h-26.42c-1.03,0-2.07-.26-2.85-1.04-.78-.78-1.3-2.07-1.3-3.11V95.44c0-1.3.52-2.33,1.3-3.11.78-.78,1.81-1.3,2.85-1.3h26.42Zm158.43,0c1.04,0,2.33.52,3.11,1.3.78.78,1.04,1.81,1.04,3.11v31.85c0,2.33-1.81,4.15-4.14,4.15h-30.3c-1.03,0-1.81,1.03-1.81,2.07v32.63c0,1.3.78,2.07,1.81,2.07h22.79c1.29,0,2.33.52,3.11,1.3s1.29,1.81,1.29,2.85v31.86c0,2.33-2.07,4.4-4.4,4.4h-24.6v41.18c0,.52.26,1.04.52,1.29.26.52.78.78,1.29.78h30.3c2.33,0,4.14,1.81,4.14,4.15v31.85c0,1.04-.26,2.33-1.04,3.11-.78.78-2.07,1.04-3.11,1.04h-62.68c-1.04,0-2.07-.26-2.85-1.04-.78-.78-1.29-2.07-1.29-3.11V95.44c0-1.3.52-2.33,1.29-3.11.78-.78,1.81-1.3,2.85-1.3h62.68Zm47.64,0c13.47,0,23.05,4.67,29.27,13.47,5.44,7.77,8.55,19.94,8.55,36.52v11.4c0,17.09-3.63,29.26-9.84,36.77,2.85,3.11,5.18,7,6.73,11.66,2.33,7.25,3.37,16.83,3.37,28.75v32.89c0,5.18.26,9.32.52,12.43,0,2.85.78,5.44,1.55,8.29l1.04,3.37c.52,1.29.26,2.59-.52,3.62-1.04,1.3-2.07,1.82-3.63,1.82h-26.94c-1.81,0-3.63-1.3-4.14-3.11l-.26-2.07c-1.04-3.37-1.55-6.48-1.81-9.59-.26-2.85-.52-7.77-.52-15.02v-34.19c0-6.99-.26-11.91-2.07-14.5-.78-1.55-2.33-1.81-4.14-1.81h-.52v76.14c0,1.04-.52,2.07-1.29,2.85-.78.78-1.81,1.3-3.11,1.3h-26.16c-1.04,0-2.07-.52-2.85-1.3-1.04-.78-1.29-1.81-1.29-2.85V95.18c0-2.33,1.81-4.15,4.14-4.15h33.93Zm-645.9-.01c2.07,0,3.89,1.55,4.14,3.62,2.59,14.25,12.69,68.12,12.69,68.12v-67.34c0-1.29.52-2.33,1.29-3.11.78-.77,1.81-1.29,2.85-1.29h23.83c1.29,0,2.33.52,3.11,1.29.78.78,1.29,1.82,1.29,3.11v192.44c0,1.03-.52,2.33-1.29,3.1-.78.78-1.81,1.04-3.11,1.04h-26.16c-2.07,0-3.89-1.29-4.15-3.37-2.85-14.22-12.67-67.98-12.69-68.11v67.34c0,1.03-.52,2.33-1.29,3.1-.78.78-1.81,1.04-2.85,1.04h-24.09c-1.04,0-2.07-.26-2.85-1.04-.78-.77-1.29-2.07-1.29-3.1V95.42c0-1.29.52-2.33,1.29-3.11.78-.77,1.81-1.29,2.85-1.29h26.42Zm399.64,0c1.04,0,2.07.52,2.85,1.29.78.78,1.3,1.82,1.3,3.11v31.86c0,1.03-.52,2.07-1.3,2.85-.78,1.03-1.81,1.29-2.85,1.29h-16.06c-.52,0-.78.26-1.29.52-.26.52-.52,1.04-.52,1.55v154.37c0,2.33-1.81,4.14-4.15,4.14h-26.42c-2.33,0-4.14-1.81-4.14-4.14v-154.37c0-.51-.26-1.03-.52-1.55-.26-.26-.78-.52-1.29-.52h-16.06c-1.04,0-2.07-.52-2.85-1.29-.78-.78-1.29-1.82-1.29-2.85v-31.86c0-1.29.52-2.33,1.29-3.11.78-.77,1.81-1.29,2.85-1.29h70.45Zm606.88,200.2c-2.42-2.33-3.73-6.02-8.31-4.9h0c.44.83,1.23,1.08,2.06,1.28,1.06.24,1.83,1.08,2.19,1.89,1.29,2.86,1.2,2.91,4.07,1.73Zm5.82-11.36c.89-.47,1.62-1.55,2.92-.94.92.43,1.35,1.01.94,2.24h0c.12,1.46,1.67,3.01.45,4.82-.24.35-.19.99-.72,1.06-.9.13-.58-.68-.77-1.12-.66-1.6-2.55-2.36-2.87-4.26-.11-.65-.81-1.35.05-1.8Zm-86.55,2.71c-.94.01-1.68.48-1.69,1.52-.02,1.08.75,1.19,1.05,1.16,1.35-.11,2.47.14,2.37-1.16-.06-.89-.78-1.53-1.73-1.52Zm78.74-1.1c-.31-.47-.72-1.56-1.14-1.07-.52.61.04,1.9-.87,2.6,1.37,1.59,2.85-.16,4.31.14,1.15.25.75-.8.82-1.84h-.01c-1.19,1.03-2.18,1.55-3.11.17Zm-103.63-2.42c.39,0,.77.08.75.63-.47.72-.58,1.75-1.55,2.1-.38.13-.93-.22-.72-.54.48-.75.02-2.19,1.52-2.19Zm91.63-4.18c-.23-.6-.35-1.23-1.23-.94-.46.15-.87.34-.91.9-.07.78.6.77,1.06.99,1.28.62,2.07,1.44,1.51,3.04.63-.86,3.54-1.45.33-2.89-.35-.16-.6-.69-.76-1.1Zm-143.27-10.49c.73.05,1.07.77,1.46,1.24h0c.06,1.01-1.53.47-1.31,1.65.28,1.45.43,2.96,1.75,3.89,1.39.98,2.69-.07,3.46-.84.98-.99,1.27-.23,1.77.2.58.51,1.27,1.09.76,1.96-.4.67-1.02,1.22-1.93.8-1.42-.66-2.91-.67-4.4-.43-2.99.5-4.5-.94-2.94-3.34.98-1.51-.23-3.01.93-4.19.14-.14-.26-.99.45-.94Zm13.24-.2c.63,2.7.82,5.46,2.5,7.81.57.8-.94.87-1.6,1.01-.98.21-1.93-.18-1.53-1.28.48-1.31-.24-2.02-.78-2.91-1.11-1.82-.63-3.37,1.42-4.64h-.01Zm143.08,4.03c-1.73-.16-1.83,1.59-2.63,3.18,1.94-.53,3.98.71,4.76-1.22.44-1.1-1.3-1.87-2.13-1.96Zm-22.64-11.23c.11-.66.74-.94,1.37-.76h.01c.99.15,2.32-.3,1.52,1.59-.57,1.35.86,1.98,1.72,2.21,1.93.49,1.97,1.65,1.78,3.24-.18,1.53-1.69,1.54-2.38,2.43.13-1.15-1.45-.95-1.5-1.8-.09-1.24-1.06-1.8-1.81-2.23-2.37-1.33-.98-3.08-.71-4.68Zm-118.8-1.73c-.09-.6.6-.58,1.05-.48.87.19.63.92.66,1.2v.76c-.03.56-.51,1.03-.86.82-1.5-.87-2.79,1.76-4.22.17-.38-.42-.48-.95-.01-1.44.48-.53.95-.63,1.61-.24.86.51,2.09,1.64,1.77-.79Zm136.6-8.81c0-.95.94-1.51,1.83-1.27,1.66.44,2.36,2.08,3.4,3.24.4.44-.32,1.32-.95,1.62-.63.29-1.51.36-1.87-.37-.59-1.2-1.6-1-2.79-1.07.02-.85.37-1.43.38-2.15Zm2.03-69.15c.71-.38,1.5-.39,2.26-.1.61.24.86.83.56,1.33-.53.91-.13,1.77-.15,2.65-.1,3.63-1.63,6.61-4.1,9.34-1.87,2.06-4,4.03-4.58,7.15-.35,1.82-1.78,3.3-1.71,5.51.06,2.48.32,3.33,2.75,3.27.5,0,1.07-.37,1.49.23-.04,1.01-1.19.53-1.61,1.23.63.51,1.89.41,1.77,1.7-.12,1.13-.98,1.04-1.68,1.23-.75.2-1.21.71-1.41,1.42-.97,3.7-3,7.11-3.15,11.04-.05,1.17-.36,2.1-1.4,2.74-.25.15-.59.44-.61.67-.24,3.65-3.65,5.04-5.39,7.63-.22.34-.48.64-.93.49-.5-.17-.89-.65-.63-1.08,1.26-2.13-.29-5.64,3.36-6.66.63-.17,1-1.34,1.41-2.11.04-.08-.49-.57-.82-.72-.98-.47-1.38.3-1.82.95-1.01,1.46-2.34.55-3.37.22-1.26-.39-.36-1.46-.33-2.33.11-3.04,2.71-1.51,4.22-2.45h-.06c-.63-.95-1.35-1.22-2.25-1.2-.5.01-.98-.2-1.06-.71-.07-.53.39-.81.86-.95.52-.15,1.22-.16.94-.96-.21-.58-.74-.19-1.15-.23-1.46-.16-2.76-.61-2.87-2.47-.1-1.63.44-3.02,1.36-4.31.16-.24.36-.59.6-.64,2.74-.57,4.32-2.91,3.86-5.82-.05-.32-.68-.75-.05-.91,2.84-.71,3.52-3.49,5.22-5.29,1.47-1.56,3.04-2.96,4.9-4.03.32-.18.8-.48.82-.76.21-3.34,3.91-4.59,4.53-7.84.39-2.09.11-4.01.05-6-.01-.44-.37-.94.17-1.23Zm4.56,54.26c1.33-1.03,2.93-.67,3.9.87.24.36.58.65.98,1.09-2.02,1.19-3.35-.56-4.98-.61-.76-.03-.47-.9.1-1.35Zm4.88,1.96h0s0,0,0,0Zm-144.4-5.58c2.44-1.32,4.78-.72,7.26-.82-2.14,2.27-3.83,2.45-7.26.82Zm45.95-5.16c.03-.34.39-.42.69-.33h-.01c1.52.2,2.66,1.04,3.57,2.2.48.6.94,1.22,1.38,1.85.36.54,1.5.8,1.06,1.57-.53.92-1.35-.07-2.04-.15-1.15-.12-1.97-1.01-2.36-2.01-.41-1.05-.81-1.95-1.9-2.4-.21-.09-.4-.5-.39-.73Zm-993.14-31.24c-1.03,0-1.81.77-2.07,1.81l-2.59,27.71c0,.78,0,1.3.52,1.55.26.52.78.78,1.3.78h5.7c.52,0,1.04-.26,1.29-.78.52-.25.52-.77.52-1.55l-2.85-27.71c0-1.04-.78-1.81-1.81-1.81Zm1067.62,25.19c-.04,2.4.36,4.22,1.21,5.48.41-1.91,1.76-4-1.21-5.48Zm-109.75.7c.5-.21,1.2.27,1.04.88-.22.83-.85,1.42-1.8,1.42-.61-.33-1.79-.12-1.66-.97.18-1.14,1.56-.97,2.42-1.33Zm-5.46.06c.85,0,1.68.34,1.66,1.21-.03,1.18-1,.49-1.59.53-2.43.16-4.94.82-7.05-1.74h6.98Zm-10.43-7.64c.36-.72,1.24-1.17,1.73-.76,2.49,2.07,6.2,2.48,7.95,5.85h0c-1.98.44-3.27-.22-4.62-1.27-1.18-.9-2.55-1.65-4.08-2.05-.7-.18-1.46-.76-.98-1.77Zm31.34-4.15c-.84-.7-1.39.1-1.84.68-.45.58-.09,1.06.47,1.22,1.11.33,2.27.52,3.95.89-1.08-1.2-1.75-2.1-2.58-2.79Zm-7.35,2.05h-.02s.01-.01.02,0Zm8.42-119.67c.96-.86,2.71-1.59,4.3-.79.67.34,1.37.25,2.01.43.79.21,1.69.77,1.63,1.68-.04.77-.98.85-1.68.92-.85.09-1.84-.08-2.5.32-.89.55-2.15,1.28-1.83,2.6.4,1.7,2.62,3.05,3.97,2.4,2.14-1.04,4.54-1.12,6.7-2.29,1.21-.65,3.51-.03,4.93.75.95.52.49,2.21-.16,3.39-.58,1.05.82,1.52.74,2.79,1.36-1.7,2.34-2.66,3.99-.56.94,1.18,7.76-.24,8.85-1.47.26-.3.91-.54.43-1.1-.31-.36-.71-.15-1.05.03-1.83.96-3.44-.7-5.24-.46-.51.06-1.26-.58-.9-1.31.37-.72,1.17-1.05,1.96-.69,1.79.81,3.6.77,5.43.31,1.23-.31,2.3-1.29,2.34-2.33.08-1.84,1.09-1.8,2.3-1.71.86.06,1.42-.13,1.89-.97.48-.84.87-2.5,1.75-2.22,1.9.6,4.13-.26,5.74,1.32.66.63,1.14,1.54,2.3.75.35-.25.78.13.79.56,0,.49-.36.99-.77,1.04-1.94.25-3.83,1.47-5.86.55-.77-.35-1.55-.31-1.71.47-.18.81.25,1.61,1.24,1.9,1.64.45,3.28.96,4.93,1.41.55.15,1.16.28.88,1.03-.17.49-.52,1.02-1.22.72-1.35-.58-1.78.51-1.89,1.33-.17,1.24,1.05,1.04,1.82,1.24,1.84.47,3.65-.24,5.51-.15,1.99.1,4.14.73,5.89-.96.18-.18.7-.28.87-.15,2.16,1.59,3.81.29,5.17-1.13,1.06-1.1,3.32-1.15,3.14-3.43-.03-.34.62-.58.96-.44,1.97.83,4.14-.18,6.08.69,1.64.75,2.47-.45,3.27-1.41.92-1.09.07-1.78-.82-2.42-.31-.24-1.04-.6-.19-1.24,1.1-.82,2.06-1.91,3.63-1.23,2.09.91,2.45,4.65,1.57,7.09-.92,2.51-3.41,4.22-3.21,7.41.1,1.38-1.13,3.53-3.49,3.52-.71,0-1.22.45-1.49.93-.37.63.42.86.78,1.19.33.3.87.5.61,1.08-.19.41-.64.35-1.03.38h-.23c-2.55-.46-3.64.94-4.04,3.2-.13.65-.36,1.27-1.12,1.25-.78-.02-1.02-.75-1.09-1.32-.16-1.37-.76-2.23-2.17-2.23-.02-.63.26-.96.64-1.02,1.36-.24.96-1.22.82-1.99-.17-.97-.97-1.21-1.79-.98-1.39.39-2.12.31-3.06-1.24-.94-1.53-2.88-2.82-4.64-3.34-1.49-.44-2.84,1.15-4.06,2.33.81.37,1.37.07,1.85-.32,1.65-1.34,2.51-.21,3.31,1.03.48.76.42,1.4-.68,1.33-2.97-.18-5.83.64-8.98-.08-2.4-.54-2.6-1.47-2.65-3.12-.03-1.07-.49-1.22-1.39-1.35-1.61-.22-2.91.76-4.39,1.04-.92.18-.67,1.41-.52,2.26.18,1.02.75.71,1.52.66,2.1-.12,3.96.46,5.61,2.06,1.14,1.1,2.86,1.65,4.4,2.24.58.22,1.3.22,1.53.83.35.91,1.48,1.65,1.09,2.65-.47,1.26-1.76.64-2.68.6-1.11-.05-2.2.81-3.33.06-.1-.08-.65.22-.71.42-.17.67.39.97.89,1.15,1.53.59,3.01,1.26,4.04,2.6.34.44,1.1.8.64,1.56-.34.55-.94.44-1.48.42-.38,0-.79-.04-1.16.07-.92.28-2.35-.68-2.73.92-.37,1.51,1.36,1.43,1.99,2.22.39.51,1.24.62,1.74,1.07.65.57,1.26,1.49.84,2.24-.55.97-1.11-.4-1.72-.35-1.87.17-3.55-1.23-5.63-.2-1.75.88-2.21,1.97-1.54,3.46,1.53,3.41,1.23,7.4,3.58,10.54.59.79.19,1.79-.21,2.68-.22.51-.42,1.09.23,1.41.61.3,1.06-.15,1.36-.6.61-.9,1.39-1.61,2.13-2.4,1.27-1.34,1.87-.46,2.04.57.24,1.51.97,1.68,2.25,1.54,1.36-.15,2.16-.61,2.08-2.13-.1-1.89.68-2.84,2.66-2.34.37-.62,1.05-.78,1.62-1.13,1.1-.68,1.38-1.52,1.2-3.02-.14-1.23-1.2-2.99.44-4.18.12-.08.38-.2.37-.22-1.38-3.18,1.67-6.65-.68-9.81-.38-.52-.54-1.34-1.16-1.64-3.34-1.6-2.48-5.33-4.02-7.85-.56-.93.47-1.41,1.06-1.02,1.7,1.14,4.07,1.11,5.31,3.05.2.32.52.74.83.78,3.47.43,4.95,3.38,6.58,5.71,1.31,1.86,3.52,2.41,4.64,4.36,1.22,2.1,2.78,4,4.19,5.99.23.31.35.76.64.93,2.73,1.56,2.02,4.22,2.19,6.62.14,1.94.78,3.88-.51,5.72-.23.33.35.81.74,1.07.48.33.92.76.75,1.33-.73,2.56-.19,5.34-1.38,7.8-.08.18-.31.38-.49.4-.17.03-.52-.16-.53-.27-.08-1.77-1.26-3.6-.44-5.25,1.25-2.55-.13-4.39-1.29-6.23-.95-1.52-1.38-2.95-1.25-4.74.26-3.81.45-7.76-3.35-10.19-2.13-1.36-3.33-4.11-6.33-4.15-.73-.01-.53-.78-.75-1.24-.59-1.21-1.43-1.76-2.71-.71-.9.74-.71,1.27.19,1.75,1.82.96,3.02,3.73,2.47,5.69-.11.4-.27.68-.64.9-2.65,1.52-2.67,2.48-1.82,5.62.63,2.33,1.19,4.57,2.42,6.69.47.8,1.02,2.19-.32,3.14-.22.16-.33.78-.21,1.09.88,2.3-.74,3.26-2.3,4.08-2.42,1.27-3.16,3.12-1.97,5.7-1.43.44-2.45-.66-3.67-.93-.68.5-.31,1.12-.2,1.68.18.84-.2,1.38-.65,2.08-.55.85-1.95-.47-1.75.64.27,1.47-.12,3.13.8,4.41.79,1.09.24,2.78,1.83,3.52.38.18.21,1.16-.43,1.79-1.28,1.24-2.67,2.34-3.54,4.03-1.44,2.8-4.48,1.66-6.81,2.28-.51.13-.7-.35-.5-.75.7-1.39-.75-2.58-.35-3.97.07-.25-.45-.84-.82-1.02-.57-.27-.71.38-.99.71-.74.91-.75,2-.85,3.08-.04.44,0,1-.62,1.1-.55.08-.79-.35-1.02-.79-.21-.41-.5-.78-.71-1.19-.37-.73-.96-.95-1.73-.85-.45.06-.76.29-.71.74.1.67.07,1.44.71,1.89.81.59,2.56.46,2.23,1.88-.32,1.32-1.68,2.54-2.92,2.8-2.16.46-2.61,2.31-3.64,3.62-.98,1.26-.05,2.79,1.63,2.83,1.42.04,2.77.8,4.31.14,1.01-.43,1.6.77,2.22,1.39,2.13,2.12,2.25,4.96.32,7.22-.43.5-.65.95-.73,1.61-.08.77.5,2.1-1.38,1.72-.61-.13-.16,1-.42,1.75,1.33-.32,2.4-.95,3.76-.15,1.24.74,2.89-.98,2.41-2.92-.8-3.25,1.4-5.84,1.58-8.9.1-1.68,2.61-3.16,4.64-3.71.97-.26,1.42-.84,1.52-1.46.22-1.29-.29-2.76,1.41-3.49.35-.14.09-.7-.21-.99-.49-.5-.78-.03-1.16.21-2.52,1.58-5.38,1.63-8.45,2.05.77-1.94,2.39-3.03,3.58-3.05,2.59-.05,4.18-1.46,5.93-2.9.51-.42,1.25-1.44,1.93-.52.47.65-.55,1.14-.95,1.67-.4.51-1.28.84-.78,1.7.36.63,1.02.69,1.64.47,1.17-.4,1.38.57,1.59,1.22.38,1.13,1.22,1.69,2.22,1.62.83-.06.89-1.08,1.14-1.79.58-1.6,1.72-2.05,3.31-1.49,1.87.67,3.43,2.07,5.46,2.38,1.11.17,1.35.76.49,1.54-1.36,1.23-1.81,2.92-2.6,4.48-.86,1.69-3.4,1.56-4.56,3.1-1.28,1.72-2.64.95-4.05.34-.46-.19-.93-.47-.48-.99.64-.73.29-1.16-.2-1.76-.5-.62-.38-1.55.37-1.75,1.5-.39,1.24-1.47,1.01-2.35-.16-.65-1.15-.75-1.6-.4-.81.63-1.63,1.81-1.22,2.65,1.08,2.18-.39,3.94-1.06,5.5-.67,1.57-1.11,2.95-1.24,4.63-.16,2.13-1.26,4.03-2.26,5.91-.04.07-.14.1-.16.17-1.56,3.63-4.56,4.88-8.25,5.33-1.43.18-2.69,2.05-4.2,1.3-1.36-.68-2.75-.98-4.02-.66-3.06.76-5.42-.08-8.03-1.76-1.65-1.05-4.02-1.25-6.04-1.93-.96-.33-1.5-.63-1.41-1.72.16-1.77-.18-3.52.2-5.32.21-1-.06-2.19-.38-3.32-.55-1.9-.58-3.94-.43-5.95.03-.5-.4-1.15.33-1.38.69-.21,1.2.28,1.47.87.75,1.6,1.32,3.29,2.18,4.81,1.25,2.19,2.36,4.41,3.17,6.81.41,1.2,3.51,1.48,4.6.65.53-.41.55-.87.24-1.41-.74-1.26-1.47-2.48-2.8-3.29-2.52-1.53-3.19-3.71-2.16-6.22.26-.66.54-1.13,1.28-1.09,1.17.07,2.14-.13,2.59-1.42.52-1.48.17-2.73-.93-3.77-.42-.39-1.34-.54-.74-1.33.44-.57,1.08-.18,1.69.05,2.01.78,2.98.23,3.43-1.84.09-.43.37-.64.72-.84.59-.33,1.15-.82.54-1.44-.51-.51-1.43-.59-1.78.19-.91,2-2,1.79-3.39.55-1.11-.98-2.03.17-2.63.64-.94.73-1.41.54-2.15-.1-1.75-1.48-4.64-1.72-4.83-4.81-1.06.36-.86,1.11-.68,1.55.43,1.11-.09,1.56-.99,1.39-.93-.18-1.07.3-1.29.9-.27.72.27.73.71.84.74.19.84,1.09.45,1.18-2.19.52-.55,2.94-1.98,3.72-.37.2-.54-.4-.68-.39-2.68.22-1.74-1.25-1.58-2.79.14-1.36.63-3.51-2.12-3.5-.75,0-1.28-.86-1.58-1.56-.2-.46-.36-1.09.11-1.53.58-.54.94,0,1.37.32.4.29.87.27,1.54-.05-1.37-1.11-2.16-2.41-1.89-4.22.15-.99-.79-1.09-1.48-.93-3.49.85-5.63-1.73-8.18-3.21-.76-.45-1.25-1.02-2.33-1.02-2.37,0-4.74-2.4-4.95-4.8-.09-1.13-1.41-1.44-1.46-2.54-.08-1.55-1.44-2.9-.42-4.65.6-1.02-.99-1.59-1.13-2.64-.25-1.9.73-3.5,1.13-5.24.21-.89.98-1.97-.7-2.31-.11-.02-.29-.28-.27-.34.9-1.93-.91-4.06.04-5.72,1.47-2.55,1.81-5.74,4.32-7.71.28-.22.57-.67.55-.99-.17-3.07,1.83-3.72,4.78-3.83-2.38-1.49-1-2.57.03-3.18,2.7-1.57,4.7-3.95,7.56-5.49,2.85-1.55,5.13-2.2,8.1-1.52.88.21,3.05-2.32,2.89-3.22-.1-.51-.55-1.03-.93-.87-2,.86-3.82-.87-5.84-.3-1,.28-2.15.32-3.18-.24-2.43-1.35-4.79.21-7.18.26-.63.01-1.05.69-1.22,1.29-.22.82.65.68,1.03.99,1.07.89,1.82,1.9-.16,2.36-1.05.24-.97,2.67-2.34,1.33-.91-.91-2.17-2.24-1.1-3.95.07-.11.07-.29.02-.41-.3-.74-1.48-1.22-.84-2.21.86-1.32.93.92,1.75.46.69-.39,1.44-.74,1.68-1.51.26-.85-.44-1.38-1.11-1.51-5.11-1-5.5-5.43-5.96-9.13-.29-2.29.55-5.27,2.53-7.05Zm-28.22,104.16c.59.05.71.68.58,1.06-.78,2.38.86,4.23,1.29,6.33.17.82.65,1.26,1.46,1.14.9-.14.65-.88.62-1.47-.04-.8-.11-1.61-.17-2.51,3.39,1.99,4.07,3.32,2.8,5.39.34,0,.66-.05.95,0,1.48.33,2.93,1.12,2.56,2.7-.38,1.64-2.21.88-3.17.62-3.24-.89-5.68-2.5-7.17-6.03-1-2.38-.56-4.3-.44-6.46.03-.44.27-.81.69-.77Zm135.48,11.05c.49-.07.96.18.83.55-.28.78-.81,1.52-1.72,1.64-.68.1-.56-.58-.61-.99-.17-1.25.98-.87,1.5-1.2Zm-102.31-14.47c-1.09-1.71.64-1.91,1.23-1.61,1.35.68,3.33.86,3.71,2.68.66,3.18,3.58,4.02,5.67,5.63,1.82,1.42,3.35,3.36,5.78,3.97.47.12.74.86.17,1.35-.76.65-2.12,1.01-2.52.36-1.05-1.71-2.8-1.3-4.16-1.94-2.73-1.3-5.4-2.85-7.11-5.53-.45-.72-.94-1.37-1.76-1.78-.79-.39-1.38-1.03-1-2.07h-.01c.25-.35.23-.7,0-1.06Zm92.61-28.41c.69-.54,1.28-.51,1.83.09.73.82,1.8.05,2.75.71-1.21,1.24-1.93,2.8-4.23,2.83,1.61,1.36,1.75,2.23.45,3.64-1.41,1.54-1,3.94-1.59,5.92-.31,1.07-.62,2.12-1.35,2.9-2.2,2.34-3.6,5.27-5.81,7.66-.93,1-2.05,1.97-3.02,2.55-3.24,1.98-5.05,5.33-7.95,7.58-.56.44-.83,1.29-1.18,1.97-.2.4-.17,1.06-.71,1.1-2.55.19-4.12,2.27-6.28,3.19-.72.31-.81-.09-.92-.54-.19-.73-.03-1.7.44-1.94,2.22-1.14,3.17-3.83,5.74-4.5,1.26-.33,1.73-1.39,2.07-2.59.2-.7.22-1.91,1.09-1.87,3,.15,4.36-2.18,5.7-3.99,1.48-2.02,3.67-3.37,4.73-5.9.81-1.92,3.01-3.25,4.5-4.92,1.09-1.2,1.92-2.44,1.32-4.34-.23-.73-.79-2.44,1.16-2.62.44-.04.81-.63.7-.8-.89-1.42.58-2.75.1-4.08-.3-.84-.31-1.45.46-2.05Zm-124.54,11.43c3.16,1.6,3.44,4.15,3.69,7.04.12,1.41,1.97,2.72,3.14,3.97.9.95,1.63,2.01,2.38,3.07,1.25,1.76-1.33,3.57.11,5.31-.24.16-.55.52-.71.45-.32-.12-.65-.41-.81-.72-1.42-2.88-3.57-5.26-5.35-7.89-2.24-3.29-2.76-7.18-2.45-11.22h0Zm14.09,17.07c.54-.55.07-1.98,1.18-1.82.36.05.61,1.66.7,2.58.04.38-.15,1.18-.9,1.07-1.07-.15-.86-1.08-.97-1.84h-.01Zm15.75-11.93c1.41,0,3.22,3.37,2.8,4.67-.49,1.51-.85,3.03-1.78,4.37-.74,1.08-1.51,1.16-2.03-.07-.81-1.89-1.54-3.84-2.1-5.82-.38-1.28,1.6-3.16,3.1-3.15h.01Zm68.73-.84c.18-.53.62-1.1,1.17-.92,1.27.42,2.8.28,3.78,1.42.38.44.2,1.06-.06,1.54-.56.99-1.39.09-2.03.23-1.63.79-2-.63-2.68-1.46-.15-.19-.26-.58-.18-.81Zm-86.93-15c.11-.57-.03-1.48.93-1.14.69.23.77,1.21.4,1.59-1.26,1.29-.85,2.16.29,3.22.5.46.76,1.38.17,2.14-.14.18-.34.42-.31.6.22,1.45,1.11,3.37-1.84,2.26-.28-.1-.61.26-.53.59.11.44.31.97.85,1,1.57.07,1.64,1,1.45,2.23-.14.93-.06,1.88.7,2.59.75.71.31,1.23-.26,1.72-.62.53-.98.52-1.69-.14-1.37-1.25-2.36-2.57-2.54-4.45-.02-.23-.09-.56-.23-.63-3.45-1.53-2.64-5.16-3.87-7.77-.44-.94.49-1.57.4-2.48,1.08,1.22,2.78,1.23,3.8,2.41.4.47,1.47-.13,1.69-1.06.22-.89.41-1.79.59-2.68Zm-707.06-29.69c-.26,0-.78.26-1.04.52-.26.25-.26.77-.26,1.29v40.15c0,.51,0,1.03.26,1.29.26.52.78.78,1.04.78h.78c3.11,0,5.44-3.37,5.44-7.26v-29.78c0-3.88-2.33-6.99-5.44-6.99h-.78Zm471.21,0c-.26,0-.78.26-1.04.52-.26.25-.26.77-.26,1.29v40.15c0,.51,0,1.03.26,1.29.26.52.78.78,1.04.78h.78c3.11,0,5.44-3.37,5.44-7.26v-29.78c0-3.88-2.33-6.99-5.44-6.99h-.78Zm248.36,41.29c1.53.33,3.18-.79,4.7.41h.01c-1.37,1.41-2.84,2.03-4.71,1.09-.34-.18-.76-.26-.74-.74.02-.45.46-.82.74-.76Zm57.34-3.34c-.78-.51-.95-1.79-2.12-1.18-.67.35-.91,1.11-.33,1.72.99,1.07,1.53-.21,2.45-.54Zm39.75-12.87c.31-.08.79.03.74.3-.12.58-.32,1.26-.72,1.64-.91.88-1.47,1.78-.87,3.22h-.02c-.19,1.24-1.54,1.63-2.28,2.49-.05.05-.66-.2-.72-.41-.27-.84-.26-1.84.43-2.36,1.21-.92,1.59-2.2,1.84-3.53.17-1.02.84-1.18,1.6-1.35Zm-21.69-2.54c.34-.61,2.68.18,3.11,1.42.63,1.8,1.51,1.88,3.05,1.3,1.24-.46,1.48.35,1.23,1.29h-.01c.39,1.7-.92,2.44-1.68,3.47-.61.82-1.59,1.28-2.4,1.03-.82-.25-.9-1.47-.77-2.21.17-1.11.11-1.39-1.15-1.5-1.53-.13-1.84-1.91-2.64-2.95-.75-.98.87-1.16,1.26-1.85Zm29.58,7.23s-.01-.01-.02-.01h0s.02.01.02.01Zm-97.33-2.54c-.76-.08-1.15.44-1.24,1.09-.13.95.73,1.13,1.34,1.26.69.15,1.03-.48,1.26-1.07-.07-.85-.62-1.2-1.36-1.28Zm4.37-2.11c-.91.11-1.21.75-1.12,1.47.13,1.11.36,2.44,1.68,2.59,1.18.13,1.69-1.16,1.65-2.04-.05-1.16-1.2-1.64-2.21-2.01h0Zm-30.7.63c.4.18.56.2.66.3.6.68,1.18,1.38,1.94,2.27-1.06.07-1.73,1.28-2.75.45-1.23-.98.08-1.9.15-3.02Zm120.46-2.58c.5-.16,1.12-.07,1.19.7.15,1.6,1.44,2.11,2.7,2.61-.56,1.22-1.65.94-2.2.55-1.13-.81-2.02-1.96-3.61-1.96-.14,0-.47-.59-.4-.7.54-.79,1.49-.93,2.32-1.2Zm-120.46,2.58h-.01.01Zm89.09-3.28c.73.54,2.12.18,2.14,1.65.02.92-.49,1.6-1.32,1.51-.97-.11-2.1-.47-2.28-1.62-.14-.85.65-1.28,1.46-1.55h0Zm-66.46-12.29c-.71.65-1.62.99-2.17,1.91-1.3,2.16.52,5.32-2.26,6.98-.04.03,0,.37.04.37,1.65.32.81,1.76,1.19,2.64.52,1.24,1.49,2.31,2.54,2.76,1.12.48.5-1.35,1.26-1.76,1.02-.55,1.48-3.79,3.31-.66.36.61,1.15.41,1.58-.15.39-.52.87-.54,1.43-.57,2.29-.16,2.57-.77,1.86-3.01-.43-1.35-2.17-1.72-2.23-3.13-.06-1.42-1-1.52-1.96-1.67-.11-.81,1.06-.98.83-1.67-1.35-1.39-2.46.46-3.7.08-.08-1.1-1.97-.74-1.72-2.12Zm92.98,5.87c1.64-.77,1.88.07,2.16,1.13.38,1.42-.88,2.7-.54,4.16.02.1-.45.31-.68.46h-.01c-1.43-.17-1.27-1.59-1.94-2.32-1.8-1.96-1.45-2.29,1.01-3.43Zm-35.46-8.18c.02.84-.71,1.3-1.09,1.91-.94,1.54-.54,4.61-3.93,3.63-.5-.15-1.29.4-1.85.78-1.23.82-.9,2.15-.43,3.06.46.88,1.59.62,2.15-.14,1.42-1.95,3.77-2.47,5.55-3.86,1.12-.88,2.24-2.11,2.23-3.45,0-1.19-1.23-1.98-2.63-1.93Zm-55.81,4.51c.19.21.38.41.55.62.48.61,1.01,1.2.15,1.92-.34.29-.74.71-1.16.36-.7-.57-.5-1.37-.24-2.08.12-.32.46-.55.7-.82Zm91.79-.65c.92.02.84,1.26,1.38,1.85.25.28-.54,1.07-.95,1-1.15-.19-.58-1.13-.56-1.73h0c-.14-.48-.65-1.15.13-1.12Zm-79.79-2.39c-.12-.49-.74-1.15-1.45-.82-.77.36-.44,1.15-.23,1.64.62,1.42,1.58,2.63,2.64,3.76.6.65,1.21.52,2.09-.36h-.01c-.81-.14-1.63-.29-1.5-1.03.22-1.46-1.26-1.99-1.54-3.19Zm-11.97,3.01s-.02.02-.03.03c-.02,0-.04-.03-.05-.05h.01s.06.02.07.02Zm-.02-.05s.01.02.01.03l-.07-.03.02-.02s.03.01.04.02Zm66.68-12.16c.58-.54,1.07-.15,1.57.3,2.12,1.93,1.78,4.78,2.91,6.96h0c-.63,1.17-1.1,2.13-.28,3.2.25.33.02.76-.4.93-.45.17-.77-.07-.93-.45-.23-.57-.38-1.18-.58-1.77-.53-1.55-.68-3.25-2.35-4.25-.83-.51-.7-4.22.06-4.92Zm-49.24-17.83c-.87-.87-1.36-.19-1.49.45-.64,3.03-2.39,5.2-4.92,6.85-.21.14-.39.51-.4.78-.08,1.99-.18,3.98-.17,5.96.01,1.71,1.39,2.87,2.97,2.68.95-.11,2.14-.18,2.16,1.08.02,1.37.54,3-.85,4.09-.54.43-1.01-.07-1.44-.39-.85-.67-1.7-1.4-2.8-1.47-.71-.05-1.74-.35-2.1.41-.21.46.11,1.48.54,1.89,1.23,1.18,2.56,3.2,4.43,2.19,3.29-1.77,4.77-.57,5.98,2.44.35.87,1.86,1.7,2.5.21.94-2.22.91-4.76,2.37-6.89.9-1.32.72-3.32,1.34-4.57,1.15-2.31-.5-2.49-1.49-2.45-2.07.07-3.49-1.17-5.3-1.7v-.04c1.93-2.75,2-2.81,4.79-2.61.56.04,1.14.21,1.29-.53.13-.68-.08-1.23-.85-1.41-.85-.21-1.64-.22-2.49.16-.67.29-1.4.55-2.18-.06-1.42-1.14-1.41-2.66.19-3.73.87-.58,1.88-1.23,1.64-2.31-.29-1.24-1.59-.43-2.4-.71-.43-.15-1.05-.05-1.32-.32Zm-47,21.42c.97-.11,1.25.37,1.11,1.25-.25,1.44-1.15,2.09-2.54,2.21-.94.09-2.06-.34-2.52,1.02-.14.39-.66.46-.98.12-.16-.18-.21-.56-.15-.82.24-1.04,3.95-3.76,5.08-3.78Zm-11.35,1.47h-.01s.01-.01.01-.01h0Zm4.97-5.27c.67-.09,1.47-1.91,2.05-.08.43,1.33-.52,2.06-1.75,2.48-1.84.64-3.69,1.25-5.27,2.86.37-4.06.97-4.7,4.97-5.26Zm53.04,5.04h0s0-.01,0-.01h0Zm3.1-7.19c.2-.06.67.37.85.67.52.85-.29,1.24-.74,1.7-1.28,1.29-.79,3.64-3.21,4.81.63-2.12,1.57-3.71,1.67-5.54.04-.73.66-1.4,1.43-1.64Zm35.24,2.28c.72.39,1.73.74,1.62,1.68-.12,1.17-1.29,1.4-2.26,1.66-.87.24-1.07-.37-1.08-1.05-.02-1.17.72-1.81,1.71-2.29h.01Zm-101.24-4.68c1.63-1.27,2.84-3.47,5.33-2.72,1.47-.21,3.27-.37,3.37,1.19.12,1.85-1.98,1.71-3.21,1.69-1.63-.03-2.96.4-4.17,1.41-.74.61-1.49.9-2.2.02-.89-1.12.49-1.29.88-1.59Zm6.71-30.72c.02-.1.64-.22.86-.1,1.56.9,3.03,1.22,4.94.8.81-.18,1.43,1.6,1.18,3.01-.49,2.88-2.43,4.33-4.87,5.31-1.32.53-1.89.97-.82,2.42,1.31,1.79-1.03,3.09-.99,4.8.01.52-.54.99-.25,1.7.34.81-.19,1.09-.98,1.06-2.19-.08-4.33.03-6.33,1.16-.73.42-1.3-.39-1.7-.89-.47-.62-.25-1.42.27-1.92,1.14-1.11,2.38-2.16,4.03-2.42.83-.13,1.8,0,1.98-1.16.18-1.17-1.08-.55-1.45-1.11-.45-.67-1.51-1.01-1.21-2.06.18-.67.71-.99,1.64-.71.75.05,1.82.69,2.45-.62.59-1.24.3-2.24-.82-3.04-.67-.49-.67-1.22-.52-1.91.38-1.72,2.23-2.57,2.59-4.32Zm65.88,5.65c-.64-.22-1.21-.33-1.64.31-.44.64.1.86.49,1.27.91.95,1.29,1.98-.29,2.75-.85.4-.69,1.07-.35,2.01.89-1.02,1.97-1.37,3.23-1.33,1.22.03,1.88-.99,1.36-1.84-.72-1.16-1.28-2.63-2.8-3.17Zm-8.92.53c-1.61.11-2.68,1.08-3.46,2.5-.21.39-.65.74-.23,1.19.36.39.87.33,1.27.1.97-.58,2.07-.92,2.95-1.7.4-.37,1.62.39,1.47-.82-.12-.96-.98-1.27-2-1.27Zm3.13-10.68c.4-.8.81-1.82,2.03-1.33.79.32,1.5.83,2.52,1.42h0c-1.41.82-2.35,1.62-3.55,1.3-.52-.13-1.48-.44-1-1.39Zm14.07-14.77c.14-.42.79-.49,1.22-.19.37.24.95.62.52,1.06-.81.83-.17,2.41-1.87,2.9-1.06.31-.73,1.71-.22,2.62.43.78.44,1.6-.52,1.49-1.53-.19-3.54.79-4.39-1.49-2.57.96-1.33,3.44-.93,3.9,1.57,1.79-.35,1.94-.94,2.19-.92.38-2,1.3-3.45.07,2.76-.49,2.22-1.93,1.73-3.72-.38-1.42-1.14-.8-1.87-.93-.67-.12-1.78.16-1.66-1.07.08-.9.68-1.21,1.66-1.13,2.63.22,3.75-2.36,5.76-3.33.42-.21.8-.82,1.43-.77,1.47.1,2.92.31,3.53-1.6Z"/>
</svg>