<?xml version="1.0" encoding="UTF-8"?>
<svg id="Layer_1" data-name="Layer 1" xmlns="http://www.w3.org/2000/svg" viewBox="0 0 539.08 416.38">
  <path d="m40.2,180.51c6.51,1.3,6.34,3.41.88,6.36-25.53,13.85,17.22,9.12,31.71,5.31,32.6-8.57,81.25-16.43,89.2-28.52,13.74-21.07,85.11-36.02,135.13-52.7,43.73-14.62,79.9-31.3,139.25-43.23,11.64-2.34,17.71-7.64,3.27-8.57-19.41-1.26-53.09,1.2-62.46,6.44-24.61,13.72-68,17.25-101.08,25.71-66.16,16.99-130.73,35.29-170.66,56.99-10.69,5.82-22.13,11.35-42.05,16.59-19.02,5-33.23,10.8-22.94,15.63l-.24-.02Z"/>
  <path d="m27.86,160.77c-12.28,5.31-29.49,9.98-27.74,22.74,2.07,15.79,22.16,18.95,38.58,22.48,14.98,3.28,18.33-5.05,18.49-14.27.32-15.79-12.27-24.38-29.17-30.95h-.16Z"/>
  <path d="m399.28,26.89c-6.55,1.07-7.13-.97-3.06-5.65,19.04-21.94-19.32-2.49-31.55,6.16-27.51,19.47-70.31,43.92-73.5,58.03-5.47,24.56-67.04,63.61-108.02,96.79-35.81,29.04-63.82,57.36-115.2,89.37-10.08,6.28-13.9,13.37-.05,9.17,18.62-5.64,49.29-19.77,56.22-27.96,18.23-21.49,57.62-40.03,85.62-59.57,55.98-39.14,110.01-78.94,139.78-113.29,7.97-9.2,16.73-18.4,33.55-30.3,16.05-11.36,27.32-21.78,15.99-22.7l.23-.06Z"/>
  <path d="m417.77,41.04c9.63-9.28,24.11-19.7,17.99-31.03-7.48-14.06-27.4-9.96-44.02-7.5-15.18,2.19-15.39,11.17-12.3,19.86,5.25,14.9,20.06,18.52,38.18,18.73l.15-.06Z"/>
  <path d="m90.86,319.01c3.87-5.19,2.57-6.04-2.93-3.58-25.71,11.5,7.05-16.35,19.38-24.77,27.75-18.93,66.42-49.48,78.76-49.43,21.43.15,80.06-43.07,124.6-70.47,38.96-23.94,73.75-41.6,122.23-77.78,9.51-7.09,16.74-8.9,7.08,1.69-12.98,14.24-38.08,36.77-47.6,40.91-25,10.92-57.53,39.78-85.57,59.1-56.09,38.61-111.79,75.49-152.03,93.46-10.78,4.81-21.92,10.27-38.88,21.84-16.19,11.04-29.44,18.33-24.88,8.85l-.15.18Z"/>
  <path d="m454.8,107.16c9.63-9.28,24.11-19.7,17.99-31.03-7.49-14.06-27.4-9.96-44.02-7.5-15.18,2.19-15.39,11.17-12.3,19.86,5.25,14.9,20.05,18.52,38.18,18.73l.15-.06Z"/>
  <path d="m392.01,42.81c-1.38,6.32.16,6.56,4.14,2.05,18.65-21.11.35,17.8-7.4,30.57-17.43,28.72-39.99,72.53-51.24,77.59-19.57,8.73-55.06,72.33-84.27,115.71-25.57,37.92-49.93,68.39-79.09,121.38-5.72,10.39-11.56,15.02-7.15,1.39,5.92-18.33,19.46-49.23,26.41-56.95,18.24-20.28,35.92-60.02,53.44-89.21,35.09-58.36,70.54-114.98,99.74-147.99,7.82-8.84,15.7-18.42,26.36-35.97,10.17-16.75,19.21-28.87,18.99-18.35l.07-.23Z"/>
  <path d="m160.41,389.88c1.28,11.35,1.58,27.06,8.65,26.48,8.74-.63,13-18.3,17-32.66,3.68-13.11-.37-16.73-5.29-17.59-8.43-1.5-14.65,9.07-20.34,23.63l-.02.14Z"/>
  <path d="m106.54,362.74c5.3-4.34,4.18-5.55-2.09-4.43-29.35,5.25,11.42-14.99,26.24-20.49,33.34-12.36,80.86-33.85,93.53-30.65,21.97,5.63,93.23-23.78,145.98-40.55,46.14-14.63,86.38-23.89,145.42-48.66,11.58-4.86,19.47-4.86,6.84,3.55-16.97,11.31-48.51,28.04-59.35,29.86-28.46,4.83-69.26,26.16-102.99,38.84-67.48,25.32-134.11,48.97-180.04,57.15-12.3,2.18-25.14,4.95-45.51,12.5-19.45,7.21-34.92,11.31-27.82,2.73l-.2.14Z"/>
  <path d="m526.87,227.2c6.41-10.25,16.49-23.48,10.24-27.65-7.66-5.22-22.81,6.63-35.58,15.91-11.67,8.45-10.7,14.12-7.18,18.07,6,6.79,18.11,2.11,32.4-6.22l.11-.1Z"/>
  <path d="m68.49,169.97c6.81-.68,6.56-2.31.71-4.84-27.35-11.89,17.81-6.16,33.19-2.53,34.6,8.18,86.08,16.6,94.85,26.28,15.18,16.86,90.8,31.83,144.01,47.09,46.52,13.37,85.16,27.95,148.03,40.02,12.33,2.37,18.9,6.74,3.73,6.74-20.39.02-55.92-3.52-65.95-8.01-26.37-11.75-72.16-16.58-107.26-24.7-70.21-16.29-138.79-33.5-181.56-52.13-11.45-4.99-23.67-9.8-44.82-14.8-20.18-4.77-35.34-9.92-24.68-13.13h-.25Z"/>
  <path d="m493.54,289.91c11.02-4.99,26.74-10.42,23.84-17.35-3.49-8.59-22.67-7.12-38.44-6.46-14.4.57-16.73,5.83-15.98,11.07,1.24,8.98,13.91,11.79,30.43,12.76l.15-.03Z"/>
  <path d="m74.93,320.83c5.04-4.63,3.85-5.78-2.34-4.3-29,6.93,10.54-15.63,25.01-21.96,32.57-14.25,78.78-38.46,91.6-35.99,22.26,4.35,91.71-29.12,143.4-48.9,45.22-17.27,84.86-28.83,142.37-56.96,11.28-5.52,19.15-5.98,7.04,3.15-16.29,12.27-46.82,30.79-57.53,33.23-28.14,6.46-67.64,30.11-100.58,44.72-65.91,29.17-131.07,56.62-176.45,67.43-12.15,2.89-24.81,6.39-44.72,15.1-19,8.32-34.21,13.31-27.61,4.33l-.2.15Z"/>
  <path d="m486.75,161.27c5.81-10.61,15.11-24.39,8.63-28.19-7.95-4.77-22.4,7.93-34.6,17.94-11.16,9.11-9.87,14.71-6.12,18.45,6.38,6.43,18.2,1.06,31.99-8.08l.1-.11Z"/>
</svg>