<?xml version="1.0" encoding="UTF-8"?>
<svg id="Layer_1" data-name="Layer 1" xmlns="http://www.w3.org/2000/svg" viewBox="0 0 410.99 302.74">
  <path d="m155.88,127.23s.19-.19.38-.34c-.15.11-.27.23-.38.34Z"/>
  <path d="m148.36,116.1l.27-.08s-.19,0-.27.08Z"/>
  <path d="m160.48,133.55l-.12.08s.15.23.31.46l-.23-.54h.04Z"/>
  <path d="m128.77,95.78l.15.08s-.08-.12-.15-.08Z"/>
  <path d="m140.47,107.86s-.27.12-.38.12c.08.08.15.12.38-.12Z"/>
  <path d="m155.68,144.06l.38-.65c-.23.23-.38.5-.38.65Z"/>
  <path d="m163.09,147.48s.08-.08.12-.11c-.08,0-.08.08-.12.11Z"/>
  <path d="m163.16,143.28s-.23,0-.38.08c.08.04.15.15.38-.08Z"/>
  <path d="m162.59,143.41h.19s-.12-.08-.19,0Z"/>
  <path d="m35.01,53.72c-.23-.08-.54.46-.81.88l.81-.88Z"/>
  <path d="m107.91,81.18l.19-.23s-.15.15-.19.23Z"/>
  <path d="m33.79,59.97l-.15-.19s.08.15.15.19Z"/>
  <path d="m151.51,142.65c-.65.34-.38-.58-.84-.08.23.08.08.69.84.08Z"/>
  <path d="m33.79,59.96l.15.19v-.34c-.04.12-.12.15-.15.15Z"/>
  <path d="m84.98,67.71s.08-.04.12-.08l-.12.08Z"/>
  <path d="m84.25,66.02s.23-.04.38-.08c-.12-.15-.23-.08-.38.08Z"/>
  <path d="m34.21,54.6l-.46.5s.31-.27.46-.5Z"/>
  <path d="m141,108.89v.19c.12-.12.19-.23,0-.19Z"/>
  <path d="m122.25,117.15c0-.23-.54.04-.96.38.12.12.34.08.96-.38Z"/>
  <path d="m128,124.19l.04-.04-.04.04Z"/>
  <path d="m126.32,122.96s.08-.23.08-.35c-.08.12-.12.27-.08.35Z"/>
  <path d="m96.25,108.43c1.84.69,4.75.84,6.14,2.3,1.19-1,1.73-.69,2.42-.61l-1.04,1.65.77-.23c-.15.61-.54.08-.65.88l.84-.88c-.35.61.84,1.11-.69,1.8l1.65,1.11c.35.31,1.15-1.19,1.27-.5-.23.54-.38.23-.73.81.35,2.03,3.57-2.11,4.14-.61l-.23.15c.5-.31.81,0,1-.19,1-1.73-.81.73-.5-.46,1-1.34.96-.42,1.65-1.46-.08.69.61,0,.92.12-.23,1.11.77.92.31,2.19.5-.31,1.69-1.46,2.11-1.23-.46,1.27-.81.96-.69,1.65l.65-.73c.23.34,0,.54-.27.88.31.31,1.07-.84,1.15,0l-.81.58c.54-.04.58.19.96.57-.35.42-.5.27-.54.04-.61,1.34.77-.19.81.04.23-.38,0-.77.73-1.42.12.31,1.27-.69.73.34l-.81.57c.92-.27.96-.77,1.27-.08-.08,0-.19.23-.35.38,1.07-.73.84.5,1.27.92l-.27.15c.38-.12,1.04-.73,1.11-.58.04-.65.31-.81.84-1.57-.58,1.53,1.69-1.03,1.73.19-.35.42-.88.84-.73.27-1.19,1.15-2.07,2.22-2.91,2.57.46-.12.88-.12.38.38l1-1.15s.23.23.31.31c.65-.73.65-1.46,1.38-1.73.65-.11-.77,1.38-.27.88.88-.12,1.19-1.15,1.38-.34-.12.08-.38.19-.35.04,0,.77,1,.46,0,1.99-.31.27-.65.69-.69.5l.19-.23c-1.19.77.54,0-.61,1.19.58-.81.92-.23,1.04.08l.61-.92c2.8-2.07-1.42,1.72-.42,1.96.92-.23,0-.38.77-.77.19.38-.31,1.26.42,1.23-.15.46-.27,1.11-1.04,2.11.58-.19.46,1.07,1.38.27.19-1.19-1.27.65-.81-1.03l.92-.84c.35.34,1.19.23,1.19.81.12-.23.27-.5.46-.65.81.08,1.76-.77,2.03-.04-.65.92-.81.54-1.11.42-.23.96.31.34.58,1.03-.58.77-.31-.34-.96.34l.77.23s-.08.11-.12.15c1.11-1.19.35.46,1,.38.81.69,2.34-.92,3.64-1.53-.15.46-.38.81-.69,1.07.27-.73-.08-.27-.42,0,.38.12-.42,1.73-1,2.11.73,0,.38-.81,1-.96l.54.58c.46-.69.38-1.03,1.11-1.27.42.04.42.27.73.61-.31.27-.73,1.07-.92.8,0,.38.19.61.81.08.12-.88,1.07,0,1.65-1.26l-.12.92s-.46.34-.46.08c-.73,1.07.54,0,.73,0,0,.31.23.69-.04,1.07.35-.15.46.31.08.84.35,0,.54-.61.88-.88l.54.61c-.42.57-1.65,2.07-1.92,2.22.65-.31,1.42-1.5,1.73-1.15-1.07.84-.23,1.19-1.57,2.15-.46.92.12,1.38.65,1.38.88-.65.08-.73.84-1.57,1.11.46,3.18-1.8,3.45-.84v-.38c.84-.12.73-.08,1.57-.58-1,.92-1.99,3.14-1.19,3.53.5-.46.54-1.3,1.34-2.03l.58.23s-.23.23-.42.31c.69,0-.5,1.96.69.88l-.96,1.84.42-.77c.5-.46,1.07-.23,1.34-.34.96-.15.69.42.35,1.27.31-.5,1-1.61,1.46-1.46-1.5,1.65.15,1.27-.65,2.11.15.12-.08.84.58.19l-.96,1c1.34-1.38,1.8-.88,2.42-.77-1.88,1.84.58.23-.92,2.15,1.3-1.23,1.15.12,2.26-.92.35.23-.81,1.38-1.15,1.88l.58-.34c-.42.73,0,1.34-.04,2.07l1.38-.84-.38.61c.31-.23.73-.19,1-.73l.12.23c1.19-1.23.58-.12,1.38-.34-.12.27-.42.54-.65.65.15.15-.54.73-.84,1.23.19-.42,2.72-1.65,2.84-2.65.46-.54,1.07-.65,1-.27l-1,1.19,1.34-1c.42.08-.19.88-.08,1.23-.27-.12-2.53,1.69-1.99,2.19-.42-.12-1.15.34-1.53.46.08.15,0,.31-.61.61.73.04.81-.54,1.34-.31-1,.96-1.19,1.38-1.19,2.07l.46-1s.23-.19.31-.23c0-.19.12-.38.5-.81.08.08,1.65-.77,1.15-.08,1.11-1.96,1.88-.5,2.53-1.65.35-.23.65,0,.23.5-1.07.42-.84,1.38-1.61,1.99.42-.15.46-1,1-1.19.27.15-.19.88-.38,1.3l-.27.11-.12.77c.54-.42.54-1.15,1.07-1.11-.12.27.42.31,0,.69-.81.54-1.61,1.53-1.99,1.46.27.11,1.04.65,1.69-.5l.19.27c.27-.57.58-1.72,1.19-1.38l-.19.19,1.07-.38-.35.65c.23-.27.54-.42.65-.27-.27.31-.27.58-.65.96.42.31.88-.19,1.23-.46.27.15.15.42-.54.88.15.42.77.77.42,1.46.81-.04.12-.27,1.04-.73-1.42,2.03.54,1.92,1.34,2.34,1.38-1.65.35,0,1.84-1.23-.61.34-.61,1.72-1.57,1.57l.46.19c-.61,1.04-1.15.04-1.99,1.5.38.31,2.3-1.03,2.15-.04-1.23.88.69,0-.61,1.03-.46.27-.46.04-.69,0l-.15.27c.46,1.11,1.5-1,2.65-1.27.61.38-.5,1.19-.96,1.73-.15.27.27.38.69.23-.96.31.15-1.19.96-1.72-1.04,1.38.61.84,1.23.5.65-1.96-.42-.54.38-2.57-.5.27-1.57,1.34-1.5.5.81-.27.61-.61.73-.84-.58.69-.54,0-.92.12.42-.61,1.73-1.15,1.57-1.8l-1.57,1.34c.08-.38,1.15-1,.5-1,.96-.58,1.15-1.23,1.84-1,.77-1.76-1.5-.19-2.45-.11.15-.04.35-.23.46-.27-.46.27-.61.12-.81.04.08-.61.88-.42,1.23-.88l-.46-.42s.08-.08.08-.12c-.31.08-.58.08-.23-.31.61-.34,1.15-.77,1.65-1.04l-1.5.5c.54-.42.46-1.23,1.15-1.23l-.88-.54.96-1.04c-.35,0-.54.19-.46.5,0-.46-2.8.65-.73-1.15-1.38.27-1.23-.27-2.42-.42,1.42-.38.58-1.76,1.53-1.61.12-.77-1.04.27-1.46.15.19-.65,1.27-1.53,1.88-1.65l-.77.15.19-.19-.81.31c.27-.81.92-1.04.77-1.5l-.92.81.31-.69c-.31.46-.65.5-.96.34l.19-.19-.42-.08c.77-.27-.04-.42.69-.92-.15-.27-.19-.27-.73-.5l-.54.69c-1.04,0,.84-.92.5-1.38l-.65.73c.54-1.77-1.69-.31-1.38-1.5.42.08,1.15-.81.92-.61-.65-.11-1.07-.92-2.3-.46.84-1.15,1.07-1.5,1.11-2.34-.35-.23-.5-.15-1.15.34.08-.69-1-.61-.31-1.38-.61.54-.15-.38-.77,0l.27-.34-.65.73c.96-2.11-1.73.08-.96-1.8l.27-.12-.5.08c.27-.34.54-.46.92-.84l-.92-1.07-.31.73c-.27-.11-1.07.42-.92-.23,1.38-.69-.31-.34.38-1.27l.5-.08c-.26-.15-.59.03-1,.54-.61-.12,1-1.61-.08-1.19l.23.27c-.31.5-1.04.92-1.19.73.08-.15.23-.58.46-.54-.58,0-.69-.81-1.07-.65,0-.38.54-.84.81-.96-1.23,0-.19-.42-1.42-.38l.38-.42-.65.27.46-1.19-.35.65c-.31-.12-.69.04-.73-.42l.65-.54c-.92-.23.19-1.69-1.19-1.34.08-.15.31-.27.46-.31-1.42.5.54-1.46-1.07-.77.23-.19.38-.5.54-.65l-.61.19.73-.81-1.27,1.03.58-1-.46.31c1.11-1.84-.31-.96.35-2.53l-.84,1.11c-2.8,1.38-1.11-3.11-3.14-3.07l.73-.84-1.3.61c.31-.88.77-.61,1.04-1.11-.92.04-1.27,1.07-2.07.8.15-.84.61-.54,1.04-.73-.92-.04-2.11-.27-2.15-1.07-.12.12-.27.23-.27.31-.69.08-.88-.73-1.34-1,.34-.38.5-.38.65-.34-.12-.19-.08-.61-.54-.31l.77-.61c-.19-.42-1.38-.23-.73-1.15-.23.38-.77,1-1,.73.92-1.46-1.19-.04-1.07-1.11.31-.27.69-.08.61-.15.04-.54-.65-.08-1.15.19l.5-.5-1.61-.08c.88-1.46-1.15-.58-.31-1.5-.35-.34-.15.84-.73.61.31-.65-.65-.08.08-.92l.12-.08-.38-.19.88-.69c-.42-.04-1.3.65-1.8,1.3.12-.69-.58-.61-.12-1.46l.27-.11c-1.04-.23.54-3.34-1.19-2.34.04-.15.23-.38.31-.31l-.42-.42.61-.58-1.53.42.35-.42c-.38-.57-1.38-.96-2.15-1.34l.27-.15c-1.23.15-.38-.96-1.3-.88.12-.11.15-.15.19-.15l-.5-.34.42-.34c-1.07.69-.12-1.99-.5-1.04-.5.27-1.23.54-1.69,1.04-.58-.34.27-.69.23-1.3-.35-.34-1,.38-1.23-.38l.35-.46c-.31-.11-.69.12-1.07-.08l.27-.15c-1.23.54.23-1.84-1.61-.15,0-.54-.61-.57.04-1.46-1.11.08-1.84,0-2.8-.12.92-1.57-.23,0-.04-1.15l-.54.81c-1.07-.57-.84-3.34-2.19-3.76l.5-.84-.81.73c-.92-1.19-2.26-2.53-3.22-3.14-.61.23-1.73.92-2.03.27l.12-.08c-1.19-.08-2.3-.34-2.95-1.42.27-.31.35-.61.58-.77-.81.77-.58-.31-.77-.46l-.15.77c-.77.61-.69-.38-.46-1.07l-1,.61s.08-.27.15-.38l-.35.38.46-1.23c-.23.15-1,.08-1.8,1.03.19-.38-.04-.92.38-.92l-1.38-1.3v.54c-.46.84-1.27,1.07-1.27.58.73-.46.77-1.15,1-1.88-.5.31-.27.84-.65,1.23-.61.38-1.34.35-1.27-.11l.35-.23c-.54.08.15-1.46-.23-1.61-.73.46-.61-.31-1.38,1.19-.65,0,.38-1.08.35-1.3-.65.57-1.04-.27-.69-1.07-1.5,1.96-.84-1.5-1.99.23l.19-1.23c-.31.46-1,1.5-1.42,1.5,0-.69.58-1.5.77-2.03l-1.23,1.65c-.61-2.91-3.6-2.95-4.64-5.56-1.07-.08-2.61.15-3.45-.65l.23-.15-.73-1.03.27,1.23c-.35.08-.69.34-.88.19-.69-1.34-1.69-3.03-3.53-2.8-1.96,1.65.38-2.19-1.27-1.07.15-.15.35-.46.54-.61-1.27.23-1.96.34-3.49,1.11,1.15-2.03-.61-.23,0-1.3l-.5.81c.08-.61-.35-1.03.04-1.61l-.92.88.38-.88c-.5-.35-1.99-.19-1.42-2.11-1.99.69-3.87-.77-5.41-1.88-.58.61-1.11.42-1.53.34l.08-1.27c-.54.15-1.57,1.3-1.65.42.08-.11.12-.19.15-.27-.5,0-.65-.69-1.46.12-.42-.27-.61-1,0-1.96-.84,1.76-.84-.69-.84-.69,0,0-5.29-3.72-12.5-6.06-7.13-2.38-16.26-2.84-20.21,1.99-.35.92-1.04,1.46-.96,2.61-.5.31-.46-1.42-.69-.46.5.73-.5,2.41-.08,3.68l-.38.19c-.15.65.61-.69.35.54l.34-1.76c.27.31.38.69.38,1.3.38-.65.92-3.03,1.46-1.88l-.19.08c.58,0,.15,1.19.23,1.5h-.12l.31.92c-.23-.65-1.04.69-.73.65.54.57-.08-.46.42-.61.31-.04.08.88,0,1.42h.54c-.15.84-.35-.08-.27.81l.81-.77c-.27,2.11.88-.88.84,1.15-.58.42-.08.69-.31,1.34l1.15.12c.04.31-.42.57-.23.5.08.61.46-.42.58-.38,0,.57.84.15.5,1.5.54,1.07.69-1.65,1.23-.73-.12.84-.61.08-.5,1l.81-.12c-.15.38-.46,1.3-.69,1.07,1.69,1.53,1.5,6.14,3.45,5.52-.04,1.03-.35.61-.69,1.19,1.57-.96,1.04,2.61,2.03,2.8l.27-.81c.58,2.88,2.72,1.99,3.91,3.6v-.61c.5-.69.88-.61,1.27-.88-.12.42-.81,1.61-.23,1.46,0-.31-.08-.69.12-1.03.58,2.53,3.57,3.14,5.37,5.06,3.22.69,5.79,3.68,8.93,4.68-.46-.15.61-1.92.73-1.3-.61,3.57,1.88.27,1.76,2.88,2.22-.19,2.34,3.3,5.14,1.76l-.42.88c0,.54.42-.04.69,0l-.12.23c.42.61,1.57.11,1.69.69l.54-.96c.38.11-.23.84.42.46l-.27.5.92-.73c-.96,1.69.92.65.77,1.57.61-.08,1.84-.34,2.34.38-.35.96.46,1.38.77,2.11,1.15.34,2.76.84,3.87,1.92l.61-1.11.38.12c-.15.23-.15.38-.27.46-.46,1.38,1,.08.81,1,.38-1.07-.15-.31-.31-.42,0-.69.88-1.57.96-.81l-.15.23.58-.42c-.46.88-.46,1.38-.92,2.26,1.23.42,2.84-.58,3.72.5-.69.88.96.23-.23,1.73,1.04-.19.69-1.38,1.69-2.34.15.15.65-.19.31.42-.31.34-.46,1.07-.69,1.15l.54.15s-.27.31-.38.38c1.5-.38.96,2.07,2.38,1.61.42-.54-.23-.38.19-.92,1.57-.69.08,1.5,1.38,1.15l-.65.69c.58-.38,1.15-1.03,1.15-.12-.54,1-.84.58-1.3.88.27.23,1.11.38,1.46-.58.54-.11.12.81.15,1.19.15-.23.08-.84.58-1.15.12.84.84,1.27,1.34,1.69-.15.23-.35.61-.46.69,1.23-.92-.15,1.15.61,1.27h-.42Z"/>
  <path d="m128.08,124.49l-.12-.31c-.15.19-.35.42-.61.54l.73-.23Z"/>
  <path d="m118.45,116.07s-.15.12-.27.19c.08,0,.19-.08.27-.19Z"/>
  <path d="m114.81,115.8c.31-.08.35-.42.42-.73-.15.19-.31.38-.42.73Z"/>
  <path d="m135.55,126.89s-.23.15-.38.34c.19-.12.27-.23.38-.34Z"/>
  <path d="m149.9,141.07s0-.08.08-.19c-.04.08-.08.11-.08.19Z"/>
  <path d="m150.32,139.03s-.12-.08-.27-.04c0,.12.15.12.27.04Z"/>
  <path d="m131.57,124.08s-.19,0-.38.15c.12.04.23,0,.38-.15Z"/>
  <path d="m149.7,139l-.12-.27s-.08.08-.15.15l.27.12Z"/>
  <path d="m150.05,141.41s-.15-.19-.15-.34c-.12.31,0,.38.15.34Z"/>
  <path d="m142.07,130.72h-.04c-.5.19-.23.15.04,0Z"/>
  <path d="m147.48,139.53v-.04l-.27.15.27-.11Z"/>
  <path d="m150.63,142.56s-.12,0-.23.04v.19c.08-.11.15-.19.23-.27v.04Z"/>
  <path d="m144.07,134.82c.35-.27.54-.42.69-.57-.08-.04-.27.04-.69.57Z"/>
  <path d="m311.98,217.91s.19-.19.34-.35c-.15.12-.27.23-.34.35Z"/>
  <path d="m302.55,205.41l.31-.08s-.19,0-.31.08Z"/>
  <path d="m317.69,225.16l-.12.08s.19.27.38.5l-.31-.58h.04Z"/>
  <path d="m279.04,182.62l.15.12s-.08-.15-.15-.12Z"/>
  <path d="m292.97,196.18s-.31.12-.42.12c.08.12.19.12.42-.12Z"/>
  <path d="m313.4,236.17l.34-.69c-.23.23-.38.5-.34.69Z"/>
  <path d="m321.65,240.61s.08-.08.12-.12c-.08,0-.08.08-.12.12Z"/>
  <path d="m321.42,236.05h-.42c.08.08.19.15.42,0Z"/>
  <path d="m320.8,236.08h.23s-.12-.08-.23,0Z"/>
  <path d="m166.84,138.57c-.31,0-.46.57-.69,1.07l.69-1.07Z"/>
  <path d="m255.69,165.26l.23-.19s-.15.12-.23.19Z"/>
  <path d="m167.34,144.9l-.23-.11s.15.15.23.11Z"/>
  <path d="m308.72,234.25c-.69.34-.46-.65-.96-.15.27.11.19.77.96.15Z"/>
  <path d="m235.25,183.94l-.15-.08s.12.08.15.08Z"/>
  <path d="m167.34,144.9l.23.15s-.08-.23-.12-.35c0,.12-.08.19-.12.19Z"/>
  <path d="m229.08,148.05s.08-.04.12-.08l-.12.08Z"/>
  <path d="m228.08,146.2h.42c-.15-.15-.31-.11-.42,0Z"/>
  <path d="m166.15,139.64l-.38.61s.27-.34.38-.61Z"/>
  <path d="m293.65,197.24v.19c.12-.12.19-.23,0-.19Z"/>
  <path d="m273.67,204.79c-.08-.23-.58,0-1.04.34.15.12.38.12,1.04-.34Z"/>
  <path d="m280.88,212.8l.08-.08-.08.04v.04Z"/>
  <path d="m278.89,211.35s.08-.27.08-.34c-.04.15-.08.27-.08.34Z"/>
  <path d="m243.3,192.38c2.15,1.03,5.52,1.65,7.21,3.37,1.27-.88,1.92-.5,2.72-.31l-1.07,1.65.88-.15c-.15.61-.61,0-.69.88l.92-.84c-.38.61,1.03,1.3-.65,1.84l1.96,1.42c.38.34,1.23-1.15,1.42-.38-.23.54-.38.19-.77.81.57,2.22,3.91-1.88,4.72-.15l-.27.12c.54-.27.92.12,1.11-.12,1-1.72-.88.69-.57-.54,1-1.3,1.03-.34,1.76-1.38-.04.73.69.08,1.03.19-.15,1.19.96,1.07.54,2.38.54-.27,1.76-1.38,2.3-1.08-.42,1.3-.81.96-.61,1.69l.65-.73c.31.42.08.57-.19.92.38.34,1.15-.81,1.3.08l-.84.54c.61,0,.65.23,1.15.69-.34.42-.54.23-.61,0-.58,1.38.88-.12.92.12.19-.38-.04-.81.69-1.42.15.34,1.34-.61.84.42l-.84.54c1-.19,1.03-.73,1.42,0-.08,0-.19.23-.34.38,1.15-.69,1,.61,1.53,1.11l-.27.12c.42-.08,1.08-.69,1.19-.54,0-.69.27-.84.77-1.61-.5,1.61,1.8-.96,1.96.35-.34.42-.92.84-.77.23-1.23,1.11-2.11,2.22-2.99,2.49.5-.08.96,0,.5.46l1-1.15s.27.27.38.34c.65-.73.61-1.5,1.38-1.72.73-.08-.69,1.42-.23.92.96,0,1.23-1.11,1.53-.27-.15.04-.42.19-.38,0,.04.81,1.19.54.19,2.11-.31.27-.65.69-.73.46l.19-.23c-1.27.73.61,0-.54,1.23.58-.81,1-.19,1.15.15l.61-.96c2.91-1.99-1.38,1.72-.27,2.03,1-.19,0-.42.81-.77.27.42-.23,1.34.61,1.38-.12.46-.19,1.19-.92,2.19.65-.15.65,1.19,1.57.38.08-1.26-1.34.61-1-1.19l.92-.84c.42.38,1.38.34,1.42.96.08-.23.23-.5.46-.69.92.15,1.84-.69,2.26.08-.61.96-.84.5-1.19.38-.15,1.03.38.38.77,1.15-.57.8-.38-.38-1.03.31l.88.31s-.08.12-.12.15c1.11-1.23.42.54,1.15.46,1,.81,2.49-.8,3.87-1.38-.12.46-.34.84-.65,1.11.19-.77-.12-.27-.46,0,.42.15-.27,1.84-.88,2.22.81.04.34-.84,1-.96l.65.65c.42-.73.31-1.07,1.07-1.27.46.08.5.34.88.69-.31.27-.65,1.11-.96.8,0,.42.31.69.92.15,0-.96,1.19,0,1.69-1.27v.96s-.5.31-.54.08c-.69,1.07.61,0,.84.08,0,.31.34.73.08,1.15.38-.15.54.35.19.92.38,0,.54-.61.88-.88l.65.69c-.42.57-1.61,2.15-1.88,2.26.69-.27,1.42-1.53,1.8-1.15-1.11.84-.12,1.26-1.5,2.22-.42.96.27,1.5.88,1.5.92-.65,0-.81.73-1.65,1.26.54,3.3-1.72,3.72-.69v-.42c.88-.08.73,0,1.61-.5-1,.92-1.88,3.26-.92,3.68.5-.46.42-1.38,1.27-2.07l.65.27s-.23.23-.42.31c.77,0-.31,2.07.88,1l-.88,1.92.38-.81c.5-.46,1.15-.15,1.42-.27,1-.12.8.5.5,1.42.31-.5.92-1.69,1.46-1.46-1.5,1.69.31,1.38-.46,2.22.19.12,0,.88.65.23l-.96,1c1.34-1.42,1.88-.81,2.53-.65-1.88,1.84.61.31-.77,2.26,1.3-1.27,1.26.19,2.38-.84.42.27-.77,1.46-1.04,1.96l.61-.34c-.38.77.15,1.46.15,2.22l1.42-.81-.35.65c.35-.23.77-.11,1-.73l.12.23c1.19-1.23.57-.08,1.46-.27-.12.27-.42.58-.65.65.19.19-.5.77-.8,1.26.15-.46,2.8-1.57,2.84-2.65.46-.54,1.11-.61,1.07-.23l-.96,1.23,1.34-.96c.46.12-.11.96,0,1.3-.31-.15-2.61,1.61-1.96,2.19-.46-.15-1.23.31-1.61.38.08.15.04.34-.61.61.81.12.81-.54,1.42-.23-1,.96-1.15,1.42-1.08,2.15l.38-1.03s.23-.19.31-.19c0-.23.11-.42.46-.8.08.11,1.77-.69,1.27,0,1.03-2.03,1.99-.38,2.61-1.61.34-.23.73.04.27.57-1.11.34-.8,1.42-1.57,2.03.42-.15.42-1.03,1-1.23.31.15-.12.96-.31,1.38l-.27.08-.08.81c.54-.42.46-1.19,1.07-1.11-.12.31.46.38.08.77-.84.5-1.61,1.53-2.07,1.42.31.15,1.15.81,1.76-.42l.23.31c.23-.58.5-1.84,1.19-1.38l-.19.19,1.15-.34-.34.69c.23-.27.54-.42.65-.27-.27.34-.23.57-.65.96.46.38.92-.15,1.27-.38.31.19.19.46-.5.92.19.46.88.92.54,1.65.88,0,.11-.31,1.03-.69-1.38,2.07.73,2.11,1.61,2.65,1.38-1.65.34,0,1.88-1.15-.65.31-.58,1.8-1.57,1.57l.54.23c-.61,1.07-1.23-.08-2.03,1.42.46.38,2.42-.88,2.3.15-1.27.84.73.08-.61,1.04-.5.27-.5,0-.73-.08l-.15.31c.54,1.27,1.57-.92,2.8-1.07.69.46-.46,1.27-.96,1.76-.15.27.31.42.73.31-1,.27.12-1.3.96-1.76-1.04,1.38.69.96,1.34.69.58-2.03-.46-.65.27-2.76-.5.23-1.61,1.3-1.57.38.84-.19.61-.58.73-.84-.58.69-.58-.08-.96,0,.42-.61,1.76-1.07,1.57-1.8l-1.61,1.3c.08-.38,1.19-.96.46-1.03,1-.5,1.19-1.19,1.92-.88.69-1.88-1.61-.38-2.65-.38.15,0,.34-.23.5-.27-.5.27-.65.04-.88,0,0-.65.92-.38,1.27-.84l-.54-.5s.08-.08.08-.11c-.34.04-.61.04-.27-.34.65-.31,1.19-.69,1.69-.96l-1.61.42c.58-.42.42-1.27,1.15-1.23l-1-.65.96-1.03c-.38,0-.57.15-.46.5-.04-.5-2.99.42-.84-1.34-1.46.12-1.38-.42-2.65-.73,1.53-.31.46-1.84,1.53-1.61.08-.81-1.11.19-1.57.04.15-.69,1.23-1.53,1.92-1.61l-.81.08.19-.19-.88.23c.19-.84.92-1.07.73-1.53l-.96.81.27-.73c-.31.5-.69.46-1,.31l.19-.19-.46-.11c.81-.23-.08-.46.65-.96q-.23-.31-.84-.57l-.5.69c-1.11-.08.84-.92.38-1.46l-.65.73c.42-1.88-1.84-.5-1.65-1.76.46.12,1.15-.77.96-.57-.69-.19-1.26-1.07-2.53-.69.81-1.19,1.03-1.53.96-2.45-.42-.27-.57-.23-1.23.27,0-.73-1.19-.73-.5-1.5-.61.54-.19-.42-.84-.08l.23-.35-.61.77c.84-2.19-1.88-.04-1.23-2.03l.27-.12h-.54c.23-.31.54-.42.92-.81l-1.11-1.23-.23.77c-.34-.15-1.11.38-1.03-.31,1.46-.65-.38-.42.27-1.34h.54c-.28-.21-.63-.05-1.04.46-.69-.15.88-1.69-.23-1.26l.27.31c-.27.5-1.03.92-1.23.73.04-.15.19-.61.42-.57-.61-.04-.84-.92-1.26-.77,0-.42.5-.88.81-.96-1.38-.04-.23-.46-1.61-.5l.38-.42-.69.27.34-1.23-.31.65c-.35-.15-.77,0-.84-.5l.65-.5c-1.03-.31,0-1.8-1.46-1.53.04-.15.31-.27.46-.31-1.5.42.42-1.53-1.27-.92.23-.19.34-.5.54-.65l-.65.15.73-.84-1.3,1.03.54-1.03-.46.31c1.03-1.92-.46-1.07.11-2.68l-.81,1.15c-2.95,1.3-1.57-3.41-3.8-3.45l.73-.84-1.38.58c.23-.92.77-.58,1.03-1.11-1,0-1.26,1.07-2.19.77.12-.88.61-.54,1.03-.73-1-.12-2.38-.42-2.45-1.27-.12.12-.27.23-.27.31-.77.04-1.04-.81-1.57-1.15.31-.38.5-.34.69-.34-.15-.19-.15-.65-.65-.38l.77-.61c-.27-.46-1.53-.35-.92-1.3-.23.38-.73,1.03-1.03.73.84-1.5-1.34-.12-1.3-1.27.31-.27.77-.04.65-.15,0-.58-.73-.12-1.26.11l.5-.5-1.8-.19c.84-1.5-1.3-.69-.46-1.61-.42-.38-.08.88-.77.61.27-.69-.73-.12,0-.96l.15-.08-.42-.23.88-.69c-.46-.08-1.38.61-1.88,1.27.04-.73-.69-.65-.27-1.57l.27-.12c-1.15-.31.31-3.49-1.5-2.57.04-.15.19-.38.31-.27l-.5-.46.61-.58-1.69.31.34-.42c-.46-.61-1.57-1.11-2.45-1.53l.27-.12c-1.34.08-.5-1.03-1.5-1,.11-.12.15-.12.19-.15l-.57-.38.46-.34c-1.11.65-.27-2.11-.61-1.11-.54.27-1.34.46-1.8.96-.65-.38.27-.69.15-1.34-.42-.38-1.03.34-1.34-.5l.34-.42c-.34-.11-.73.08-1.19-.15l.27-.12c-1.3.46.15-1.92-1.76-.31,0-.58-.73-.65,0-1.53-1.23,0-2.03-.15-3.07-.38.96-1.57-.23,0-.12-1.23l-.54.81c-1.19-.69-1.03-3.57-2.49-4.14l.54-.81-.88.69c-1.03-1.34-2.53-2.88-3.56-3.64-.65.15-1.84.73-2.19.08l.15-.08c-1.3-.23-2.53-.61-3.26-1.84.31-.31.38-.61.65-.73-.88.69-.65-.38-.84-.57l-.15.81c-.84.54-.77-.5-.5-1.19l-1.07.54s.08-.27.15-.38l-.38.35.5-1.23c-.27.11-1.11-.04-1.99.81.19-.38-.08-.96.42-.92l-1.53-1.53v.58c-.5.84-1.38.96-1.42.42.81-.38.81-1.11,1.07-1.8-.54.27-.27.84-.73,1.23-.69.34-1.5.15-1.42-.31l.42-.19c-.61,0,.15-1.53-.31-1.72-.81.38-.69-.38-1.53,1.03-.73-.08.42-1.07.34-1.34-.69.5-1.15-.42-.77-1.23-1.69,1.84-.96-1.73-2.22-.08l.19-1.27c-.31.46-1.11,1.42-1.57,1.38,0-.73.61-1.5.81-2.03l-1.34,1.57c-.77-3.14-4.22-3.61-5.48-6.52-1.27-.23-2.99-.19-4.03-1.11l.27-.15-.92-1.19.38,1.3c-.38.04-.77.27-1.03.12-.84-1.5-2.15-3.41-4.3-3.37-2.19,1.53.27-2.23-1.57-1.27.19-.15.38-.42.57-.58-1.46.12-2.3.15-4.03.84,1.19-2.03-.77-.31-.12-1.38l-.5.81c0-.65-.5-1.11-.12-1.69l-1.03.84.38-.92c-.65-.38-2.42-.34-1.96-2.3-2.3.58-4.83-1-6.9-2.19-.61.61-1.27.46-1.8.34l-.12-1.3c-.65.15-1.69,1.34-1.92.46.04-.11.12-.23.15-.27-.61.04-.92-.73-1.76.15-.54-.27-.92-1.04-.42-1.99-.65,1.8-1.19-.65-1.19-.65,0,0-7.25-3.72-16.6-4.91-9.24-1.42-20.28.73-23.31,6.59-.12.96-.73,1.69-.31,2.76-.46.42-1-1.23-.92-.27.81.54.15,2.49,1.04,3.56l-.38.31c0,.69.46-.84.54.38l-.15-1.8c.38.23.65.58.84,1.15.23-.73.15-3.18,1.07-2.22l-.23.15c.65-.15.54,1.11.69,1.38h-.15l.65.84c-.46-.54-.96,1-.65.84.81.38-.23-.42.31-.69.35-.15.35.84.38,1.38l.61-.12c.08.84-.42,0-.08.81l.69-.96c.31,2.07.77-1.08,1.3.88-.54.54.12.69.08,1.38.46-.08.88-.15,1.34-.19.15.31-.31.65-.11.54.27.57.38-.54.54-.5.15.57,1-.08,1,1.34.92.92.35-1.8,1.19-1,.12.84-.65.23-.27,1.07l.84-.31c-.08.42-.15,1.38-.46,1.19,2.34,1.11,3.34,5.64,5.33,4.6.19,1.03-.23.65-.5,1.3,1.53-1.23,1.8,2.38,2.95,2.34l.12-.81c1.3,2.76,3.45,1.5,5.06,2.92l-.11-.61c.38-.73.81-.73,1.19-1.03,0,.42-.58,1.69,0,1.46-.04-.31-.23-.65-.08-1.03,1.15,2.38,4.49,2.68,6.71,4.45,3.61.42,6.67,3.3,10.09,4.22-.54-.15.5-1.96.69-1.34-.38,3.64,2.03.23,2.07,2.91,2.38-.12,2.68,3.41,5.67,1.96l-.42.88c.04.54.42,0,.77,0l-.15.23c.46.65,1.73.23,1.88.84l.58-.96c.42.12-.23.84.5.54l-.27.46.96-.65c-1,1.65,1,.77.88,1.69.65,0,2.03-.19,2.61.61-.38.96.54,1.5.88,2.26,1.27.5,3.07,1.23,4.33,2.45l.65-1.07.42.19c-.15.23-.19.38-.31.46-.5,1.38,1.11.19.92,1.15.42-1.07-.15-.31-.38-.5,0-.69.96-1.53,1.07-.73l-.15.23.65-.34c-.5.84-.5,1.38-1,2.22,1.38.61,3.14-.19,4.18,1.03-.73.81,1.07.42-.23,1.8,1.19-.08.73-1.34,1.84-2.22.19.19.73-.11.34.5-.34.31-.46,1.07-.77,1.11l.61.23s-.31.31-.42.35c1.69-.19,1.15,2.3,2.72,2.07.46-.5-.27-.42.19-.92,1.76-.46.11,1.61,1.57,1.42l-.73.65c.65-.34,1.27-.92,1.3.04-.58.96-.92.46-1.46.73.31.27,1.26.61,1.61-.38.61,0,.15.88.19,1.3.15-.23.08-.88.61-1.11.15.88,1,1.46,1.57,1.99-.15.23-.38.58-.5.65,1.38-.81-.15,1.19.77,1.46l-.19.04Z"/>
  <path d="m281.03,213.11l-.15-.34c-.15.19-.34.42-.61.54l.77-.19Z"/>
  <path d="m269.34,203.34s-.15.08-.27.19c.08,0,.19-.08.27-.19Z"/>
  <path d="m265.16,202.68c.34,0,.34-.42.42-.73-.15.19-.31.38-.42.73Z"/>
  <path d="m289.62,216.19s-.23.15-.38.35c.19-.12.31-.23.38-.35Z"/>
  <path d="m306.84,232.43s0-.12.04-.19c-.04.08-.04.12-.04.19Z"/>
  <path d="m307.11,230.25s-.12-.08-.31-.08c.04.12.15.12.31.08Z"/>
  <path d="m284.87,212.89s-.23,0-.42.11c.11.08.27,0,.42-.11Z"/>
  <path d="m306.46,230.18l-.15-.31s-.08.08-.15.15l.31.15Z"/>
  <path d="m307.08,232.82s-.19-.23-.19-.38c-.08.34,0,.42.19.38Z"/>
  <path d="m297.25,220.71h-.04c-.5.19-.27.15.04,0Z"/>
  <path d="m304.08,230.6v-.08l-.27.15.27-.12v.04Z"/>
  <path d="m307.76,234.12h-.27c0,.08,0,.12.04.23.08-.12.15-.19.23-.27v.04Z"/>
  <path d="m299.87,225.31c.34-.23.58-.42.69-.57-.08-.08-.27,0-.69.57Z"/>
  <path d="m406.7,257.87s.19-.23.34-.38c-.12.15-.23.27-.34.38Z"/>
  <path d="m402.17,250.46l.23-.15s-.15.04-.23.15Z"/>
  <path d="m409.42,262l-.08.08s.12.15.19.27l-.12-.38v.04Z"/>
  <path d="m388.75,238.34h.12s-.04-.04-.12,0Z"/>
  <path d="m396.84,245.56s-.23.19-.31.23c.04.08.11.04.31-.23Z"/>
  <path d="m403.89,271.57l.42-.61c-.23.23-.38.5-.42.61Z"/>
  <path d="m409.07,272.51s.08-.08.11-.12c-.04.04-.08.08-.11.12Z"/>
  <path d="m409.92,269.21s-.19.08-.31.15c.04,0,.11.08.31-.15Z"/>
  <path d="m409.41,269.41l.15-.08s-.08,0-.15.08Z"/>
  <path d="m325.59,230.41s-.19.54-.31,1l.31-1Z"/>
  <path d="m373.83,231.86l.11-.27s-.11.19-.11.27Z"/>
  <path d="m326.09,236.74l-.11-.15s.08.15.11.15Z"/>
  <path d="m400.91,271.52c-.57.46-.19-.34-.65.19.15,0-.04.54.65-.19Z"/>
  <path d="m326.09,236.73l.12.15s-.04-.23-.08-.34c0,.12,0,.19-.08.19h.04Z"/>
  <path d="m357.42,227.34s0-.08.04-.12l-.08.12h.04Z"/>
  <path d="m356.72,226.08l.23-.19s-.15,0-.23.19Z"/>
  <path d="m325.33,231.45l-.15.57s.12-.31.15-.57Z"/>
  <path d="m346.88,225.85s.08-.04.12-.08c0,0-.08,0-.12.08Z"/>
  <path d="m397.18,246.29v.19c.08-.15.15-.23,0-.19Z"/>
  <path d="m383.19,259.13s-.38.19-.69.65c.08.04.23-.04.69-.65Z"/>
  <path d="m386.49,263.31l.04-.08-.04.04v.04Z"/>
  <path d="m385.45,262.81s.08-.23.08-.31c-.04.11-.08.23-.08.31Z"/>
  <path d="m378.62,259.64l.04-.04v.04h-.04Z"/>
  <path d="m366.93,260.4c1.11-.08,2.88-.88,3.68-.11.77-1.3,1.08-1.23,1.53-1.38l-.73,1.84.5-.5c-.12.57-.34.27-.42,1.03l.58-1.07c-.23.65.46.69-.5,1.8.31.12.65.27.96.42.19.15.77-1.46.81-.88-.19.54-.23.31-.5.96.11,1.65,2.38-3.07,2.68-1.96l-.15.23c.34-.42.54-.27.65-.5.73-1.84-.57.92-.27-.23.73-1.5.65-.69,1.15-1.84-.08.61.38-.19.57-.23-.19,1.07.46.54.08,1.8.34-.42,1.19-1.84,1.46-1.76-.38,1.26-.57,1.11-.54,1.65l.46-.84c.15.23,0,.46-.23.84.19.15.77-1.11.77-.42l-.57.77c.34-.23.34,0,.61.19-.27.5-.34.38-.34.23-.5,1.34.54-.42.54-.23.15-.38.08-.65.57-1.46.04.23.88-1,.46.08l-.58.73c.61-.5.69-1,.84-.5-.04.04-.15.27-.27.46.77-1,.54.15.81.38l-.19.19c.27-.23.73-.96.77-.84.08-.57.27-.81.69-1.65-.5,1.53,1.23-1.42,1.19-.38-.27.5-.69,1.03-.5.46-.92,1.38-1.57,2.57-2.15,3.14.31-.27.58-.38.23.23l.77-1.3s.11.12.19.15c.5-.84.58-1.5,1.07-1.92.46-.31-.61,1.42-.27.84.61-.34.92-1.38.96-.77-.08.08-.27.31-.23.15-.08.65.69.04-.15,1.69-.23.34-.5.8-.5.65l.15-.23c-.88,1.04.38-.19-.5,1.19.46-.88.65-.5.69-.27l.5-1c2.11-2.68-1.11,1.92-.46,1.76.65-.5.04-.34.61-.92.08.27-.34,1.19.15.92-.15.42-.31,1.03-.92,2.15.42-.34.19.77.92-.23.27-1.07-.92.96-.42-.65l.69-1c.19.19.81-.15.73.31.08-.23.23-.5.38-.73.58-.19,1.27-1.19,1.42-.69-.54,1-.61.69-.8.69-.27.88.19.19.31.69-.5.84-.19-.19-.73.61h.5s-.08.04-.11.12c.92-1.38.19.27.65,0,.5.31,1.72-1.5,2.72-2.42-.15.42-.34.81-.61,1.11.27-.69,0-.19-.31.15.27,0-.5,1.57-.92,2.07.54-.23.38-.81.8-1.11l.31.31c.42-.73.38-.96.92-1.38.31-.08.27.12.46.31-.27.31-.61,1.11-.77.96-.08.34.08.46.58-.15.19-.81.77-.34,1.3-1.53l-.19.81s-.34.42-.34.23c-.65,1.11.38-.15.54-.23-.04.27.08.5-.15.92.27-.23.31.11-.04.65.23-.12.46-.69.73-1l.31.34c-.38.61-1.46,2.22-1.65,2.41.5-.46,1.23-1.69,1.38-1.5-.88,1.03-.34,1.03-1.42,2.26-.46.92-.11,1.11.27.92.73-.81.15-.65.81-1.53.73,0,2.53-2.45,2.65-1.73l.08-.31c.61-.34.5-.23,1.19-.92-.88,1.07-1.88,3.18-1.34,3.22.46-.54.57-1.23,1.26-2.07h.38s-.23.31-.34.42c.54-.19-.65,1.76.38.54l-1,1.8.42-.77c.42-.54.81-.5,1.03-.65.73-.38.46.15.08.96.31-.5.96-1.61,1.3-1.61-1.38,1.76-.08,1-.81,1.92.11.04-.19.69.38,0l-.88,1.07c1.23-1.5,1.46-1.19,1.92-1.3-1.69,2.03.38.04-1,1.99,1.15-1.34.84-.23,1.84-1.38.23.08-.84,1.34-1.15,1.84l.5-.46c-.42.73-.19,1.07-.38,1.69l1.19-1.07-.38.61c.27-.27.58-.34.88-.84v.15c1.15-1.3.46-.23,1.15-.65-.15.27-.42.54-.61.69.08.11-.54.73-.84,1.23.23-.38,2.34-2.03,2.61-2.88.42-.54.92-.81.81-.5l-.96,1.23,1.19-1.15c.31,0-.27.77-.27,1-.19-.04-2.22,1.99-1.88,2.26-.31,0-.96.57-1.23.77,0,.11-.04.23-.57.65.54-.15.69-.65,1.07-.58-.92,1.04-1.15,1.42-1.27,1.96l.54-.88s.23-.19.27-.27c.04-.15.15-.34.5-.77,0,.04,1.42-1.03.88-.38,1.19-1.84,1.53-.88,2.23-1.99.31-.27.54-.19.08.35-.92.61-.88,1.3-1.57,1.99.35-.23.54-.92,1-1.19.19,0-.31.77-.54,1.15l-.23.15-.23.61c.5-.5.61-1.03,1.04-1.15-.15.27.27.15-.12.54-.73.61-1.53,1.61-1.8,1.65.19,0,.65.23,1.38-.84l.12.15c.31-.5.77-1.5,1.19-1.38l-.19.19.92-.58-.38.61c.23-.27.5-.46.54-.38-.27.31-.31.5-.69.92.27.15.73-.38,1.04-.65.19.04,0,.31-.58.84,0,.31.42.42,0,1.07.65-.23.15-.27.92-.81-1.5,1.92.04,1.38.61,1.5,1.38-1.61.27-.08,1.69-1.38-.54.38-.84,1.5-1.53,1.61h.34c-.69.96-.92.34-1.84,1.65.23.15,2.03-1.34,1.72-.57-1.15.96.54-.15-.69.92-.42.34-.38.15-.54.15l-.15.23c.11.73,1.38-1.11,2.38-1.61.42.15-.65,1.04-1.11,1.53-.15.23.15.23.5,0-.81.46.38-.96,1.11-1.53-1.11,1.3.31.5.88.12.92-1.65-.19-.34.81-2.07-.46.31-1.53,1.42-1.3.73.69-.38.61-.61.73-.81-.57.65-.42.11-.77.31.46-.58,1.57-1.3,1.61-1.76l-1.53,1.42c.12-.31,1.11-1.04.57-.88.88-.65,1.15-1.23,1.65-1.19.92-1.57-1.15.19-1.96.46.12-.08.31-.23.42-.34-.42.34-.5.23-.65.23.15-.5.77-.54,1.15-1l-.31-.23s.08-.08.08-.12c-.27.12-.46.19-.11-.19.54-.42,1.07-.84,1.5-1.19l-1.3.77c.5-.46.58-1.07,1.15-1.23l-.61-.23.92-1.03c-.27.08-.46.27-.46.54.08-.38-2.3,1.15-.34-.81-1.11.5-.92.04-1.8.19,1.19-.65.73-1.53,1.5-1.65.19-.61-.84.46-1.19.46.27-.57,1.23-1.53,1.77-1.76l-.61.31.19-.19-.69.42c.31-.73.92-1.08.84-1.38l-.88.88.34-.65c-.34.46-.61.54-.81.5l.19-.19h-.31c.65-.38,0-.31.69-.88q-.12-.15-.5-.23l-.5.69c-.81.27.81-.96.61-1.27l-.61.73c.69-1.57-1.26.12-.84-.92.31,0,1-.92.81-.73-.46.04-.69-.5-1.72.19.81-1.15,1.07-1.5,1.19-2.22-.23-.12-.38,0-.96.57.15-.57-.73-.23-.08-1.03-.57.61-.08-.27-.61.19l.23-.35-.57.77c1.03-1.95-1.34.5-.5-1.26l.23-.15-.38.19c.23-.34.46-.5.81-.96l-.58-.69-.31.69c-.19,0-.88.65-.69,0,1.15-.96-.19-.23.46-1.15l.38-.19c-.18-.05-.46.18-.84.69-.46.08.96-1.61.08-.96l.15.15c-.31.5-.88,1.03-1,.92.08-.15.23-.54.38-.58-.42.15-.42-.5-.77-.27.08-.34.54-.84.73-1.03-.96.34-.08-.31-1.04,0l.35-.46-.54.42.46-1.11-.34.65c-.19,0-.54.23-.54-.15l.54-.61c-.69.08.31-1.46-.77-.81.08-.15.27-.31.38-.38-1.11.81.54-1.42-.73-.38.19-.19.34-.54.5-.69l-.46.31.65-.92-1.07,1.23.54-1-.38.38c1-1.88-.15-.73.5-2.26l-.73,1.19c-2.26,1.96-.58-2.42-2.11-1.8l.61-.92-1.04.88c.31-.84.61-.73.88-1.26-.69.31-1.03,1.3-1.61,1.3.19-.77.5-.65.81-.92-.69.23-1.57.38-1.53-.31-.08.11-.19.27-.23.34-.54.27-.61-.38-.92-.5.27-.42.38-.46.5-.5-.08-.11,0-.5-.38-.11l.61-.77c-.11-.31-1,.19-.46-.81-.19.38-.61,1.11-.81.92.77-1.53-.88.31-.73-.69.23-.34.5-.27.46-.31.08-.5-.46.12-.88.5l.38-.58-1.19.38c.73-1.53-.81-.15-.15-1.19-.23-.19-.15.77-.57.77.27-.65-.46.15.08-.81l.11-.08h-.27l.65-.92c-.31.08-1,.96-1.38,1.69.12-.65-.42-.35,0-1.27l.19-.19c-.73.08.5-3.11-.77-1.72.04-.15.15-.38.23-.34l-.31-.23.46-.69-1.15.81.27-.5c-.27-.38-.96-.46-1.53-.54l.19-.19c-.88.5-.27-.73-.92-.34.08-.12.11-.15.15-.19l-.34-.15.31-.46c-.77.96-.08-1.76-.34-.77-.38.42-.92.84-1.23,1.46-.42-.11.23-.69.19-1.23-.27-.19-.69.65-.88,0l.23-.5c-.23,0-.5.31-.77.27l.19-.19c-.88.88.19-1.73-1.15.34,0-.5-.42-.31,0-1.34-.81.42-1.3.54-1.99.73.65-1.73-.15.08-.04-1l-.34.92c-.77-.15-.65-2.72-1.61-2.68l.34-.92-.58.92c-.69-.77-1.65-1.57-2.34-1.84-.42.38-1.15,1.34-1.38.92l.08-.12c-.81.31-1.61.5-2.11-.27.19-.38.19-.69.38-.88-.5.96-.42-.08-.57-.15l-.08.77c-.5.81-.5-.12-.34-.84l-.65.88s0-.27.08-.42l-.23.46.23-1.27c-.15.23-.65.38-1.19,1.53.11-.42-.08-.84.23-1l-1-.73v.5c-.23.92-.73,1.42-.81.92.46-.69.42-1.3.54-2.03-.31.46-.11.88-.34,1.34-.38.57-.88.77-.84.31l.23-.34c-.38.27,0-1.38-.31-1.38-.46.69-.42-.04-.84,1.57-.42.23.19-1.11.11-1.3-.38.73-.73.11-.54-.73-.84,2.3-.69-1.11-1.3.88v-1.19c-.11.54-.5,1.73-.81,1.88-.04-.65.23-1.57.35-2.11l-.69,1.96c-.65-2.45-2.65-1.5-3.6-3.53-.73.31-1.69,1.07-2.34.61l.12-.23-.61-.69.31,1.03c-.19.19-.38.58-.54.5-.61-1-1.46-2.26-2.61-1.42-1.04,2.22-.04-2.15-.96-.54.08-.23.19-.54.27-.77-.77.69-1.19,1.03-2.07,2.3.42-2.3-.42,0-.19-1.23l-.19.92c-.04-.61-.34-.84-.23-1.53l-.46,1.15.11-.96c-.38-.15-1.3.54-1.23-1.46-1.15,1.3-2.57.73-3.72.23-.23.77-.61.81-.88.88l-.19-1.19c-.31.34-.73,1.77-.92,1,0-.15,0-.23.04-.31-.31.23-.5-.42-.88.61-.31-.08-.54-.73-.38-1.8-.19,1.92-.65-.34-.65-.34,0,0-3.95-1.42-8.51-1.3-4.56.12-9.59,1.99-10.89,7.4,0,.96-.31,1.61-.04,2.72-.23.38-.54-1.3-.46-.34.42.61.15,2.45.65,3.64l-.19.27c0,.69.19-.81.31.42l-.12-1.8c.19.27.34.61.46,1.23.08-.69-.04-3.14.46-2.11l-.12.12c.31-.08.31,1.15.42,1.42h-.08l.34.88c-.27-.58-.46.88-.31.77.42.46-.15-.42.12-.65.15-.11.19.84.27,1.42l.31-.08c.08.84-.23,0,0,.81l.31-.92c.27,2.11.34-1.03.69.92-.23.5.08.69.08,1.38l.65-.19c.08.27-.12.65,0,.54.15.58.15-.54.23-.5.12.58.5-.08.57,1.34.5.88.08-1.76.54-1.03.12.84-.31.23-.08,1.07l.42-.34c0,.42,0,1.38-.19,1.23,1.26,1,2.03,5.48,3.03,4.33.19,1-.08.69-.15,1.34.69-1.34,1.07,2.19,1.69,2.07v-.84c.88,2.57,1.88.96,2.84,2.11l-.11-.58c.15-.8.34-.88.54-1.23,0,.42-.15,1.76.12,1.46-.04-.31-.15-.61-.12-1.03.77,2.19,2.49,1.72,3.76,2.84,1.84-.5,3.61,1.34,5.41,1-.27.04.08-1.99.23-1.5.11,3.53,1.03-.42,1.26,1.99,1.19-.96,1.57,2.19,2.95-.31l-.15.96c.08.46.23-.19.38-.27v.27c.23.42.81-.5.92,0l.23-1.07c.23-.04-.04.88.27.31l-.12.54.46-.96c-.38,1.88.54.27.54,1.19.34-.27,1-1,1.34-.54-.15,1,.34,1.07.58,1.65.65-.12,1.61-.23,2.3.34l.31-1.23h.23c-.08.23-.08.38-.15.5-.19,1.42.57-.31.5.61.19-1.11-.08-.19-.19-.27,0-.61.46-1.77.54-1.08l-.08.27.31-.61c-.23.96-.23,1.42-.46,2.38.73-.04,1.61-1.53,2.19-.92-.38,1.03.58-.12-.11,1.65.61-.57.38-1.5.92-2.72.12.08.38-.42.19.27-.19.42-.23,1.15-.38,1.26l.31-.08s-.15.38-.23.5c.88-.88.61,1.5,1.42.61.23-.65-.15-.27.12-.88.92-1.15.08,1.34.84.54l-.38.88c.34-.57.69-1.34.69-.5-.31,1.08-.5.81-.77,1.27.15.12.65,0,.84-1.03.31-.27.08.69.08,1,.08-.27.04-.77.34-1.23.08.69.5.81.81,1-.08.27-.23.65-.27.77.77-1.27-.12,1.07.34.88l-.04.11Z"/>
  <path d="m386.52,263.51v-.23c-.15.23-.31.46-.54.65l.54-.42Z"/>
  <path d="m380.73,259.45s-.11.15-.19.23c.04,0,.11-.12.19-.23Z"/>
  <path d="m378.32,260.39c.23-.15.27-.46.31-.77-.12.19-.23.46-.31.77Z"/>
  <path d="m391.51,263.23s-.19.19-.31.38c.15-.15.23-.27.31-.38Z"/>
  <path d="m399.98,270.71s.04-.08.08-.15c-.04.08-.08.12-.08.15Z"/>
  <path d="m400.67,268.94h-.19c0,.08.08.04.19,0Z"/>
  <path d="m389.02,262.05s-.15.08-.31.23c.08,0,.19-.12.31-.23Z"/>
  <path d="m400.21,269.11v-.19s-.11.11-.19.15h.19v.04Z"/>
  <path d="m400.06,270.94s-.08-.12-.08-.23c-.15.27-.11.34.08.23Z"/>
  <path d="m398.45,270.1v-.04l-.23.19.23-.15Z"/>
  <path d="m400.25,271.71s-.08,0-.19.12v.15s.15-.19.19-.27Z"/>
  <path d="m396.61,267.3c.31-.31.46-.5.61-.69-.04,0-.19.12-.61.69Z"/>
  <path d="m89,30.63l-.42.38c.31-.12.42-.23.42-.38Z"/>
  <path d="m18.48,46.24v-.12c-.42.12-.96.23-1.84.46l1.84-.31v-.04Z"/>
  <path d="m177,31.7l-.54-.15c.23.08.38.19.54.15Z"/>
  <path d="m125.93,23.43c.15-.23.38-.34.65-.42-.35,0-.61.08-.65.42Z"/>
  <path d="m1.73,39.8l.96.5c-.12-.31-.46-.54-.96-.5Z"/>
  <path d="m24.39,50.61v-.19c-.08.04-.08.12,0,.19Z"/>
  <path d="m15.91,44.71c-.23.04-.5.15-.81.23.31,0,.73.04.81-.23Z"/>
  <path d="m14.76,45.09l.38-.15c-.19,0-.38,0-.38.15Z"/>
  <path d="m400.22,256.95c0,.73.61,1.34,1.11,1.99l-1.11-1.99Z"/>
  <path d="m255.73,63.49l-.27.19s.27-.11.27-.19Z"/>
  <path d="m406.62,257.53l-.12.54c.12-.19.12-.38.12-.54Z"/>
  <path d="m15.15,33.89c.58-.92,2.38-.54,2.15-1.19-.77.34-2.07.15-2.15,1.19Z"/>
  <path d="m284.72,48.43l.5.23c-.23-.15-.38-.19-.5-.23Z"/>
  <path d="m406.62,257.52l.12-.65s-.23.15-.34.23c.11.11.19.27.23.42Z"/>
  <path d="m323.79,114.53s-.11-.04-.23-.08l.23.08Z"/>
  <path d="m325.94,118.71c-.27-.19-.54-.38-.8-.58.27.42.54.58.8.58Z"/>
  <path d="m401.33,258.94l.65,1.15c-.12-.42-.34-.81-.65-1.15Z"/>
  <path d="m356.85,158.09s-.19-.23-.34-.34c.12.15.19.27.34.34Z"/>
  <path d="m122.52,23.46s-.27-.08-.42-.08c0,.15,0,.27.42.08Z"/>
  <path d="m155.99,5.2c.61.23,1.57-.15,2.15-.57-.61-.12-1.27-.04-2.15.57Z"/>
  <path d="m162.35,5.78s-.12-.08-.23-.12c.08.08.15.12.23.12Z"/>
  <path d="m129.15,2.34s.38.23.58.27c-.15-.12-.35-.23-.58-.27Z"/>
  <path d="m182.26,8.66l-.04.04h.04v-.04Z"/>
  <path d="m252.81,29.79c-7.02-2.68-16.41-4.99-23.04-8.09-2.03.81-4.18,0-6.48-.54l.46-1.92-2.03-.12c-.54-.84,1.53.19.5-1l-1.11.88c.11-.69-4.49-2.19-.96-2.34l-7.02-2.65c-1.53-.61-1.46,1.19-3.03.11-.15-.65.77-.15.84-.84-4.64-3.26-7.25,1.38-11.77-1.19l.5-.12c-1,.19-2.57-.42-2.68-.15,0,2.07,1.23-.69,2.34.92-.69,1.53-2.15.19-2.49,1.42-.96-.96-1.92-.31-2.95-.57-1.38-1.57-4.06-1.73-4.95-3.38-1.03.23-2.45,1.46-4.3.96-.92-1.65.69-1.07-.96-2.11l-.58.84c-1.42-.61-1.11-.77-.92-1.19-1.57-.5-1.69.88-3.53-.31l1.38-.57c-1.57-.08-2.15-.42-4.18-1.07.19-.54,1.04-.27,1.57.08-.77-1.69-2.11.08-2.68-.27.08.46,1.46,1.03.5,1.76-.96-.46-2.53.69-2.95-.61l1.38-.61c-2.34.19-1.46.88-3.83-.12.15,0,.15-.27.23-.46-1.88.84-3.64-.77-6.02-1.3l.5-.15c-1.04.12-1.73.88-2.22.69,1.23.81.81,1.03.77,1.96-1.46-1.92-3.03,1.3-5.75-.12.12-.54.96-1.07,1.65-.34,1.27-1.42,1.65-2.8,3.57-3.22-1.19.15-2.57.15-2.15-.46l-.61,1.42c-.69-.08-1.19-.27-1.73-.34-.42.88,1.11,1.8-.54,2.15-1.8.23-.69-1.69-1.07-1.03-2.53.27-1.23,1.46-3.49.65.23-.08.73-.31.92-.11-1.61-.84-4.14-.19-4.45-2.07.31-.38.38-.92,1.04-.69v.27c1.96-1.11-1.65.19-.92-1.38.04.96-2.38.57-3.45.31l.27,1.15c-3.8,3.11.35-2.22-3.34-1.96-2.34.69.84.34-.58,1.07-1.53-.27-2.11-1.26-4.41-.77-.65-.46-1.96-1.03-2.11-2.26-1.38.54-4.29-.38-5.02.92,2.42.88,2.34-1.46,5.18.08l-.73,1.26c-1.92,0-4.33.77-5.64.42.27.23.42.54.27.81-2.65.69-3.26,1.96-5.87,1.92-.46-1.07,1.04-1.07,2.15-1.27-1.76-.73-1.76.12-4.37.08-.27-.96,1.73-.15,1.92-1.15l-2.84.69v-.19c-.15,1.69-2.19.19-3.83.96-4.06.69-4.26,3.03-6.17,4.72-.69-.31-.92-.69-.77-1.15,1.11.5.84,0,1.07-.5-1.3.42-3.26-.96-2.65-1.76-2.03.92.96.69-.23,1.46l-2.91.54c.54.73,1.57.69.23,1.65-1.19.5-1.84.5-3.49.84.15-.46-.81-1.11.42-1.34-.84-.12-2.11.15-2.38,1.07,1.96.31-2.72,1.42-1.07,2.38l-1.96-.27c.42-.08.31-.65.96-.65-.81-1.11-1.34.73-1.92,1-.69-.08-2.3.27-2.57-.19-.46.5-1.88.58-2.3,0-.77.46.15.81,0,1.27l-2.8.65c-.35-.65-1.11-2.45-.77-2.84-.88.92.19,2.11-1.42,2.49.54-1.57-2.38-.42-1.5-2.34-1.19-.69-3.76.08-5.06.81-.58,1.3,1.69.15,1.92,1.23-3.87,1.53-3.26,4.52-6.33,4.87l.84.08c-1.65,1.11-1.5.92-2.26,2.15.12-1.46-3.07-2.95-5.98-1.8-.08.73,2.03.77,1.84,1.99l-1.92.77s0-.34.19-.58c-1.65,1-3.8-.77-3.87.92l-2.38-1.42.96.61c-.08.73-1.99,1.5-2.34,1.88-1.84,1.3-2.72.96-4.06.42.5.46,1.76,1.42.19,2.11-.61-2.15-3.6.15-3.87-.96-.65.23-1.99-.12-1.8.77l-.27-1.38c.38,1.92-1.99,2.49-3.72,3.34-.31-2.65-1.92.77-3.37-1.3.15,1.8-3.03,1.61-2.91,3.14-1.38.5-1.69-1.15-2.19-1.61l-.46.84c-.92-.61-3.57,0-5.29-.08l-1,1.92-.73-.54c-.12.46-1.27,1.04-.35,1.38l-.81.15c.42,1.69-.96.77-2.34,1.92-.42-.15-.46-.57-.19-.92-.77.19-.69-.73-1.27-1.15.69.27-1.96,3.76.38,3.91.35.65-.73,1.5-1.61,1.42l-.88-1.34-.46,1.84c-1.15.58-1.92-.23-2.95-.11.96-.38,1.38-3.49-1.19-2.72,1.3-.58,1.73-1.61,2.34-2.11-.54.08-.84,0-.23-.84-1.88,1.03-.42,1.11-2.34,1.88-.27-1.34-.96-1.61-2.84-1.57l1.57.61s-.08.31-.15.42c.54,0,.73.15,1,.65-.38.12-1.84,2.3-2.38,1.61,2.61,1.5-3.03,2.61-1.38,3.49-.12.46-1.5.92-1.8.31,1.38-1.5-1.69-1.15-1.69-2.15-.5.57,1.57.61.88,1.34-.96.38-1.92-.23-2.61-.5l.35-.38-1.69-.15c-.08.73,1.8.69.5,1.46-.46-.15-1.76.58-1.88,0,.42-1.11-.42-2.19.69-2.76-.96.38-4.1,1.46-2.45,2.34l-1.19.31c.92.34,3.3.77.96,1.61v-.27l-1.42,1.5-.92-.5c.12.35-.04.73-.69.88-.27-.34-.88-.34-1-.88-.54.15-.84.35-1.04.5l4.06,10.85c.35-.42.15-.81.19-1.11.73-.42,1.11-.27,1.04.65,1.04-.23,2.88-.84,3.72-.23,1.34-.8-.35-.23.38-1.3,1.53,2.15,4.79.61,7.36.88-.23-2.19.69-.12,1.61-1.84-.65.5,1.88,2.23-.38,2.23.46,0,.88.08,1.3.15.42,1.34-2.22.23-1.46,2.11,1.19.31,2.95-1.53,4.14-.04-1.19,1.07,1.34.15.19,1.38-.54.31-.84,0-1.27-.12l.12.38c2.19,1.73,1.57-1.15,3.49-1.19,1.65,1,.46,1.8.12,2.41.04.38.77.77,1.42.81-1.38,0-.88-2.03.12-2.45-.46,1.8,1.88,1.95,2.8,1.99-.27-1.61-.65-2.07-1-2.38-.35-.35-.58-.73-1.19-2.34-.65.19-1.46,1.5-2.49.08,1.27-.08.38-.77.23-1.15-.15.92-1.23-.23-1.88-.15-.15-.84,1.88-1.38.31-2.45l-1.15,1.77c-.54-.54.88-1.3-.73-1.42,1.19-.73.35-1.69,2.49-1.15-1.8-2.76-4.22-.54-6.17-.23.23-.08.31-.34.54-.46-.54.46-1.27.31-1.84.31-1.19-.69,1.15-.77.92-1.38-.73-.12-1.46-.19-2.15-.23,0-.08-.04-.12-.04-.15-.61.19-1.15.38-1.3-.15.69-.65,1-1.3,1.53-1.8-.84.38-1.69.84-2.49,1.3.31-.69-1.99-1.19-.27-1.69-1.23.12-2.45.27-3.64.54l-.5-1.34c-.88.38-.84.65.23.65-.65-.12-1.96.8-2.99,1.34-1,.61-1.84.88-1.99-.5-.96.77-1.61,1.3-2.3,1.73l.88,2.38c1.15-.54,2.26-.84,4.14-1.84-2.11,1.96,3.3.77.84,2.07,1.69.15,1.61-1.38,2.72-1.96,1.3.23,1.19,1.73.08,2.57l1.27-1.03v.27l1.07-1.11c1.53.34.65,1.27,2.07,1.08v-1.27l1.07.42c-.5-.46.23-.92,1.19-1.3v.27l1.19-.57c-1,1.07,1.19-.08.88.96,1.04-.23,1.07-.27,2.88-1l-.58-.73c2.22-1.42.46,1.19,2.45.69l-.38-.88c3.3.77,4.52-2.26,6.94-1.84-1.15.58-.54,1.57-.58,1.3,1.69-.84,4.72-1.46,6.25-3.11,1.07,1.15,1.34,1.53,3.45,1.57,1.38-.5,1.53-.65,1.76-1.57,1.5.15,3.8-1.38,4.14-.42.08-.88,1.27-.19,1.8-1.07l.27.34-.38-.92c2.99,1.42,3.68-2.34,6.63-1.23l-.35.38.92-.65c.27.34-.08.73.04,1.27l4.75-1.19-1.11-.42c.96-.38,1.38-1.5,2.68-1.23-1.5,1.95,1.57-.38,2.19.61l-.92.65c.89-.33,1.21-.79.96-1.38,1.69-.84,1.73,1.42,3.11-.04l-1.19.31c-.5-.46.12-1.46.92-1.65.23.08.92.35.35.65,1.3-.77,3.57-.88,4.06-1.46.84.08.81.8.46,1.19,2.8-1.69,1.42-.23,4.22-1.92l.12.54.84-.92,1.8.69-.73-.54c.96-.38,1.5-.92,2.72-.96l-.23.92c2.68-1.23,3.6.38,5.98-1.5.23.08-.12.46-.31.65,2.11-1.96,2.26.88,4.29-1.34-.08.31.27.57.27.81l1-.84.23,1.07.46-1.84,1,.92.31-.65c1.76,1.73,3.03-.31,5.06.81l-.65-1.26c3.37-3.95,9.78-.96,14.3-3.34l.15,1.11,1.73-1.72c1.27.61-.46,1.07,0,1.53,2.03-1.03.54-1.8,2.99-2.61,1.42.5-.31.88-.81,1.38,2.22-1,5.6-2.22,7.32-1.84,0-.15.08-.34,0-.42,1.5-.77,3.6-.5,5.29-.81,0,.5-.38.65-.81.81.61,0,1.5.27,1.96-.31l-.54,1c1.3.04,3.72-1.03,4.1.08-.19-.42-.19-1.27.92-1.27.69,1.65,2.99-.88,4.83,0-.19.38-1.5.5-1.11.54.88.42,1.65-.34,2.45-.88l-.23.69c1.38-.34,2.76-.57,4.14-.84.54,1.69,3.95,0,3.57,1.23,1.46.15-1.19-.84.69-.88.42.77,1.73-.15,1.53.92l-.23.12h1.3l-.92,1.03c1.15-.11,2.11-1.11,2.26-1.92,1,.77,2.61.46,2.95,1.53l-.42.19c3.11.04,4.41,3.8,7.09,2.45.15.19.08.46-.31.34l1.84.46-.61.69,3.34-.54-.15.54c1.96.73,5.18,1.27,7.86,1.88l-.46.15c3.11,0,2.61,1.3,4.87,1.38-.12.12-.19.15-.31.15l1.88.58-.58.38c1.76-.69,3.49,2.76,2.95,1.53.96-.23,2.53-.38,2.99-.96,2.07.65.27.84,1.42,1.73,1.46.57,2.07-.23,3.91.96l-.23.5c1,.23,1.72.08,3.07.5l-.5.12c2.57-.31,2.15,2.53,4.72.88.77.77,2.61,1.07,2.15,2.07,2.95.34,5.21.81,8.05,1.38-.19,1.88.61.11,1.88,1.69l.23-.96c3.87,1.3,7.32,5.25,11.58,6.52l-.23.96,1.23-.65c4.3,2.19,9.82,4.91,13.27,6.4,1.34,0,3.53-.31,5.18.81h-.23c3.37.88,6.83,2.07,9.97,4.14-.38.27-.19.69-.65.77,1.27-.57,1.99.88,2.68,1.27l-.54-1.07c1.34-.38,2.34,1.11,2.49,1.95l1.96-.23s.15.34.08.5l.5-.34.19,1.57c.5-.04,2.57.65,3.76-.12-.04.46,1.19,1.46,0,1.11,1.76,1.03,3.45,2.07,5.18,3.18l-.61-.84c.34-.92,2.26-.58,2.88.27-1.46.08-.77,1.15-.65,2.03.96-.08-.19-1.11.42-1.34,1.23-.08,3.34.69,3.57,1.34h-.73c1.38.42,1.11,2.22,2.34,2.84,1.46-.04,1.88,1.04,2.53-.54,1.72.61,0,1.34.42,1.76,1.15-.27,2.99,1.5,2.8,2.42,2.15-1.57,3.6,3.26,4.98,1.76l.58,1.8c.34-.42,1.27-1.3,2.38-.84.57,1.11-.15,1.76-.23,2.41l1.77-1.3c4.03,5.41,11.66,9.24,15.68,15.22,2.65,1.61,6.17,3.56,8.59,6.25l-.46-.08,2.19,2.91-1.19-2.49c.73.38,1.46.54,1.99,1.08,2.23,3.41,5.14,7.94,9.16,10.93,3.91.81-.15,2.99,3.14,4.14-.34-.04-.65.08-1,.08,2.76,1.99,4.22,3.11,7.44,4.83-2.07,1.19,1.42,1.65.27,2.22l.92-.38c0,.96.96,2.45.27,2.68l1.84.42-.69.69c1.15,1.57,4.37,4.45,3.41,6.48,4.14,2.99,8.36,9.59,11.58,14.8,1.15.27,2.22,1.69,3.07,2.8l-.12,1.88c1.11.96,3.18,1.38,3.26,2.92-.12.08-.23.08-.34,0,1,1.07,1.23,2.57,2.88,3.11.81,1.34,1.15,2.99,0,3.14,1.73-.92,1.53,2.95,1.53,2.95,0,0,2.42,4.41,6.14,11.27,3.61,6.9,8.36,16.3,12.73,26.31,4.41,10.01,8.36,20.71,11.5,30.02,3.14,9.32,5.83,17.37,8.63,22.01,1,.57,1.72,2.34,2.84,1.61.46,1.38-1.19,2.11-.23,2.34.5-1.96,2.53.5,3.57-1.42l.31,1.23c.69.23-.88-1.65.38-1.38l-1.8-.27c.19-1,.54-1.57,1.11-1.96-.77-.88-3.22-1.3-2.3-3.56l.15.61c-.19-1.8,1.07-1.19,1.34-1.61v.38c.31-.54.5-1.07.77-1.61-.42,1.19,1.07,2.99.92,1.99.34-2.22-.38.61-.73-1-.23-1,.77-.81,1.34-.81l-.31-1.8c.84,0,.12,1.23.88.38l-1.15-2.19c2.03-.69-1.3-2.38.54-3.68.69,1.61.69-.27,1.38-.08-.23-1.38-.54-2.72-.81-4.06.23-.42.84.96.61.34.42-.88-.73-1.19-.81-1.57.5-.46-.58-3.03.81-3.18.34-2.95-1.99-.81-1.77-3.53.77-.54.65,1.99,1.27.65l-.92-2.61c.46.15,1.46.19,1.53,1.26-.27-3.76.38-6.9.65-9.89.31-3.03.34-5.94-1.34-9.05.65-1.27.88.46,1.73.92-2.84-4.37-.19-7.48-1.88-11.47l-.81.23c.27-6.6-4.1-12.65-6.06-19.21l-.19,1c-1.11-.5-1.8-1.84-2.68-2.65.31-.34,1.96-.08.77-1.69-.08.5,0,1.38-.46,1.34-.65-6.17-6.98-16.72-11.08-25.35-7.25-10.58-13.77-22.85-21.59-32.59,1.19,1.5-.96,2.07-1.42.61.46-5.21-4.52-5.1-5.1-9.7-5.33-5.06-7.25-12.12-13.8-15.61l.65-.77c-.34-1.08-1.04-.84-1.84-1.57l.23-.15c-1.42-2.19-4.3-3.8-4.95-5.18l-.88.69c-1.11-1.03.08-1.15-1.46-1.88l.42-.34-2.03-.58c1.5-1.23-2.91-3.22-3.22-4.68-1.65-1.15-4.99-3.18-6.98-5.48.27-1.15-2.57-3.57-4.06-5.48-1.84-1.46-4.1-3.11-6.48-4.87-2.34-1.8-4.83-3.68-7.13-5.52l-.65,1.08-1.27-.84c.19-.19.12-.46.34-.42-.11-1.88-3.1-1.69-3.64-3.11,0,1.38.77.73,1.5,1.27.69,1.19-1,1.5-2.03.08l.19-.19-1.3-.08c.46-.88-.15-1.84.27-2.72-4.3-2.68-8.09-2.95-12.23-6.06,1.03-.69-3.34-1.61-1.46-2.72-3.03-.92-.34,1.57-2.22,2.03-.73-.46-1.76-.46-1.53-1.15.58-.19,0-1.34.65-1.15l-1.84-.92c-.11-.23.42-.23.69-.23-4.18-1.07-5.91-4.72-9.74-5.44-.57.5,1.23.84.65,1.34-3.99-.46-2.38-2.61-5.94-3.34l1.07-.5c-1.3.08-2.11.58-3.41-.92.19-1.15,1.84-.15,2.88-.19-1.11-.61-4.14-1.76-3.72-.42-1.53-.34-1.61-1.46-2.22-2.11-.15.23.96,1.3-.08,1.38-1.57-1.5-4.49-2.84-6.75-3.95.15-.23.15-.69.42-.73-2.45.5-1.23-1.72-3.91-2.57l-.04-.08Z"/>
  <path d="m119.94,3.37h1.07c0-.23,0-.54.42-.84l-1.5.84Z"/>
  <path d="m170.15,6.56s.31-.12.42-.19c-.27,0-.38.08-.42.19Z"/>
  <path d="m182.18,7.77c-.88,0-.23.5.08.88.08-.19.15-.46-.08-.88Z"/>
  <path d="m93.68,12.14s.19-.31.12-.54c-.19.27-.19.42-.12.54Z"/>
  <path d="m22.93,31.66s.19,0,.31.08c-.08-.08-.19-.08-.31-.08Z"/>
  <path d="m27.35,32.2c.19-.04.42-.15.77-.38-.35.04-.58.19-.77.38Z"/>
  <path d="m111.32,7.47c.27-.08.54-.23.73-.5-.42.12-.61.31-.73.5Z"/>
  <path d="m28.84,31.36l1-.15s0-.12-.04-.23l-.96.38Z"/>
  <path d="m21.67,31.86c.38-.08.92-.23,1.27-.23-.58-.15-.96-.04-1.27.23Z"/>
  <path d="m68.1,20.93s.08,0,.12-.04c.65-.69.19-.34-.12.04Z"/>
  <path d="m32.6,28.28h.15l.19-.38-.35.38Z"/>
  <path d="m17.3,32.7s.35-.19.42-.34c-.15,0-.35,0-.58.04.08.12.12.23.15.31Z"/>
  <path d="m52.92,23.53c-.15.46-.19.77-.15,1,.31-.12.46-.34.15-1Z"/>
  <path d="m238.05,122.51s.08.38.23.54c.08-.5-.15-.42-.23-.54Z"/>
  <path d="m263.67,155.98l-.54-.92c.23.65.38.84.54.92Z"/>
  <path d="m207.69,90.07s.08.04.15.08c-.27-.81-.65-1.88-1.23-3.64l1.07,3.57Z"/>
  <path d="m299.56,124.2l-.08-.19s.04.34.08.19Z"/>
  <path d="m292.97,131.4c-.23-.19-.34-.46-.42-.73,0,.27.08.5.42.73Z"/>
  <path d="m194.76,63.22l2.07.73c0-.31-.69-.65-2.07-.73Z"/>
  <path d="m138.89,66.98s.08.12.15.15c.08-.08,0-.12-.15-.15Z"/>
  <path d="m160.67,69.59c.46-.08,1-.19,1.57-.34-.65,0-1.5.04-1.57.34Z"/>
  <path d="m162.93,69.05l-.73.19c.42,0,.77-.08.73-.19Z"/>
  <path d="m47.25,44.01c-1.57.11-2.84.81-4.18,1.38l4.18-1.38Z"/>
  <path d="m334.64,129.34l.42.23c-.23-.31-.34-.31-.42-.23Z"/>
  <path d="m45.86,50.49h-1.11c.42.04.77.04,1.11,0Z"/>
  <path d="m219.84,86.18c1.23,1.27,1.53,4.64,2.19,4.41-.69-1.57-1-4.03-2.19-4.41Z"/>
  <path d="m293.07,109.55l-.58-.81c.27.38.46.65.58.81Z"/>
  <path d="m45.87,50.49h1.3s-.27-.15-.42-.27c-.27.12-.58.23-.88.27Z"/>
  <path d="m196.33,99.62h.04s.11-.27.15-.38l-.23.38h.04Z"/>
  <path d="m188.58,105.63c.42-.54.84-1.03,1.3-1.61-.84.73-1.15,1.23-1.3,1.61Z"/>
  <path d="m43.02,45.35l-2.42.77c.88-.15,1.65-.46,2.42-.77Z"/>
  <path d="m226.24,94.98c-.15.31-.31.61-.46.88.23-.34.38-.65.46-.88Z"/>
  <path d="m292.77,134.24c-.04.27-.08.61-.12.88.15.08.27,0,.12-.88Z"/>
  <path d="m268.69,54.02c.19-.61.23-2.19.23-3.64.04-.27.08-.5.08-.73-.08.08-.15.19-.23.27-.19.96-.27,2.11-.08,4.06v.04Z"/>
  <path d="m274.6,47.82s-.31-.08-.54-.15c.19.08.34.12.54.15Z"/>
  <path d="m272.25,130.95h.08s-.04-.08-.08-.08v.08Z"/>
  <path d="m268.76,105.18c.08-.31.12-.8.12-1.42-.12.27-.15.73-.12,1.42Z"/>
  <path d="m302.59,63.92l.04.08v-.08h-.04Z"/>
  <path d="m316.35,169.97c1.53,7.48,2.57,16.34,2.07,24.77l28.95-2.45c-2.07-6.4-3.95-12.65-5.37-18.29-2.26-2.65-3.57-7.06-5.14-11.39l1.76-1-1.65-3.53c.15-1.69,1.15,2.76,1.11-.12l-1.57-1.07c.58-.5-2.22-9.66.88-3.8l-4.03-14.42c-.84-3.18-2.11-1.42-2.61-5.06.35-.88.73,1.15,1.34.69-.38-2.76-1.03-4.83-1.8-6.52-.38-.84-.81-1.65-1.23-2.38-.15-.19-.58-1.19-.88-1.8l-.96-2.03c-2.57-5.33-4.87-9.51-7.02-18.75l.61,1.23c-1.27-2.53-2.8-8.24-2.99-7.98-.73,4.68,1.61,1.84,2.3,8.59-1.38,1.23-2.49-5.48-3.26-3.61-.65-4.56-1.92-5.56-2.88-8.55-.5-3.57-1.5-6.94-2.45-9.86-.96-2.95-1.92-5.48-2.38-8.24-1.11-.84-2.53.46-4.18-2.61-.96-4.76.54-1.99-1.07-5.79l-.42,1.42c-1.3-2.53-1.11-2.65-1-3.41-1.53-2.26-1.3.5-3.22-3.26.38,0,.77-.08,1.15-.15-1.5-1.26-2.03-2.38-4.49-4.95,0-.81,1.03.23,1.69,1.19-1.3-3.57-2.22-1.3-2.99-2.26.27.81,1.99,2.84,1.23,3.45-1.23-1.5-2.57-.84-3.72-3.3h1.42c-2.91-1.34-1.34.27-5.21-2.76.19,0,.08-.34.11-.54-2.3,0-6.13-3.14-10.97-3.95l.84-.12c-1.84,0-2.72.73-3.83.5,2.99.96,2.26,1.19,2.8,2.19-1-.61-1.84-.81-2.65-.81-.73.08-1.73-.08-1.92.81-.73,1.34-1.34,3.34-2.38,4.37-.27-.92-.19-2.57.77-2.61.08-1.57.04-2.72.23-3.72.23-1,.38-2.11,2.42-2.07-.58,0-1.19.04-1.76.08-.35.23-.65.42-.92.54-.5.27-.84.27-.84-.19l.23,2.07c-.69.54-1.19.84-1.61,1.19.31,1.72,1.8.96,1.03,3.41,0,.08-.04.15-.08.23-.31,3.22-1.15-1.07-.84.42-.19,4.83.73,4.26.23,7.1-.08-.58-.23-1.73-.12-1.77-.61,1.5.19,6.71-1.38,3.95-.34-1.15-.77-2.26-.58-2.84l.23.58c-.88-4.99.15,2.8-1.19-1.11.84,1.72.42,4.41.08,5.75l1.15,1.84c3.18,12.69-2.23-5.18-2.26,1.42.65,5.67.42-.84,1.19,3.37-.15,1.15-.57,1.46-.88,2.07-.31.65-.34,2.26,0,5.29-.27.27-.58.81-1.03,1.03-.38.38-.81.65-1.61-.42.61,2.72.88,5.75,1.23,8.82.46,3.22,1.03,6.44,1.99,8.59,0-6.21-2.99-10.2-1.99-15.88l1.92,4.72c.58,5.45,2.68,14.11,2.8,17.6.15-.54.46-.54.88.31,1.84,8.86,3.56,11.89,4.06,19.02-1.07.54-1.46-3.91-1.96-7.29-.38,4.41.73,5.29,1.11,12.81-.96.19-.42-5.18-1.65-6.52.57,3.11.88,5.98,1.26,8.89-.08-.04-.11,0-.19,0,.88.73,1,2.3,1.03,4.45-.08,1.42-.34,2.95,0,4.52.27,7.48,2.38,8.59,3.64,12.85-.46,1.11-.88,1.42-1.3.96.77-1.84.19-1.53-.23-2.19.19,2.57-1.88,5.45-2.42,3.99.23,3.99.96-1.38,1.3,1.07-.15,1.8-.27,3.64-.54,5.41.92-.54,1.3-2.45,1.61.42,0,2.41-.27,3.56-.88,6.59-.34-.5-1.42.77-1-1.53-.58,1.42-.92,3.72-.31,4.72,1.46-3.18-.46,5.56,1.34,3.37l-1.03,2.26h12.46l-.04-1.07c.12.46.34.65.54.96h-13.42c-.04-.23-.04-.54.12-1.04-.42.19-.61.5-.69.88h14.53c-.27-1-1.42-1.99-1.72-2.88-.08-1.3-.81-4.6-.42-4.99-.65-1.04-1.11-3.87-.65-4.52-.73-1.61-.84.08-1.38-.27l-1.53-5.67c.58-.5,2.34-1.53,2.84-.73-1.27-1.96-2.22-.19-3.11-3.41,1.88,1.46-.31-4.56,2.07-2.38.38-2.15-1.34-7.44-2.65-10.24-1.61-1.46.46,3.34-.65,3.49-3.07-8.01-6.17-7.48-7.78-13.5l.27,1.61c-1.92-3.45-1.65-3.07-3.34-4.87.84.27,1.3-1.11,1.23-3.26,0-1.07-.19-2.38-.54-3.76-.15-.69-.38-1.38-.61-2.11l-.42-1.19-.69-1.61c-.46-.23-.23,1.19-.19,2.34-.04.92-.15,1.8-.84,1.5l-2.15-4.75c-.08-.42.38,0,.81.61-1.19-2.22-1.73-4.68-2.3-6.75-.58-2.03-1.08-3.61-1.92-3.53-.27-2.22-.58-4.6-1-7.06l.42,2.95c-.73,0-3.26-4.95-3.87-5.64-2.8-4.18-3.34-6.75-4.6-11.35.34,2.03.96,6.37-.96,2.84.15-1,0-2.15-.38-3.34-.15-.58-.38-1.19-.61-1.8-.27-.08-.65.69-.96,1.04-1.34,1.8-2.72,3.87-2.65,2.8-1.07,1.57-3.07,3.22-3.07,4.87v-2.45c-.08,3.53-3.83,8.67-6.6,13.46-.23-2.03-1.03-.73-2.11,1-1.07,1.72-2.3,3.72-3.76,3.76.65,2.26-5.48,9.39-2.88,8.28-.08.27-.73-1.72-.81-2.65.15.15.27.38.38.61,0-.81.34-1.77.84-2.95-.23-1.23-.5-2.41-.61-3.53-.34.54-.73,1.03-1.19,1.38l.12-1.76c-.27.46-.88-.54-.84,1.23l-.27-1.03c-.96,2.42-.73-.61-1.88-1.69,0-.77.35-1.08.61-.96-.31-.96.42-1.53.65-2.57-.04.5-.84.61-1.65.73-.8.15-1.65.31-1.38,2.22-.42.92-1.5-.61-1.72-2.07.31-.61.65-1.23,1-1.77-.61-.08-1.23-.19-1.88-.38-.92-1.88-.23-2.91-.81-4.99.38.92,1.53,1.88,2.22,1.65.34-.08.69-.23.81-.69.08-.54-.04-1.42-.5-2.68.31.65.58,1.19.88,1.69.31.5.61.92.77,1,.42.34.81.54,1.07.77-.15-.54-.08-.81.77-.42-1.11-1.69-.84.46-2.38-3.26,1.38-.27,1.42-1.5.61-5.1v2.91c-.23-.08-.42-.19-.58-.38.19,1.03.12,1.38-.31,1.76-.27-.77-3.26-3.99-2.72-4.91-.61,4.68-4.06-6.33-4.37-3.37-.54-.31-1.61-3.03-1.07-3.56,2.19,2.95.57-3.03,1.69-2.8-.81-1.07,0,2.95-1.11,1.46-.69-1.69-.73-4.33-1-5.98l.69,1c-.38-1.53-.88-3.03-1.5-4.49-.84-.19,1.07,4.52-1.11,1.15-.19-1.19-2.99-4.03-2.65-4.3,1.96.77,1.96-1.38,4.37,1.53-.84-1.34-3.07-3.87-5.21-4.95-2.15-1.11-3.64-1.23-2.19.12-1.04-.54-2.15-1-3.3-1.3,1,.5,2.76,1.69,3.34,2.45.58.84.31.69-2.8-.42l.19-.23c-1.61-.19-3.26-.08-4.83.15-.61-.27-1.23-.54-1.88-.81,0,.34-.77.65-2.42.65-.54-.42-1.8-.54-1.69-1.11-3.76.12-3.45.81-3.91,1.23-2.11.12-2.88-.15-1.92-1-2.88-.15-7.9.12-9.85-.61-3.83.69.81.27-1.46,1.27-3.37-2.38-12.73-.77-19.02-.38,1.73,2.11-1.73.27-2.84,2.19,1.34-.69-5.98-1.57-.5-2.22l-3.34.27c-2.3-1.11,5.52-.96,2.03-2.49-3.76.12-6.21,2.45-10.62,1.76,1.46-1.53-3.41.54-2.34-1.11.92-.54,2.15-.42,3.41-.54l-.77-.27c-8.24-.31-2.38,1.8-6.67,2.88-5.02.27-3.99-1.11-4.29-1.84-.81-.27-3.3,0-4.64.38,3.07-.96,5.68.88,4.29,1.84-2.22-1.69-7.48-.04-8.82.65,7.21,1.73,4.98,0,11.73,1.88.92-.54.73-2.07,4.79-1.5-2.53.81.19.84.92,1.07-.81-.88,2.8-.42,4.03-.8,1.15.69-2.38,2.07,1.73,2.38l.73-2.07c1.61.31-.65,1.53,2.76,1-1.84,1.11.58,1.69-4.03,2.07,5.52,1.69,8.44-1.08,12.73-1.88-.42.15-.5.42-.92.54.92-.54,2.57-.54,3.83-.69,2.84.42-2.22.96-1.5,1.53l4.56-.12s.12.12.12.15c1.19-.31,2.34-.5,2.76,0-1.34.69-1.88,1.38-2.8,1.92l4.79-1.5c-.5.69,3.99,1.11.58,1.69l7.09-.38.61,1.38c1.69-.27,1.76-.54-.31-.69,2.45.31,10.74-2.61,9.51.19,2.8-.61,4.68-.81,6.71-.96,2.11-.08,3.99-.38,7.36-.42-2.68.42-1.3.92-.19,1.42,1.11.57,2.07,1.11-.23.84,2.22,1.19,3.53.23,5.29,1.69.77,2.22-.81,2.19-2.42,1.27.69.34,1.3.81,1.88,1.3l-.23.15c.54.38,1.07.84,1.57,1.34.15,2.41-1.04,1.15-.5,3.18.42,0,.88.04,1.34.12v2.07c.27-.88,1.08.65,1.88,2.57h-.27l1.07,2.38c-1.57-2.11.54,2.26-.69,1.5.69,2.07.73,2.11,2.26,5.71l.58-.92c2.41,4.56-1.11.61.23,4.56l.84-.57c.08,1.38.54,3.14,1.11,4.75.57,1.57,1.19,2.95,1.8,4.22,1.27,2.57,2.38,4.6,2.95,7.71-1.23-2.72-1.77-.92-1.53-1.11,1.92,4.22,4.56,12.38,6.71,14.92.04,4.25,0,5.44,1.72,12.04.15.42.31.84.42,1.07,2.49-3.87,3.03-5.02,3.91-7.55,3.14-3.68,8.47-13.04,9.28-12.38-.42-.84,1.03-1.23,1.11-2.57l.38.15-.77-.61c1.69-.57,2.15-1.8,2.84-3.41.61-1.53,1.46-3.41,2.61-3.45l-.27.84.69-1.72c.19.5-.08,1.34,0,2.22l3.22-4.45s-.34-.34-.58-.5c.19-.31.35-.73.54-1.15.15-.31.38-1.19.5-.84.31.19.57.61.84,1.88-1.46.5.88,1.99.65,4.26l-.65-.42c.69,1.3.73,1.3,1.03-.38,1.15,1.69-.23,4.1,1.11,4.45l-.54-1.34c.08-1.23.92-1.34,1.38-.27,0,.42.08,1.61-.31,1.03,1,1.27,1.73,4.3,2.3,4.72.15,1.15-.57,1.26-.92,1.03,1,1.34,1.15,1.8,1.27,2.19.04.19.11.38.31.77.27.61.73,1.46,1.5,2.84l-.54.11,1.38,1.77v3.3l.27-1.3c.84,1.88,1.65,2.95,2.19,5.33l-1.11-.61c2.42,5.29,1,6.75,3.87,11.62,0,.42-.54-.31-.81-.69,2.88,4.45-.19,4.1,2.91,8.51-.34-.23-.5.42-.8.31l1.19,2.07-1.11.15,2.11,1.34-.69,1.73.77.73c-1.3,2.99,1.19,5.9.54,9.62l1.19-.92c2.03,3.03,2.99,6.79,3.61,10.85l5.41,35.12,11.5-35.12c2.07-6.29,4.49-13.19,4.3-20.05l1.07.31-1-4.79c1.03-2.45.84,1.57,1.46.81-.31-5.06-1.5-2.19-1.69-7.94.81-2.95.81,1.04,1.15,2.45-.31-5.48-1.3-13.34-.92-17.14-.15-.08-.34-.31-.42-.08-.12-.54-.23-1.07-.31-1.69-.08-.42-.08-.88-.08-1.34,0-.92,0-1.69-.12-2.49.54.34.65.73.81,1.15,0-.5.31-.88-.27-1.69l1.07,1.15c.12-.65-1.11-3.49.15-2.34-.46-.42-1.42-1.42-1.5-2.3.96.88.69.19.23-.96-.42-1.11-1.03-2.76-.58-2.57.54,1,.81,2.07.77,1.84.46.23-.61-1.84-1.42-3.68l.92,1.69-1.8-5.64c1.11,2.03.92,1.19.65.15-.27-1.03-.65-2.22.27-.11-.12-.96-.92-1.42-1.46-3.61,1,1.99-.77-2.65.92,1.3l.23.61-.27-1.3,1.72,4.49c-.46-1.46-2.19-6.21-3.49-9.51.84,1.46.04-1.92,1.65,1.92l.38,1.42c-.04-.38-.08-.61,0-.73.27-.46,1.5,1.92,2.53,3.95,1.27,2.34,1.84,3.53,1.5-.15.23.77.5,2.03.31,1.88.31.23.61.5.88.77l.54,3.64c0-1.72.08-3.34.27-4.75l.27,2.38c.81,1.61,1.5,1.65,1.99,2.38l-.08.73c.58-1.46.38,2.92.77,1.96-.04.38-.08.5-.08.58l.23.77-.19,1.26c.23-1.3.27.19.15,1.34-.08,1.19-.23,2.26-.08,1,.27-1,.73-1.72,1.11-2.88.34.96-.27,1.61-.38,2.95.12.58.77-.61.69.96l-.38.65c.15.19.54,0,.77.54l-.27.08c.58-.04.34.65.19,1-.15.42-.23.5,1.03.54v.54c.04.31.12.61.15.92.11.61.27,1.27.38,1.84.23,1.15.27,2.07-.27,2.15,2.3,5.52,3.87,9.89,5.91,15.45-1.5,1.42.46,1.19.42,4.91l.88-.5c2.38,8.01,2.65,17.87,5.52,26.61l-.88.5,1.53,1.5c1.07,4.49,2.3,9.63,3.34,13.92l17.98,75.27,10.01-77.65c.96-7.4.96-13.8.77-18.56-.65-2.91-2.19-7.17-2.49-11.73l.19.46c-1.65-7.82-3.91-15.76-5.98-24,.54.38.57-.5,1.11.31-1.61-1.61-1.61-4.72-2.22-6.48v2.26c-1.65-1.96-1.99-5.48-1.8-6.9-.81-1.03-1.57-2.11-2.41-3.14,0-.27,0-.69.11-.81l-.73-.42.38-2.38c-.57-.77-3.03-5.18-4.83-6.02.23-.5-1.07-3.8.38-1.46-1.92-4.18-4.03-8.24-6.21-12.23l.65,2.07c-.73.69-3.26-2.49-3.99-4.52,2.11,1.96,1.3-.54,1.3-1.92-1.42-1.3.11,1.84-.88,1.27-1.73-1.65-4.68-5.56-4.95-6.83l1.07.92c-2.03-2.42-1.38-4.56-3.22-7.05-2.22-1.8-2.8-3.91-3.83-2.45-2.61-2.99,0-1.92-.58-3.03-1.72-1.07-4.64-5.75-4.37-6.83-3.26-.23-5.83-8.9-7.98-8.21l-1.11-3.22c-.5.27-1.84.57-3.68-1.3-1.07-2.26,0-2.41,0-3.37l-2.65.08c-2.07-3.3-3.11-5.1-8.44-11.54-4.45-5.48-9.28-11.12-14.15-16.83l-.92-1.07-.46-.54s-.31-.58-.46-.23l-1.99,1.92-4.03,3.83c-2.68,2.57-5.41,5.14-8.05,7.67-2.72,2.53-5.45,5.06-8.09,7.52l-.77.69-.57.46-1.11.92c-.77.61-1.5,1.19-2.26,1.8-4.49,5.02-9.85,11.66-15.64,16.95l.42-.81-5.94,5.06,4.72-3.3c-1.04,1.38-1.73,2.57-2.92,3.72-6.71,5.41-15.57,12.65-22.39,20.82-3.18,6.48-4.72,1.69-8.17,7.52.23-.54.15-.92.35-1.46-4.49,5.52-6.9,8.47-10.97,14.42-1.07-2.22-3.22,3.26-3.64,1.92l.27,1.11c-1.53.69-4.29,3.14-4.41,2.26l-1.38,3.03-.88-.5c-1.11,1.07-2.61,2.68-4.22,4.29l18.9,19.29c2.84-2.92,5.91-5.83,7.78-6.06,6.48-8.9,17.41-21.86,25.23-32.67.42-1.99,2.57-5.21,4.14-7.78l2.76-2.03c1.34-2.76,1.88-6.29,4.03-8.28.12.08.12.23.08.46,1.46-2.76,3.53-4.91,4.1-7.94,1.84-2.84,3.99-5.33,4.41-3.91-1.5-1.27,3.87-5.98,3.87-5.98,0,0,.34-.57,1.03-1.65,1.19-1.96,2.88-4.79,5.1-8.47,2.99-4.06,3.83-8.55,5.64-13.92l.31-1v-.88c0-.57,0-1.19-.08-1.8-.12-1.23-.38-2.61-.88-4.06-.5-1.5-1.23-2.92-2.03-4.1-.88-1.19-1.53-2.34-2.99-3.3-1.46-.92-2.95-1.88-4.49-2.84-.77-.5-1.53-.96-2.3-1.46-.42-.23-.73-.54-1.23-.73l-1.53-.5c-4.18-1.27-8.44-2.84-13.04-3.99-1.5-.38-3.03-.73-4.56-1.11-1.34-.27-2.68-.58-4.06-.88-2.72-.61-5.56-1.03-8.44-1.53-11.54-1.76-24.04-2.61-36.7-2.34-25.38.38-51.04,4.83-72.4,9.24-21.4,4.52-38.88,8.67-48.74,12.16-1.27,1.11-4.98,2.03-3.45,3.03-2.88.61-4.37-1-4.83,0,4.03.31-1.07,2.57,2.95,3.45l-2.49.42c-.46.73,3.37-1.03,2.84.23l.58-1.84c2.07.12,3.18.38,3.99.92,1.84-.88,2.8-3.37,7.48-2.84l-1.23.23c3.68-.5,2.42.88,3.22,1.11l-.81.08,3.22.54c-2.45-.31-6.21,1.57-4.14,1.23,4.49,0-1.19-.31,2.11-.88,2.07-.34,1.57.69,1.57,1.23l3.72-.54c0,.84-2.45.27-.84.92l4.56-1.5c1.15,1.96,4.95-1.69,7.36-.04-3.3.96.38.65,0,1.42l8.24-1.34c.84.15-2.07.96-.84.69,1.65.34,2.49-.88,3.3-1,.81.46,6.14-.96,6.14.42,5.75.04,2.07-2.11,7.4-2.15.81.73-4.1.84-1.65,1.34l5.37-1.15c-.42.5-.84,1.53-2.88,1.65,14.76-1.19,23.24,1.99,36.27-.73,1.99.77-1.27.84-2.49,1.65,9.39-2.49,13.61.65,21.63,0l.08-.84c11.35,1.8,24.66,0,36.89,2.19l-1.42-.73c1.77-.61,4.52-.5,6.56-.61.27.46-1.65,1.57,1.92,1.69-.69-.38-2.15-.88-1.65-1.23,2.57.84,5.87,1.65,9.55,2.57,1.84.46,3.8.96,5.83,1.5.96.27,1.92.54,2.91.84l.69.27c.84.42,1.73.65,2.26,1.23.23.42-.19.92-.46,1.23-.31.34-.61.69-.92.92l-.27.61-2.03,3.53c-1.61,2.68-3.26,5.41-4.87,8.13-3.34,5.41-6.83,10.7-10.35,15.91-7.13,10.39-14.57,20.24-21.86,29.26,2.19-2.76,2.84-.31.77,1.46-7.09,3.11-7.9,9.39-14.19,13l20.02,20.4c.23-.11.5-.27.77-.42,9.43-10.85,20.67-17.68,28.3-28.95l.88.54c1.72-1.07,1.65-1.96,3.07-3.49l.15.23c3.8-3.22,7.32-8.09,9.7-9.78l-.65-.92c2.03-2.11,1.69-.46,3.38-3.03l.31.46,1.76-3.22c1.11,1.61,6.02-5.71,8.32-6.71,2.45-2.91,7.02-8.55,11.39-12.35,1.46-.04,6.48-5.02,10.05-7.82.73-.77,1.5-1.57,2.3-2.41l.15-.27c.11-.19.27-.42.46-.65.38-.84.77.23,1,.61l.65-1.15.38.31c-.19.19-.23.34-.38.42-.19.34-.23.5-.23.57l.04.08.42.46.88.88c1.23,1.15,2.49,2.26,2.88,3.45-.08-1.84-1.15-1.65-2.19-2.91-1.07-2.19,1.34-1.27,2.88,1.57l-.27.12,1.92,1.23c-.57.81.31,2.61-.31,3.41,6.1,7.06,11.39,10.97,16.6,18.91-1.42-.15,4.18,5.37,1.5,4.91,3.83,4.22.73-1.65,3.3-.31.88,1.3,2.22,2.41,1.8,3.03-.8-.34-.27,1.72-1.11.73l2.19,3.07c.08.38-.61-.15-.92-.46,5.1,5.83,6.02,12.08,10.05,17.45.84.12-1.04-2.45-.23-2.34,4.33,5.41,1.65,5.87,5.1,11.12l-1.38-.81c1.34,1.57,2.57,2.07,3.03,5.45-.81.96-1.88-2.26-3.03-3.49.92,2.07,3.18,7.29,3.53,5.29,1.3,2.42.65,3.68.88,5.14.27-.04-.15-2.61.88-1.3.65,3.68,2.34,9.05,3.18,13.38-.27,0-.61.42-.84.08,2.22,3.11-.31,3.3.8,7.9l.04-.08Z"/>
  <path d="m272.41,134.16l-.11-3.22c-.27,0-.54-.19-.96-1.76l1.11,4.99h-.04Z"/>
  <path d="m288.51,51.38h.54c-.38-.19-.5-.08-.54,0Z"/>
  <path d="m302.36,61.96c-.81-.65-.12.84.23,1.96.04-.38.04-.92-.23-1.96Z"/>
  <path d="m284.91,169.78c.19.31.38.5.61.38-.31-.42-.5-.46-.61-.38Z"/>
  <path d="m224.43,98.99s0,.23-.04.38c.04-.11.08-.23.04-.38Z"/>
  <path d="m224.7,104.79c.08.23.23.5.42.73-.12-.5-.27-.65-.42-.73Z"/>
  <path d="m275.48,151.54c0-.54-.12-1.04-.34-1.5,0,.81.15,1.23.34,1.5Z"/>
  <path d="m225.63,106.14l.34,1.3s.08-.19.12-.31l-.46-1Z"/>
  <path d="m224.14,97.74c.11.38.27.88.31,1.27.08-.69,0-1-.31-1.27Z"/>
  <path d="m265.62,117.06s.08.15.15.27c1.26,1.84.57.61-.15-.27Z"/>
  <path d="m228.12,107.43l.04.19.19-.31-.23.11Z"/>
  <path d="m222.02,90.56c.15.34.31.69.54.92-.08-.31-.15-.69-.27-1.15-.12.15-.19.23-.27.23Z"/>
  <path d="m247.44,84.7c-.5,1.42-.65,2.15-.69,2.57.54-.81.92-1.65.69-2.57Z"/>
  <path d="m110.01,298.93s.23.15.42.31c-.15-.11-.31-.23-.42-.31Z"/>
  <path d="m116.27,295.36l.15.19s-.08-.11-.15-.19Z"/>
  <path d="m106.76,301.34l-.08-.08s-.12.08-.23.19l.31-.12Z"/>
  <path d="m126.77,285.82v.08s.04,0,0-.08Z"/>
  <path d="m120.33,291.35s-.19-.23-.23-.27c-.08,0-.04.08.23.27Z"/>
  <path d="m96.67,296.94l.65.31c-.27-.19-.58-.35-.65-.31Z"/>
  <path d="m100.24,302.15s-.12-.15-.19-.27c0,.04,0,.08.19.27Z"/>
  <path d="m99.89,301.78l.12.15s0-.08-.12-.15Z"/>
  <path d="m149.13,241.1s-.35-.42-.69-.73l.69.73Z"/>
  <path d="m133.72,275.47l.23.19s-.15-.11-.23-.19Z"/>
  <path d="m96.17,294.15c-.54-.5.31-.19-.27-.58,0,.15-.5,0,.27.58Z"/>
  <path d="m143.64,237.92h-.19s.23.12.35.15c-.08-.08-.12-.12-.12-.15h-.04Z"/>
  <path d="m140.69,264.54s.08.04.12.08l-.12-.08Z"/>
  <path d="m142.04,264.54s.08.15.12.23c.12,0,0-.11-.12-.23Z"/>
  <path d="m148.44,240.38l-.42-.42s.19.27.42.42Z"/>
  <path d="m144.91,257.61s0,.08.04.11c0,0,0-.04-.04-.11Z"/>
  <path d="m119.68,291.58h-.15c.15.08.23.15.15,0Z"/>
  <path d="m107.02,277.69s-.19-.34-.61-.69c-.04.08.04.23.61.69Z"/>
  <path d="m102.92,280.45l.08.04-.04-.04h-.04Z"/>
  <path d="m103.42,279.49s.23.12.31.12c-.12-.08-.23-.12-.31-.12Z"/>
  <path d="m107.56,262.17c-.15,1.07.38,2.91-.5,3.56,1.15.96,1.04,1.27,1.11,1.69l-1.69-1,.38.54c-.58-.23-.19-.38-.92-.61l.96.73c-.61-.34-.77.34-1.73-.81l-.54.84s1.3,1,.77.92c-.5-.27-.27-.27-.88-.65-1.61-.15,2.76,2.76,1.61,2.88l-.19-.19c.38.38.19.54.42.69,1.73,1-.84-.69.27-.23,1.38.92.61.69,1.69,1.38-.61-.19.15.42.15.58-1-.34-.58.34-1.76-.19.38.38,1.69,1.38,1.61,1.61-1.19-.54-1.04-.69-1.57-.77l.81.54c-.23.08-.46-.08-.84-.34-.15.15,1.04.88.34.77l-.69-.61c.19.38,0,.34-.19.54-.46-.31-.38-.38-.19-.34-1.3-.65.38.54.19.54.38.19.65.15,1.38.73-.23,0,.96.96-.08.42l-.69-.61c.46.65.92.77.42.88-.04-.04-.27-.19-.42-.31.92.84-.15.46-.42.69l-.19-.19c.19.27.88.81.81.84.58.15.77.34,1.57.84-1.46-.65,1.34,1.3.35,1.11-.46-.31-.96-.73-.42-.54-1.3-1-2.45-1.76-2.99-2.38.23.34.35.61-.23.19l1.27.84s-.12.11-.15.15c.81.54,1.42.69,1.84,1.23.31.46-1.38-.73-.81-.34.35.61,1.3,1,.69,1-.08-.08-.27-.27-.15-.23-.65-.15-.08.61-1.65-.34-.31-.23-.77-.54-.61-.54l.23.15c-1-.92.19.38-1.15-.58.84.5.46.65.23.69l.96.57c2.57,2.22-1.84-1.23-1.73-.61.46.65.31.08.88.65-.27.08-1.15-.42-.88.08-.42-.19-1-.34-2.07-1.04.35.42-.77.15.19.88,1.04.31-.92-.96.61-.38l.96.73s.15.77-.31.65c.23.12.5.27.69.42.19.54,1.19,1.3.69,1.38-.96-.58-.69-.65-.69-.81-.88-.31-.19.15-.69.23-.84-.54.19-.15-.61-.73v.5s-.04-.08-.12-.12c1.34.92-.27.15,0,.61-.31.46,1.5,1.72,2.42,2.68-.42-.19-.77-.38-1.11-.65.69.27.19,0-.15-.27.04.23-1.57-.54-2.07-1,.23.5.77.38,1.11.8l-.31.27c.73.42.96.38,1.38.92.08.27-.08.27-.27.42-.31-.27-1.11-.65-.96-.77-.31-.08-.46.04.19.54.77.19.38.73,1.57,1.3l-.77-.19s-.42-.34-.23-.34c-1.11-.65.19.38.23.5-.27-.08-.46.08-.88-.19.27.27-.08.27-.65-.08.15.23.69.46,1,.73l-.31.27c-.61-.38-2.26-1.42-2.45-1.61.46.5,1.69,1.19,1.53,1.34-1.07-.84-1.04-.34-2.3-1.38-.92-.46-1.07-.12-.88.27.84.69.65.15,1.57.77,0,.69,2.53,2.42,1.88,2.45l.31.08c.38.57.27.46.96,1.11-1.11-.81-3.26-1.8-3.26-1.27.58.42,1.23.54,2.11,1.19v.34s-.27-.19-.38-.31c.27.5-1.76-.58-.46.34l-1.84-.88.77.38c.54.42.58.77.73.96.46.65-.08.42-.92.08.5.27,1.65.88,1.69,1.19-1.84-1.23-.96-.04-1.92-.69,0,.08-.69-.15.08.38l-1.15-.77c1.61,1.11,1.34,1.34,1.46,1.73-2.15-1.5,0,.34-2.03-.88,1.46,1.03.31.77,1.57,1.65-.04.23-1.42-.73-1.92-1l.5.46c-.77-.38-1.07-.15-1.69-.27l1.19,1.03-.65-.34c.31.27.42.54.96.77h-.15c1.42,1,.31.42.77,1.03-.27-.12-.58-.34-.77-.54-.08.08-.77-.46-1.3-.73.42.19,2.34,2.07,3.14,2.22.58.38.92.81.61.73l-1.3-.81,1.27,1.03c.08.27-.77-.23-1-.19,0-.19-2.3-1.92-2.45-1.61-.04-.27-.73-.84-.92-1.11-.08,0-.23,0-.73-.5.23.5.73.61.73.96-1.15-.81-1.53-.96-2.07-1.04l.96.42s.23.19.31.23c.15,0,.35.11.81.42-.04.04,1.23,1.23.5.81,1.96.96,1.11,1.34,2.26,1.92.31.27.27.46-.31.08-.73-.77-1.42-.73-2.19-1.3.27.31.96.42,1.34.8,0,.15-.77-.23-1.19-.38l-.19-.19-.65-.15c.54.42,1.11.5,1.27.84-.27-.12-.08.27-.54-.08-.73-.61-1.8-1.26-1.92-1.53,0,.19-.12.65,1.04,1.23l-.15.12c.54.23,1.57.57,1.53.96l-.23-.15.73.81-.65-.31c.31.19.54.42.46.46-.35-.23-.54-.23-1-.54-.08.27.5.61.81.88,0,.19-.27.04-.92-.46-.27.08-.31.46-1,.15.38.58.27.12.96.77-1.07-.57-1.38-.54-1.42-.27,0,.12,0,.31.08.5l4.06,2.76h-.08l-.12-.15c-.08-.08-.15-.15-.23-.19.15.15-.15-.15-.19-.23,0,.04-.23-.31,0,0l-.12-.15s.15.23.04.08c-.12-.15-.08-.19.12.34-.08-.19.15.46.12.31,0-.11-.12-.34-.15-.42v.08c.35,1.19.15.34.27,1,0,.77-.08.5-.04.57-.04.12-.08.19-.08.15-.04.11.12-.27.04-.12-.04.12-.12.15,0,.12.08-.04.38-.08.46-.08-.58,0-.46.12-.5.08,0,0,.08,0,.12-.46,0-.12.04-.12-.08-.77.08.42,0,0,0-.15.04.12-.12-.42-.15-.5,0-.08-.08-.04.27.61l-.38-.81s0-.04-.04-.08c.42.84.84,1.42.81,1.77.5.73.61.42.35-.08-.12-.27-.31-.58-.5-.84-.15-.23-.54-.65-.31-.42,0,0,.15.12.19.15-.23-.27-.15-.15-.08-.08s.12.12.19.15c.15.11.08.08,0,0,.12.08.35.34.54.5,0-.08,0-.04.08-.15.08,0,.08.04.12.08-.19-.23-.31-.38.15-.11.5.42,1.04.88,1.46,1.23l-1-1.08c.54.42,1.11.42,1.42.92v-.58l1.23.77c-.15-.23-.35-.38-.58-.38.35.04-1.61-1.99.61-.38-.73-.96-.27-.8-.58-1.61.84,1.03,1.57.57,1.88,1.23.65.15-.58-.73-.69-1,.58.19,1.69,1.03,1.99,1.46l-.42-.54.23.15-.54-.57c.73.27,1.19.77,1.46.69l-1-.73.69.31c-.5-.27-.65-.5-.65-.69l.23.15-.08-.27c.54.58.31,0,1,.58.15-.08.12-.12.08-.46l-.73-.42c-.42-.69,1.04.69,1.27.5l-.81-.54c1.61.58-.38-1.11.69-.77.08.27,1.04.88.81.69-.15-.42.31-.61-.5-1.5,1.23.69,1.61.92,2.26,1.03.04-.23-.04-.31-.69-.84.58.15.12-.61.96-.08-.65-.5.23-.08-.27-.54l.35.23-.81-.54c1.99.92-.69-1.19,1.07-.42l.19.19-.23-.35c.38.23.54.42,1,.73l.54-.46-.69-.31s-.73-.77-.15-.58c1.07,1.04.19-.15,1.15.42l.23.34c.03-.15-.24-.41-.81-.77-.15-.42,1.65.88.92.08l-.15.12c-.5-.27-1.11-.81-1-.88.15.08.54.23.61.38-.19-.38.38-.34.12-.65.31.08.88.5,1.07.69-.46-.84.27-.08-.19-.92l.46.31-.46-.5,1.11.46-.65-.34s-.27-.46.08-.42l.65.5c-.15-.57,1.42.34.69-.61.15.08.31.27.42.34-.88-1,1.38.58.27-.57.23.15.5.34.73.46l-.35-.42.92.61-1.3-1,1,.54-.42-.34c1.88,1.03.69-.08,2.15.61l-1.19-.73c-2.07-2.11,2.15-.27,1.42-1.65l.92.61-.92-.96c.84.35.73.61,1.23.88-.35-.61-1.3-1-1.34-1.5.73.23.65.5.92.81-.27-.61-.46-1.38.19-1.23-.12-.08-.27-.19-.35-.23-.27-.46.31-.46.38-.73.42.27.46.38.5.5.12-.04.46.04.08-.31l.77.61c.27-.08-.23-.88.73-.31-.38-.23-1.07-.69-.92-.8,1.46.84-.35-.77.58-.54.31.23.27.46.35.42.46.12-.15-.42-.54-.81l.54.38-.42-1.07c1.46.84.12-.65,1.15.04.19-.15-.73-.23-.73-.58.65.31-.15-.42.77.19l.08.11v-.23l.88.69c-.12-.27-.96-.96-1.65-1.42.61.19.31-.27,1.19.19l.19.19c-.12-.61,2.95.96,1.57-.34.15.08.38.19.35.27l.23-.19.65.5-.81-1.07.46.31c.35-.15.38-.73.46-1.15l.19.19c-.46-.84.69-.08.35-.69.12.08.15.11.19.15l.15-.27.42.35c-.88-.81,1.65.31.73-.12-.38-.38-.81-.92-1.34-1.3.12-.31.65.31,1.15.38.19-.15-.61-.73,0-.73l.46.31s-.31-.46-.23-.69l.19.19c-.81-.92,1.61.5-.31-1,.46.11.31-.31,1.23.31-.38-.73-.5-1.19-.65-1.76,1.57.92-.04-.15.96.19l-.84-.5c.19-.57,2.61.15,2.61-.61l.84.5-.84-.69c.77-.34,1.57-.92,1.88-1.38-.35-.42-1.19-1.27-.73-1.34l.12.11c-.23-.73-.27-1.38.5-1.57.35.23.61.35.81.54-.84-.69.12-.31.19-.38l-.69-.27c-.69-.61.15-.34.81,0l-.77-.77s.23.08.38.19l-.42-.31,1.15.58s-.31-.65-1.3-1.38c.38.19.77.19.88.46l.81-.58-.46-.11c-.84-.5-1.23-1.03-.77-.92.58.58,1.19.73,1.84,1.03-.38-.38-.81-.34-1.23-.69-.46-.46-.58-.92-.19-.77l.27.27c-.19-.38,1.3.42,1.34.23-.58-.58.12-.31-1.34-1.15-.15-.42,1.04.5,1.23.5-.61-.54,0-.58.77-.19-2.03-1.42,1.15-.15-.61-1.26l1.11.42c-.46-.31-1.5-.96-1.61-1.26.61.15,1.42.69,1.92.96l-1.69-1.15c2.38.31,1.8-1.53,3.91-1.5-.12-.61-.65-1.65-.12-1.96l.19.19.77-.19-1.04-.15c-.15-.23-.42-.5-.35-.61,1.04-.08,2.38-.23,1.84-1.42-1.8-1.61,1.96.81.73-.5.19.12.46.34.61.46-.42-.84-.65-1.27-1.57-2.42,1.99,1.23.12-.31,1.15.35l-.81-.54c.58.19.88.08,1.46.46l-.92-.81.84.5c.23-.23-.15-1.15,1.61-.27-.92-1.38.04-2.11.84-2.72-.61-.5-.54-.77-.54-1l1.11.38c-.19-.34-1.38-1.3-.61-1.07.12.08.19.12.23.15-.12-.31.54-.15-.31-.88.15-.15.81-.04,1.73.54-1.65-1,.5-.31.5-.31,0,0,10.12-8.17,2.3-15.84-.77-.54-1.19-1.08-2.22-1.53-.23-.34,1.3.38.5-.12-.69-.08-2.11-1.27-3.3-1.61l-.12-.27c-.58-.34.58.57-.5-.04l1.53.92c-.31,0-.65-.12-1.23-.38.54.46,2.61,1.72,1.53,1.5v-.12c-.12.27-1.15-.42-1.42-.5h.04l-.88-.31c.61.15-.54-.81-.5-.61-.58,0,.42.15.5.46,0,.15-.81-.35-1.3-.61l-.08.27c-.73-.42.12-.11-.69-.46l.61.73c-1.88-.96.73.81-1.11,0-.31-.46-.61-.34-1.19-.69l-.19.57c-.27-.08-.5-.46-.46-.31-.58-.19.35.42.31.46-.54-.23-.19.38-1.38-.31-1-.11,1.46,1,.58.92-.77-.38,0-.34-.88-.65l.08.5c-.35-.23-1.15-.73-.92-.77-1.46.35-5.64-1.38-5.1,0-.96-.38-.54-.42-1.07-.8.84,1.23-2.38-.27-2.57.31l.73.42c-2.65-.58-1.76,1-3.14,1.26l.58.19c.65.5.61.73.84,1.03-.38-.19-1.5-.96-1.3-.57.27.11.61.15.96.38-2.26-.42-2.61,1.26-4.14,1.84-.31,1.8-2.65,2.61-3.07,4.29.08-.27,1.8.88,1.27.81-3.26-1.3,0,1.08-2.3.34.46,1.42-2.57.61-.73,2.76l-.84-.5c-.46-.12.12.27.12.42l-.23-.15c-.5.12.15.96-.35.88l.96.57c0,.23-.81-.34-.35.15l-.46-.31.77.73c-1.65-1-.42.42-1.27.08.15.38.61,1.27.08,1.38-.88-.46-1.15,0-1.73,0-.08.65-.27,1.53-.96,1.99l1.07.65v.23c-.27-.15-.42-.19-.5-.31-1.3-.61.15.61-.69.31,1.04.5.23,0,.31-.12.61.15,1.57.92.92.81l-.23-.15.5.46c-.84-.5-1.3-.61-2.15-1.11-.15.69,1.07,1.96.31,2.26-.88-.61,0,.57-1.57-.54.38.73,1.34.73,2.42,1.61-.08.08.31.46-.31.11-.35-.27-1.04-.54-1.15-.69v.31s-.35-.23-.42-.34c.65,1.04-1.57.19-.88,1.19.58.38.27-.08.84.31.92,1.15-1.27-.27-.69.65l-.77-.58c.46.46,1.15.96.35.77-1-.54-.65-.65-1.04-1.03-.12.12-.12.65.84,1.07.19.38-.69-.08-1-.15.23.15.73.23,1.11.61-.69-.08-.88.27-1.15.5-.23-.15-.61-.35-.69-.46,1.11,1-1-.34-.96.15l.23.19Z"/>
  <path d="m102.73,280.46h.23c-.19-.15-.46-.31-.65-.54l.42.54Z"/>
  <path d="m106.84,275.35s-.12-.12-.23-.19c0,.04.12.12.23.19Z"/>
  <path d="m106.03,272.97c.15.23.46.31.73.42-.19-.12-.42-.27-.73-.42Z"/>
  <path d="m103.16,285.17s-.19-.15-.38-.31c.15.15.27.23.38.31Z"/>
  <path d="m96.82,293.22s.08,0,.15.08c-.08-.04-.12-.08-.15-.08Z"/>
  <path d="m98.59,293.71s0-.08-.08-.19c-.08,0,0,.08.08.19Z"/>
  <path d="m104.18,282.87s-.08-.12-.23-.27c0,.08.12.19.23.27Z"/>
  <path d="m98.4,293.3h.19s-.12-.12-.19-.19v.19Z"/>
  <path d="m96.64,293.29s.12-.08.23-.08c-.31-.11-.35-.08-.23.08Z"/>
  <path d="m97.17,291.72h.04l-.23-.19.19.19Z"/>
  <path d="m95.9,293.56s0-.08-.12-.19h-.15s.19.12.27.19Z"/>
  <path d="m99.66,289.93c.31.27.54.42.73.54,0-.04-.12-.19-.73-.54Z"/>
  <path d="m328.36,166.5s.27-.15.42-.31c-.23.08-.34.19-.42.31Z"/>
  <path d="m285.94,126.61l.65.27c-.34-.27-.54-.31-.65-.27Z"/>
  <path d="m335.76,161.12s.08.08.12.12l.46-2.23,1.65-8.24,5.64,5.79-5.21-5.87-2.15,8.36-.54,2.11.04-.04Z"/>
  <path d="m228.35,103.57l.57.54c-.27-.23-.38-.42-.57-.54Z"/>
  <path d="m260.1,154.98c.23.19.34.58.46.96,0-.46-.12-.84-.46-.96Z"/>
  <path d="m347.91,175.58l-.19-1.23c-.19.23-.19.73.19,1.23Z"/>
  <path d="m374.14,199.35s.04-.08.08-.19c-.08,0-.08.08-.08.19Z"/>
  <path d="m367.08,187.04c-.27-.19-.57-.34-.92-.5.31.31.65.69.92.5Z"/>
  <path d="m365.71,186.31l.46.23c-.19-.19-.38-.31-.46-.23Z"/>
  <path d="m79.69,41.21c-1.27-.08-2.34.38-3.45.84,1.11-.31,2.26-.58,3.45-.84Z"/>
  <path d="m187.01,81.94l.42.34s-.27-.23-.42-.34Z"/>
  <path d="m77.88,47.47l-.77-.19c.27.12.54.19.77.19Z"/>
  <path d="m348.34,163.49c.54,1.15-.65,3.07.04,3.18.08-1.07.84-2.53-.04-3.18Z"/>
  <path d="m190.01,54.79l1.27.11c-.61-.08-.96-.11-1.27-.11Z"/>
  <path d="m77.88,47.47l.88.23s-.15-.27-.23-.38c-.19.08-.42.15-.65.15Z"/>
  <path d="m153.38,48.85s.15,0,.27-.08l-.31.08h.04Z"/>
  <path d="m147.75,46.24c.42,0,.84.08,1.3.11-.65-.23-1.04-.23-1.3-.11Z"/>
  <path d="m76.27,42.06l-1.92.61c.69-.12,1.3-.34,1.92-.61Z"/>
  <path d="m113.73,75.73s-.35-.23-.54-.34c.19.19.38.31.54.34Z"/>
  <path d="m259.91,150.23s.08-.38.08-.57c-.15-.04-.27,0-.08.57Z"/>
  <path d="m239.71,142.44c-.46-.65-1.65-1-2.45-1,.58.54,1.23.92,2.45,1Z"/>
  <path d="m233.53,137.58s.08.15.15.27c-.04-.12-.08-.19-.15-.27Z"/>
  <path d="m262.86,165.38c-.04-.23-.15-.46-.31-.69,0,.23.12.46.31.69Z"/>
  <path d="m213.89,122.28v-.04h-.04l.04.04Z"/>
  <path d="m119.72,59.9c11.35,12.5,23.28,25.92,35.74,36.85,2.15.92,4.26,2.11,6.37,3.45,2.07,1.38,4.29,2.84,6.56,4.22l-1.07,1.65c1.42.77,2.88,1.46,4.29,2.15,1.23,1.5-3.3-1.69-.92.73h2.26c0,.19.58.73,1.38,1.34.61.5,1.38,1.07,1.96,1.53.88.77,1.23,1.3-1.11.73,3.07,1.8,6.17,3.61,9.36,5.18,2.07,1.15,1.96-.81,4.07.73.23.73-1-.04-1.11.69,1.65,1.19,2.88,1.76,4.87,2.26,1.88.46,4.03.69,6.4.61,2.45-.12,5.1-.38,8.51-1.46,4.18-1.42,7.59-3.37,11.12-7.94-.31.61-.61,1.15-.96,1.73,1.03-1.61,2.53-4.18,3.18-7.1.69-2.88.31-5.64.15-5.64-.81,2.07-.65,3.3-.69,5.21-.04,1.84-.5,4.49-3.07,6.79-.46-.77.61-2.42,1.27-4.41.73-1.96.88-4.26.19-4.06.61-2.49.19-4.99-.73-6.86l-16.64,11.2c.61.34,1.3.54,1.88,1.04.92,2.34,3.83,4.1,4.18,6.21,1.19.38,3.22.08,5.02,1.69.38,2.15-1.15.61.23,2.61l.96-.46c1.3,1.42.92,1.42.54,1.69,1.5,1.46,2.15.23,3.64,2.45l-1.69-.31c1.65,1.04,2.11,1.69,4.03,3.57-.42.38-1.19-.38-1.65-1.03.08,2.03,2.22,1.23,2.72,1.88.11-.46-1.11-1.88.19-1.96.84,1.03,2.95.96,2.88,2.41l-1.69-.31c2.53,1.34,1.92.12,3.99,2.53-.19-.08-.27.15-.46.27,2.3.46,3.49,3.03,5.64,5.1l-.57-.19c1.11.58,2.19.38,2.61.84-.88-1.53-.34-1.46.15-2.22.58,2.68,3.76.92,5.87,4.06-.42.38-1.53.27-1.88-.84-2.03.38-3.07,1.3-5.21.38,1.26.65,2.65,1.57,1.92,1.84l1.34-.84c.65.54,1.07,1.03,1.53,1.46.92-.46-.23-2.3,1.65-1.46,1.96,1.07-.15,1.96.54,1.65,2.65,1.57,2.03-.38,3.83,1.92-.31-.11-.88-.27-1-.54,1.15,1.84,3.99,3.18,3.26,4.95-.5.11-.92.46-1.38-.15l.19-.19c-2.61-.54,1.69,1,.04,1.76.54-.84,2.57,1.27,3.45,2.26l.42-1.11c5.52.38-1.65,1.53,1.92,4.06,2.57,1.23-.57-.92,1.23-.38,1.27,1.38,1.15,2.57,3.53,3.99.27.84,1.07,2.3.34,3.34,1.57.69,3.45,3.72,4.99,3.37-1.46-2.65-2.99-.84-4.45-4.26l1.5-.31c1.69,1.53,4.33,2.99,5.25,4.33-.08-.38,0-.73.34-.81,1.03.65,1.92,1.03,2.65,1.34l21.09,8.44-7.28-15.87c-.61-1.3-1.11-2.38-1.15-4.33,1.07-.54,1.11,1.3,1.34,2.65.65-2.11-.19-2.11-.19-5.29.96-.27.19,2.11,1.19,2.38l-.73-3.45h.19c-1.69-.31-.19-2.65-.92-4.72-.61-5.02-2.88-5.52-4.52-8.17.34-.81.73-1.07,1.19-.81-.57,1.3,0,1.03.46,1.42-.38-1.69,1.15-3.91,1.92-3.03-.81-2.65-.73,1.07-1.46-.5l-.34-3.72c-.77.54-.81,1.84-1.69,0-.42-1.57-.34-2.38-.54-4.49.46.27,1.19-.81,1.34.77.19-1.07,0-2.65-.84-3.18-.46,2.38-1.19-3.68-2.26-1.8l.19-.96-10.32,5.25.73,1.27c-.38-.38-.81,0-1.27-.65-.38,1.38,1.65,1.04,2.34,1.5.42.73,1.92,2.26,1.72,2.76.77.23,1.92,1.65,1.73,2.38,1,.57.61-.54,1.15-.65l2.68,2.61c-.31.65-1.42,2.3-1.99,2.15,1.5.46,1.76-1.19,3.3.27-1.84.19,1.38,2.68-1,2.68.23,1.57,2.88,3.87,4.56,4.87,1.61,0-1.15-1.84-.31-2.61,4.33,3.3,6.59,1.23,9.2,4.22l-.58-.92c2.26,1.15,1.99,1.07,3.68,1.3-1.42.58-.31,4.64,2.99,7.06.73-.31-.88-2.49.34-2.88l2.19,1.61c.08.19-.31.19-.69.12,2.15,1.19,2.26,4.3,3.83,3.49l.57,3.11-.19-1.3c.69-.31,2.91,1.27,3.49,1.46,2.61,1.19,2.99,2.3,3.6,3.91,0-.73-.12-2.49,1.69-1.27-1.46,1.73,2.99,3.53,2.22,4.37.69.54,1.46,2.07,2.15,1.42l-1,1c1.38-1.38,3.83.73,5.94,1.99-2.07,1.69,2.22,1.53,1.57,4.07,1.46-1.11,3.83,2.15,5.14,1.23,1.53,1.11.34,2.3.38,3.03h1.11c.23,1.27,2.95,3.57,4.29,5.29h2.53l.15.96c.5-.12,1.92.69,1.5-.38l.77.73c.31-.34.54-.46.77-.46l11.54,1-2.15-4.68c-.27-.58.46-1.65.15-3.26.35-.42.73-.23.88.23.19-1.03,1-.46,1.65-.92-.58.65-2.42-4.26-3.64-1.57-.73.08-.96-1.65-.5-2.61l1.61-.38-1.42-1.5c.04-1.65,1.11-2.15,1.53-3.41-.12,1.34,2.45,3.41,2.99,0-.11,1.84.61,2.84.77,3.83.19-.69.38-1.03.84.19,0-2.76-.81-1.04-.54-3.72,1.34.38,1.92-.31,2.76-2.53l-1.3,1.57s-.27-.23-.31-.38c-.27.61-.5.77-1.03.84.12-.54-1.19-3.34-.27-3.64-2.57,2.3-.88-4.91-2.45-3.41-.11-.12-.15-.42-.15-.77l-6.6,2.22c.54.38,1.07,1.07.84,1.5-2.34-.77.11,2.3-.81,2.76.88.27-.54-1.96.61-1.57,1.04.84,1.11,2.15,1.34,2.95l-.58-.19,1.04,1.88c.73-.27-.61-2.22,1-1.15.15.54,1.76,1.61,1.34,1.96-1.3.04-1.72,1.42-3.03.46,1.04.84,4.14,3.68,3.83,1.57l1.11,1.15c-.31-1.11-1.53-3.83.84-1.73l-.23.19,2.3.81.19,1.19c.23-.27.69-.27,1.27.35-.15.46.27,1.11-.15,1.46,1.73,1.65,2.07,1,2.61.96,1,.88,1.15,1.46.11,1.57,1.15,1.42,3.49,3.61,3.8,4.99,2.15,1.34-.15-.58,1.53-.19-.31,3.18,4.83,6.52,7.75,9.24.84-2.22.92.65,2.84-.11-1.07-.19,1.3,3.91-1.46,1.72l1.57,1.42c.12,1.84-2.99-2.03-2.72.65,1.61,1.72,4.41,1.34,5.67,3.99-1.76.27,1.8,1.3.08,1.84-.81-.08-1.19-.77-1.8-1.3l.12.57c3.11,4.22,2.3,0,4.91,1.38,2.22,2.3.73,2.68.31,3.26.12.58,1.3,1.61,2.15,2.03-1.96-.88-1.61-3.34-.31-3.26-.38,2.19,2.95,3.68,4.03,3.95-1.57-4.64-1.96-2.45-3.26-6.98-.81-.11-1.88,1-3.11-1.38,1.61.73.58-.65.46-1.15-.34.96-1.46-1.11-2.26-1.46.08-1,2.57-.19,1.07-2.38l-1.88,1c-.46-.96,1.42-.69-.38-1.99,1.57.15,1.03-1.38,3.22.61-1-3.83-4.3-3.41-6.71-4.91.27.11.5-.04.81.08-.81-.08-1.5-.88-2.11-1.38-.88-1.65,1.65.42,1.76-.31l-2.03-2.11s0-.12.08-.15c-.73-.38-1.38-.77-1.19-1.34,1.07.19,1.8,0,2.61,0l-3.14-1.26c.73-.23-.88-2.68,1-1.42l-3.34-3.14.77-1.23c-.92-.61-1.15-.46-.38.61-.84-1.38-6.56-3.3-4.03-4.6-3.34-1.76-3.91-3.03-7.48-5.56,3.26,1.46-1.57-3.87,1.38-1.8-1.03-1.92-2.41-1.11-3.76-2.11-.69-1.5.77-1.99,2.3-1.19l-1.84-.92.23-.19-1.76-.61c-.77-1.8.69-1.27-.5-2.68l-1.15.61-.42-1.38c-.04.73-1.04.15-2.07-.69l.23-.19-.11-.08-5.75-4.1-.12,6.1v1.53c-.5-1.72-.54,1.42-1.3.54-.31,1.38-.27,1.38-.46,3.91l.92-.31c.19,3.38-1.26-.08-1.76,2.53h1c-2.22,3.49-.15,6.56-1.65,9.16.04-1.65-1.15-1.42-.88-1.34,0,1.34-.31,3.14-.46,4.91l7.4-2.91c-1.23-.77-2.49-1.46-3.68-1.72.15-1.69.23-2.15-1.42-4.22-1.53-1.08-1.84-1.15-2.8-.88-1.07-1.53-4.25-3.03-3.68-3.87-.84.38-1.19-1.15-2.38-1.23l.12-.46-.5.84c-1.15-3.72-5.02-2.41-6.33-5.94l.61.15-1.3-.57c.11-.46.69-.31,1.11-.73l-4.79-4.14.5,1.34c-1.11-.77-2.38-.61-3.18-2.03,2.88.5-1.57-1.38-1.19-2.53l1.3.58c-1-.74-1.66-.83-1.99-.27-2.07-1.26-.08-2.49-2.45-3.1l1.19,1.03c0,.73-1.38.61-2.19-.08-.08-.27-.38-1.07.31-.65-1.69-.92-3.53-3.14-4.45-3.41-.57-.88.12-1.19.73-1.04-3.64-1.95-1.26-1.34-4.91-3.34l.42-.38-1.5-.42-.73-2.19.08,1c-1.07-.81-1.96-1.03-2.92-2.3l1-.19c-3.14-2.11-2.34-3.91-5.79-5.41-.08-.27.5-.12.81,0-3.34-1.23-.88-2.76-4.41-3.8.35-.08.31-.57.54-.65l-1.5-.61.84-.73-1.99.38.08-1.46h-.81c.23-2.65-2.53-2.99-3.11-5.67l-.65,1.3c-2.68-.69-4.6-2.68-6.4-5.02l-13.77-17.49-.96,25c-.15,3.76-.77,7.82.46,11.5h-1.11l1.65,2.65c-.69,1.61-1.04-.77-1.57-.27.96,2.91,1.76,1.03,2.49,4.49-.54,1.88-.88-.54-1.38-1.3.92,3.18,2.11,7.9,1.8,10.28.15,0,.38.15.42,0,.77,2.11.61,5.02.96,7.4-.5,0-.65-.58-.84-1.15,0,.88-.15,2.07.42,2.76l-1.07-.77c0,.61.15,1.38.31,2.19l17.76-9.59c-1.3-.96-2.68-1.92-2.38-2.68-.12.46-.73,1.03-1.88,0,.42-1.84-3.72-2.26-5.06-4.6.5-.12,1.96,1.03,1.57.69-.65-1.15-2.03-1.3-3.26-1.65l.69-.31-5.1-3.18c.46-1.84-4.37-3.49-3.26-4.14-1.53-1.46.84,1.72-1.3.11-.08-1-2.03-1.34-1.23-2.11l.31.08-1.46-1.19h1.61c-1.34-.92-2.95-.88-3.56-.34-.73-1.46-2.68-2.53-2.53-3.72l.61.19c-3.49-2.53-3.26-6.94-6.98-7.82-.08-.27.12-.46.5-.12l-1.92-1.84,1.03-.19-4.06-2.03.42-.38c-1.96-2.11-5.48-4.95-8.32-7.36l.58.19c-3.53-2.15-2.49-3.07-5.06-4.64.19,0,.31,0,.38.04l-1.96-1.8h.81c-2.26-.46-3.03-4.99-2.84-3.41-1.19-.38-2.99-1.27-3.72-1-2.15-1.96,0-1-1-2.61-1-1-1.72-1.15-2.65-1.84l-11.89,10.35s.19.04-.54-.12h.04c-.92-.15-1.88-1.26-1.53-.8l-.08-.12s.27.46.34.81v.15c-.19-.96.42,2.15-.42-2.15v-.19s-.04-.27-.08-.54c0-.38,0-1.03.12-1.8.04-.5.11-.88.27-1.57.08-.31.15-.65.23-1.03,0-.12.15-.58.12-.46,0,.08,0,.15-.08.19.19-.34-1.46-.69-1-1.72-3.34-.77-5.98-1.69-9.16-2.99.42-1.88-.73-.23-1.99-2.19l-.34.92c-.54-.31-1.07-.61-1.57-1-.5-.35-.34-.35-.5-.58-.15-.34-.23-.73-.23-1.03-.04-.69.27-1.11-.31-1.27l1.27-.34c-.5.12-1,.19-1.53.23-.12-.73.11-1.11-.15-1.42-1.23-.34-4.37-1.5-3.83-1.61l.38.15c-.61-.34-1.61-.88-1.76-1.11,0-.31.69-.38,2.03-.04.92.5.88.46,1.99,1.07-2.07-1.19.34-.08.46-.04l-1.61-.81c-1.5-1.03.65-.04,1.92.73-.5-.38-.92-.8-1.34-1.19.23.15.5.34.69.46l-.69-.57,2.07,1.46c-.31-.31-.38-.65-1.53-2.03.58.46,1.3.88,1.27,1.11.61.15,1.19.35,1.69.5l-.5-.5c-.77-1.07-.42-1.69.12-1.15,0,.81.69,1.5,1.03,2.26-.04-.54-.5-.92-.65-1.5,0-.69.77-.92,1-.42l-.15.38c.42-.31.69,1.46.84,1.38-.12-.42,1.03-.27,1.34-.34.46-.04.69-.23.69-1.11,2.3.08.65,1.26,1.34,1.57,1.19-.61,4.18.54,4.37,1.46,1.76-2.19,5.67,2.22,6.6.34l1.5,1.61c.19-.5.88-1.65,2.38-1.46,1.19.96.61,1.8.84,2.49l1.5-1.69c.23.12.46.27.69.42l5.18-23.62c-8.17-3.03-19.21-3.41-27.88-6.79-4.22-.34-9.62-.38-14.38-1.69l.58-.15-4.68-1.57,3.3,1.65c-1.11,0-1.99.23-2.99,0-5.1-1.96-11.81-4.56-18.48-5.1-4.72,1.27-2.26-2.68-6.63-2.07.38-.11.61-.42.96-.57-4.49-.34-6.9-.54-11.54-.38,1.11-2.11-2.8-.73-2.07-1.8l-.61.81c-.81-.84-2.95-1.65-2.45-2.23l-2.22.61.12-1c-2.45-.8-8.01-1.61-8.74-3.91-3.45-.23-7.75-1.34-12.16-2.76L44.68,14.99l49.96,44.1c3.14,2.76,6.25,5.79,9.05,8.47,1.38.15,3.26,1.69,4.72,2.88l.73,2.19c1.65,1,4.14,1.23,4.98,2.95-.12.08-.23.12-.35.08,1.61,1.11,2.57,2.8,4.64,3.18,1.53,1.46,2.68,3.3,1.5,3.68,1.46-1.3,3.18,3.18,3.18,3.18,0,0,11.85,11.43,27.99,26l20.71-24.27c-13.38-11.31-30.18-23.81-46.13-33.32-8.09-4.87-16.68-9.2-24.92-11.58-8.21-2.45-15.99-2.65-21.01-1.38-1.19.88-4.1,1.38-2.99,2.57-2.19.38-3.3-1.27-3.68-.31,2.99.54-.73,2.49,2.11,3.6l-1.73.27c-.35.69,2.34-.84,1.96.42l.5-1.8c1.46.23,2.22.73,2.68,1.34,1.34-.65,2.53-2.99,5.64-1.42h-.92c2.65.34,1.38,1.38,1.88,1.76l-.58-.12c.65.42,1.3.84,1.92,1.3-1.46-.96-4.37.04-2.95.19,2.84,1.03-.69-.57,1.57-.38,1.42.15.81,1.07.61,1.57l2.42.5c-.31.77-1.57-.42-.81.65,1.07-.08,2.11,0,3.18,0-.12,2.15,3.53.12,4.14,2.49-2.19-.34-.08.73-.65,1.23,1.65.61,3.26,1.27,4.87,1.99.31.46-1.53,0-.77.23.65.92,1.69.27,2.15.5.15.69,3.53,1.8,2.72,2.95,2.65,2.57,2.19-.84,4.68,1.57-.04.96-2.38-1.19-1.53.34l3.11,1.5c-.5.19-1.3.81-2.3,0,7.32,5.79,8.93,12.43,16.57,16.37.38,1.53-1.11.04-2.19.12,5.83,2.45,5.79,6.83,10.05,9.82l.58-.61c4.33,6.4,12.19,10.51,17.91,16.53l-.38-1.08c1.38.08,2.88,1.19,4.14,1.77-.12.46-1.88.77.19,1.99-.19-.54-.77-1.42-.31-1.53.23.34.5.69.84,1.11l14.84-17.37c-4.49-6.33-15.41-15.41-23.16-23.58-11.16-9.09-21.93-20.25-32.75-29.68l-13.96,24.39c1.69.5,3.3,1,4.91,1.5-2.38-.69-.73-2.34.88-1.3,3.8,4.83,8.55,2.07,12.81,5.79,9.32,1.57,16.64,6.67,25.77,6.21l-.08,1c1.15.77,1.65.15,3.03.42l-.12.27c3.07,1.15,7.09,1.03,8.82,1.95l.38-1.03c1.88.34.77,1.07,2.84.88l-.19.54,2.45-.54c-.65,1.84,5.25,1.3,6.6,2.49,2.49.19,7.29.27,10.93,1.38.5,1.11,5.06,1.96,7.86,2.99,5.71.77,13.84,1.8,21.05,3.18v-1.27l1.96.19c-.08.27.15.46-.15.54,1.15,1.5,3.91.38,5.45,1.03l6.06-27.57s-.27-.19-.38-.27c.11.23.19.38.31.5l-5.94,27.15c-.61-.54-1.11.08-2.03-.08-1.46-.81.15-1.8,2.15-.92l5.52-25.15.08-.15v-.08l-5.64,25.65,5.64-25.73h-.34l-.42.08-.81.12c.11-1-1.07-1.8-1-2.8-6.52-1.61-11.31-1-17.95-2.72.88-.96-4.91-.57-3.22-2.22-6.98-.38,1.07,1.72-2.26,2.57-1.92-.34-3.8-.04-4.14-.77.88-.38-1.61-1.34-.04-1.34l-4.64-.34c-.46-.19.5-.34,1-.42-2.38,0-4.56-.15-6.67-.31-2.15-.23-4.26-.46-6.33-.69-2.07-.19-4.1-.38-6.14-.46-1.96-.04-3.83.11-5.56.42.04.69,3.26.12,3.3.84-3.26.77-5.1.5-7.06.27-1.88-.23-4.06-.61-6.75.19l.23-1.03c-1.42.84-1.27,1.65-5.79,1.3-2.15-.96,1.8-1.11,2.95-1.8-2.61.23-8.55,1.11-5.18,1.8-2.38.61-4.91-.19-7.02-.27.38.23,3.91.38,2.95,1-4.95-.15-11.24.5-16.72.96-.46-.23-1.65-.54-1.46-.69-.65.69-1.8.69-3.41.57-.12.58-.58,1.11,1.96,3.83l-.04-.12Z"/>
  <path d="m280.12,148.35v1.3c.23,0,.54,0,.84.54l-.84-1.84Z"/>
  <path d="m225.85,131.83s-.34-.08-.54-.08c.27.19.42.15.54.08Z"/>
  <path d="m213.62,123.15c.96.54.46-.31.27-.88-.15.15-.34.34-.27.88Z"/>
  <path d="m265.74,130.63c-.23-.08-.42-.08-.57.15.34.04.5,0,.57-.15Z"/>
  <path d="m346.61,173.89s-.12.23-.23.34c.08-.04.15-.19.23-.34Z"/>
  <path d="m344,178.8c-.04.27-.08.57,0,1.07.15-.46.12-.81,0-1.07Z"/>
  <path d="m276.25,137.39c.08.34.19.69.46.96-.08-.54-.27-.81-.46-.96Z"/>
  <path d="m344.04,181.03l-.23.96-2.95,11.47-7.82-7.21-.27-.23s-.08.08-.15.15l.31.19,10.05,6.63,1-11,.08-1v.04Z"/>
  <path d="m347,172.28c-.12.5-.23,1.19-.42,1.61.42-.61.5-1.11.42-1.61Z"/>
  <path d="m293,152.83s-.08-.04-.12-.08c-1.11-.31-.46-.04.12.08Z"/>
  <path d="m327.98,184.86l-.12-.15h-.5l.61.15Z"/>
  <path d="m348.37,166.67c0,.27,0,.5.08.69.08-.19.15-.42.23-.73-.15.04-.27.04-.34,0l.04.04Z"/>
  <path d="m307.31,167.02c.54-.08.84-.19,1-.38-.34-.27-.69-.31-1,.38Z"/>
  <path d="m270.99,20.28s-.23-.15-.42-.27c.19.11.31.19.42.27Z"/>
  <path d="m267.11,20.54l-.19-.15s.08.08.19.15Z"/>
  <path d="m272.83,19.89l.11.08h.12-.23v-.08Z"/>
  <path d="m265.16,21.66s.23.15.31.19c.04,0,0,0-.31-.19Z"/>
  <path d="m282.38,25.07l-.65-.34c.27.15.54.34.65.34Z"/>
  <path d="m280.5,22.55s-.08-.04-.15-.08c.04,0,.12.08.15.08Z"/>
  <path d="m277.77,21.34s.15.12.27.19c0,0,0-.04-.27-.19Z"/>
  <path d="m278.16,21.65l-.15-.11s0,.04.15.11Z"/>
  <path d="m258.76,40.61s.5.23.92.38l-.92-.38Z"/>
  <path d="m283.72,26.6c.58.38-.15,0,.42.38-.08-.08.38.15-.42-.38Z"/>
  <path d="m264.85,42.41h.19s-.23-.04-.34-.08c.12,0,.19.08.19.08h-.04Z"/>
  <path d="m257.34,31.09s-.08,0-.12-.04h.12v.04Z"/>
  <path d="m256.19,30.9l-.19-.11s0,.04.19.11Z"/>
  <path d="m259.68,40.98l.54.19s-.27-.12-.54-.19Z"/>
  <path d="m256.27,33.77s-.04,0-.08-.04l.08.04Z"/>
  <path d="m265.58,21.7s.11,0,.15.04c-.15-.08-.27-.15-.15-.04Z"/>
  <path d="m280.96,31.47s.31.23.77.46c0,0-.11-.11-.77-.46Z"/>
  <path d="m283.3,31.28l-.08-.04h.08v.04Z"/>
  <path d="m283.26,31.59s-.23-.11-.31-.11c.12.08.23.11.31.11Z"/>
  <path d="m286.45,38.19c-.27-.42-1.46-1.3-.96-1.38-1.3-.69-1.34-.77-1.57-1l1.76.84-.54-.34c.54.23.31.19,1,.46l-1.07-.54c.65.31.5,0,1.72.73l.12-.23s-1.46-.73-1-.57c.5.27.34.19,1,.5,1.38.46-3.34-1.84-2.42-1.65l.23.11c-.46-.27-.38-.27-.61-.42-1.8-.84.96.5-.11.04-1.5-.73-.77-.46-1.92-1,.57.23-.27-.23-.34-.31.96.38.34,0,1.53.5-.46-.27-1.92-1.04-1.92-1.11,1.19.54,1.11.58,1.57.73l-.84-.42s.38.15.81.34c.08,0-1.15-.65-.58-.42l.81.46c-.31-.23-.15-.15,0-.19.5.27.46.27.31.19,1.3.61-.54-.34-.38-.31-.38-.19-.57-.23-1.42-.65.19.04-1.11-.65-.12-.19l.81.46c-.61-.42-1.03-.57-.69-.5.08,0,.27.15.46.23-1.07-.61,0-.19.08-.23l.23.11c-.27-.19-1.03-.57-.96-.57-.54-.19-.77-.34-1.61-.77,1.46.65-1.61-.92-.69-.61.5.27,1.08.57.54.34,1.42.77,2.68,1.42,3.34,1.8-.31-.19-.5-.34.12,0l-1.34-.69h.08c-.84-.46-1.42-.69-1.96-1-.42-.27,1.42.69.81.34-.5-.34-1.42-.77-.96-.61.12.08.34.19.19.15.58.23-.15-.27,1.46.57.34.19.84.46.69.38l-.23-.12c1.15.65-.31-.23,1.15.58-.88-.46-.65-.42-.46-.38l-1-.5c-2.91-1.65,1.96,1.04,1.65.73-.61-.42-.31-.11-.96-.54.19.04,1.07.5.69.19.42.19.96.42,2.07,1-.42-.27.58.15-.5-.46-.96-.42,1.11.69-.38,0l-1.07-.58s-.42-.38,0-.23c-.23-.12-.5-.27-.73-.38-.34-.31-1.42-.92-1.03-.81,1,.5.81.46.88.58.81.38.08,0,.46.08.88.46-.08,0,.77.5l-.23-.23s.12.08.19.08c-1.42-.8.15,0-.23-.31.08-.11-1.84-1.19-2.95-1.88.38.19.77.38,1.11.58-.65-.31-.15-.04.23.15-.11-.11,1.46.65,2.03,1-.38-.31-.77-.38-1.19-.69h.15c-.73-.42-.92-.5-1.46-.84-.19-.15,0-.08.08-.12.34.19,1.11.61,1.07.61.31.12.34.12-.34-.31-.69-.31-.57-.46-1.72-1.03l.69.31s.46.27.31.23c1.11.61-.27-.23-.38-.31.23.12.34.08.81.34-.31-.19,0-.11.54.19-.19-.15-.73-.42-1.07-.61h.15c.61.31,2.34,1.27,2.57,1.38-.54-.34-1.8-1.03-1.72-1.03,1.15.69.96.42,2.34,1.26.88.46.92.34.61.12-.92-.58-.57-.23-1.53-.81-.27-.34-2.91-1.84-2.38-1.69l-.27-.12c-.5-.38-.38-.31-1.19-.81,1.19.69,3.26,1.76,3.07,1.5-.61-.34-1.19-.61-2.11-1.15l-.12-.19s.31.19.42.27c-.38-.31,1.61.77.23-.04l1.77.96-.77-.42c-.58-.35-.73-.54-.92-.65-.61-.46-.08-.19.69.23-.5-.27-1.65-.88-1.76-1.08,1.92,1.11.81.31,1.8.88,0,0,.61.27-.19-.19l1.19.69c-1.69-1-1.53-1.03-1.8-1.27,2.26,1.34-.11-.19,1.96,1-1.53-.92-.54-.46-1.84-1.27-.04-.08,1.38.77,1.88,1.03l-.57-.34c.73.42.88.38,1.42.61l-1.3-.84.61.34c-.34-.23-.5-.38-1.04-.65h.12c-1.46-.88-.38-.27-.96-.69.23.12.61.34.77.46,0,0,.77.46,1.26.73-.38-.19-2.57-1.69-3.3-2.03-.61-.34-1-.65-.73-.54l1.34.77-1.38-.88s.69.34.88.38c.08.08,2.49,1.61,2.53,1.53.15.15.84.61,1.11.81.08,0,.19.08.73.46-.38-.31-.81-.5-.92-.69,1.19.73,1.57.92,2.03,1.11l-.88-.5s-.23-.15-.31-.19c-.15-.08-.34-.15-.77-.46,0,0-1.42-.96-.69-.54-1.88-1.03-1.34-1-2.49-1.65-.34-.23-.38-.31.23.04.84.61,1.38.77,2.19,1.3-.31-.23-.92-.5-1.34-.81-.08-.08.69.34,1.07.54l.23.15.58.27c-.58-.38-1.03-.58-1.3-.81.27.15,0-.12.46.19.81.54,1.88,1.19,2.07,1.34-.08-.08-.12-.27-1.27-.92h.08c-.5-.31-1.46-.77-1.57-.96l.23.15-.84-.61.61.34c-.31-.19-.57-.38-.54-.38.35.23.5.31,1,.57,0-.11-.61-.46-.96-.69-.08-.08.19.04.88.5.19.04.08-.12.73.23-.5-.38-.27-.15-1.03-.69,2.07,1.23.92.27.73,0-1.8-1.11-.19-.15-1.8-1.23.54.38,1.46.77,1.88,1.19l-.15-.19c1,.57.69.57,2.07,1.38,0-.12-1.96-1.38-1.23-1.03,1.23.84-.38-.31,1,.57.46.31.31.23.38.31l.27.15c.46.12-1.46-1-2.26-1.61-.11-.19,1.04.58,1.65.96.27.15.08,0-.23-.27.73.54-.84-.42-1.65-.96,1.46.88.19-.04-.34-.42-1.61-.84-.12,0-1.84-.88.46.31,1.72,1.15,1.15.88-.61-.46-.73-.46-.92-.57.77.46.27.23.58.46-.61-.38-1.69-1.15-2.03-1.26l1.73,1.15c-.27-.15-1.27-.84-.88-.5-.88-.61-1.42-.88-1.65-1.15-1.57-.84.69.65,1.3,1.15-.12-.08-.34-.23-.46-.31.46.31.38.31.5.42-.42-.19-.77-.54-1.27-.84v.12s-.12-.04-.15-.08c.23.19.38.31-.08,0-.54-.38-1.11-.77-1.57-1.07l1.15.84c-.58-.38-1.04-.57-1.42-.88l.15.27-1.19-.73s.42.31.58.38c-.31-.12,1.95,1.5-.38,0,.92.73.5.5,1,1-1.03-.77-1.46-.77-1.92-1.15-.57-.27.73.54.88.73-.54-.27-1.69-1-2.11-1.34l.5.38-.23-.15.65.46c-.65-.34-1.19-.73-1.38-.77l1.04.65-.65-.34c.5.27.69.46.73.54l-.23-.15.15.15c-.61-.42-.27-.08-1-.58q-.08,0,.08.23l.73.42c.58.5-1.07-.65-1.19-.61l.84.5c-1.46-.73.65.69-.27.23-.15-.15-1.15-.73-.88-.57.27.27-.04.23.92.92-1.23-.69-1.61-.92-2.19-1.15,0,.11.15.19.84.61-.5-.23.12.31-.77-.23.69.42-.15,0,.38.34l-.38-.19.84.5c-1.96-1,.96.81-.73-.08l-.23-.15.31.23c-.38-.23-.58-.34-1.07-.65l-.27.11.65.34s.84.61.31.34c-1.23-.8-.08,0-1.07-.5l-.31-.23s.04.12.88.58c.23.23-1.65-.88-.77-.27h.08c.5.23,1.19.69,1.11.69-.15-.08-.54-.27-.61-.34.27.23-.19.08.11.31-.27-.12-.88-.46-1.07-.61.65.54-.19,0,.46.5l-.46-.27.54.38-1.08-.54.65.34s.38.31.08.19l-.69-.42c.31.34-1.26-.54-.34.15-.15-.08-.34-.23-.46-.27,1.07.73-1.34-.65,0,.23-.23-.15-.54-.31-.73-.42l.42.31-.96-.54,1.42.84-1-.54.46.27c-1.88-1-.54-.12-1.96-.84l1.23.65c2.42,1.57-1.69-.38-.61.5l-.96-.54,1.11.73c-.81-.38-.81-.5-1.34-.73.46.38,1.42.81,1.61,1.08-.69-.31-.69-.42-1.03-.61.42.38.88.81.27.61.12.08.31.15.34.19.38.31-.08.15-.08.27-.46-.23-.5-.31-.57-.38-.08,0-.42-.11,0,.15l-.84-.5c-.19,0,.5.5-.5,0,.38.19,1.11.58,1.04.61-1.53-.77.54.46-.31.15-.34-.19-.38-.31-.42-.31-.42-.15.27.23.69.54l-.61-.34.73.65c-1.53-.77.12.31-.96-.27-.08.04.69.27.81.46-.65-.31.27.23-.73-.27l-.12-.08v.12l-.88-.54c.19.15,1.11.69,1.84,1.08-.57-.23-.15.08-1.03-.35l-.23-.15c.31.34-2.8-1.11-1.19-.15-.15-.08-.38-.19-.34-.19l-.12.08-.73-.38,1.03.73-.5-.27c-.27,0-.08.27,0,.5l-.23-.15c.69.54-.54-.11-.04.27-.11-.08-.19-.12-.19-.12v.12l-.5-.27c1.03.61-1.5-.5-.57-.08.46.27,1,.61,1.61.92,0,.12-.65-.31-1.11-.42-.08.04.77.5.27.38l-.5-.23s.42.31.46.38l-.23-.15c1,.61-1.53-.57.61.58-.42-.15-.15.08-1.15-.38.57.46.84.69,1.19,1.03-1.65-.77.08.08-.88-.27l.88.42c0,.23-2.26-.58-1.99-.19l-.88-.42.96.5c-.54,0-1,.15-1.11.34.42.27,1.46.84,1.11.81l-.12-.08c.42.38.73.73.15.69-.38-.19-.65-.31-.88-.42.96.5,0,.11-.04.15l.69.27c.84.42,0,.15-.69-.11l.92.5s-.23-.08-.38-.15l.46.23-1.19-.46c.23.12.5.38,1.61.88-.38-.15-.73-.23-.92-.38l-.5.15.42.15c.88.38,1.42.73,1,.58-.69-.38-1.26-.54-1.96-.81.46.23.81.31,1.3.54.57.31.84.54.42.38l-.34-.19c.31.19-1.27-.42-1.23-.34.69.38,0,.12,1.57.77.27.23-1.07-.42-1.23-.46.73.34.19.27-.61-.04,2.26,1-.92-.11,1,.73l-1.11-.38c.5.23,1.65.73,1.84.84-.57-.19-1.46-.57-1.99-.77l1.88.84c-2.19-.54-1,.46-2.84.12.34.31,1.15.88.81.96l-.23-.12h-.61l.92.19c.19.12.57.31.54.34-.88-.12-1.96-.23-1.07.38,2.15,1-1.99-.65-.46.12-.19-.08-.5-.23-.73-.31.69.46,1.03.69,2.26,1.34-2.19-.84,0,.12-1.15-.31l.88.34c-.58-.15-.81-.15-1.42-.42l1.07.5-.92-.34s.58.57-1.3-.08c1.3.77.73,1,.27,1.15.73.31.77.42.81.54l-1.11-.31c.31.19,1.69.77.96.58-.12-.04-.23-.08-.27-.12.19.15-.42,0,.57.42-.08.08-.69-.08-1.72-.46,1.84.65-.31.08-.31.08,0,0-1.46.65-1.73,1.88-.27,1.23.77,2.99,5.67,4.87.92.31,1.5.54,2.57.84.34.15-1.3-.27-.38,0,.65.08,2.38.69,3.56.92l.19.12c.65.19-.73-.27.46.08l-1.73-.5c.27,0,.65.12,1.23.27-.65-.23-2.99-.92-1.96-.73l.12.08s1.11.27,1.42.34l.88.19c-.58-.12.77.38.69.31.5.04-.42-.08-.61-.23-.08-.08.84.19,1.38.34v-.12c.77.23-.12.04.73.23l-.81-.34c2.03.58-.96-.38.96.12.46.19.69.19,1.34.38l-.08-.19c.27.08.61.23.5.15.57.12-.46-.19-.46-.19.58.15,0-.15,1.34.27.92.15-1.69-.54-.88-.42.81.23.15.15,1.03.34l-.27-.19c.38.11,1.3.42,1.11.42,1.15,0,5.48,1.15,4.45.57.96.27.65.23,1.27.46-1.23-.58,2.19.38,2.11.23l-.8-.27c2.53.57,1.11-.15,2.22-.04l-.58-.15c-.77-.27-.81-.34-1.15-.5.38.11,1.69.57,1.38.42-.27-.08-.58-.15-.96-.27,2.11.46,1.77-.11,2.88-.08-.46-.65,1.26-.58.92-1.15.04.08-1.88-.65-1.42-.54,3.34,1.07-.46-.42,1.8.27-.96-.65,1.96.23-.46-.96l.92.34c.42.12-.19-.12-.27-.19l.27.12c.38.04-.5-.42-.08-.27l-1.03-.42s.81.27.23,0l.5.19-.96-.46c1.8.73.19-.08,1.04.19-.31-.19-1.04-.61-.61-.57.92.34.96.23,1.46.34-.15-.23-.38-.58,0-.61l-1.15-.46v-.08c.19.11.34.15.46.23,1.34.5-.34-.27.46,0-1.07-.42-.19,0-.23,0-.58-.19-1.69-.69-1.07-.5l.27.12-.58-.31c.92.34,1.34.54,2.23.88-.15-.23-1.65-1-1.15-1,1,.46-.19-.23,1.53.54-.61-.38-1.42-.58-2.65-1.15.04,0-.42-.27.23,0,.42.19,1.07.42,1.23.54l-.12-.11s.38.19.5.23c-.96-.57,1.26.27.27-.31-.61-.27-.19,0-.84-.31-1.23-.69,1.19.38.34-.12l.84.42c-.57-.31-1.3-.65-.61-.38,1.03.46.81.42,1.26.65.08,0-.15-.23-1.11-.61-.31-.19.61.19.88.27-.27-.12-.69-.27-1.15-.5.61.19.61.08.77,0,.27.12.65.27.77.35-1.3-.65.96.38.73.15l-.08-.08Z"/>
  <path d="m283.46,31.32h-.15c.23.08.46.23.69.34l-.54-.34Z"/>
  <path d="m282,32.59s.15.08.27.15c-.04,0-.15-.08-.27-.15Z"/>
  <path d="m283.53,33.85c-.19-.15-.5-.23-.73-.34.19.12.46.23.73.34Z"/>
  <path d="m281.39,28.98s.23.12.42.23c-.19-.12-.31-.19-.42-.23Z"/>
  <path d="m283.53,26.88s-.08-.04-.15-.08c.08,0,.11.08.15.08Z"/>
  <path d="m281.95,26.11l.12.12c.08,0,0,0-.12-.12Z"/>
  <path d="m281.39,29.79s.08.08.31.19c0,0-.15-.12-.31-.19Z"/>
  <path d="m282.26,26.37h-.12s.12.04.19.08l-.08-.08Z"/>
  <path d="m283.68,26.87h-.15c.27.15.27.12.15,0Z"/>
  <path d="m283.8,27.49h-.04l.27.15-.23-.15Z"/>
  <path d="m284.14,26.95s.04.04.15.12h.12s-.19-.08-.27-.12Z"/>
  <path d="m282.46,27.67c-.34-.23-.58-.34-.77-.46,0,0,.15.12.77.46Z"/>
</svg>